<svg xmlns="http://www.w3.org/2000/svg" xmlns:xlink="http://www.w3.org/1999/xlink" fill="none" version="1.1" width="12.310302734375" height="12.5797119140625" viewBox="0 0 12.310302734375 12.5797119140625"><g><g><path d="M9.0604334375,2.28656C9.246053437499999,2.28656,9.404963437500001,2.17125,9.404963437500001,2.025L9.404963437500001,0.261562C9.404963437500001,0.115312,9.2516734375,0,9.0604334375,0C8.874803437499999,0,8.7215234375,0.115312,8.7215234375,0.261562L8.7215234375,2.02359C8.7215234375,2.17125,8.8691834375,2.28656,9.0604334375,2.28656ZM3.2498044375,2.28656C3.4354294375,2.28656,3.5887114374999998,2.17125,3.5887114374999998,2.025L3.5887114374999998,0.261562C3.5887114374999998,0.115312,3.4354294375,0,3.2498044375,0C3.0641794375,0,2.9052734375,0.115312,2.9052734375,0.261562L2.9052734375,2.02359C2.9052734375,2.17125,3.0585544375,2.28656,3.2498044375,2.28656Z" fill="#FFFFFF" fill-opacity="0.6000000238418579"/></g><g><path d="M12.3047,2.336636875C12.3047,1.665859875,11.6859,1.123046875,10.9195,1.123046875L9.78328,1.123046875L9.78328,2.030077875C9.78328,2.374606875,9.46406,2.655856875,9.0675,2.655856875C8.67094,2.655856875,8.35172,2.374606875,8.35172,2.030077875L8.35172,1.123046875L3.94594,1.123046875L3.94594,2.030077875C3.94594,2.374606875,3.62672,2.655856875,3.23016,2.655856875C2.83359,2.655856875,2.51437,2.374606875,2.51437,2.030077875L2.51437,1.123046875L1.39078,1.123046875C0.624375,1.123046875,0.00562513,1.665858875,0.00562513,2.336636875L0.00562513,3.575546875L12.3103,3.575546875L12.3103,2.336636875L12.3047,2.336636875ZM0,11.366146875C0,12.036946875,0.61875,12.579746875,1.38516,12.579746875L10.9125,12.579746875C11.6789,12.579746875,12.2977,12.036946875,12.2977,11.366146875L12.2977,4.195706875L0,4.195706875L0,11.366146875ZM3.3525,7.777426875C3.55641,7.598826875,3.89531,7.662106875,4.07391,7.867426875L5.55469,9.566166875L8.51766,6.163046875C8.69625,5.959136875,9.00985,5.926796875,9.23344,6.087106875C9.46266,6.253046875,9.39938,6.649606875,9.25313,6.795856875L5.88094,10.677106875C5.70234,10.881016875,5.41547,10.881016875,5.23547,10.677106875L3.35109,8.525546875C3.17953,8.320236874999999,3.13453,7.968666875,3.3525,7.777426875Z" fill="#FFFFFF" fill-opacity="0.6000000238418579"/></g></g></svg>