<svg xmlns="http://www.w3.org/2000/svg" xmlns:xlink="http://www.w3.org/1999/xlink" fill="none" version="1.1" width="10.75610637664795" height="12.671867370605469" viewBox="0 0 10.75610637664795 12.671867370605469"><g><path d="M9.37939,12.6719L1.37954,12.6719C0.61833,12.6719,2.83241e-7,12.062,2.83241e-7,11.3093L2.83241e-7,2.45343C2.83241e-7,1.70072,0.616883,1.0909,1.37954,1.0909L2.0686,1.0909L2.0686,0.749863C2.0686,0.33535,2.40817,0,2.82698,0C3.02787,0,3.22029,0.0777891,3.36323,0.219279C3.50609,0.359384,3.58534,0.550424,3.58534,0.749863L3.58534,1.09089L7.17075,1.09089L7.17075,0.749863C7.17075,0.550411,7.25137,0.359384,7.39286,0.219279C7.53573,0.0792363,7.72822,0,7.92912,0C8.34792,0,8.68749,0.33535,8.68749,0.749863L8.68749,1.09089L9.37657,1.09089C10.1378,1.09089,10.7561,1.70071,10.7561,2.45342L10.7561,11.3093C10.7589,12.0607,10.1406,12.6719,9.37939,12.6719ZM6.55242,3.47499L5.86335,3.47499L5.86335,2.79443C5.86335,2.53128,5.64689,2.31759,5.38083,2.31759C5.11486,2.31759,4.8984,2.53128,4.8984,2.79443L4.8984,3.47499L4.20933,3.47499C3.94335,3.47499,3.72683,3.68863,3.72683,3.95183C3.72683,4.07917,3.77782,4.19944,3.86832,4.28995C3.95889,4.37915,4.082,4.43005,4.20933,4.4286L4.8984,4.4286L4.8984,5.10918C4.8984,5.23651,4.94932,5.35679,5.03989,5.44737C5.13039,5.53649,5.25352,5.58747,5.38083,5.58602C5.50823,5.58602,5.63128,5.53649,5.72184,5.44737C5.81244,5.35816,5.86341,5.23632,5.86334,5.10918L5.86334,4.4286L6.5524,4.4286C6.67973,4.4286,6.80284,4.37915,6.89342,4.28995C6.98399,4.20076,7.03495,4.07894,7.03489,3.95183C7.03348,3.68723,6.8184,3.47499,6.55242,3.47499ZM8.62103,6.53972L2.0007,6.53972C1.88609,6.53972,1.79412,6.63167,1.79412,6.74346C1.79412,6.85661,1.88746,6.94719,2.0007,6.94719L8.62103,6.94719C8.73565,6.94719,8.8276,6.85524,8.8276,6.74346C8.8276,6.63166,8.73565,6.53972,8.62103,6.53972ZM8.62103,8.31118L2.0007,8.31118C1.88609,8.31118,1.79412,8.40314,1.79412,8.51492C1.79412,8.62808,1.88746,8.71866,2.0007,8.71866L8.62103,8.71866C8.73565,8.71866,8.8276,8.6267,8.8276,8.51492C8.8276,8.40314,8.73565,8.31118,8.62103,8.31118ZM8.62103,10.0826L2.0007,10.0826C1.88609,10.0826,1.79412,10.1746,1.79412,10.2864C1.79412,10.3995,1.88746,10.4901,2.0007,10.4901L8.62103,10.4901C8.73565,10.4901,8.8276,10.3982,8.8276,10.2864C8.8276,10.1746,8.73565,10.0826,8.62103,10.0826Z" fill="#FFFFFF" fill-opacity="0.6000000238418579"/></g></svg>