<svg xmlns="http://www.w3.org/2000/svg" xmlns:xlink="http://www.w3.org/1999/xlink" fill="none" version="1.1" width="16" height="16" viewBox="0 0 16 16"><g><g><path d="M8,1.60699e-8C3.5818,-0.000277023,1.60656e-8,3.58153,1.60656e-8,8C-0.000277023,12.4182,3.58153,16,8,16C12.4182,16.0003,16,12.4178,16,7.9985C16.0008,3.58129,12.4189,1.60699e-8,8,1.60699e-8ZM8,14.7987C4.24355,14.7987,1.19835,11.7541,1.19835,7.9985C1.19835,4.24288,4.24288,1.19835,7.9985,1.19835C11.7541,1.19835,14.7987,4.24221,14.7987,7.997C14.7995,11.7544,11.7529,14.8003,7.9955,14.7987L8,14.7987Z" fill="#4E5969" fill-opacity="1"/></g><g><path d="M7.70050234375,4.94580097265625C6.76557234375,4.49378497265625,5.67990440375,5.17569497265625,5.68115234375,6.21416197265625L5.68115234375,9.887261972656251C5.75751204375,10.924581972656249,6.89261234375,11.52476197265625,7.79289234375,11.00384197265625L10.88394234375,9.21811197265625L10.981612343750001,9.15739197265625C11.83075234375,8.56906197265625,11.77848234375,7.29706197265625,10.88394234375,6.7803719726562495L7.79289234375,4.99463597265625L7.70050234375,4.94580097265625Z" fill="#4E5969" fill-opacity="1"/></g></g></svg>