<svg xmlns="http://www.w3.org/2000/svg" xmlns:xlink="http://www.w3.org/1999/xlink" fill="none" version="1.1" width="38" height="38" viewBox="0 0 38 38"><defs><clipPath id="master_svg0_237_37235/237_37099"><rect x="0" y="0" width="38" height="38" rx="0"/></clipPath></defs><g clip-path="url(#master_svg0_237_37235/237_37099)"><g><ellipse cx="19.000001907348633" cy="19.000001907348633" rx="19.000001907348633" ry="19.000001907348633" fill="#3E88EA" fill-opacity="1"/></g><g><path d="M26.740040283203125,16.18339111328125L26.740040283203125,24.783391113281247C26.740040283203125,25.73329111328125,25.969940283203123,26.50339111328125,25.020040283203123,26.50339111328125L12.980040283203126,26.50339111328125C12.030111283203125,26.50339111328125,11.260040436983125,25.73329111328125,11.260040283203125,24.783391113281247L11.260040283203125,16.18339111328125L26.740040283203125,16.18339111328125ZM21.253240283203127,18.13043111328125L21.178420283203124,18.20783111328125L18.196800283203125,21.73639111328125L17.071920283203127,20.42919111328125L16.996240283203125,20.35179111328125C16.674710283203126,20.05913111328125,16.185310283203126,20.05247111328125,15.855940283203125,20.33629111328125C15.526570283203124,20.620091113281248,15.460840283203126,21.10509111328125,15.702800283203125,21.46639111328125L15.768160283203125,21.55239111328125L17.552660283203124,23.623291113281248L17.625760283203125,23.69809111328125C17.953990283203126,23.99709111328125,18.455950283203123,23.99709111328125,18.784180283203124,23.69809111328125L18.861580283203125,23.61639111328125L22.492540283203127,19.31809111328125L22.557040283203126,19.23209111328125C22.794140283203127,18.86861111328125,22.723240283203126,18.38544111328125,22.391740283203127,18.10534111328125C22.060240283203125,17.82525111328125,21.572040283203123,17.836011113281252,21.253240283203127,18.13043111328125ZM23.300040283203124,10.16339111328125C23.775040283203126,10.16339111328125,24.160040283203124,10.54842611328125,24.160040283203124,11.02339111328125L24.160040283203124,11.88339111328125L25.020040283203123,11.88339111328125C25.969940283203123,11.88339111328125,26.740040283203125,12.65346111328125,26.740040283203125,13.60339111328125L26.740040283203125,14.89339111328125L11.260040436983125,14.89339111328125L11.260040436983125,13.60339111328125C11.260040283203125,12.65346111328125,12.030110283203125,11.88339111328125,12.980040283203126,11.88339111328125L13.840040283203125,11.88339111328125L13.840040283203125,11.02339111328125C13.840040283203125,10.54842611328125,14.225080283203125,10.16339111328125,14.700040283203125,10.16339111328125C15.175010283203125,10.16339111328125,15.560040283203126,10.54842611328125,15.560040283203126,11.02339111328125L15.560040283203126,11.88339111328125L22.440040283203125,11.88339111328125L22.440040283203125,11.02339111328125C22.440040283203125,10.54842611328125,22.825040283203123,10.16339111328125,23.300040283203124,10.16339111328125Z" fill="#FFFFFF" fill-opacity="1"/></g></g></svg>