<svg xmlns="http://www.w3.org/2000/svg" xmlns:xlink="http://www.w3.org/1999/xlink" fill="none" version="1.1" width="38" height="38" viewBox="0 0 38 38"><defs><clipPath id="master_svg0_2976_95142"><rect x="0" y="0" width="38" height="38" rx="0"/></clipPath></defs><g clip-path="url(#master_svg0_2976_95142)"><g><ellipse cx="19.000001907348633" cy="19.000001907348633" rx="19.000001907348633" ry="19.000001907348633" fill="#744AE3" fill-opacity="1"/></g><g><path d="M17.415627421875,15.78423861328125L17.415627421875,14.174748613281249L20.569007421875,14.174748613281249L20.569007421875,15.78423861328125L27.430807421875,15.78423861328125C27.439307421875,15.67041861328125,27.443907421875,15.555798613281251,27.443907421875,15.44053861328125C27.443907421875,12.93947861328125,25.410007421875,10.90557861328125,22.908907421875,10.90557861328125C20.649707421875,10.90557861328125,19.420907421875,11.85310361328125,18.714477421875,11.85310361328125C18.008047421875,11.85310361328125,16.779207421875,10.90557861328125,14.520067421875,10.90557861328125C12.019007421875,10.90557861328125,9.985107421875,12.93947861328125,9.985107421875,15.44053861328125C9.985107421875,15.555798613281251,9.989659571875,15.67041861328125,9.998202521875,15.78423861328125L17.415627421875,15.78423861328125ZM20.568907421875,17.51250861328125L20.568907421875,19.12325861328125L17.415487421875,19.12325861328125L17.415487421875,17.51250861328125L10.484619421875,17.51250861328125C10.738789421875,18.00656861328125,11.085107421875,18.45485861328125,11.512547421875,18.833458613281252C11.529257421875,20.968578613281252,11.873657421875,23.415278613281252,12.439697421875,25.41517861328125C12.909257421875001,27.07557861328125,13.712667421875,29.05697861328125,14.874357421875,29.05697861328125C15.840187421875001,29.05697861328125,16.160227421875,27.72467861328125,16.564327421875,26.03947861328125C16.990897421875,24.260178613281248,17.475727421875,22.242978613281252,18.677047421875002,22.242978613281252C18.689607421875,22.242978613281252,18.701947421874998,22.24357861328125,18.714337421875,22.24397861328125C18.726727421874998,22.24357861328125,18.739077421875002,22.242978613281252,18.751627421875,22.242978613281252C19.952947421875002,22.242978613281252,20.437807421875,24.260178613281248,20.864307421875,26.03947861328125C21.268407421875,27.72467861328125,21.588507421875,29.05697861328125,22.554307421875002,29.05697861328125C23.716007421875,29.05697861328125,24.519407421875,27.07557861328125,24.989007421875,25.41517861328125C25.555007421875,23.415278613281252,25.899407421875,20.968578613281252,25.916107421874997,18.833458613281252C26.343607421875,18.45485861328125,26.689907421875,18.00656861328125,26.944107421875,17.51250861328125L20.568907421875,17.51250861328125Z" fill="#FFFFFF" fill-opacity="1"/></g></g></svg>