<svg xmlns="http://www.w3.org/2000/svg" xmlns:xlink="http://www.w3.org/1999/xlink" fill="none" version="1.1" width="56" height="56" viewBox="0 0 56 56"><defs><clipPath id="master_svg0_17039_089130"><rect x="0" y="0" width="56" height="56" rx="12"/></clipPath><clipPath id="master_svg1_17039_089131"><rect x="9.999996185302734" y="10" width="36.000003814697266" height="36.000003814697266" rx="0"/></clipPath></defs><g clip-path="url(#master_svg0_17039_089130)"><rect x="0" y="0" width="56" height="56" rx="12" fill="#E8E2FA" fill-opacity="1"/><g><g clip-path="url(#master_svg1_17039_089131)"><g><path d="M44.36359618530273,35.363600000000005C45.19319618530273,35.3637,45.891496185302735,35.984700000000004,45.988496185302736,36.808499999999995L45.999996185302734,37L45.999996185302734,41.090900000000005C46.000196185302734,43.6904,43.973896185302735,45.8393,41.378896185302736,45.9918L41.09089618530274,46L35.36359618530274,46C34.497896185302736,45.9991,33.78259618530274,45.3238,33.73189618530273,44.4596C33.68119618530274,43.5952,34.312496185302734,42.841,35.17219618530274,42.7387L35.36359618530274,42.7273L41.09089618530274,42.7273C41.92049618530274,42.7272,42.618796185302735,42.1063,42.715796185302736,41.282399999999996L42.727296185302734,41.090900000000005L42.727296185302734,37C42.727296185302734,36.0963,43.45989618530273,35.363600000000005,44.36359618530273,35.363600000000005ZM11.636356185302734,35.363600000000005C12.465956185302733,35.3637,13.164206185302735,35.984700000000004,13.261266185302734,36.808499999999995L13.272726185302734,37L13.272726185302734,41.090900000000005C13.272836185302735,41.920500000000004,13.893736185302735,42.6188,14.717636185302734,42.7158L14.909086185302733,42.7273L20.636396185302736,42.7273C21.502196185302736,42.7282,22.217396185302732,43.4034,22.268096185302735,44.2678C22.318796185302734,45.132,21.687596185302734,45.8863,20.827796185302734,45.9885L20.636396185302736,46L14.909086185302733,46C12.309626185302735,46.0002,10.160679185302735,43.9739,10.008178005302735,41.3789L9.999996185302734,41.090900000000005L9.999996185302734,37C9.999996077568735,36.0963,10.732621185302735,35.363600000000005,11.636356185302734,35.363600000000005ZM41.09089618530274,10C43.69039618530273,9.99985492,45.839296185302736,12.02611,45.99179618530273,14.621089999999999L45.999996185302734,14.909089999999999L45.999996185302734,20.636400000000002C45.99909618530273,21.502200000000002,45.32379618530273,22.217399999999998,44.459596185302736,22.2681C43.59519618530273,22.3188,42.840996185302735,21.6876,42.738696185302736,20.8278L42.727296185302734,20.636400000000002L42.727296185302734,14.909089999999999C42.72719618530274,14.0795,42.10629618530273,13.38124,41.28239618530273,13.28418L41.09089618530274,13.27273L35.36359618530274,13.27273C34.497896185302736,13.27177,33.78259618530274,12.59656,33.73189618530273,11.73226C33.68119618530274,10.867962,34.312496185302734,10.113714,35.17219618530274,10.0114546L35.36359618530274,10L41.09089618530274,10ZM20.636396185302736,10C21.502196185302736,10.000959437,22.217396185302732,10.676162,22.268096185302735,11.54046C22.318796185302734,12.40477,21.687596185302734,13.15902,20.827796185302734,13.26127L20.636396185302736,13.27273L14.909086185302733,13.27273C14.079496185302734,13.27284,13.381236185302734,13.893740000000001,13.284176185302734,14.71764L13.272726185302734,14.909089999999999L13.272726185302734,20.636400000000002C13.271766185302734,21.502200000000002,12.596556185302735,22.217399999999998,11.732256185302735,22.2681C10.867958185302735,22.3188,10.113709185302735,21.6876,10.011450785302735,20.8278L9.999996185302734,20.636400000000002L9.999996185302734,14.909089999999999C9.999850612302735,12.30963,12.026106185302734,10.160684,14.621086185302733,10.00818181L14.909086185302733,10L20.636396185302736,10Z" fill="#9372F3" fill-opacity="1"/></g></g><g><path d="M29.501642783203124,19.952615121154786C29.735182783203125,19.898988121154787,29.972172783203124,19.833252121154786,30.212622783203123,19.767517121154786C30.814622783203127,19.599718121154787,31.435652783203125,19.428460121154785,32.112052783203126,19.428460121154785C34.24845278320313,19.428460121154785,35.98525278320312,21.165260121154784,35.98525278320312,23.299940121154783C35.98525278320312,24.413980121154786,35.512952783203126,25.460560121154785,34.680952783203125,26.197490121154786C34.667052783203125,28.020790121154786,34.372952783203125,30.108760121154788,33.88865278320313,31.816160121154788C33.487252783203125,33.23296012115479,32.80225278320312,34.92476012115478,31.809352783203124,34.92476012115478C30.984152783203125,34.92476012115478,30.710832783203124,33.788260121154785,30.366582783203125,32.34896012115479C30.001572783203123,30.830160121154783,29.588132783203125,29.107160121154784,28.562312783203126,29.107160121154784C27.536502783203126,29.107160121154784,27.123052783203125,30.830160121154783,26.758052783203127,32.34896012115479C26.412072783203126,33.788260121154785,26.140482783203126,34.92476012115478,25.315332783203125,34.92476012115478C23.613122783203124,34.92476012115478,22.476592783203124,29.729960121154786,22.445452783203123,26.195770121154787C21.615110783203125,25.458830121154783,21.142852783203125,24.412250121154784,21.142852783203125,23.299940121154783C21.142852519244126,21.165260121154784,22.879652783203124,19.428460121154785,25.014332783203123,19.428460121154785C25.893112783203126,19.428460121154785,26.510672783203127,19.618747121154787,27.059042783203125,19.788276121154784C27.410212783203125,19.897258121154785,27.747542783203123,20.001051121154784,28.133312783203124,20.047758121154786C27.778682783203124,20.312430121154787,27.437892783203125,20.520020121154786,27.117862783203126,20.653220121154785C26.756322783203125,20.803720121154786,26.443212783203126,20.853880121154784,26.185462783203125,20.798530121154784C25.965762783203125,20.751820121154786,25.749522783203126,20.891940121154786,25.701092783203123,21.113370121154784C25.654382783203125,21.334790121154786,25.794502783203125,21.551030121154785,26.015932783203127,21.597730121154786C26.455322783203126,21.691150121154784,26.931042783203125,21.616760121154783,27.432702783203126,21.407450121154785C27.977612783203124,21.179100121154786,28.541562783203126,20.798530121154784,29.114152783203124,20.303780121154784C29.247352783203127,20.189608121154784,29.377092783203125,20.071976121154783,29.501642783203124,19.952615121154786Z" fill="#9372F3" fill-opacity="1"/></g></g></g></svg>