<svg xmlns="http://www.w3.org/2000/svg" xmlns:xlink="http://www.w3.org/1999/xlink" fill="none" version="1.1" width="38" height="38" viewBox="0 0 38 38"><defs><clipPath id="master_svg0_86_20868"><rect x="0" y="0" width="38" height="38" rx="0"/></clipPath></defs><g clip-path="url(#master_svg0_86_20868)"><g><ellipse cx="19.000001907348633" cy="19.000001907348633" rx="19.000001907348633" ry="19.000001907348633" fill="#F9B733" fill-opacity="1"/></g><g><path d="M12.249822343750001,10.899848310546876L12.249822343750001,13.600018310546876L10.89990234375,13.600018310546876L10.89990234375,10.224934310546875C10.89990234375,9.852188310546875,11.20211034375,9.550018310546875,11.57490234375,9.550018310546875L14.94990234375,9.550018310546875L14.94990234375,10.899848310546876L12.249822343750001,10.899848310546876ZM25.750002343749998,10.899848310546876L23.05090234375,10.899848310546876L23.05090234375,9.550018310546875L26.425002343750002,9.550018310546875C26.79780234375,9.550111812346875,27.09990234375,9.852254310546876,27.09990234375,10.224934310546875L27.09990234375,13.600018310546876L25.750002343749998,13.600018310546876L25.750002343749998,10.899848310546876ZM25.75090234375,17.650018310546876L27.10090234375,17.650018310546876L27.10090234375,21.026718310546876C27.10090234375,21.399518310546874,26.79870234375,21.701718310546873,26.42590234375,21.701718310546873L23.05090234375,21.701718310546873L23.05090234375,20.351918310546875L25.75090234375,20.351918310546875L25.75090234375,17.650018310546876ZM12.24990234375,20.351918310546875L14.94990234375,20.351918310546875L14.94990234375,21.701618310546877L11.57490234375,21.701618310546877C11.20209634375,21.701618310546877,10.89990234375,21.399418310546874,10.89990234375,21.026718310546876L10.90049296575,17.650018310546876L12.25041234375,17.650018310546876L12.249822343750001,20.351918310546875L12.24990234375,20.351918310546875ZM26.76510234375,24.879718310546878C26.97250234375,25.000618310546876,27.10000234375,25.222618310546874,27.10000234375,25.462718310546876L27.10000234375,27.775018310546876C27.10000234375,28.147818310546874,26.79780234375,28.450018310546874,26.425002343750002,28.450018310546874L11.57490234375,28.450018310546874C11.20211034375,28.450018310546874,10.89990234375,28.147818310546874,10.89990234375,27.775018310546876L10.89990234375,25.462718310546876C10.89990878105,25.222618310546874,11.02742134375,25.000618310546876,11.23478734375,24.879718310546878L17.31400234375,21.333518310546875C15.91878234375,20.693918310546877,14.94990234375,19.285118310546874,14.94990234375,17.650018310546876L14.94990234375,14.950018310546875C14.94990234375,12.713238310546874,16.76312234375,10.900018310546875,18.99990234375,10.900018310546875C21.23670234375,10.900018310546875,23.04990234375,12.713238310546874,23.04990234375,14.950018310546875L23.04990234375,17.650018310546876C23.04990234375,19.285208310546874,22.080902343749997,20.693918310546877,20.685882343750002,21.333518310546875L26.765002343749998,24.879718310546878L26.76510234375,24.879718310546878Z" fill="#FFFFFF" fill-opacity="1"/></g></g></svg>