<svg xmlns="http://www.w3.org/2000/svg" xmlns:xlink="http://www.w3.org/1999/xlink" fill="none" version="1.1" width="16" height="16" viewBox="0 0 16 16"><defs><clipPath id="master_svg0_14822_15266/14822_14309"><rect x="0" y="0" width="16" height="16" rx="0"/></clipPath></defs><g clip-path="url(#master_svg0_14822_15266/14822_14309)"><g><path d="M1.5,12.666656494140625L1.5,4.666656494140625Q1.5,3.631122494140625,2.232233,2.898889494140625Q2.964466,2.166656494140625,4,2.166656494140625L12,2.166656494140625Q13.0355,2.166656494140625,13.7678,2.898889494140625Q14.5,3.631121494140625,14.5,4.666656494140625L14.5,12.666656494140625Q14.5,13.702156494140626,13.7678,14.434456494140624Q13.0355,15.166656494140625,12,15.166656494140625L4,15.166656494140625Q2.964465,15.166656494140625,2.232233,14.434456494140624Q1.5,13.702156494140626,1.5,12.666656494140625ZM2.5,12.666656494140625Q2.5,13.287956494140625,2.93934,13.727356494140626Q3.37868,14.166656494140625,4,14.166656494140625L12,14.166656494140625Q12.6213,14.166656494140625,13.0607,13.727356494140626Q13.5,13.287956494140625,13.5,12.666656494140625L13.5,4.666656494140625Q13.5,4.045336494140625,13.0607,3.605996494140625Q12.6213,3.166656494140625,12,3.166656494140625L4,3.166656494140625Q3.37868,3.166656494140625,2.93934,3.605996494140625Q2.5,4.045336494140625,2.5,4.666656494140625L2.5,12.666656494140625Z" fill="#4E5969" fill-opacity="1"/></g><g transform="matrix(0,1,-1,0,11.555572509765625,-8.888885498046875)"><line x1="10.22222900390625" y1="0.833343505859375" x2="12.888895750045776" y2="0.833343505859375" fill-opacity="0" stroke-opacity="1" stroke="#4E5969" fill="none" stroke-width="1" stroke-linecap="ROUND" stroke-linejoin="round"/></g><g transform="matrix(0,1,-1,0,6.222198486328125,-3.555511474609375)"><line x1="4.88885498046875" y1="0.833343505859375" x2="7.555521726608276" y2="0.833343505859375" fill-opacity="0" stroke-opacity="1" stroke="#4E5969" fill="none" stroke-width="1" stroke-linecap="ROUND" stroke-linejoin="round"/></g><g><line x1="2" y1="6.611114501953125" x2="14.000000953674316" y2="6.611114501953125" fill-opacity="0" stroke-opacity="1" stroke="#4E5969" fill="none" stroke-width="1" stroke-linecap="ROUND" stroke-linejoin="round"/></g><g><path d="" fill="#4E5969" fill-opacity="1"/><path d="M5,8.5L7,8.5Q7.04925,8.5,7.09754,8.509607Q7.14584,8.519214999999999,7.19134,8.53806Q7.23684,8.556906,7.27778,8.584265Q7.31873,8.611625,7.35355,8.646447Q7.38838,8.681269,7.41573,8.722215Q7.44309,8.763161,7.46194,8.808658Q7.48078,8.854155,7.49039,8.9024549Q7.5,8.9507543,7.5,9Q7.5,9.0492457,7.49039,9.0975451Q7.48078,9.145845,7.46194,9.191342Q7.44309,9.236839,7.41573,9.277785Q7.38838,9.318731,7.35355,9.353553Q7.31873,9.388375,7.2777899999999995,9.415735Q7.23684,9.443094,7.19134,9.46194Q7.14584,9.480785000000001,7.09754,9.490393Q7.04925,9.5,7,9.5L5,9.5Q4.9507543,9.5,4.9024549,9.490393Q4.854155,9.480785000000001,4.808658,9.46194Q4.763161,9.443094,4.722215,9.415735Q4.681269,9.388375,4.646447,9.353553Q4.611625,9.318731,4.584265,9.277785Q4.556906,9.236839,4.53806,9.191342Q4.519215,9.145845,4.509607,9.0975451Q4.5,9.0492457,4.5,9Q4.5,8.9507543,4.509607,8.9024549Q4.519215,8.854155,4.53806,8.808658Q4.556906,8.763161,4.584265,8.722215Q4.611625,8.681269,4.646447,8.646447Q4.681269,8.611625,4.722215,8.584265Q4.763161,8.556906,4.808658,8.53806Q4.854155,8.519214999999999,4.9024549,8.509607Q4.9507543,8.5,5,8.5Z" fill-rule="evenodd" fill="#4E5969" fill-opacity="1"/></g><g><path d="" fill="#4E5969" fill-opacity="1"/><path d="M5,11.5L7,11.5Q7.04925,11.5,7.09754,11.509607Q7.14584,11.519214999999999,7.19134,11.53806Q7.23684,11.556906,7.27778,11.584265Q7.31873,11.611625,7.35355,11.646447Q7.38838,11.681269,7.41573,11.722215Q7.44309,11.763161,7.46194,11.808658Q7.48078,11.854155,7.49039,11.9024549Q7.5,11.9507543,7.5,12Q7.5,12.0492457,7.49039,12.0975451Q7.48078,12.145845,7.46194,12.191342Q7.44309,12.236839,7.41573,12.277785Q7.38838,12.318731,7.35355,12.353553Q7.31873,12.388375,7.2777899999999995,12.415735Q7.23684,12.443094,7.19134,12.46194Q7.14584,12.480785000000001,7.09754,12.490393Q7.04925,12.5,7,12.5L5,12.5Q4.9507543,12.5,4.9024549,12.490393Q4.854155,12.480785000000001,4.808658,12.46194Q4.763161,12.443094,4.722215,12.415735Q4.681269,12.388375,4.646447,12.353553Q4.611625,12.318731,4.584265,12.277785Q4.556906,12.236839,4.53806,12.191342Q4.519215,12.145845,4.509607,12.0975451Q4.5,12.0492457,4.5,12Q4.5,11.9507543,4.509607,11.9024549Q4.519215,11.854155,4.53806,11.808658Q4.556906,11.763161,4.584265,11.722215Q4.611625,11.681269,4.646447,11.646447Q4.681269,11.611625,4.722215,11.584265Q4.763161,11.556906,4.808658,11.53806Q4.854155,11.519214999999999,4.9024549,11.509607Q4.9507543,11.5,5,11.5Z" fill-rule="evenodd" fill="#4E5969" fill-opacity="1"/></g><g><path d="M9,8.5L11,8.5Q11.04925,8.5,11.09754,8.509607Q11.14584,8.519214999999999,11.19134,8.53806Q11.23684,8.556906,11.27778,8.584265Q11.31873,8.611625,11.35355,8.646447Q11.38838,8.681269,11.41573,8.722215Q11.44309,8.763161,11.46194,8.808658Q11.48078,8.854155,11.49039,8.9024549Q11.5,8.9507543,11.5,9Q11.5,9.0492457,11.49039,9.0975451Q11.48078,9.145845,11.46194,9.191342Q11.44309,9.236839,11.41573,9.277785Q11.38838,9.318731,11.35355,9.353553Q11.31873,9.388375,11.27779,9.415735Q11.23684,9.443094,11.19134,9.46194Q11.14584,9.480785000000001,11.09754,9.490393Q11.04925,9.5,11,9.5L9,9.5Q8.9507543,9.5,8.9024549,9.490393Q8.854155,9.480785000000001,8.808658,9.46194Q8.763161,9.443094,8.722215,9.415735Q8.681269,9.388375,8.646447,9.353553Q8.611625,9.318731,8.584265,9.277785Q8.556906,9.236839,8.53806,9.191342Q8.519214999999999,9.145845,8.509607,9.0975451Q8.5,9.0492457,8.5,9Q8.5,8.9507543,8.509607,8.9024549Q8.519214999999999,8.854155,8.53806,8.808658Q8.556906,8.763161,8.584265,8.722215Q8.611625,8.681269,8.646447,8.646447Q8.681269,8.611625,8.722215,8.584265Q8.763161,8.556906,8.808658,8.53806Q8.854155,8.519214999999999,8.9024549,8.509607Q8.9507543,8.5,9,8.5Z" fill-rule="evenodd" fill="#4E5969" fill-opacity="1"/></g><g><path d="M9,11.5L11,11.5Q11.04925,11.5,11.09754,11.509607Q11.14584,11.519214999999999,11.19134,11.53806Q11.23684,11.556906,11.27778,11.584265Q11.31873,11.611625,11.35355,11.646447Q11.38838,11.681269,11.41573,11.722215Q11.44309,11.763161,11.46194,11.808658Q11.48078,11.854155,11.49039,11.9024549Q11.5,11.9507543,11.5,12Q11.5,12.0492457,11.49039,12.0975451Q11.48078,12.145845,11.46194,12.191342Q11.44309,12.236839,11.41573,12.277785Q11.38838,12.318731,11.35355,12.353553Q11.31873,12.388375,11.27779,12.415735Q11.23684,12.443094,11.19134,12.46194Q11.14584,12.480785000000001,11.09754,12.490393Q11.04925,12.5,11,12.5L9,12.5Q8.9507543,12.5,8.9024549,12.490393Q8.854155,12.480785000000001,8.808658,12.46194Q8.763161,12.443094,8.722215,12.415735Q8.681269,12.388375,8.646447,12.353553Q8.611625,12.318731,8.584265,12.277785Q8.556906,12.236839,8.53806,12.191342Q8.519214999999999,12.145845,8.509607,12.0975451Q8.5,12.0492457,8.5,12Q8.5,11.9507543,8.509607,11.9024549Q8.519214999999999,11.854155,8.53806,11.808658Q8.556906,11.763161,8.584265,11.722215Q8.611625,11.681269,8.646447,11.646447Q8.681269,11.611625,8.722215,11.584265Q8.763161,11.556906,8.808658,11.53806Q8.854155,11.519214999999999,8.9024549,11.509607Q8.9507543,11.5,9,11.5Z" fill-rule="evenodd" fill="#4E5969" fill-opacity="1"/></g></g></svg>