<svg xmlns="http://www.w3.org/2000/svg" xmlns:xlink="http://www.w3.org/1999/xlink" fill="none" version="1.1" width="13.237560272216797" height="13.71426773071289" viewBox="0 0 13.237560272216797 13.71426773071289"><g><path d="M12.2208,12.3472C12.5983,12.3472,12.9043,12.6533,12.9043,13.0307C12.9043,13.4082,12.5983,13.7143,12.2208,13.7143L0.68352,13.7143C0.306022,13.7143,5.30481e-8,13.4082,0,13.0307L0,9.68549C-0.0000289112,9.50014,0.0752105,9.32273,0.208474,9.19392L9.16999,0.533724C9.88177,-0.177908,11.0356,-0.177908,11.7474,0.533724L12.7044,1.49065C13.4162,2.20339,13.4152,3.35832,12.7021,4.0698L5.32291,11.3937C5.05489,11.6597,4.62199,11.658,4.35602,11.39C4.09003,11.122,4.09169,10.6891,4.35972,10.4231L11.7372,3.10148C11.9154,2.92349,11.9154,2.63469,11.7372,2.45669L10.7808,1.50034C10.5989,1.32071,10.3052,1.32455,10.1281,1.50888L1.36704,9.97541L1.36704,12.3478L12.2208,12.3478L12.2208,12.3472Z" fill="#2E6CE4" fill-opacity="1"/></g></svg>