<svg xmlns="http://www.w3.org/2000/svg" xmlns:xlink="http://www.w3.org/1999/xlink" fill="none" version="1.1" width="20" height="20" viewBox="0 0 20 20"><defs><clipPath id="master_svg0_14768_34364"><rect x="0" y="0" width="20" height="20" rx="0"/></clipPath></defs><g clip-path="url(#master_svg0_14768_34364)"><g><path d="M9.99919875,18.331201171875C5.398088749999999,18.331201171875,1.66796875,14.601001171875,1.66796875,9.999901171875C1.66796875,5.398781171875,5.398088749999999,1.668701171875,9.99919875,1.668701171875C14.60136875,1.668701171875,18.33046875,5.398781171875,18.33046875,9.999911171875C18.33046875,14.601001171875,14.60136875,18.331201171875,9.99919875,18.331201171875ZM13.81986875,7.571091171875C13.97656875,7.414281171875,13.97656875,7.159681171875,13.81986875,7.002991171875L12.96886875,6.152991171875C12.81206875,5.996231171875,12.55856875,5.996231171875,12.40186875,6.152991171875L9.99187875,8.562951171875L7.58192875,6.152991171875C7.42516875,5.996231171875,7.17162875,5.996231171875,7.01490875,6.152991171875L6.16387875,7.002991171875C6.00715875,7.159671171875,6.00715875,7.414271171875,6.16387875,7.571091171875L8.57383875,9.980971171875L6.16387875,12.390901171875C6.00715875,12.547601171875,6.00715875,12.801201171875,6.16387875,12.957901171875L7.01490875,13.808901171875C7.17162875,13.964601171875,7.42516875,13.964601171875,7.58192875,13.808901171875L9.99187875,11.398961171875L12.40186875,13.808901171875C12.55866875,13.964601171875,12.81206875,13.964601171875,12.96886875,13.808901171875L13.81986875,12.958001171875C13.97656875,12.801201171875,13.97656875,12.547601171875,13.81986875,12.390901171875L11.40989875,9.980991171875L13.81986875,7.571091171875Z" fill="#F76560" fill-opacity="1"/></g></g></svg>