<svg xmlns="http://www.w3.org/2000/svg" xmlns:xlink="http://www.w3.org/1999/xlink" fill="none" version="1.1" width="16" height="16" viewBox="0 0 16 16"><defs><clipPath id="master_svg0_2451_81794"><rect x="0" y="0" width="16" height="16" rx="0"/></clipPath></defs><g clip-path="url(#master_svg0_2451_81794)"><g><g><ellipse cx="7.999853610992432" cy="8.000036716461182" rx="6.650000095367432" ry="6.650000095367432" fill="#23C343" fill-opacity="1"/></g><g><path d="M7.999850407524109,2.373113512992859C8.991170407524109,2.373113512992859,9.91777040752411,2.6179785129928588,10.779670407524108,3.1077095129928587C11.641570407524108,3.597443512992859,12.326240407524109,4.268103512992859,12.833630407524108,5.119693512992859C13.341130407524108,5.9712835129928585,13.60513040752411,6.892633512992859,13.625530407524108,7.883733512992859C13.646030407524108,8.874833512992858,13.420430407524108,9.806303512992859,12.948630407524108,10.67814351299286C12.476830407524108,11.549983512992858,11.82041040752411,12.248363512992858,10.979490407524109,12.773313512992859C10.13857040752411,13.29821351299286,9.222880407524109,13.581213512992859,8.232410407524108,13.62211351299286C7.241940407524109,13.663113512992858,6.306010407524109,13.45671351299286,5.424610407524109,13.00311351299286C4.543200407524109,12.549413512992858,3.831400407524109,11.90759351299286,3.2891994075241087,11.077693512992859L7.999850407524109,8.000033512992859L7.999850407524109,2.373113512992859Z" fill="#23C343" fill-opacity="1"/></g></g></g></svg>