<svg xmlns="http://www.w3.org/2000/svg" xmlns:xlink="http://www.w3.org/1999/xlink" fill="none" version="1.1" width="20" height="20" viewBox="0 0 20 20"><defs><clipPath id="master_svg0_14768_34363"><rect x="0" y="0" width="20" height="20" rx="0"/></clipPath></defs><g clip-path="url(#master_svg0_14768_34363)"><g><path d="M10,1.25C12.4742,1.315,14.5347,2.1710409999999998,16.1819,3.81813C17.829,5.46521,18.685,7.52584,18.75,10C18.685,12.4742,17.829,14.5347,16.1819,16.1819C14.5347,17.829,12.4742,18.685,10,18.75C7.52584,18.685,5.46521,17.829,3.81813,16.1819C2.1710409999999998,14.5347,1.315,12.4742,1.25,10C1.315,7.52584,2.1710409999999998,5.46521,3.81813,3.81813C5.46521,2.1710409999999998,7.52584,1.315,10,1.25C10,1.25,10,1.25,10,1.25C10,1.25,10,1.25,10,1.25ZM8.90625,11.7188C8.90625,11.7188,6.9725,9.785,6.9725,9.785C6.81625,9.64166,6.63729,9.57,6.43563,9.57C6.23396,9.57,6.05813,9.64479,5.90812,9.79437C5.75812,9.94396,5.68334,10.11646,5.68375,10.31187C5.68416,10.50729,5.75584,10.68313,5.89875,10.83938C5.89875,10.83938,8.37937,13.32,8.37937,13.32C8.52271,13.4633,8.698540000000001,13.535,8.906880000000001,13.535C9.115210000000001,13.535,9.29104,13.4633,9.43437,13.32C9.43437,13.32,14.5712,8.18313,14.5712,8.18313C14.7666,7.98771,14.8285,7.75,14.7569,7.47C14.6853,7.19,14.5094,7.01416,14.2294,6.9425C13.9494,6.87084,13.7117,6.93271,13.5162,7.12812C13.5162,7.12812,8.90625,11.7188,8.90625,11.7188C8.90625,11.7188,8.90625,11.7188,8.90625,11.7188Z" fill="#23C343" fill-opacity="1"/></g></g></svg>