<svg xmlns="http://www.w3.org/2000/svg" xmlns:xlink="http://www.w3.org/1999/xlink" fill="none" version="1.1" width="44" height="44" viewBox="0 0 44 44"><g><g><path d="M1,21.5L43,21.5Q43.0985,21.5,43.1951,21.519215Q43.2917,21.538429999999998,43.3827,21.576121Q43.4737,21.613812,43.5556,21.66853Q43.6375,21.723249,43.7071,21.792893Q43.7767,21.862537,43.8315,21.94443Q43.8862,22.026322,43.9239,22.117317Q43.9616,22.208311,43.9808,22.30491Q44,22.4015086,44,22.5Q44,22.5984914,43.9808,22.69509Q43.9616,22.791689,43.9239,22.882683Q43.8862,22.973678,43.8315,23.05557Q43.7767,23.137463,43.7071,23.207107Q43.6375,23.276751,43.5556,23.33147Q43.4737,23.386188,43.3827,23.423879Q43.2917,23.461570000000002,43.1951,23.480785Q43.0985,23.5,43,23.5L1,23.5Q0.9015086,23.5,0.80491,23.480785Q0.708311,23.461570000000002,0.617317,23.423879Q0.526322,23.386188,0.44443,23.33147Q0.362537,23.276751,0.29289299999999996,23.207107Q0.22324900000000003,23.137463,0.16852999999999996,23.05557Q0.11381200000000002,22.973678,0.076121,22.882683Q0.038429999999999964,22.791689,0.019214999999999982,22.69509Q0,22.5984914,0,22.5Q0,22.4015086,0.019214999999999982,22.30491Q0.038429999999999964,22.208311,0.076121,22.117317Q0.11381200000000002,22.026322,0.16852999999999996,21.94443Q0.22324900000000003,21.862537,0.29289299999999996,21.792893Q0.362537,21.723249,0.44443,21.66853Q0.526322,21.613812,0.617317,21.576121Q0.708311,21.538429999999998,0.80491,21.519215Q0.9015086,21.5,1,21.5Z" fill-rule="evenodd" fill="#4E5969" fill-opacity="1"/></g><g transform="matrix(0,1,1,0,21.5,-21.5)"><path d="M22.5,0L64.5,0Q64.5985,0,64.6951,0.019214999999999982Q64.79169999999999,0.038429999999999964,64.8827,0.076121Q64.97370000000001,0.11381200000000002,65.0556,0.16852999999999996Q65.1375,0.22324900000000003,65.2071,0.29289299999999996Q65.2767,0.362537,65.3315,0.44443Q65.3862,0.526322,65.4239,0.617317Q65.4616,0.708311,65.4808,0.80491Q65.5,0.9015086,65.5,1Q65.5,1.0984914,65.4808,1.19509Q65.4616,1.2916889999999999,65.4239,1.382683Q65.3862,1.473678,65.3315,1.55557Q65.2767,1.637463,65.2071,1.7071070000000002Q65.1375,1.776751,65.0556,1.83147Q64.97370000000001,1.886188,64.8827,1.923879Q64.79169999999999,1.96157,64.6951,1.980785Q64.5985,2,64.5,2L22.5,2Q22.4015086,2,22.30491,1.980785Q22.208311,1.96157,22.117317,1.923879Q22.026322,1.886188,21.94443,1.83147Q21.862537,1.776751,21.792893,1.7071070000000002Q21.723249,1.637463,21.66853,1.55557Q21.613812,1.473678,21.576121,1.382683Q21.538429999999998,1.2916889999999999,21.519215,1.19509Q21.5,1.0984914,21.5,1Q21.5,0.9015086,21.519215,0.80491Q21.538429999999998,0.708311,21.576121,0.617317Q21.613812,0.526322,21.66853,0.44443Q21.723249,0.362537,21.792893,0.29289299999999996Q21.862537,0.22324900000000003,21.94443,0.16852999999999996Q22.026322,0.11381200000000002,22.117317,0.076121Q22.208311,0.038429999999999964,22.30491,0.019214999999999982Q22.4015086,0,22.5,0Z" fill-rule="evenodd" fill="#4E5969" fill-opacity="1"/></g></g></svg>