<svg xmlns="http://www.w3.org/2000/svg" xmlns:xlink="http://www.w3.org/1999/xlink" fill="none" version="1.1" width="25" height="14" viewBox="0 0 25 14"><defs><clipPath id="master_svg0_9773_084526"><rect x="0" y="0" width="25" height="14" rx="0"/></clipPath><linearGradient x1="0" y1="0.5" x2="1" y2="0.5" id="master_svg1_9773_075846"><stop offset="0%" stop-color="#FF8000" stop-opacity="1"/><stop offset="99.99998807907104%" stop-color="#FFAA00" stop-opacity="1"/></linearGradient></defs><g clip-path="url(#master_svg0_9773_084526)"><g><path d="M0,11C0,12.6569,1.34315,14,3,14L18.206,14C19.1452,14,20.0302,13.5602,20.5973,12.8116L23.6276,8.81157C24.4392,7.74022,24.4392,6.25978,23.6276,5.18843L20.5973,1.18843C20.0302,0.439819,19.1452,0,18.206,0L3,0C1.34315,0,0,1.34315,0,3L0,11Z" fill="url(#master_svg1_9773_075846)" fill-opacity="1"/></g><g><path d="M6.9661458,10.488L8.16667,10.488L8.58333,8.909880000000001L10.49479,8.909880000000001L10.91146,10.488L12.158850000000001,10.488L10.263020000000001,4.4879999999999995L8.861979999999999,4.4879999999999995L6.9661458,10.488ZM8.83854,7.988L9.01562,7.33956C9.190100000000001,6.71977,9.35938,6.04529,9.518229999999999,5.3942499999999995L9.55208,5.3942499999999995C9.72656,6.02967,9.888020000000001,6.71977,10.07031,7.33956L10.247399999999999,7.988L8.83854,7.988ZM12.893229999999999,10.488L14.07813,10.488L14.07813,4.4879999999999995L12.893229999999999,4.4879999999999995L12.893229999999999,10.488Z" fill="#FFFFFF" fill-opacity="1"/></g></g></svg>