<svg xmlns="http://www.w3.org/2000/svg" xmlns:xlink="http://www.w3.org/1999/xlink" fill="none" version="1.1" width="16" height="16" viewBox="0 0 16 16"><defs><clipPath id="master_svg0_7559_091627/7471_050098"><rect x="0" y="0" width="16" height="16" rx="0"/></clipPath></defs><g clip-path="url(#master_svg0_7559_091627/7471_050098)"><g><path d="M8.0002821875,2.0787921875L2.8242821875,4.6667921875000005L8.0002821875,7.2547921875L13.1762921875,4.6667921875000005L8.0002821875,2.0787921875ZM8.2982821875,0.7374602875L14.9649921875,4.0707921875C15.1908921875,4.1837021875,15.3335921875,4.4145721875,15.3335921875,4.6671221875C15.3335921875,4.9196821875,15.1908921875,5.1505521875,14.9649921875,5.2634621875L8.2982821875,8.5967921875C8.1107221875,8.6907521875,7.8898421875,8.6907521875,7.7022821875,8.5967921875L1.0356131875,5.2634621875C0.8097041875,5.1505521875,0.6669921875,4.9196821875,0.6669921875,4.6671221875C0.6669921875,4.4145721875,0.8097041875,4.1837021875,1.0356131875,4.0707921875L7.7022821875,0.7374605875C7.8898421875,0.6435027875,8.1107221875,0.6435027875,8.2982821875,0.7374602875ZM14.3689921875,7.4041221875C14.6982921875,7.2395121875,15.0986921875,7.3729621875,15.2633921875,7.7022321875C15.4280921875,8.0314921875,15.2947921875,8.4319521875,14.9655921875,8.5967921875L8.2989521875,11.9300921875C8.1113921875,12.0240921875,7.8905021875,12.0240921875,7.7029521875,11.9300921875L1.0362811875,8.5967921875C0.7069353875,8.432032187499999,0.5735162874999999,8.0314721875,0.7382812875,7.7021221875C0.9030461875,7.3727821875,1.3036021875000001,7.2393621875,1.6329481875,7.4041221875L8.0002821875,10.5881221875L14.3689921875,7.4041221875ZM14.3689921875,10.7374921875C14.6982921875,10.5728521875,15.0986921875,10.7062921875,15.2633921875,11.0355921875C15.4280921875,11.3647921875,15.2947921875,11.7652921875,14.9655921875,11.9300921875L8.2989521875,15.2634921875C8.1113921875,15.3573921875,7.8905021875,15.3573921875,7.7029521875,15.2634921875L1.0362811875,11.9300921875C0.7070723875,11.7652921875,0.5737620875,11.3647921875,0.7384869875,11.0355921875C0.9032121875,10.7062921875,1.3036261875,10.5728521875,1.6329481875,10.7374921875L8.0002821875,13.9214921875L14.3689921875,10.7374921875Z" fill="#FFFFFF" fill-opacity="1"/></g></g></svg>