<svg xmlns="http://www.w3.org/2000/svg" xmlns:xlink="http://www.w3.org/1999/xlink" fill="none" version="1.1" width="30" height="20" viewBox="0 0 30 20"><defs><clipPath id="master_svg0_9283_055130"><path d="M0 0C0 0 0 0 0 0L20 0C25.522847498307932 0 30 4.477152501692067 30 10L30 20C30 20 30 20 30 20L10 20C4.477152501692067 20 9.81054792658386e-16 15.522847498307936 0 10.000000000000002Z"/></clipPath><clipPath id="master_svg1_9283_055131"><rect x="8" y="2" width="16" height="16" rx="0"/></clipPath></defs><g clip-path="url(#master_svg0_9283_055130)"><path d="M0 0C0 0 0 0 0 0L20 0C25.522847498307932 0 30 4.477152501692067 30 10L30 20C30 20 30 20 30 20L10 20C4.477152501692067 20 9.81054792658386e-16 15.522847498307936 0 10.000000000000002Z" fill="#151515" fill-opacity="0.25999999046325684"/><g clip-path="url(#master_svg1_9283_055131)"><g><path d="M21.595371874999998,6.00099609375C21.518971875,5.8758060937500005,21.381171875,5.80132609375,21.234571875,5.80594609375L21.234571875,5.81065609375L18.354561875,5.81065609375L18.354561875,4.76521509375C18.354561875,4.61938209375,18.296441875,4.49213909375,18.193801875,4.38819709375C18.091691875000002,4.28608789375,17.953461875000002,4.23974609375,17.808151875,4.23974609375L14.146361875,4.23974609375C14.001841875,4.23974609375,13.886111875000001,4.28608789375,13.783481875,4.38819709375L13.782691875,4.38950609375C13.781381875000001,4.39081509375,13.789241875,4.39160009375,13.788191874999999,4.39291009375C13.689221875,4.49187709375,13.641831875,4.62566609375,13.641831875,4.76521509375L13.641831875,5.81065609375L10.746389875,5.81065609375C10.514680875,5.81065609375,10.326171875,5.97167609375,10.326171875,6.20338609375C10.326171875,6.34973609375,10.401575475,6.46074609375,10.515204875,6.52803609375C10.580658875,6.574376093750001,10.659989875,6.5961060937500005,10.746389875,6.5961060937500005L11.526081875,6.5961060937500005L12.031651875,15.21384609375C12.040561875,15.35574609375,12.102871875,15.50574609375,12.206811875,15.60134609375C12.305521875,15.69974609375,12.436691875000001,15.75974609375,12.577021875,15.75974609375L19.378271875,15.75974609375C19.523061875,15.75974609375,19.659201875,15.69824609375,19.761311875,15.59584609375C19.863161875,15.49404609375,19.921021875,15.34114609375,19.919971875,15.19844609375L20.425771875000002,6.5961060937500005L21.205471875,6.5961060937500005C21.213371875,6.5961060937500005,21.220971875,6.60160609375,21.228771875,6.60160609375C21.233471875,6.60474609375,21.237971875,6.61155609375,21.242671875,6.61155609375C21.386671874999998,6.61155609375,21.518371875,6.557096093749999,21.594271875,6.43456609375C21.677871875,6.30222609375,21.678271875,6.1337360937500005,21.595371874999998,6.00099609375ZM14.950921874999999,13.53428609375C14.951141875000001,13.75133609375,14.775241874999999,13.92739609375,14.558201875,13.92739609375C14.341151875000001,13.92739609375,14.165261875,13.75133609375,14.165471875,13.53428609375L14.165471875,8.03610609375C14.165261875,7.81906609375,14.341151875000001,7.64299609375,14.558201875,7.64299609375C14.775241874999999,7.64299609375,14.951141875000001,7.81906609375,14.950921874999999,8.03610609375L14.950921874999999,13.53428609375ZM17.569111875,13.53428609375C17.569111875,13.75118609375,17.393281875,13.92701609375,17.176381875,13.92701609375C16.959481875,13.92701609375,16.783651875,13.75118609375,16.783651875,13.53428609375L16.783651875,8.03610609375C16.783651875,7.819216093750001,16.959481875,7.64338609375,17.176381875,7.64338609375C17.393281875,7.64338609375,17.569111875,7.819216093750001,17.569111875,8.03610609375L17.569111875,13.53428609375ZM17.569111875,5.81065609375L14.427291875,5.81065609375L14.427291875,5.02520109375L17.569111875,5.02520109375L17.569111875,5.81065609375Z" fill="#FFFFFF" fill-opacity="1"/></g></g></g></svg>