<svg xmlns="http://www.w3.org/2000/svg" xmlns:xlink="http://www.w3.org/1999/xlink" fill="none" version="1.1" width="160" height="199" viewBox="0 0 160 199"><defs><linearGradient x1="0.3885030746459961" y1="-7.246458988419135e-10" x2="0.6114969253540039" y2="1" id="master_svg0_6960_049684"><stop offset="0%" stop-color="#FCFCFD" stop-opacity="1"/><stop offset="100%" stop-color="#EEEFF3" stop-opacity="1"/></linearGradient><linearGradient x1="-5.1468611594884806e-9" y1="0.0950000062584877" x2="1" y2="0.9050000309944153" id="master_svg1_6960_049689"><stop offset="0%" stop-color="#FCFCFD" stop-opacity="1"/><stop offset="100%" stop-color="#E9EBEF" stop-opacity="1"/></linearGradient><mask id="master_svg2_7559_088760"><g><g><path d="M141.77216635742187,90.3447265625C141.77216635742187,90.3447265625,107.34176635742188,90.3447265625,107.34176635742188,90.3447265625C107.34176635742188,90.3447265625,107.34176635742188,163.25612656250001,107.34176635742188,163.25612656250001C107.34176635742188,163.25612656250001,141.77216635742187,163.25612656250001,141.77216635742187,163.25612656250001C141.77216635742187,163.25612656250001,141.77216635742187,90.3447265625,141.77216635742187,90.3447265625C141.77216635742187,90.3447265625,141.77216635742187,90.3447265625,141.77216635742187,90.3447265625Z" fill="#FFFFFF" fill-opacity="1"/></g></g></mask></defs><g><g><path d="M80,173.38267578125C124.183,173.38267578125,160,169.15117578125,160,163.93123578125C160,158.71132578125,116.082,157.18017578125,71.8987,157.18017578125C27.716,157.18017578125,0,158.71132578125,0,163.93123578125C0,169.15117578125,35.8172,173.38267578125,80,173.38267578125C80,173.38267578125,80,173.38267578125,80,173.38267578125Z" fill-rule="evenodd" fill="#F7F8FC" fill-opacity="1"/></g><g transform="matrix(1,0,0,-1,0,233.34765625)"><path d="M26.32928125,143.002928125C26.32928125,143.002928125,107.34178125,143.002928125,107.34178125,143.002928125C107.34178125,143.002928125,85.06348125,116.673828125,85.06348125,116.673828125C85.06348125,116.673828125,4.05078125,116.673828125,4.05078125,116.673828125C4.05078125,116.673828125,26.32928125,143.002928125,26.32928125,143.002928125C26.32928125,143.002928125,26.32928125,143.002928125,26.32928125,143.002928125Z" fill-rule="evenodd" fill="#E5E7E9" fill-opacity="1"/></g><g transform="matrix(-0.9063078165054321,-0.4226182699203491,-0.4226182699203491,0.9063078165054321,284.403119310653,63.050652345988055)"><g transform="matrix(1,0,0,-1,0,122.50775146484375)"><path d="M138.75393676757812,61.253875732421875C138.75393676757812,61.253875732421875,175.20963676757813,61.253875732421875,175.20963676757813,61.253875732421875C175.20963676757813,61.253875732421875,185.33623676757813,69.35514573242187,185.33623676757813,69.35514573242187C185.33623676757813,69.35514573242187,148.88053676757812,69.35514573242187,148.88053676757812,69.35514573242187C148.88053676757812,69.35514573242187,138.75393676757812,61.253875732421875,138.75393676757812,61.253875732421875C138.75393676757812,61.253875732421875,138.75393676757812,61.253875732421875,138.75393676757812,61.253875732421875Z" fill-rule="evenodd" fill="#E5E7E9" fill-opacity="1"/></g><g><path d="M138.75393676757812,61.253875732421875C138.75393676757812,61.253875732421875,215.7159367675781,61.253875732421875,215.7159367675781,61.253875732421875C215.7159367675781,61.253875732421875,215.7159367675781,134.1652757324219,215.7159367675781,134.1652757324219C215.7159367675781,134.1652757324219,138.75393676757812,134.1652757324219,138.75393676757812,134.1652757324219C138.75393676757812,134.1652757324219,138.75393676757812,61.253875732421875,138.75393676757812,61.253875732421875C138.75393676757812,61.253875732421875,138.75393676757812,61.253875732421875,138.75393676757812,61.253875732421875Z" fill-rule="evenodd" fill="#EDEEF2" fill-opacity="1"/></g><g transform="matrix(-1,0,0,1,500.29302978515625,0)"><path d="M284.57691489257815,61.2537841796875C284.57691489257815,61.2537841796875,250.14651489257812,61.2537841796875,250.14651489257812,61.2537841796875C250.14651489257812,61.2537841796875,250.14651489257812,134.16518417968751,250.14651489257812,134.16518417968751C250.14651489257812,134.16518417968751,284.57691489257815,134.16518417968751,284.57691489257815,134.16518417968751C284.57691489257815,134.16518417968751,284.57691489257815,61.2537841796875,284.57691489257815,61.2537841796875C284.57691489257815,61.2537841796875,284.57691489257815,61.2537841796875,284.57691489257815,61.2537841796875Z" fill="url(#master_svg0_6960_049684)" fill-opacity="1"/></g><g transform="matrix(-1,0,0,1,500.29302978515625,0)"><path d="M250.14651489257812,61.2537380859375C250.14651489257812,61.2537380859375,284.57691489257815,61.2537380859375,284.57691489257815,61.2537380859375C284.57691489257815,61.2537380859375,312.93131489257814,47.0765380859375,312.93131489257814,47.0765380859375C312.93131489257814,47.0765380859375,278.5009148925781,47.0765380859375,278.5009148925781,47.0765380859375C278.5009148925781,47.0765380859375,250.14651489257812,61.2537380859375,250.14651489257812,61.2537380859375C250.14651489257812,61.2537380859375,250.14651489257812,61.2537380859375,250.14651489257812,61.2537380859375Z" fill-rule="evenodd" fill="#F8F9FB" fill-opacity="1"/></g></g><g><path d="M107.34181300659179,90.3447265625C107.34181300659179,90.3447265625,26.329113006591797,90.3447265625,26.329113006591797,90.3447265625C26.329113006591797,90.3447265625,26.329113006591797,163.25612656250001,26.329113006591797,163.25612656250001C26.329113006591797,163.25612656250001,107.34181300659179,163.25612656250001,107.34181300659179,163.25612656250001C107.34181300659179,163.25612656250001,107.34181300659179,90.3447265625,107.34181300659179,90.3447265625C107.34181300659179,90.3447265625,107.34181300659179,90.3447265625,107.34181300659179,90.3447265625Z" fill="url(#master_svg1_6960_049689)" fill-opacity="1"/></g><g mask="url(#master_svg2_7559_088760)"><g transform="matrix(-1,0,0,1,283.54486083984375,0)"><path d="M176.20283041992187,90.3447265625C176.20283041992187,90.3447265625,141.77243041992188,90.3447265625,141.77243041992188,90.3447265625C141.77243041992188,90.3447265625,141.77243041992188,163.25612656250001,141.77243041992188,163.25612656250001C141.77243041992188,163.25612656250001,176.20283041992187,163.25612656250001,176.20283041992187,163.25612656250001C176.20283041992187,163.25612656250001,176.20283041992187,90.3447265625,176.20283041992187,90.3447265625C176.20283041992187,90.3447265625,176.20283041992187,90.3447265625,176.20283041992187,90.3447265625Z" fill="#E0E3E9" fill-opacity="1"/></g><g transform="matrix(-1,0,0,1,311.89837646484375,0)"><path d="M170.12638823242187,90.3447265625C170.12638823242187,90.3447265625,204.55678823242187,90.3447265625,204.55678823242187,90.3447265625C204.55678823242187,90.3447265625,196.45548823242189,126.80042656250001,196.45548823242189,126.80042656250001C196.45548823242189,126.80042656250001,155.94918823242188,122.7498265625,155.94918823242188,122.7498265625C155.94918823242188,122.7498265625,170.12638823242187,90.3447265625,170.12638823242187,90.3447265625C170.12638823242187,90.3447265625,170.12638823242187,90.3447265625,170.12638823242187,90.3447265625Z" fill-rule="evenodd" fill="#D5D7DE" fill-opacity="1"/></g></g><g transform="matrix(-1,0,0,1,320,0)"><path d="M178.2278,90.3447265625C178.2278,90.3447265625,212.6582,90.3447265625,212.6582,90.3447265625C212.6582,90.3447265625,194.4304,116.6738265625,194.4304,116.6738265625C194.4304,116.6738265625,160,116.6738265625,160,116.6738265625C160,116.6738265625,178.2278,90.3447265625,178.2278,90.3447265625C178.2278,90.3447265625,178.2278,90.3447265625,178.2278,90.3447265625Z" fill-rule="evenodd" fill="#F8F9FB" fill-opacity="1"/></g><g><path d="M6.84375,190.232L13.11719,190.232L13.11719,192.3922L6.84375,192.3922L6.84375,190.232ZM8.07812,194.314C8.23438,195.11090000000002,8.33203,196.1422,8.33203,196.7593L9.24219,196.6343C9.23047,196.0445,9.10938,195.025,8.92969,194.2398L8.07812,194.314ZM10.5625,194.3258C10.910160000000001,195.0875,11.26953,196.1187,11.402339999999999,196.732L12.27734,196.5015C12.13281,195.8843,11.75,194.8922,11.378910000000001,194.1422L10.5625,194.3258ZM13.01172,194.2281C13.60938,195.0015,14.2812,196.0953,14.5586,196.7711L15.4102,196.4C15.1094,195.7281,14.4141,194.6812,13.81641,193.9078L13.01172,194.2281ZM6.121090000000001,193.982C5.75,194.8922,5.13672,195.8843,4.503906,196.4508L5.31641,196.857C5.97656,196.2047,6.589840000000001,195.17340000000002,6.972659999999999,194.2164L6.121090000000001,193.982ZM5.98828,189.38044L5.98828,193.232L14.0195,193.232L14.0195,189.38044L10.35938,189.38044L10.35938,187.732L14.918,187.732L14.918,186.88044L10.35938,186.88044L10.35938,185.61091L9.45703,185.61091L9.45703,189.38044L5.98828,189.38044ZM17.773400000000002,192.17340000000002L17.773400000000002,196.11090000000002L25.3008,196.11090000000002L25.3008,196.8453L26.2227,196.8453L26.2227,192.17340000000002L25.3008,192.17340000000002L25.3008,195.232L22.5039,195.232L22.5039,191.232L27.2422,191.232L27.2422,190.33356L22.5039,190.33356L22.5039,188.38434L26.4141,188.38434L26.4141,187.482L22.5039,187.482L22.5039,185.607L21.5664,185.607L21.5664,187.482L17.668,187.482L17.668,188.38434L21.5664,188.38434L21.5664,190.33356L16.7773,190.33356L16.7773,191.232L21.5664,191.232L21.5664,195.232L18.7227,195.232L18.7227,192.17340000000002L17.773400000000002,192.17340000000002ZM37.2383,185.99763L36.9883,185.52106C36.2188,185.88434,35.488299999999995,186.74763,35.488299999999995,187.84528C35.488299999999995,188.50544,35.918,188.982,36.4336,188.982C36.9766,188.982,37.25,188.57575,37.25,188.20466C37.25,187.77106,36.9492,187.43513,36.5078,187.43513C36.375,187.43513,36.2422,187.47028,36.1719,187.53278C36.1719,186.98591,36.5898,186.33356,37.2383,185.99763ZM39.543,185.99763L39.293,185.52106C38.5234,185.88434,37.7891,186.74763,37.7891,187.84528C37.7891,188.50544,38.2227,188.982,38.7383,188.982C39.2773,188.982,39.5547,188.57575,39.5547,188.20466C39.5547,187.77106,39.2539,187.43513,38.8008,187.43513C38.668,187.43513,38.5469,187.47028,38.4766,187.53278C38.4766,186.98591,38.8945,186.33356,39.543,185.99763ZM45.1211,185.78669L45.1211,195.3336L40.6094,195.3336L40.6094,196.232L51.3984,196.232L51.3984,195.3336L46.0703,195.3336L46.0703,190.482L50.5703,190.482L50.5703,189.58356L46.0703,189.58356L46.0703,185.78669L45.1211,185.78669ZM55.1914,185.63825C54.5195,187.46247,53.3906,189.39216,52.2148,190.55231C52.3711,190.75544,52.6211,191.21638,52.7188,191.43122C53.125,191.01716,53.5352,190.51716,53.918,189.982L53.918,196.8414L54.7812,196.8414L54.7812,188.57184C55.2617,187.68122,55.6953,186.77888,56.043,185.88825L55.1914,185.63825ZM57.6133,194.3375C58.7539,195.0523,60.1094,196.1617,60.7695,196.8648L61.4414,196.17340000000002C61.1172,195.8414,60.6523,195.4468,60.1211,195.0406C61.0469,194.0133,62.0547,192.8414,62.7852,191.97809L62.1523,191.58356L62.0078,191.64216L58.1562,191.64216L58.5859,190.232L63.4453,190.232L63.4453,189.38044L58.8281,189.38044L59.2227,187.82575L62.8945,187.82575L62.8945,186.982L59.4492,186.982L59.7617,185.77106L58.875,185.64997L58.5391,186.982L56.1758,186.982L56.1758,187.82575L58.3125,187.82575L57.9141,189.38044L55.4922,189.38044L55.4922,190.232L57.6641,190.232C57.4102,191.07575,57.1484,191.86091,56.9297,192.482L61.2266,192.482C60.6992,193.1031,60.0508,193.8531,59.4258,194.5328C59.043,194.2633,58.6484,194.0015,58.2734,193.7672L57.6133,194.3375ZM68.5,192.4547C69.457,192.6617,70.6836,193.0836,71.3555,193.42340000000002L71.7266,192.8062C71.0547,192.4898,69.8438,192.0914,68.8828,191.89606L68.5,192.4547ZM67.2969,193.9937C68.9531,194.2008,71.0312,194.6851,72.1836,195.0953L72.5781,194.4195C71.4141,194.0289,69.3398,193.5562,67.7188,193.3765L67.2969,193.9937ZM65.0078,186.1695L65.0078,196.8375L65.8711,196.8375L65.8711,196.2867L74.1016,196.2867L74.1016,196.8375L75.0039,196.8375L75.0039,186.1695L65.0078,186.1695ZM65.8711,195.482L65.8711,186.982L74.1016,186.982L74.1016,195.482L65.8711,195.482ZM68.9648,187.232C68.3672,188.25934,67.33590000000001,189.19684,66.30080000000001,189.81403C66.4961,189.93513,66.8047,190.21247,66.9375,190.36091C67.2969,190.11872,67.6719,189.82575,68.043,189.49763C68.4023,189.88825,68.8477,190.25153,69.3281,190.57575C68.3047,191.06013,67.1562,191.42341,66.08590000000001,191.64216C66.2422,191.81403,66.4336,192.1656,66.5195,192.3804C67.6953,192.1031,68.9531,191.65388,70.0938,191.03669C71.0898,191.58356,72.2305,191.99372,73.3711,192.2476C73.4805,192.0328,73.707,191.71638,73.875,191.56013C72.8203,191.36481,71.7617,191.03669,70.8281,190.60309C71.7266,190.00934,72.4844,189.31794,72.9883,188.49763L72.4727,188.19684L72.3398,188.232L69.2305,188.232C69.4102,187.99763,69.5781,187.75934,69.7227,187.50934L68.9648,187.232ZM68.5352,189.01325L68.6172,188.93122L71.7266,188.93122C71.293,189.40388,70.7188,189.82575,70.0703,190.20075C69.457,189.84919,68.9297,189.45075,68.5352,189.01325ZM78.1602,185.92731L78.1602,190.02106C78.1602,192.2125,77.9883,194.4547,76.4531,196.1812C76.6836,196.3375,77.0078,196.6773,77.1641,196.8961C78.2656,195.6695,78.7578,194.189,78.9492,192.6578L84.0156,192.6578L84.0156,196.8726L84.9883,196.8726L84.9883,191.732L79.0469,191.732C79.082,191.15778,79.0938,190.59528,79.0938,190.02106L79.0938,189.732L86.8359,189.732L86.8359,188.81013L83.4492,188.81013L83.4492,185.61481L82.5039,185.61481L82.5039,188.81013L79.0938,188.81013L79.0938,185.92731L78.1602,185.92731ZM90.7578,188.45466L91.0117,188.92731C91.7773,188.55622,92.5117,187.71247,92.5117,186.62263C92.5117,185.96247,92.0781,185.482,91.5625,185.482C91.0234,185.482,90.7461,185.88044,90.7461,186.26325C90.7461,186.69684,91.0469,187.03278,91.4922,187.03278C91.6211,187.03278,91.7539,186.98591,91.8281,186.93513C91.8281,187.47809,91.4062,188.12263,90.7578,188.45466ZM88.4531,188.45466L88.707,188.92731C89.4727,188.55622,90.207,187.71247,90.207,186.62263C90.207,185.96247,89.7734,185.482,89.2578,185.482C88.7188,185.482,88.4414,185.88044,88.4414,186.26325C88.4414,186.69684,88.7422,187.03278,89.1992,187.03278C89.332,187.03278,89.4492,186.98591,89.5234,186.93513C89.5234,187.47809,89.1016,188.12263,88.4531,188.45466ZM107.691,186.68122L107.691,194.0758L108.531,194.0758L108.531,186.68122L107.691,186.68122ZM110.066,185.80622L110.066,195.4586C110.066,195.67340000000002,110.008,195.732,109.805,195.732C109.598,195.7476,108.938,195.7476,108.23,195.7203C108.375,195.9625,108.52,196.3687,108.566,196.6226C109.441,196.6226,110.078,196.5992,110.449,196.4429C110.812,196.29840000000002,110.941,196.0328,110.941,195.4586L110.941,185.80622L110.066,185.80622ZM100.7422,195.3961L100.9453,196.275C102.5312,195.9625,104.809,195.5211,106.945,195.0836L106.898,194.2593L104.379,194.7476L104.379,192.7867L106.777,192.7867L106.777,191.982L104.379,191.982L104.379,190.732L103.5273,190.732L103.5273,191.982L101.1641,191.982L101.1641,192.7867L103.5273,192.7867L103.5273,194.8961L100.7422,195.3961ZM101.4258,190.50934C101.7148,190.37653,102.1602,190.32575,105.914,189.96247C106.082,190.24372,106.227,190.49763,106.336,190.71638L107.02,190.25544C106.672,189.56013,105.879,188.45075,105.207,187.63434L104.547,188.02497C104.848,188.39216,105.16,188.82966,105.445,189.24372L102.375,189.51325C102.8672,188.85309,103.3594,188.03669,103.7656,187.232L107.02,187.232L107.02,186.44294L100.8516,186.44294L100.8516,187.232L102.7578,187.232C102.375,188.09919,101.8828,188.87653,101.7031,189.11091C101.5,189.39997,101.3164,189.607,101.125,189.64606C101.2344,189.88825,101.3672,190.31403,101.4258,190.50934ZM112.73,186.59919C113.367,187.1695,114.098,187.97419,114.434,188.54059L115.18,187.98981C114.832,187.44684,114.074,186.66169,113.426,186.12653L112.73,186.59919ZM115.012,190.232L112.586,190.232L112.586,191.07575L114.145,191.07575L114.145,194.6695C113.617,194.8687,113.02,195.3375,112.43,195.9156L113.066,196.7867C113.641,196.107,114.23,195.4742,114.637,195.4742C114.902,195.4742,115.273,195.8062,115.777,196.0836C116.605,196.525,117.625,196.6461,119.055,196.6461C120.266,196.6461,122.32,196.5758,123.266,196.5133C123.277,196.2242,123.434,195.7711,123.543,195.4976C122.332,195.6461,120.434,195.732,119.078,195.732C117.781,195.732,116.715,195.6617,115.957,195.2281C115.527,194.9937,115.262,194.7828,115.012,194.6578L115.012,190.232ZM115.91,189.61481C116.859,190.2945,117.902,191.07575,118.91,191.87653C118.012,192.8179,116.883,193.5093,115.477,194.0172C115.645,194.2125,115.922,194.6226,116.02,194.8336C117.457,194.2398,118.648,193.4586,119.594,192.4351C120.641,193.29840000000002,121.574,194.1383,122.199,194.7945L122.895,194.1031C122.223,193.4468,121.238,192.607,120.16,191.75544C120.867,190.82184,121.418,189.70075,121.816,188.33747L123.34,188.33747L123.34,187.482L119.438,187.482L120.039,187.26716C119.883,186.7945,119.488,186.06794,119.137,185.52106L118.273,185.79841C118.598,186.32184,118.945,187.01325,119.102,187.482L115.539,187.482L115.539,188.33747L120.867,188.33747C120.531,189.47419,120.062,190.42731,119.461,191.20856C118.465,190.46247,117.445,189.68903,116.535,189.0445L115.91,189.61481ZM126.746,189.232L129.613,189.232L129.613,190.732L126.746,190.732L126.746,189.232ZM130.48000000000002,189.232L133.395,189.232L133.395,190.732L130.48000000000002,190.732L130.48000000000002,189.232ZM126.746,186.982L129.613,186.982L129.613,188.47809L126.746,188.47809L126.746,186.982ZM130.48000000000002,186.982L133.395,186.982L133.395,188.47809L130.48000000000002,188.47809L130.48000000000002,186.982ZM125.461,192.982L125.461,193.8258L129.555,193.8258L129.555,195.6422L124.645,195.6422L124.645,196.482L135.375,196.482L135.375,195.6422L130.527,195.6422L130.527,193.8258L134.727,193.8258L134.727,192.982L130.527,192.982L130.527,191.53669L134.332,191.53669L134.332,186.1695L125.848,186.1695L125.848,191.53669L129.555,191.53669L129.555,192.982L125.461,192.982ZM136.934,186.732L136.934,194.7437L137.762,194.7437L137.762,193.5758L140.137,193.5758L140.137,186.732L136.934,186.732ZM137.762,187.57575L139.285,187.57575L139.285,192.732L137.762,192.732L137.762,187.57575ZM142.07,187.232L143.715,187.232L143.715,191.232L142.07,191.232L142.07,187.232ZM141.195,186.39216L141.195,194.8804C141.195,196.2515,141.613,196.5758,142.957,196.5758C143.27,196.5758,145.574,196.5758,145.91,196.5758C147.16,196.5758,147.461,196.0211,147.602,194.3414C147.352,194.2945,146.98,194.1461,146.762,193.9898C146.668,195.3804,146.559,195.732,145.863,195.732C145.395,195.732,143.391,195.732,143.008,195.732C142.215,195.732,142.07,195.5875,142.07,194.8922L142.07,192.04840000000002L146.234,192.04840000000002L146.234,192.8062L147.121,192.8062L147.121,186.39216L141.195,186.39216ZM146.234,191.232L144.543,191.232L144.543,187.232L146.234,187.232L146.234,191.232ZM153.664,191.62263C154.504,192.5133,155.27,192.9547,156.363,192.9547C157.637,192.9547,158.738,192.2242,159.496,190.67731L158.645,190.19684C158.152,191.24763,157.324,191.982,156.375,191.982C155.512,191.982,154.984,191.55231,154.336,190.84528C153.496,189.95466,152.727,189.51325,151.633,189.51325C150.363,189.51325,149.258,190.24372,148.504,191.79059L149.355,192.2711C149.848,191.22028,150.676,190.482,151.621,190.482C152.5,190.482,153.016,190.91559,153.664,191.62263Z" fill="#86909C" fill-opacity="1"/></g></g></svg>