<svg xmlns="http://www.w3.org/2000/svg" xmlns:xlink="http://www.w3.org/1999/xlink" fill="none" version="1.1" width="10.160151481628418" height="12.603896141052246" viewBox="0 0 10.160151481628418 12.603896141052246"><g><path d="M9.30749,0L0.855312,0C0.391796,0.0239062,0.0199219,0.398437,0,0.863281L0,12.0594C0,12.0687,0,12.0766,0.0013281,12.0859C0.0013281,12.0899,0.0013281,12.0939,0.00265621,12.0992C0.00265621,12.1032,0.00265621,12.1085,0.00398431,12.1125C0.00398431,12.1178,0.00531242,12.1231,0.00531242,12.1284C0.00531242,12.1324,0.00664052,12.1351,0.00664052,12.1391C0.00796863,12.1444,0.00796863,12.151,0.00929673,12.1563C0.00929673,12.159,0.0106248,12.1616,0.0106248,12.1656C0.0119529,12.1709,0.013281,12.1776,0.0146092,12.1829C0.0159373,12.1855,0.0159373,12.1882,0.0159373,12.1909L0.0199218,12.2068C0.0212499,12.2094,0.0212499,12.2134,0.022578,12.2161C0.0239061,12.2214,0.0252342,12.2267,0.0278905,12.2307C0.0292186,12.2347,0.0305467,12.2373,0.0318749,12.2413C0.033203,12.2453,0.0358593,12.2506,0.0371874,12.2546L0.0411718,12.2666C0.0424999,12.2705,0.0451562,12.2745,0.0464844,12.2785C0.0478124,12.2825,0.0504688,12.2878,0.0517968,12.2918C0.053125,12.2944,0.0544531,12.2984,0.0571094,12.3011C0.0597656,12.3064,0.0624219,12.3104,0.06375,12.3157C0.0650781,12.3184,0.0664062,12.321,0.0690625,12.3237C0.0717187,12.329,0.074375,12.333,0.0770312,12.3383C0.0783593,12.3409,0.0796874,12.3436,0.0823438,12.3462C0.085,12.3516,0.0889844,12.3555,0.0916406,12.3608C0.0929687,12.3635,0.095625,12.3662,0.0969531,12.3688C0.0996093,12.3741,0.103594,12.3781,0.107578,12.3834C0.110234,12.3861,0.111562,12.3887,0.114219,12.3914C0.116875,12.3954,0.120859,12.3994,0.123515,12.4033C0.126172,12.4073,0.130156,12.41,0.132812,12.414C0.135469,12.4166,0.138125,12.4206,0.140781,12.4233C0.147422,12.4299,0.152734,12.4366,0.159375,12.4432C0.166015,12.4498,0.172656,12.4551,0.179297,12.4618C0.181953,12.4644,0.185937,12.4671,0.188594,12.4698C0.192578,12.4724,0.195234,12.4764,0.199219,12.4791C0.203203,12.483,0.207187,12.4857,0.211172,12.4883C0.213828,12.491,0.216484,12.4923,0.21914,12.495C0.224453,12.499,0.228437,12.5016,0.23375,12.5056C0.236406,12.5069,0.239062,12.5096,0.241719,12.5109C0.247031,12.5136,0.251015,12.5176,0.256328,12.5202C0.258984,12.5216,0.261641,12.5229,0.264297,12.5255C0.269609,12.5282,0.273594,12.5308,0.278906,12.5335C0.281563,12.5348,0.284219,12.5362,0.286875,12.5388C0.292188,12.5415,0.296172,12.5441,0.301485,12.5455C0.304141,12.5468,0.308125,12.5481,0.310781,12.5508C0.314766,12.5534,0.320078,12.5548,0.324063,12.5561C0.328047,12.5574,0.332032,12.5601,0.336016,12.5614L0.347969,12.5654C0.351953,12.5667,0.357266,12.5694,0.36125,12.5707C0.365234,12.572,0.367891,12.5734,0.371875,12.5747C0.377187,12.576,0.3825,12.5787,0.386484,12.58C0.389141,12.5813,0.393125,12.5813,0.395781,12.5826L0.411719,12.5866C0.414375,12.588,0.417031,12.588,0.421016,12.5893C0.426328,12.5906,0.432969,12.5919,0.438281,12.5933C0.440937,12.5933,0.443594,12.5946,0.447578,12.5946C0.45289,12.5959,0.459531,12.5973,0.464844,12.5973C0.468828,12.5973,0.471484,12.5986,0.475469,12.5986C0.480781,12.5999,0.486094,12.5999,0.491406,12.5999C0.495391,12.5999,0.500703,12.6012,0.504688,12.6012C0.508672,12.6012,0.512656,12.6026,0.517969,12.6026C0.527265,12.6026,0.535234,12.6039,0.544531,12.6039C0.553828,12.6039,0.563125,12.6039,0.571094,12.6026C0.575078,12.6026,0.579063,12.6026,0.584375,12.6012C0.58836,12.6012,0.593672,12.6012,0.597656,12.5999C0.602968,12.5999,0.608281,12.5986,0.613594,12.5986C0.617578,12.5986,0.620234,12.5973,0.624219,12.5973C0.629531,12.5959,0.636172,12.5959,0.641484,12.5946C0.64414,12.5946,0.646797,12.5933,0.650781,12.5933C0.656093,12.5919,0.662734,12.5906,0.668047,12.5893C0.670703,12.588,0.673359,12.588,0.677344,12.5866L0.693281,12.5826C0.695937,12.5813,0.699922,12.5813,0.702578,12.58C0.70789,12.5787,0.713203,12.5773,0.717187,12.5747C0.721172,12.5734,0.723828,12.572,0.727812,12.5707C0.731797,12.5694,0.737109,12.5667,0.741094,12.5654L0.753047,12.5614C0.757031,12.5601,0.761016,12.5574,0.765,12.5561C0.768984,12.5548,0.774296,12.5521,0.778281,12.5508C0.780937,12.5494,0.784922,12.5481,0.787578,12.5455C0.79289,12.5428,0.796875,12.5401,0.802187,12.5388C0.804843,12.5375,0.8075,12.5362,0.810156,12.5335C0.815468,12.5308,0.819453,12.5282,0.824766,12.5255C0.827422,12.5242,0.830078,12.5229,0.832734,12.5202C0.838047,12.5176,0.843359,12.5136,0.847344,12.5109C0.85,12.5096,0.852656,12.5069,0.855312,12.5056C0.860625,12.503,0.864609,12.499,0.869922,12.495C0.872578,12.4923,0.875234,12.491,0.877891,12.4883C0.881875,12.4857,0.885859,12.4817,0.891172,12.4791C0.895156,12.4764,0.897813,12.4737,0.901797,12.4698C0.904453,12.4671,0.908438,12.4644,0.911094,12.4618C0.917735,12.4565,0.924375,12.4498,0.929687,12.4432L5.07344,8.29945L9.21718,12.4432C9.32476,12.5508,9.46687,12.6039,9.60898,12.6026L9.61562,12.6026C9.91577,12.6026,10.1602,12.3595,10.1602,12.058L10.1602,0.873906C10.1429,0.405078,9.77234,0.0265625,9.30749,0Z" fill="#FFFFFF" fill-opacity="1"/></g></svg>