<svg xmlns="http://www.w3.org/2000/svg" xmlns:xlink="http://www.w3.org/1999/xlink" fill="none" version="1.1" width="16" height="16" viewBox="0 0 16 16"><defs><clipPath id="master_svg0_4409_39359"><rect x="0" y="0" width="16" height="16" rx="0"/></clipPath></defs><g clip-path="url(#master_svg0_4409_39359)"><g><path d="M1.333333,12.666666746139526L1.333333,4.666666746139526Q1.333333,3.5620967461395265,2.114382,2.7810487461395264Q2.89543,1.9999997461395265,4,1.9999997461395265L12,1.9999997461395265Q13.1046,1.9999997461395265,13.8856,2.7810487461395264Q14.6667,3.5620987461395264,14.6667,4.666666746139526L14.6667,12.666666746139526Q14.6667,13.771266746139526,13.8856,14.552266746139527Q13.1046,15.333366746139527,12,15.333366746139527L4,15.333366746139527Q2.895432,15.333366746139527,2.114382,14.552266746139527Q1.333333,13.771266746139526,1.333333,12.666666746139526ZM2.666667,12.666666746139526Q2.666667,13.218966746139527,3.0571900000000003,13.609466746139526Q3.44772,13.999966746139526,4,13.999966746139526L12,13.999966746139526Q12.5523,13.999966746139526,12.9428,13.609466746139526Q13.3333,13.218966746139527,13.3333,12.666666746139526L13.3333,4.666666746139526Q13.3333,4.114386746139527,12.9428,3.7238567461395267Q12.5523,3.3333337461395263,12,3.3333337461395263L4,3.3333337461395263Q3.44772,3.3333337461395263,3.0571900000000003,3.7238567461395267Q2.666667,4.114386746139527,2.666667,4.666666746139526L2.666667,12.666666746139526Z" fill="#2E6CE4" fill-opacity="1"/></g><g transform="matrix(0,1,-1,0,11.555555701255798,-8.888888955116272)"><line x1="10.222222328186035" y1="0.6666666865348816" x2="12.888889074325562" y2="0.6666666865348816" fill-opacity="0" stroke-opacity="1" stroke="#2E6CE4" fill="none" stroke-width="1.3333333730697632" stroke-linecap="ROUND" stroke-linejoin="round"/></g><g transform="matrix(0,1,-1,0,6.222222208976746,-3.5555554628372192)"><line x1="4.888888835906982" y1="0.6666666865348816" x2="7.555555582046509" y2="0.6666666865348816" fill-opacity="0" stroke-opacity="1" stroke="#2E6CE4" fill="none" stroke-width="1.3333333730697632" stroke-linecap="ROUND" stroke-linejoin="round"/></g><g><line x1="2" y1="6.444444477558136" x2="14" y2="6.444444477558136" fill-opacity="0" stroke-opacity="1" stroke="#2E6CE4" fill="none" stroke-width="1.3333333730697632" stroke-linecap="ROUND" stroke-linejoin="round"/></g><g style="mix-blend-mode:passthrough"><path d="M7,9.665L5,9.665L5,8.335L7,8.335L7,9.665ZM7.665,9Q7.665,9.0654968,7.65222,9.129735Q7.6394400000000005,9.193973,7.614380000000001,9.254484Q7.589309999999999,9.314996,7.55293,9.369454Q7.51654,9.423913,7.47023,9.470226Q7.423909999999999,9.516539,7.3694500000000005,9.552927Q7.3149999999999995,9.589315,7.25448,9.61438Q7.19397,9.639444,7.12973,9.652222Q7.0655,9.665,7,9.665Q6.9345,9.665,6.87026,9.652222Q6.80603,9.639444,6.74552,9.61438Q6.6850000000000005,9.589315,6.6305499999999995,9.552927Q6.57609,9.516539,6.52977,9.470226Q6.48346,9.423913,6.44707,9.369454Q6.41068,9.314996,6.38562,9.254484Q6.3605599999999995,9.193973,6.34778,9.129735Q6.335,9.0654968,6.335,9Q6.335,8.9345032,6.34778,8.870265Q6.3605599999999995,8.806027,6.38562,8.745516Q6.41068,8.685004,6.44707,8.630546Q6.48346,8.576087,6.52977,8.529774Q6.57609,8.483461,6.6305499999999995,8.447073Q6.6850000000000005,8.410685,6.74552,8.38562Q6.80603,8.360556,6.87026,8.347778Q6.9345,8.335,7,8.335Q7.0655,8.335,7.12973,8.347778Q7.19397,8.360556,7.25448,8.38562Q7.3149999999999995,8.410685,7.3694500000000005,8.447073Q7.423909999999999,8.483461,7.47023,8.529774Q7.51654,8.576087,7.55293,8.630546Q7.589309999999999,8.685004,7.614380000000001,8.745516Q7.6394400000000005,8.806027,7.65222,8.870265Q7.665,8.9345032,7.665,9ZM5.665,9Q5.665,9.0654968,5.652222,9.129735Q5.639444,9.193973,5.61438,9.254484Q5.589315,9.314996,5.552927,9.369454Q5.516539,9.423913,5.470226,9.470226Q5.423913,9.516539,5.369454,9.552927Q5.314996,9.589315,5.254484,9.61438Q5.193973,9.639444,5.129735,9.652222Q5.0654968,9.665,5,9.665Q4.9345032,9.665,4.870265,9.652222Q4.806027,9.639444,4.745516,9.61438Q4.685004,9.589315,4.630546,9.552927Q4.576087,9.516539,4.529774,9.470226Q4.483461,9.423913,4.447073,9.369454Q4.410685,9.314996,4.38562,9.254484Q4.360556,9.193973,4.347778,9.129735Q4.335,9.0654968,4.335,9Q4.335,8.9345032,4.347778,8.870265Q4.360556,8.806027,4.38562,8.745516Q4.410685,8.685004,4.447073,8.630546Q4.483461,8.576087,4.529774,8.529774Q4.576087,8.483461,4.630546,8.447073Q4.685004,8.410685,4.745516,8.38562Q4.806027,8.360556,4.870265,8.347778Q4.9345032,8.335,5,8.335Q5.0654968,8.335,5.129735,8.347778Q5.193973,8.360556,5.254484,8.38562Q5.314996,8.410685,5.369454,8.447073Q5.423913,8.483461,5.470226,8.529774Q5.516539,8.576087,5.552927,8.630546Q5.589315,8.685004,5.61438,8.745516Q5.639444,8.806027,5.652222,8.870265Q5.665,8.9345032,5.665,9Z" fill="#2E6CE4" fill-opacity="1"/></g><g style="mix-blend-mode:passthrough"><path d="M7,12.665L5,12.665L5,11.335L7,11.335L7,12.665ZM7.665,12Q7.665,12.0654968,7.65222,12.129735Q7.6394400000000005,12.193973,7.614380000000001,12.254484Q7.589309999999999,12.314996,7.55293,12.369454Q7.51654,12.423913,7.47023,12.470226Q7.423909999999999,12.516539,7.3694500000000005,12.552927Q7.3149999999999995,12.589315,7.25448,12.61438Q7.19397,12.639444,7.12973,12.652222Q7.0655,12.665,7,12.665Q6.9345,12.665,6.87026,12.652222Q6.80603,12.639444,6.74552,12.61438Q6.6850000000000005,12.589315,6.6305499999999995,12.552927Q6.57609,12.516539,6.52977,12.470226Q6.48346,12.423913,6.44707,12.369454Q6.41068,12.314996,6.38562,12.254484Q6.3605599999999995,12.193973,6.34778,12.129735Q6.335,12.0654968,6.335,12Q6.335,11.9345032,6.34778,11.870265Q6.3605599999999995,11.806027,6.38562,11.745516Q6.41068,11.685004,6.44707,11.630546Q6.48346,11.576087,6.52977,11.529774Q6.57609,11.483461,6.6305499999999995,11.447073Q6.6850000000000005,11.410685,6.74552,11.38562Q6.80603,11.360556,6.87026,11.347778Q6.9345,11.335,7,11.335Q7.0655,11.335,7.12973,11.347778Q7.19397,11.360556,7.25448,11.38562Q7.3149999999999995,11.410685,7.3694500000000005,11.447073Q7.423909999999999,11.483461,7.47023,11.529774Q7.51654,11.576087,7.55293,11.630546Q7.589309999999999,11.685004,7.614380000000001,11.745516Q7.6394400000000005,11.806027,7.65222,11.870265Q7.665,11.9345032,7.665,12ZM5.665,12Q5.665,12.0654968,5.652222,12.129735Q5.639444,12.193973,5.61438,12.254484Q5.589315,12.314996,5.552927,12.369454Q5.516539,12.423913,5.470226,12.470226Q5.423913,12.516539,5.369454,12.552927Q5.314996,12.589315,5.254484,12.61438Q5.193973,12.639444,5.129735,12.652222Q5.0654968,12.665,5,12.665Q4.9345032,12.665,4.870265,12.652222Q4.806027,12.639444,4.745516,12.61438Q4.685004,12.589315,4.630546,12.552927Q4.576087,12.516539,4.529774,12.470226Q4.483461,12.423913,4.447073,12.369454Q4.410685,12.314996,4.38562,12.254484Q4.360556,12.193973,4.347778,12.129735Q4.335,12.0654968,4.335,12Q4.335,11.9345032,4.347778,11.870265Q4.360556,11.806027,4.38562,11.745516Q4.410685,11.685004,4.447073,11.630546Q4.483461,11.576087,4.529774,11.529774Q4.576087,11.483461,4.630546,11.447073Q4.685004,11.410685,4.745516,11.38562Q4.806027,11.360556,4.870265,11.347778Q4.9345032,11.335,5,11.335Q5.0654968,11.335,5.129735,11.347778Q5.193973,11.360556,5.254484,11.38562Q5.314996,11.410685,5.369454,11.447073Q5.423913,11.483461,5.470226,11.529774Q5.516539,11.576087,5.552927,11.630546Q5.589315,11.685004,5.61438,11.745516Q5.639444,11.806027,5.652222,11.870265Q5.665,11.9345032,5.665,12Z" fill="#2E6CE4" fill-opacity="1"/></g><g style="mix-blend-mode:passthrough"><path d="M11,9.665L9,9.665L9,8.335L11,8.335L11,9.665ZM11.665,9Q11.665,9.0654968,11.65222,9.129735Q11.63944,9.193973,11.61438,9.254484Q11.58931,9.314996,11.55293,9.369454Q11.516539999999999,9.423913,11.47023,9.470226Q11.42391,9.516539,11.36945,9.552927Q11.315,9.589315,11.254480000000001,9.61438Q11.19397,9.639444,11.12973,9.652222Q11.0655,9.665,11,9.665Q10.9345,9.665,10.87026,9.652222Q10.80603,9.639444,10.745519999999999,9.61438Q10.685,9.589315,10.63055,9.552927Q10.57609,9.516539,10.52977,9.470226Q10.483460000000001,9.423913,10.44707,9.369454Q10.41068,9.314996,10.38562,9.254484Q10.36056,9.193973,10.34778,9.129735Q10.335,9.0654968,10.335,9Q10.335,8.9345032,10.34778,8.870265Q10.36056,8.806027,10.38562,8.745516Q10.41068,8.685004,10.44707,8.630546Q10.483460000000001,8.576087,10.52977,8.529774Q10.57609,8.483461,10.63055,8.447073Q10.685,8.410685,10.745519999999999,8.38562Q10.80603,8.360556,10.87026,8.347778Q10.9345,8.335,11,8.335Q11.0655,8.335,11.12973,8.347778Q11.19397,8.360556,11.254480000000001,8.38562Q11.315,8.410685,11.36945,8.447073Q11.42391,8.483461,11.47023,8.529774Q11.516539999999999,8.576087,11.55293,8.630546Q11.58931,8.685004,11.61438,8.745516Q11.63944,8.806027,11.65222,8.870265Q11.665,8.9345032,11.665,9ZM9.665,9Q9.665,9.0654968,9.652222,9.129735Q9.639444,9.193973,9.61438,9.254484Q9.589315,9.314996,9.552927,9.369454Q9.516539,9.423913,9.470226,9.470226Q9.423913,9.516539,9.369454,9.552927Q9.314996,9.589315,9.254484,9.61438Q9.193973,9.639444,9.129735,9.652222Q9.0654968,9.665,9,9.665Q8.9345032,9.665,8.870265,9.652222Q8.806027,9.639444,8.745516,9.61438Q8.685004,9.589315,8.630546,9.552927Q8.576087,9.516539,8.529774,9.470226Q8.483461,9.423913,8.447073,9.369454Q8.410685,9.314996,8.38562,9.254484Q8.360556,9.193973,8.347778,9.129735Q8.335,9.0654968,8.335,9Q8.335,8.9345032,8.347778,8.870265Q8.360556,8.806027,8.38562,8.745516Q8.410685,8.685004,8.447073,8.630546Q8.483461,8.576087,8.529774,8.529774Q8.576087,8.483461,8.630546,8.447073Q8.685004,8.410685,8.745516,8.38562Q8.806027,8.360556,8.870265,8.347778Q8.9345032,8.335,9,8.335Q9.0654968,8.335,9.129735,8.347778Q9.193973,8.360556,9.254484,8.38562Q9.314996,8.410685,9.369454,8.447073Q9.423913,8.483461,9.470226,8.529774Q9.516539,8.576087,9.552927,8.630546Q9.589315,8.685004,9.61438,8.745516Q9.639444,8.806027,9.652222,8.870265Q9.665,8.9345032,9.665,9Z" fill="#2E6CE4" fill-opacity="1"/></g><g style="mix-blend-mode:passthrough"><path d="M11,12.665L9,12.665L9,11.335L11,11.335L11,12.665ZM11.665,12Q11.665,12.0654968,11.65222,12.129735Q11.63944,12.193973,11.61438,12.254484Q11.58931,12.314996,11.55293,12.369454Q11.516539999999999,12.423913,11.47023,12.470226Q11.42391,12.516539,11.36945,12.552927Q11.315,12.589315,11.254480000000001,12.61438Q11.19397,12.639444,11.12973,12.652222Q11.0655,12.665,11,12.665Q10.9345,12.665,10.87026,12.652222Q10.80603,12.639444,10.745519999999999,12.61438Q10.685,12.589315,10.63055,12.552927Q10.57609,12.516539,10.52977,12.470226Q10.483460000000001,12.423913,10.44707,12.369454Q10.41068,12.314996,10.38562,12.254484Q10.36056,12.193973,10.34778,12.129735Q10.335,12.0654968,10.335,12Q10.335,11.9345032,10.34778,11.870265Q10.36056,11.806027,10.38562,11.745516Q10.41068,11.685004,10.44707,11.630546Q10.483460000000001,11.576087,10.52977,11.529774Q10.57609,11.483461,10.63055,11.447073Q10.685,11.410685,10.745519999999999,11.38562Q10.80603,11.360556,10.87026,11.347778Q10.9345,11.335,11,11.335Q11.0655,11.335,11.12973,11.347778Q11.19397,11.360556,11.254480000000001,11.38562Q11.315,11.410685,11.36945,11.447073Q11.42391,11.483461,11.47023,11.529774Q11.516539999999999,11.576087,11.55293,11.630546Q11.58931,11.685004,11.61438,11.745516Q11.63944,11.806027,11.65222,11.870265Q11.665,11.9345032,11.665,12ZM9.665,12Q9.665,12.0654968,9.652222,12.129735Q9.639444,12.193973,9.61438,12.254484Q9.589315,12.314996,9.552927,12.369454Q9.516539,12.423913,9.470226,12.470226Q9.423913,12.516539,9.369454,12.552927Q9.314996,12.589315,9.254484,12.61438Q9.193973,12.639444,9.129735,12.652222Q9.0654968,12.665,9,12.665Q8.9345032,12.665,8.870265,12.652222Q8.806027,12.639444,8.745516,12.61438Q8.685004,12.589315,8.630546,12.552927Q8.576087,12.516539,8.529774,12.470226Q8.483461,12.423913,8.447073,12.369454Q8.410685,12.314996,8.38562,12.254484Q8.360556,12.193973,8.347778,12.129735Q8.335,12.0654968,8.335,12Q8.335,11.9345032,8.347778,11.870265Q8.360556,11.806027,8.38562,11.745516Q8.410685,11.685004,8.447073,11.630546Q8.483461,11.576087,8.529774,11.529774Q8.576087,11.483461,8.630546,11.447073Q8.685004,11.410685,8.745516,11.38562Q8.806027,11.360556,8.870265,11.347778Q8.9345032,11.335,9,11.335Q9.0654968,11.335,9.129735,11.347778Q9.193973,11.360556,9.254484,11.38562Q9.314996,11.410685,9.369454,11.447073Q9.423913,11.483461,9.470226,11.529774Q9.516539,11.576087,9.552927,11.630546Q9.589315,11.685004,9.61438,11.745516Q9.639444,11.806027,9.652222,11.870265Q9.665,11.9345032,9.665,12Z" fill="#2E6CE4" fill-opacity="1"/></g><g style="mix-blend-mode:passthrough"><path d="" fill="#999999" fill-opacity="1"/></g></g></svg>