<svg xmlns="http://www.w3.org/2000/svg" xmlns:xlink="http://www.w3.org/1999/xlink" fill="none" version="1.1" width="10.00421142578125" height="11.986006736755371" viewBox="0 0 10.00421142578125 11.986006736755371"><g><path d="M3.83815,11.986C3.71921,11.986,3.60727,11.93,3.5443,11.93C3.36939,11.8111,3.25045,11.5802,3.25045,11.4053L3.25045,6.33983L0.122081,0.9375C0.00314093,0.762588,-0.0530114,0.531704,0.0659291,0.293823C0.18487,0.118911,0.359947,0,0.590831,0L9.41528,0C9.64617,0,9.82125,0.118911,9.94019,0.293823C10.0591,0.468736,9.99598,0.699599,9.88403,0.874512L6.75569,6.33983L6.75569,10.2439C6.75569,10.4748,6.63675,10.6497,6.40587,10.7686L4.07603,11.937C4.01307,11.986,3.95709,11.986,3.83815,11.986Z" fill="#0256FF" fill-opacity="1"/></g></svg>