<svg xmlns="http://www.w3.org/2000/svg" xmlns:xlink="http://www.w3.org/1999/xlink" fill="none" version="1.1" width="48" height="48" viewBox="0 0 48 48"><defs><clipPath id="master_svg0_4071_53054"><rect x="0" y="0" width="48" height="48" rx="0"/></clipPath><clipPath id="master_svg1_4071_53056"><rect x="10" y="10" width="28" height="28" rx="0"/></clipPath></defs><g clip-path="url(#master_svg0_4071_53054)"><g style="mix-blend-mode:passthrough"><ellipse cx="24.000001907348633" cy="24.000001907348633" rx="24.000001907348633" ry="24.000001907348633" fill="#FAC052" fill-opacity="1"/></g><g clip-path="url(#master_svg1_4071_53056)"><g><path d="M31.13128544921875,37.125L17.08758544921875,37.125C15.16258544921875,37.125,13.58758544921875,35.55,13.58758544921875,33.625L13.58758544921875,17C13.58758544921875,15.075,15.16258544921875,13.5,17.08758544921875,13.5L31.13128544921875,13.5C33.05638544921875,13.5,34.63128544921875,15.075,34.63128544921875,17L34.63128544921875,33.625C34.63128544921875,35.55,33.05638544921875,37.125,31.13128544921875,37.125Z" fill="#F1F6FF" fill-opacity="1"/></g><g><path d="M36.68758544921875,25.181227423828126L35.72508544921875,24.568726423828124C35.33133544921875,24.306227423828126,34.76258544921875,24.437476633828126,34.54383544921875,24.831225423828126L33.93133544921875,25.793729423828125C33.84383544921875,25.924979423828127,33.88758544921875,26.099979423828124,34.01883544921875,26.187479423828126L35.98758544921875,27.368729423828125C36.11883544921875,27.456229423828127,36.29383544921875,27.412479423828124,36.38133544921875,27.281229423828126L36.99383544921875,26.318729423828124C37.25633544921875,25.968729423828126,37.12508544921875,25.399977423828126,36.68758544921875,25.181227423828126ZM29.51258544921875,33.27497942382813L31.43758544921875,34.45625942382813C31.56883544921875,34.54375942382812,31.74383544921875,34.49995942382812,31.87508544921875,34.36872942382813L35.76883544921875,28.331229423828127C35.85633544921875,28.199979423828125,35.81258544921875,28.024979423828125,35.68133544921875,27.893729423828127L33.75633544921875,26.712479423828125C33.62508544921875,26.624979423828126,33.45008544921875,26.668729423828125,33.31883544921875,26.799979423828127L29.42508544921875,32.881229423828124C29.29383644921875,33.012479423828125,29.33758544921875,33.18747942382812,29.51258544921875,33.27497942382813ZM28.98758544921875,36.68745942382812L30.95633544921875,35.37495942382812C31.13133544921875,35.24375942382812,31.13133544921875,34.98125942382812,30.95633544921875,34.849959423828125L29.25008544921875,33.84372942382812C29.07508444921875,33.756229423828124,28.81258544921875,33.84372942382812,28.76883544921875,34.06247942382812L28.46258544921875,36.42495942382813C28.50633474921875,36.64375942382813,28.76883544921875,36.86245942382813,28.98758544921875,36.68745942382812Z" fill="#FCD385" fill-opacity="1"/></g><g><path d="M28.50628544921875,15.25L19.71258544921875,15.25C19.01258544921875,15.25,18.40008544921875,14.6375,18.40008544921875,13.9375L18.40008544921875,12.1875C18.40008544921875,11.44375,19.01258544921875,10.875,19.71258544921875,10.875L28.506385449218747,10.875C29.25008544921875,10.875,29.818885449218747,11.44375,29.818885449218747,12.1875L29.818885449218747,13.9375C29.818885449218747,14.6375,29.20638544921875,15.25,28.50628544921875,15.25Z" fill="#FCD385" fill-opacity="1"/></g><g><path d="M30.16883544921875,21.6814453125L24.61258744921875,21.6814453125C24.21883644921875,21.6814453125,23.86883711814875,21.3751953125,23.86883711814875,20.9376953125L23.86883711814875,20.6314453125C23.86883711814875,20.2376963125,24.17508744921875,19.8876953125,24.61258744921875,19.8876953125L30.16883544921875,19.8876953125C30.56258544921875,19.8876953125,30.91258544921875,20.2376953125,30.91258544921875,20.6314453125L30.91258544921875,20.9376953125C30.91258544921875,21.3314453125,30.56258544921875,21.6814453125,30.16883544921875,21.6814453125ZM31.04383544921875,26.6251953125L24.61258744921875,26.6251953125C24.21883644921875,26.6251953125,23.86883711814875,26.2751953125,23.86883711814875,25.8814453125L23.86883711814875,25.5751953125C23.86883711814875,25.1814453125,24.17508744921875,24.8314453125,24.61258744921875,24.8314453125L31.04383544921875,24.8314453125C31.43758544921875,24.8314453125,31.78758544921875,25.1814453125,31.78758544921875,25.5751953125L31.78758544921875,25.8814453125C31.78758544921875,26.2751953125,31.48133544921875,26.6251953125,31.04383544921875,26.6251953125ZM28.41883544921875,31.5689953125L24.61258544921875,31.5689953125C24.21883544921875,31.5689953125,23.86883544921875,31.2189953125,23.86883544921875,30.8251953125L23.86883544921875,30.5188953125C23.86883544921875,30.1251953125,24.17508544921875,29.7751953125,24.61258544921875,29.7751953125L28.41883544921875,29.7751953125C28.81258544921875,29.7751953125,29.16258544921875,30.1251953125,29.16258544921875,30.5188953125L29.16258544921875,30.8251953125C29.16258544921875,31.2189953125,28.81258544921875,31.5689953125,28.41883544921875,31.5689953125Z" fill="#FAC052" fill-opacity="1"/></g><g><path d="M20.85008794921875,20.54371287890625L18.44383794921875,23.08121587890625L17.74383794921875,22.33746587890625C17.43758794921875,22.03121587890625,16.91258594921875,22.03121587890625,16.60633494921875,22.33746587890625C16.30008534921875,22.68746587890625,16.30008534921875,23.21246587890625,16.60633494921875,23.51871587890625L17.83133794921875,24.83121587890625C17.96258794921875,25.00621587890625,18.18133794921875,25.093715878906252,18.40008794921875,25.093715878906252C18.61883794921875,25.093715878906252,18.83758794921875,25.00621587890625,18.96883794921875,24.83121587890625L21.90008794921875,21.72496587890625C22.20633794921875,21.41871587890625,22.250087949218752,20.84996387890625,21.94383794921875,20.54371287890625C21.68133794921875,20.23746287890625,21.156337949218752,20.23746287890625,20.85008794921875,20.54371287890625Z" fill="#FAC052" fill-opacity="1"/></g></g></g></svg>