<svg xmlns="http://www.w3.org/2000/svg" xmlns:xlink="http://www.w3.org/1999/xlink" fill="none" version="1.1" width="11.666666030883789" height="11.666666030883789" viewBox="0 0 11.666666030883789 11.666666030883789"><g><path d="M8.75,1.16667L11.0833,1.16667C11.4055,1.16667,11.6667,1.42783,11.6667,1.75L11.6667,11.0833C11.6667,11.4055,11.4055,11.6667,11.0833,11.6667L0.583333,11.6667C0.261167,11.6667,0,11.4055,0,11.0833L0,1.75C0,1.42783,0.261167,1.16667,0.583333,1.16667L2.91667,1.16667L2.91667,0L4.08333,0L4.08333,1.16667L7.58333,1.16667L7.58333,0L8.75,0L8.75,1.16667ZM1.16667,4.66667L1.16667,10.5L10.5,10.5L10.5,4.66667L1.16667,4.66667ZM2.33333,5.83333L3.5,5.83333L3.5,7L2.33333,7L2.33333,5.83333ZM2.33333,8.16667L3.5,8.16667L3.5,9.33333L2.33333,9.33333L2.33333,8.16667ZM4.66667,5.83333L9.33333,5.83333L9.33333,7L4.66667,7L4.66667,5.83333ZM4.66667,8.16667L7.58333,8.16667L7.58333,9.33333L4.66667,9.33333L4.66667,8.16667Z" fill="#262626" fill-opacity="1"/></g></svg>