<svg xmlns="http://www.w3.org/2000/svg" xmlns:xlink="http://www.w3.org/1999/xlink" fill="none" version="1.1" width="32" height="32" viewBox="0 0 32 32"><defs><clipPath id="master_svg0_958_63451"><rect x="0" y="0" width="32" height="32" rx="8"/></clipPath><clipPath id="master_svg1_958_63452"><rect x="6" y="6" width="20" height="20" rx="0"/></clipPath></defs><g style="mix-blend-mode:passthrough" clip-path="url(#master_svg0_958_63451)"><rect x="0" y="0" width="32" height="32" rx="8" fill="#F5F7FA" fill-opacity="1"/><g clip-path="url(#master_svg1_958_63452)"><g><path d="M23.5,8.5L23.5,14.125C23.5,14.5,23.25,14.75,22.875,14.75C22.5,14.75,22.25,14.5,22.25,14.125L22.25,10.625L18.375,14.625C18.25,14.75,18,14.75,17.875,14.75C17.75,14.75,17.5,14.75,17.375,14.625C17.25,14.375,17.25,13.875,17.375,13.625L21.375,9.75L17.875,9.75C17.5,9.75,17.25,9.5,17.25,9.125C17.25,8.75,17.5,8.5,17.875,8.5L23.5,8.5ZM14.625,17.375C14.375,17.25,13.875,17.125,13.625,17.375L9.75,21.375L9.75,17.875C9.75,17.5,9.5,17.25,9.125,17.25C8.75,17.25,8.5,17.5,8.5,17.875L8.5,23.5L14.125,23.5C14.5,23.5,14.75,23.25,14.75,22.875C14.75,22.5,14.5,22.25,14.125,22.25L10.625,22.25L14.625,18.375C14.75,18.125,14.75,17.625,14.625,17.375ZM14.75,9.125C14.75,8.75,14.5,8.5,14.125,8.5L8.5,8.5L8.5,14.125C8.5,14.5,8.75,14.75,9.125,14.75C9.5,14.75,9.75,14.5,9.75,14.125L9.75,10.625L13.625,14.5C13.75,14.75,14,14.75,14.125,14.75C14.25,14.75,14.5,14.75,14.625,14.625C14.75,14.375,14.75,13.875,14.625,13.625L10.625,9.75L14.125,9.75C14.5,9.75,14.75,9.5,14.75,9.125ZM22.875,17.25C22.5,17.25,22.25,17.5,22.25,17.875L22.25,21.375L18.375,17.5C18.125,17.25,17.625,17.25,17.375,17.5C17.25,17.75,17.25,18.125,17.375,18.375L21.25,22.25L17.875,22.25C17.5,22.25,17.25,22.5,17.25,22.875C17.25,23.25,17.5,23.5,17.875,23.5L23.5,23.5L23.5,17.875C23.5,17.5,23.25,17.25,22.875,17.25Z" fill="#2E6CE4" fill-opacity="1"/><path d="M23.3,17.875Q23.3,17.45,22.875,17.45Q22.6766,17.45,22.563299999999998,17.563299999999998Q22.45,17.676589999999997,22.45,17.875L22.45,21.857799999999997L18.23358,17.64142Q18.104660000000003,17.5125,17.875,17.5125Q17.645339999999997,17.5125,17.51642,17.64142L17.375,17.5L17.553890000000003,17.58944Q17.37986,17.9375,17.553890000000003,18.28556L17.375,18.375L17.51642,18.23358L21.732799999999997,22.45L17.875,22.45Q17.45,22.45,17.45,22.875Q17.45,23.3,17.875,23.3L23.5,23.3L23.5,23.5L23.3,23.5L23.3,17.875ZM23.7,17.875L23.7,23.7L17.875,23.7Q17.510910000000003,23.7,17.280450000000002,23.4695Q17.05,23.2391,17.05,22.875Q17.05,22.5109,17.280450000000002,22.2805Q17.510910000000003,22.05,17.875,22.05L21.25,22.05L21.25,22.25L21.1086,22.3914L17.210630000000002,18.493470000000002L17.196109999999997,18.46444Q16.932650000000002,17.9375,17.196109999999997,17.41056L17.210630000000002,17.381529999999998L17.23358,17.35858Q17.479660000000003,17.1125,17.875,17.1125Q18.270339999999997,17.1125,18.5164,17.35858L22.3914,21.2336L22.25,21.375L22.05,21.375L22.05,17.875Q22.05,17.510910000000003,22.2805,17.280450000000002Q22.5109,17.05,22.875,17.05Q23.2391,17.05,23.4695,17.280450000000002Q23.7,17.510910000000003,23.7,17.875ZM14.125,9.55Q14.55,9.55,14.55,9.125Q14.55,8.926593,14.4367,8.813296Q14.323409999999999,8.7,14.125,8.7L8.5,8.7L8.5,8.5L8.7,8.5L8.7,14.125Q8.7,14.55,9.125,14.55Q9.323407,14.55,9.436704,14.4367Q9.55,14.323409999999999,9.55,14.125L9.55,10.14216L13.78937,14.38153L13.803889999999999,14.41056Q13.87361,14.55,14.125,14.55Q14.417159999999999,14.55,14.48358,14.48358L14.625,14.625L14.446110000000001,14.53556Q14.51875,14.39029,14.51875,14.125Q14.51875,13.85971,14.446110000000001,13.71444L14.625,13.625L14.48584,13.768650000000001L10.13111,9.55L14.125,9.55ZM14.125,9.95L10.625,9.95L10.625,9.75L10.76416,9.606349999999999L14.788640000000001,13.50507L14.803889999999999,13.53556Q14.91875,13.76529,14.91875,14.125Q14.91875,14.48471,14.803889999999999,14.71444L14.78937,14.74347L14.76642,14.76642Q14.582840000000001,14.95,14.125,14.95Q13.62639,14.95,13.446110000000001,14.58944L13.625,14.5L13.48358,14.64142L9.60858,10.76642L9.75,10.625L9.95,10.625L9.95,14.125Q9.95,14.489090000000001,9.71955,14.71955Q9.489093,14.95,9.125,14.95Q8.760907,14.95,8.5304536,14.71955Q8.3,14.489090000000001,8.3,14.125L8.3,8.3L14.125,8.3Q14.489090000000001,8.3,14.71955,8.5304536Q14.95,8.760907,14.95,9.125Q14.95,9.489093,14.71955,9.71955Q14.489090000000001,9.95,14.125,9.95ZM14.446110000000001,18.28556Q14.51875,18.14029,14.51875,17.875Q14.51875,17.60971,14.446110000000001,17.46444L14.625,17.375L14.53556,17.553890000000003Q13.99782,17.28502,13.76642,17.51642L9.55,21.8689L9.55,17.875Q9.55,17.45,9.125,17.45Q8.926593,17.45,8.813296,17.563299999999998Q8.7,17.676589999999997,8.7,17.875L8.7,23.5L8.5,23.5L8.5,23.3L14.125,23.3Q14.55,23.3,14.55,22.875Q14.55,22.6766,14.4367,22.563299999999998Q14.323409999999999,22.45,14.125,22.45L10.13111,22.45L14.48584,18.23135L14.625,18.375L14.446110000000001,18.28556ZM14.788640000000001,18.49493L10.76416,22.3936L10.625,22.25L10.625,22.05L14.125,22.05Q14.489090000000001,22.05,14.71955,22.2805Q14.95,22.5109,14.95,22.875Q14.95,23.2391,14.71955,23.4695Q14.489090000000001,23.7,14.125,23.7L8.3,23.7L8.3,17.875Q8.3,17.510910000000003,8.5304536,17.280450000000002Q8.760907,17.05,9.125,17.05Q9.489093,17.05,9.71955,17.280450000000002Q9.95,17.510910000000003,9.95,17.875L9.95,21.375L9.75,21.375L9.606349999999999,21.235799999999998L13.48358,17.23358Q13.71744,16.99972,14.14161,17.035069999999997Q14.44249,17.06014,14.71444,17.196109999999997L14.77407,17.225929999999998L14.803889999999999,17.28556Q14.91875,17.51529,14.91875,17.875Q14.91875,18.23471,14.803889999999999,18.46444L14.788640000000001,18.49493ZM17.875,8.3L23.7,8.3L23.7,14.125Q23.7,14.489090000000001,23.4695,14.71955Q23.2391,14.95,22.875,14.95Q22.5109,14.95,22.2805,14.71955Q22.05,14.489090000000001,22.05,14.125L22.05,10.625L22.25,10.625L22.3936,10.76416L18.5186,14.76416Q18.332839999999997,14.95,17.875,14.95Q17.417160000000003,14.95,17.23358,14.76642L17.210630000000002,14.74347L17.196109999999997,14.71444Q17.08125,14.48471,17.08125,14.125Q17.08125,13.76529,17.196109999999997,13.53556L17.21136,13.50507L21.235799999999998,9.606349999999999L21.375,9.75L21.375,9.95L17.875,9.95Q17.510910000000003,9.95,17.280450000000002,9.71955Q17.05,9.489093,17.05,9.125Q17.05,8.760907,17.280450000000002,8.5304536Q17.510910000000003,8.3,17.875,8.3ZM17.875,8.7Q17.676589999999997,8.7,17.563299999999998,8.813296Q17.45,8.926593,17.45,9.125Q17.45,9.55,17.875,9.55L21.8689,9.55L17.51416,13.768650000000001L17.375,13.625L17.553890000000003,13.71444Q17.48125,13.85971,17.48125,14.125Q17.48125,14.39029,17.553890000000003,14.53556L17.375,14.625L17.51642,14.48358Q17.582839999999997,14.55,17.875,14.55Q18.167160000000003,14.55,18.23135,14.48584L22.45,10.13111L22.45,14.125Q22.45,14.323409999999999,22.563299999999998,14.4367Q22.6766,14.55,22.875,14.55Q23.3,14.55,23.3,14.125L23.3,8.5L23.5,8.5L23.5,8.7L17.875,8.7Z" fill="#2E6CE4" fill-opacity="1"/></g></g><rect x="0.5" y="0.5" width="31" height="31" rx="7.5" fill-opacity="0" stroke-opacity="1" stroke="#C0D3F7" fill="none" stroke-width="1"/></g></svg>