<svg xmlns="http://www.w3.org/2000/svg" xmlns:xlink="http://www.w3.org/1999/xlink" fill="none" version="1.1" width="12" height="12" viewBox="0 0 12 12"><g><path d="M6,0C9.3136,0,12,2.6864,12,6C12,9.3136,9.3136,12,6,12C2.6864,12,0,9.3136,0,6C0,2.6864,2.6864,0,6,0ZM5.4628,2.5172C5.3066,2.36105,5.0534,2.36105,4.8972,2.5172L2.9172,4.4972L2.886,4.532C2.76028,4.69124,2.77369,4.91938,2.9172,5.0628L4.8972,7.0428L4.932,7.0736C5.09114,7.19943,5.31928,7.18619,5.4628,7.0428L5.494,7.0076C5.61972,6.84836,5.60631,6.62022,5.4628,6.4768L4.028,5.0424L7.0916,5.0424L7.1764,5.0448C8.078,5.0864,8.7884,5.79,8.7884,6.6428C8.7884,7.522,8.0324,8.2428,7.0916,8.2428L3.94,8.2428L3.8932,8.2452C3.68144,8.26844,3.52505,8.45357,3.53753,8.66624C3.55001,8.87891,3.72697,9.04448,3.94,9.0428L7.0912,9.0428L7.1824,9.0412C8.5152,8.9948,9.588,7.9428,9.588,6.6428C9.588,5.3128,8.466,4.2428,7.0912,4.2428L4.302,4.2424L5.462,3.0828L5.4936,3.048C5.61932,2.88876,5.60591,2.66061,5.4624,2.5172L5.4628,2.5172Z" fill="#2E6CE4" fill-opacity="1"/></g></svg>