<svg xmlns="http://www.w3.org/2000/svg" xmlns:xlink="http://www.w3.org/1999/xlink" fill="none" version="1.1" width="100.7808837890625" height="103.33956909179688" viewBox="0 0 100.7808837890625 103.33956909179688"><defs><linearGradient x1="0.5" y1="-3.0616171314629196e-17" x2="0.5" y2="1" id="master_svg0_1_2929"><stop offset="0%" stop-color="#7FBFFA" stop-opacity="1"/><stop offset="100%" stop-color="#4089F4" stop-opacity="1"/></linearGradient><filter id="master_svg1_948_32293/1_2931" filterUnits="objectBoundingBox" color-interpolation-filters="sRGB" x="-38" y="-38" width="94.4482364654541" height="98.53487396240234"><feFlood flood-opacity="0" result="BackgroundImageFix"/><feBlend mode="normal" in="SourceGraphic" in2="BackgroundImageFix" result="shape"/><feGaussianBlur stdDeviation="9.5" result="effect1_foregroundBlur"/></filter><filter id="master_svg2_948_32293/1_2906" filterUnits="objectBoundingBox" color-interpolation-filters="sRGB" x="0" y="0" width="32.94520950317383" height="38.83401870727539"><feFlood flood-opacity="0" result="BackgroundImageFix"/><feBlend mode="normal" in="SourceGraphic" in2="BackgroundImageFix" result="shape"/><feGaussianBlur in="BackgroundImage" stdDeviation="12"/><feComposite in2="SourceAlpha" operator="in" result="effect1_foregroundBlur"/><feBlend mode="normal" in="SourceGraphic" in2="effect1_foregroundBlur" result="shape"/></filter><linearGradient x1="0.15918369591236115" y1="0.11650128662586212" x2="0.795918345451355" y2="0.907483696937561" id="master_svg3_1_2912"><stop offset="0%" stop-color="#FFFFFF" stop-opacity="0.25"/><stop offset="100%" stop-color="#FFFFFF" stop-opacity="0"/></linearGradient><filter id="master_svg4_948_32293/1_2920" filterUnits="objectBoundingBox" color-interpolation-filters="sRGB" x="-15" y="-15" width="51.40324592590332" height="51.521634101867676"><feFlood flood-opacity="0" result="BackgroundImageFix"/><feColorMatrix in="SourceAlpha" type="matrix" values="0 0 0 0 0 0 0 0 0 0 0 0 0 0 0 0 0 0 127 0"/><feOffset dy="5" dx="5"/><feGaussianBlur stdDeviation="5"/><feColorMatrix type="matrix" values="0 0 0 0 0.250980406999588 0 0 0 0 0.5372549295425415 0 0 0 0 0.95686274766922 0 0 0 0.5 0"/><feBlend mode="normal" in2="BackgroundImageFix" result="effect1_dropShadow"/><feBlend mode="normal" in="SourceGraphic" in2="effect1_dropShadow" result="shape"/><feGaussianBlur in="BackgroundImage" stdDeviation="7.5"/><feComposite in2="SourceAlpha" operator="in" result="effect2_foregroundBlur"/><feBlend mode="normal" in="SourceGraphic" in2="effect2_foregroundBlur" result="shape"/></filter><linearGradient x1="0.9291008114814758" y1="0.18057993054389954" x2="-0.1481175422668457" y2="1.3421075344085693" id="master_svg5_1_2916"><stop offset="1.4285714365541935%" stop-color="#FFFFFF" stop-opacity="1"/><stop offset="100%" stop-color="#FFFFFF" stop-opacity="0.20000000298023224"/></linearGradient><linearGradient x1="0.15918369591236115" y1="0.11650128662586212" x2="0.795918345451355" y2="0.907483696937561" id="master_svg6_1_2912"><stop offset="0%" stop-color="#FFFFFF" stop-opacity="0.25"/><stop offset="100%" stop-color="#FFFFFF" stop-opacity="0"/></linearGradient><filter id="master_svg7_948_32293/1_2913" filterUnits="objectBoundingBox" color-interpolation-filters="sRGB" x="-15" y="-15" width="49.56059455871582" height="49.9854040145874"><feFlood flood-opacity="0" result="BackgroundImageFix"/><feColorMatrix in="SourceAlpha" type="matrix" values="0 0 0 0 0 0 0 0 0 0 0 0 0 0 0 0 0 0 127 0"/><feOffset dy="5" dx="5"/><feGaussianBlur stdDeviation="5"/><feColorMatrix type="matrix" values="0 0 0 0 0.25882354378700256 0 0 0 0 0.5411764979362488 0 0 0 0 0.9607843160629272 0 0 0 0.5 0"/><feBlend mode="normal" in2="BackgroundImageFix" result="effect1_dropShadow"/><feBlend mode="normal" in="SourceGraphic" in2="effect1_dropShadow" result="shape"/><feGaussianBlur in="BackgroundImage" stdDeviation="7.5"/><feComposite in2="SourceAlpha" operator="in" result="effect2_foregroundBlur"/><feBlend mode="normal" in="SourceGraphic" in2="effect2_foregroundBlur" result="shape"/></filter><linearGradient x1="0.9291008114814758" y1="0.18057993054389954" x2="-0.1481175422668457" y2="1.3421075344085693" id="master_svg8_1_2916"><stop offset="1.4285714365541935%" stop-color="#FFFFFF" stop-opacity="1"/><stop offset="100%" stop-color="#FFFFFF" stop-opacity="0.20000000298023224"/></linearGradient><linearGradient x1="0.15918369591236115" y1="0.11650128662586212" x2="0.795918345451355" y2="0.907483696937561" id="master_svg9_1_2912"><stop offset="0%" stop-color="#FFFFFF" stop-opacity="0.25"/><stop offset="100%" stop-color="#FFFFFF" stop-opacity="0"/></linearGradient></defs><g style="mix-blend-mode:passthrough"><g style="mix-blend-mode:passthrough"><g transform="matrix(0.9451475143432617,-0.32664379477500916,0.32664379477500916,0.9451475143432617,-12.479755788199313,12.867034823521166)"><g style="mix-blend-mode:passthrough" transform="matrix(0.9999998211860657,-0.0005969422054477036,-0.0005960434791631997,0.9999997615814209,0.025999398241381755,0.019168550087528047)"><path d="M40.47831477325224,43.61034107208252C40.47831477325224,43.61034107208252,54.28291477325223,43.61034107208252,54.28291477325223,43.61034107208252C54.28291477325223,43.61034107208252,64.01451477325223,54.09424107208252,64.01451477325223,54.09424107208252C64.01451477325223,54.09424107208252,64.01451477325223,72.77754107208253,64.01451477325223,72.77754107208253C64.01451477325223,77.44134107208252,60.277714773252235,81.22114107208252,55.66711477325224,81.22114107208252C55.66711477325224,81.22114107208252,40.868754773252235,81.22114107208252,40.868754773252235,81.22114107208252C36.03509477325223,81.22114107208252,32.093814773252234,77.25324107208252,32.093814773252234,72.36384107208252C32.093814773252234,72.36384107208252,32.093814773252234,52.09159107208252,32.093814773252234,52.09159107208252C32.093814773252234,47.42784107208252,35.84918477325223,43.61034107208252,40.47831477325224,43.61034107208252C40.47831477325224,43.61034107208252,40.47831477325224,43.61034107208252,40.47831477325224,43.61034107208252Z" fill="url(#master_svg0_1_2929)" fill-opacity="1"/></g><g style="mix-blend-mode:passthrough" transform="matrix(-0.9999998211860657,0.0005969422054477036,0.0005960434791631997,-0.9999997615814209,127.93523347308555,162.36627073743904)"></g></g><g style="opacity:0.5;mix-blend-mode:passthrough" transform="matrix(-0.9449523687362671,0.3272079825401306,-0.32608047127723694,-0.9453420042991638,141.44340501765856,94.82253323733416)" filter="url(#master_svg1_948_32293/1_2931)"><path d="M67.62661983971297,59.30316352844238C67.62661983971297,59.30316352844238,71.45604983971297,59.30316352844238,71.45604983971297,59.30316352844238C74.09626983971297,59.30316352844238,76.61196983971297,60.42797352844238,78.37466983971298,62.39666352844238C78.37466983971298,62.39666352844238,78.85476983971297,62.932893528442385,78.85476983971297,62.932893528442385C80.38356983971298,64.64034352844239,81.22906983971298,66.85305352844239,81.22906983971298,69.14645352844238C81.22906983971298,69.14645352844238,81.22906983971298,76.77896352844238,81.22906983971298,76.77896352844238C81.22906983971298,79.57326352844238,79.06946983971298,81.83806352844238,76.40486983971297,81.83806352844238C76.40486983971297,81.83806352844238,67.85225983971297,81.83806352844238,67.85225983971297,81.83806352844238C65.05868983971298,81.83806352844238,62.78086983971298,79.46056352844238,62.78086983971298,76.53106352844239C62.78086983971298,76.53106352844239,62.78086983971298,64.38477352844238,62.78086983971298,64.38477352844238C62.78086983971298,61.59045352844238,64.95124983971297,59.30316352844238,67.62661983971297,59.30316352844238C67.62661983971297,59.30316352844238,67.62661983971297,59.30316352844238,67.62661983971297,59.30316352844238Z" fill="#1D6ADC" fill-opacity="1"/></g></g><g style="mix-blend-mode:passthrough"><g style="mix-blend-mode:passthrough" filter="url(#master_svg2_948_32293/1_2906)"><path d="M53.80698938598633,38.74688720703125C53.80698938598633,38.74688720703125,68.05463938598632,38.74688720703125,68.05463938598632,38.74688720703125C68.05463938598632,38.74688720703125,78.09853938598633,49.571687207031246,78.09853938598633,49.571687207031246C78.09853938598633,49.571687207031246,78.09853938598633,68.86268720703126,78.09853938598633,68.86268720703126C78.09853938598633,73.67808720703124,74.24183938598632,77.58088720703125,69.48333938598633,77.58088720703125C69.48333938598633,77.58088720703125,54.20988938598633,77.58088720703125,54.20988938598633,77.58088720703125C49.22111938598633,77.58088720703125,45.15333938598633,73.48388720703124,45.15333938598633,68.43548720703126C45.15333938598633,68.43548720703126,45.15333938598633,47.50393720703125,45.15333938598633,47.50393720703125C45.15333938598633,42.68854720703125,49.02923938598633,38.74688720703125,53.80698938598633,38.74688720703125C53.80698938598633,38.74688720703125,53.80698938598633,38.74688720703125,53.80698938598633,38.74688720703125Z" fill="#7BBAFA" fill-opacity="0.3499999940395355"/><path d="M68.05463938598632,37.74688720703125L53.80698938598633,37.74688720703125Q51.84215938598633,37.74688720703125,50.04449938598633,38.51922020703125Q48.312649385986326,39.26327720703125,46.97667938598633,40.617287207031254Q45.643166385986326,41.96880720703125,44.911119385986325,43.71811720703125Q44.15333938598633,45.52891720703125,44.15333938598633,47.50393720703125L44.15333938598633,68.43548720703126Q44.15333938598633,70.49608720703125,44.94484138598633,72.38138720703125Q45.70876038598633,74.20098720703125,47.10055938598633,75.60528720703125Q48.49267938598633,77.00988720703126,50.29705938598633,77.78138720703126Q52.167209385986325,78.58088720703125,54.20988938598633,78.58088720703125L69.48333938598633,78.58088720703125Q71.44123938598634,78.58088720703125,73.23043938598633,77.81518720703124Q74.95663938598634,77.07638720703125,76.28663938598632,75.73048720703125Q77.61543938598632,74.38578720703126,78.34423938598633,72.64198720703125Q79.09853938598633,70.83708720703126,79.09853938598633,68.86268720703126L79.09853938598633,49.571687207031246Q79.09853938598633,49.38248720703125,79.02943938598634,49.20638720703125Q78.96023938598633,49.03018720703125,78.83153938598633,48.89148720703125L68.78763938598632,38.06671620703125Q68.64573938598633,37.91376320703125,68.45453938598632,37.83032520703125Q68.26323938598632,37.74688720703125,68.05463938598632,37.74688720703125ZM68.05463938598632,38.74688720703125L53.80698938598633,38.74688720703125C49.02923938598633,38.74688720703125,45.15333938598633,42.68854720703125,45.15333938598633,47.50393720703125L45.15333938598633,68.43548720703126C45.15333938598633,73.48388720703124,49.22111938598633,77.58088720703125,54.20988938598633,77.58088720703125L69.48333938598633,77.58088720703125C74.24183938598632,77.58088720703125,78.09853938598633,73.67808720703124,78.09853938598633,68.86268720703126L78.09853938598633,49.571687207031246L68.05463938598632,38.74688720703125Z" fill-rule="evenodd" fill="url(#master_svg3_1_2912)" fill-opacity="1"/></g><g style="mix-blend-mode:passthrough" filter="url(#master_svg4_948_32293/1_2920)"><path d="M65.20955745239257,61.54883396484375C65.20955745239257,61.54883396484375,62.14628745239258,61.54883396484375,62.14628745239258,61.54883396484375C62.14628745239258,61.54883396484375,62.14628745239258,64.64876396484375,62.14628745239258,64.64876396484375C62.14628745239258,65.38336396484375,61.561977452392576,65.97466396484376,60.83597745239258,65.97466396484376C60.110017452392576,65.97466396484376,59.50796745239258,65.38336396484375,59.50796745239258,64.64876396484375C59.50796745239258,64.64876396484375,59.50796745239258,61.54883396484375,59.50796745239258,61.54883396484375C59.50796745239258,61.54883396484375,56.46237745239258,61.54883396484375,56.46237745239258,61.54883396484375C55.73639145239258,61.54883396484375,55.13435745239258,60.957483964843746,55.13435745239258,60.22281396484375C55.13435745239258,59.47028396484375,55.73639145239258,58.87895396484375,56.46237745239258,58.87895396484375C56.46237745239258,58.87895396484375,59.50796745239258,58.87895396484375,59.50796745239258,58.87895396484375C59.50796745239258,58.87895396484375,59.50796745239258,55.77903396484375,59.50796745239258,55.77903396484375C59.50796745239258,55.04437496484375,60.110017452392576,54.45306396484375,60.83597745239258,54.45306396484375C61.561977452392576,54.45306396484375,62.14628745239258,55.04437496484375,62.14628745239258,55.77903396484375C62.14628745239258,55.77903396484375,62.14628745239258,58.87895396484375,62.14628745239258,58.87895396484375C62.14628745239258,58.87895396484375,65.20955745239257,58.87895396484375,65.20955745239257,58.87895396484375C65.93555745239257,58.87895396484375,66.53755745239258,59.47028396484375,66.53755745239258,60.22281396484375C66.53755745239258,60.957483964843746,65.93555745239257,61.54883396484375,65.20955745239257,61.54883396484375Z" fill-rule="evenodd" fill="url(#master_svg5_1_2916)" fill-opacity="1"/><path d="M62.546287452392576,61.54883396484375L65.20955745239257,61.54883396484375C65.93555745239257,61.54883396484375,66.53755745239258,60.957483964843746,66.53755745239258,60.22281396484375C66.53755745239258,59.47028396484375,65.93555745239257,58.87895396484375,65.20955745239257,58.87895396484375L62.14628745239258,58.87895396484375L62.14628745239258,55.77903396484375C62.14628745239258,55.04437496484375,61.561977452392576,54.45306396484375,60.83597745239258,54.45306396484375C60.110017452392576,54.45306396484375,59.50796745239258,55.04437496484375,59.50796745239258,55.77903396484375L59.50796745239258,58.87895396484375L56.46237745239258,58.87895396484375C55.73639145239258,58.87895396484375,55.13435745239258,59.47028396484375,55.13435745239258,60.22281396484375C55.13435745239258,60.957483964843746,55.73639145239258,61.54883396484375,56.46237745239258,61.54883396484375L59.50796745239258,61.54883396484375L59.50796745239258,64.64876396484375C59.50796745239258,65.38336396484375,60.110017452392576,65.97466396484376,60.83597745239258,65.97466396484376C61.561977452392576,65.97466396484376,62.14628745239258,65.38336396484375,62.14628745239258,64.64876396484375L62.14628745239258,61.54883396484375L62.546287452392576,61.54883396484375ZM65.86395745239258,60.87755396484375Q65.59085745239258,61.14883396484375,65.20955745239257,61.14883396484375L61.74628745239258,61.14883396484375L61.74628745239258,64.64876396484375Q61.74628745239258,65.03546396484376,61.478857452392575,65.30606396484374Q61.21338745239258,65.57466396484375,60.83597745239258,65.57466396484375Q60.45471745239258,65.57466396484375,60.18163745239258,65.30346396484376Q59.907967452392576,65.03156396484376,59.907967452392576,64.64876396484375L59.907967452392576,61.14883396484375L56.46237745239258,61.14883396484375Q56.08110845239258,61.14883396484375,55.80803145239258,60.87755396484375Q55.53435745239258,60.60567396484375,55.53435745239258,60.22281396484375Q55.53435745239258,59.82686396484375,55.80934145239258,59.55114396484375Q56.08081545239258,59.27895396484375,56.46237745239258,59.27895396484375L59.907967452392576,59.27895396484375L59.907967452392576,55.77903396484375Q59.907967452392576,55.39619396484375,60.18163745239258,55.12433296484375Q60.45471745239258,54.85306396484375,60.83597745239258,54.85306396484375Q61.21338745239258,54.85306396484375,61.478857452392575,55.12170896484375Q61.74628745239258,55.39233196484375,61.74628745239258,55.77903396484375L61.74628745239258,59.27895396484375L65.20955745239257,59.27895396484375Q65.59115745239258,59.27895396484375,65.86265745239258,59.55114396484375Q66.13755745239257,59.82686396484375,66.13755745239257,60.22281396484375Q66.13755745239257,60.60568396484375,65.86395745239258,60.87755396484375Z" fill-rule="evenodd" fill="url(#master_svg6_1_2912)" fill-opacity="1"/></g><g style="mix-blend-mode:passthrough" filter="url(#master_svg7_948_32293/1_2913)"><path d="M69.83162537231445,51.12183271484375C71.16899537231446,51.13542271484375,73.02831537231445,51.141282714843754,74.60550537231445,51.13542271484375C75.41331537231446,51.13351271484375,75.82393537231445,50.15681271484375,75.26363537231445,49.56848271484375C73.23745537231446,47.43649271484375,69.61288537231445,43.62105271484375,67.53869537231445,41.43858271484375C66.96498537231446,40.83471371484375,65.96147537231445,41.25023751484375,65.96147537231445,42.08710971484375C65.96147537231445,42.08710971484375,65.96147537231445,47.20544271484375,65.96147537231445,47.20544271484375C65.96147537231445,49.352932714843746,67.70947537231446,51.12183271484375,69.83162537231445,51.12183271484375C69.83162537231445,51.12183271484375,69.83162537231445,51.12183271484375,69.83162537231445,51.12183271484375Z" fill="url(#master_svg8_1_2916)" fill-opacity="1"/><path d="M74.60550537231445,51.13542271484375C73.02831537231445,51.141282714843754,71.16899537231446,51.13542271484375,69.83162537231445,51.12183271484375C67.70947537231446,51.12183271484375,65.96147537231445,49.352932714843746,65.96147537231445,47.20544271484375L65.96147537231445,42.08710971484375C65.96147537231445,41.25023751484375,66.96498537231446,40.83471371484375,67.53869537231445,41.43858271484375C69.61288537231445,43.62105271484375,73.23745537231446,47.43649271484375,75.26363537231445,49.56848271484375C75.82393537231445,50.15681271484375,75.41331537231446,51.13351271484375,74.60550537231445,51.13542271484375ZM72.87787537231445,50.73744271484375L69.83367537231446,50.72183271484375L69.83162537231445,50.72183271484375Q68.40709537231446,50.72183271484375,67.38526537231445,49.68779271484375Q66.36147537231446,48.65177271484375,66.36147537231446,47.20544271484375L66.36147537231446,42.08710971484375Q66.36147537231446,41.72675671484375,66.68741637231446,41.59236871484375Q67.00763537231445,41.46034271484375,67.24872537231445,41.71411171484375L71.06436537231446,45.72975271484375L74.97397537231446,49.84434271484375Q75.21366537231445,50.09602271484375,75.07884537231445,50.41691271484375Q74.94535537231445,50.73461271484375,74.60504537231445,50.73542271484375L72.87787537231445,50.73744271484375Z" fill-rule="evenodd" fill="url(#master_svg9_1_2912)" fill-opacity="1"/></g></g></g></svg>