<svg xmlns="http://www.w3.org/2000/svg" xmlns:xlink="http://www.w3.org/1999/xlink" fill="none" version="1.1" width="79.65845489501953" height="82.49231719970703" viewBox="0 0 79.65845489501953 82.49231719970703"><defs><linearGradient x1="1" y1="0" x2="0.5" y2="1" id="master_svg0_1_0398"><stop offset="1.4285714365541935%" stop-color="#FFE225" stop-opacity="1"/><stop offset="100%" stop-color="#FFC300" stop-opacity="1"/></linearGradient><filter id="master_svg1_948_21701" filterUnits="objectBoundingBox" color-interpolation-filters="sRGB" x="-28" y="-28" width="74.94351768493652" height="78.0241870880127"><feFlood flood-opacity="0" result="BackgroundImageFix"/><feBlend mode="normal" in="SourceGraphic" in2="BackgroundImageFix" result="shape"/><feGaussianBlur stdDeviation="7" result="effect1_foregroundBlur"/></filter><filter id="master_svg2_948_21704" filterUnits="objectBoundingBox" color-interpolation-filters="sRGB" x="0" y="0" width="35.41485595703125" height="37.317893981933594"><feFlood flood-opacity="0" result="BackgroundImageFix"/><feBlend mode="normal" in="SourceGraphic" in2="BackgroundImageFix" result="shape"/><feGaussianBlur in="BackgroundImage" stdDeviation="12"/><feComposite in2="SourceAlpha" operator="in" result="effect1_foregroundBlur"/><feBlend mode="normal" in="SourceGraphic" in2="effect1_foregroundBlur" result="shape"/></filter><linearGradient x1="0.15918369591236115" y1="0.11650128662586212" x2="0.795918345451355" y2="0.907483696937561" id="master_svg3_1_0311"><stop offset="0%" stop-color="#FFFFFF" stop-opacity="0.25"/><stop offset="100%" stop-color="#FFFFFF" stop-opacity="0"/></linearGradient><filter id="master_svg4_948_21703" filterUnits="objectBoundingBox" color-interpolation-filters="sRGB" x="-15" y="-15" width="55.7064847946167" height="52.121792793273926"><feFlood flood-opacity="0" result="BackgroundImageFix"/><feColorMatrix in="SourceAlpha" type="matrix" values="0 0 0 0 0 0 0 0 0 0 0 0 0 0 0 0 0 0 127 0"/><feOffset dy="5" dx="5"/><feGaussianBlur stdDeviation="5"/><feColorMatrix type="matrix" values="0 0 0 0 1 0 0 0 0 0.7332549095153809 0 0 0 0 0 0 0 0 0.5 0"/><feBlend mode="normal" in2="BackgroundImageFix" result="effect1_dropShadow"/><feBlend mode="normal" in="SourceGraphic" in2="effect1_dropShadow" result="shape"/><feGaussianBlur in="BackgroundImage" stdDeviation="7.5"/><feComposite in2="SourceAlpha" operator="in" result="effect2_foregroundBlur"/><feBlend mode="normal" in="SourceGraphic" in2="effect2_foregroundBlur" result="shape"/></filter><linearGradient x1="0.9291008114814758" y1="0.18057993054389954" x2="-0.1481175422668457" y2="1.3421075344085693" id="master_svg5_1_0413"><stop offset="0%" stop-color="#FFFFFF" stop-opacity="1"/><stop offset="100%" stop-color="#FFFFFF" stop-opacity="0.20000000298023224"/></linearGradient><linearGradient x1="0.10772184282541275" y1="0.3354516923427582" x2="0.956031322479248" y2="0.4903218150138855" id="master_svg6_1_0416"><stop offset="0%" stop-color="#FFFFFF" stop-opacity="1"/><stop offset="100%" stop-color="#FFFFFF" stop-opacity="0"/></linearGradient></defs><g style="mix-blend-mode:passthrough"><g style="mix-blend-mode:passthrough"><g style="mix-blend-mode:passthrough"><g style="mix-blend-mode:passthrough" transform="matrix(0.9623751044273376,0.2717243432998657,-0.2464422583580017,0.9691574573516846,6.518535523975686,-7.597038056866609)"><path d="M50.809645112609864,21.804201126098633C50.809645112609864,21.804201126098633,37.86354511260986,21.804201126098633,37.86354511260986,21.804201126098633C33.16766511260986,21.804201126098633,30.433545112609863,24.681241126098634,30.433545112609863,29.611001126098632C30.433545112609863,29.611001126098632,30.433545112609863,46.30750112609863,30.433545112609863,46.30750112609863C30.433545112609863,51.31810112609863,33.16766511260986,54.13040112609863,37.86354511260986,54.13040112609863C37.86354511260986,54.13040112609863,50.809645112609864,54.13040112609863,50.809645112609864,54.13040112609863C55.581245112609864,54.13040112609863,58.238145112609864,51.31810112609863,58.238145112609864,46.30750112609863C58.238145112609864,46.30750112609863,58.238145112609864,29.611001126098632,58.238145112609864,29.611001126098632C58.238145112609864,24.681241126098634,55.581245112609864,21.804201126098633,50.809645112609864,21.804201126098633C50.809645112609864,21.804201126098633,50.809645112609864,21.804201126098633,50.809645112609864,21.804201126098633Z" fill="url(#master_svg0_1_0398)" fill-opacity="1"/></g><g style="opacity:0.5;mix-blend-mode:passthrough" transform="matrix(0.9623751044273376,0.2717243432998657,-0.24644224345684052,0.9691574573516846,8.158096471956156,-8.219524702106014)" filter="url(#master_svg1_948_21701)"><path d="M47.310185737609864,28.000001907348633C47.310185737609864,28.000001907348633,38.48982573760986,28.000001907348633,38.48982573760986,28.000001907348633C35.290465737609864,28.000001907348633,33.42768573760986,29.96015190734863,33.42768573760986,33.31883190734863C33.42768573760986,33.31883190734863,33.42768573760986,44.69430190734863,33.42768573760986,44.69430190734863C33.42768573760986,48.10810190734863,35.290465737609864,50.02420190734863,38.48982573760986,50.02420190734863C38.48982573760986,50.02420190734863,47.310185737609864,50.02420190734863,47.310185737609864,50.02420190734863C50.561085737609865,50.02420190734863,52.37118573760986,48.10810190734863,52.37118573760986,44.69430190734863C52.37118573760986,44.69430190734863,52.37118573760986,33.31883190734863,52.37118573760986,33.31883190734863C52.37118573760986,29.96015190734863,50.561085737609865,28.000001907348633,47.310185737609864,28.000001907348633C47.310185737609864,28.000001907348633,47.310185737609864,28.000001907348633,47.310185737609864,28.000001907348633Z" fill="#FF9900" fill-opacity="1"/></g></g><g style="mix-blend-mode:passthrough"><g style="mix-blend-mode:passthrough" filter="url(#master_svg2_948_21704)"><path d="M36.58422395935058,30.486818313598633C36.58422395935058,30.486818313598633,21.23192395935059,30.486818313598633,21.23192395935059,30.486818313598633C15.229113959350585,30.486818313598633,11.191823959350586,34.92764831359863,11.191823959350586,41.53291831359863C11.191823959350586,41.53291831359863,11.191823959350586,56.777318313598634,11.191823959350586,56.777318313598634C11.191823959350586,63.363818313598635,15.229113959350585,67.80471831359864,21.23192395935059,67.80471831359864C21.23192395935059,67.80471831359864,36.58422395935058,67.80471831359864,36.58422395935058,67.80471831359864C42.587123959350585,67.80471831359864,46.60672395935059,63.363818313598635,46.60672395935059,56.777318313598634C46.60672395935059,56.777318313598634,46.60672395935059,41.53291831359863,46.60672395935059,41.53291831359863C46.60672395935059,34.92764831359863,42.587123959350585,30.486818313598633,36.58422395935058,30.486818313598633Z" fill="#FFE11B" fill-opacity="0.3499999940395355"/><path d="M44.587323959350584,32.86118831359863Q41.527823959350584,29.486819313598634,36.58422395935058,29.486819313598634L21.23192395935059,29.486818313598633Q16.287253959350586,29.486818313598633,13.220843959350585,32.860258313598635Q10.191823959350586,36.19255831359863,10.191823959350586,41.53291831359863L10.191823959350586,56.777318313598634Q10.191823959350586,62.10531831359863,13.221243959350586,65.43401831359864Q16.288843959350586,68.80471831359864,21.23192395935059,68.80471831359864L36.58422395935058,68.80471831359864Q41.52622395935059,68.80471831359864,44.586923959350585,65.43311831359864Q47.60672395935059,62.10661831359863,47.60672395935059,56.777318313598634L47.60672395935059,41.53291831359863Q47.60672395935059,36.19119831359863,44.587323959350584,32.86118831359863ZM21.23192395935059,30.486818313598633L36.58422395935058,30.486818313598633C42.587123959350585,30.486818313598633,46.60672395935059,34.92764831359863,46.60672395935059,41.53291831359863L46.60672395935059,56.777318313598634C46.60672395935059,63.363818313598635,42.587123959350585,67.80471831359864,36.58422395935058,67.80471831359864L21.23192395935059,67.80471831359864C15.229113959350585,67.80471831359864,11.191823959350586,63.363818313598635,11.191823959350586,56.777318313598634L11.191823959350586,41.53291831359863C11.191823959350586,34.92764831359863,15.229113959350585,30.486818313598633,21.23192395935059,30.486818313598633Z" fill-rule="evenodd" fill="url(#master_svg3_1_0311)" fill-opacity="1"/></g><g style="mix-blend-mode:passthrough" filter="url(#master_svg4_948_21703)"><path d="M26.797589584350586,55.20529800109863C26.400929584350585,55.20529800109863,26.004309584350587,55.04669800109863,25.701489584350586,54.727598001098634C25.701489584350586,54.727598001098634,21.499536584350587,50.29984800109863,21.499536584350587,50.29984800109863C20.893940584350585,49.66170800109863,20.893940584350585,48.62798800109863,21.499536584350587,47.991728001098636C22.105129584350586,47.35359800109863,23.084349584350587,47.351728001098635,23.689939584350586,47.98985800109863C23.689939584350586,47.98985800109863,26.797589584350586,51.26451800109864,26.797589584350586,51.26451800109864C26.797589584350586,51.26451800109864,34.10723958435059,43.56210200109863,34.10723958435059,43.56210200109863C34.71283958435059,42.923963001098635,35.69203958435058,42.923963001098635,36.297639584350584,43.56210200109863C36.90323958435059,44.20023800109863,36.90323958435059,45.233938001098636,36.297639584350584,45.872078001098636C36.297639584350584,45.872078001098636,27.893689584350586,54.727598001098634,27.893689584350586,54.727598001098634C27.590869584350585,55.04669800109863,27.194249584350587,55.20529800109863,26.797589584350586,55.20529800109863Z" fill="url(#master_svg5_1_0413)" fill-opacity="1"/><path d="M26.659729584350586,51.11924800109863L23.689939584350586,47.98985800109863C23.084349584350587,47.351728001098635,22.105129584350586,47.35359800109863,21.499536584350587,47.991728001098636C20.893940584350585,48.62798800109863,20.893940584350585,49.66170800109863,21.499536584350587,50.29984800109863L25.701489584350586,54.727598001098634C26.004309584350587,55.04669800109863,26.400929584350585,55.20529800109863,26.797589584350586,55.20529800109863C27.194249584350587,55.20529800109863,27.590869584350585,55.04669800109863,27.893689584350586,54.727598001098634L36.297639584350584,45.872078001098636C36.90323958435059,45.233938001098636,36.90323958435059,44.20023800109863,36.297639584350584,43.56210200109863C35.69203958435058,42.923963001098635,34.71283958435059,42.923963001098635,34.10723958435059,43.56210200109863L26.935449584350586,51.11924800109863L26.797589584350586,51.26451800109864L26.659729584350586,51.11924800109863ZM27.748619584350585,54.58989800109863Q27.354419584350588,55.00529800109863,26.797589584350586,55.00529800109863Q26.240759584350585,55.00529800109863,25.846569584350586,54.58989800109863L21.644608584350586,50.162168001098635Q21.245339584350585,49.74144800109863,21.245339584350585,49.145088001098635Q21.245339584350585,48.54888800109863,21.644405584350586,48.129618001098635Q22.039919584350585,47.712848001098635,22.594979584350586,47.712198001098635Q23.150089584350585,47.71153800109863,23.544869584350586,48.12752800109863L26.797589584350586,51.55506800109863L34.25223958435058,43.69977500109863Q34.64733958435059,43.283498001098636,35.202439584350586,43.283498001098636Q35.75753958435058,43.283498001098636,36.152539584350585,43.69977500109863Q36.55183958435059,44.12049800109863,36.55183958435059,44.71708800109863Q36.55183958435059,45.31367800109863,36.152539584350585,45.73439800109863L27.748619584350585,54.58989800109863Z" fill-rule="evenodd" fill="url(#master_svg6_1_0416)" fill-opacity="0.5"/></g></g></g></g></svg>