<svg xmlns="http://www.w3.org/2000/svg" xmlns:xlink="http://www.w3.org/1999/xlink" fill="none" version="1.1" width="48" height="48" viewBox="0 0 48 48"><defs><clipPath id="master_svg0_4021_40165"><rect x="0" y="0" width="48" height="48" rx="0"/></clipPath></defs><g clip-path="url(#master_svg0_4021_40165)"><g style="mix-blend-mode:passthrough"><ellipse cx="24.000001907348633" cy="24.000001907348633" rx="24.000001907348633" ry="24.000001907348633" fill="#56CDB8" fill-opacity="1"/></g><g style="mix-blend-mode:passthrough"><g><path d="M26.386089746093752,17.533441796875L26.37468974609375,17.533441796875C20.89028974609375,15.440071796875,14.74625974609375,17.718491796875,11.78948974609375,22.942091796874998C11.91680374609375,22.216341796875,12.10455074609375,21.503331796875003,12.35061874609375,20.811111796875C15.00919974609375,13.358378796875,23.611889746093752,10.327241796875,30.10448974609375,14.555591796875C30.36708974609375,14.727941796875001,30.70918974609375,14.692931796875,30.93428974609375,14.470691796875L32.157089746093746,13.272464796875C32.432189746093755,13.000803796875,32.826589746093745,12.902509796875,33.190889746093745,13.014839796875C33.55508974609375,13.127169796875,33.83338974609375,13.432927796875,33.92038974609375,13.816241796875L35.13388974609375,21.319421796874998C35.22208974609375,21.700651796875,35.10708974609375,22.101631796874997,34.832189746093746,22.371071796875C34.55738974609375,22.640491796875,34.16458974609375,22.737391796875002,33.80208974609375,22.625121796875L26.56968974609375,21.021741796875C26.20648974609375,20.910121796875,25.92828974609375,20.606121796875,25.84018974609375,20.224341796875C25.75198974609375,19.842571796875,25.86718974609375,19.441081796875,26.142389746093748,19.171211796875L26.62148974609375,18.701581796875C26.98598974609375,18.346071796875002,26.863389746093752,17.717721796875,26.39438974609375,17.536671796874998L26.386089746093752,17.533441796875Z" fill="#FFFFFF" fill-opacity="0.49000000953674316"/></g><g><path d="M35.440191796875,27.395253076171876C32.782891796875,34.84932307617187,24.178691796875,37.88095307617188,17.686341796875,33.65077307617187C17.423721796875,33.47842307617188,17.081581796875,33.51343307617188,16.856571796875002,33.73567307617188L15.633711796875,34.93497307617187C15.040761796875,35.51405307617188,14.065151796875,35.21233307617187,13.875641796875,34.39120307617188L12.661078596875,26.889093076171875C12.473296796875,26.067271076171874,13.213671796875,25.342523676171876,13.994931796875,25.583397076171874L21.224251796875002,27.186773076171875C21.587491796875,27.298033076171876,21.865721796875,27.601843076171875,21.953911796874998,27.983513076171874C22.042101796875002,28.365193076171874,21.926821796875,28.766613076171875,21.651581796875,29.036243076171875L21.173431796875,29.506933076171876C20.807661796875,29.862003076171874,20.930461796875,30.491763076171875,21.400581796875002,30.671853076171875L21.410951796875,30.671853076171875C26.895391796875,32.765213076171875,33.039391796875,30.486803076171874,35.996191796874996,25.263153076171875C35.870591796875004,25.989156076171874,35.684591796875,26.702523076171875,35.440191796875,27.395253076171876Z" fill="#FFFFFF" fill-opacity="1"/></g></g></g></svg>