<svg xmlns="http://www.w3.org/2000/svg" xmlns:xlink="http://www.w3.org/1999/xlink" fill="none" version="1.1" width="48" height="48" viewBox="0 0 48 48"><defs><clipPath id="master_svg0_4021_40088"><rect x="0" y="0" width="48" height="48" rx="0"/></clipPath></defs><g clip-path="url(#master_svg0_4021_40088)"><g style="mix-blend-mode:passthrough"><ellipse cx="24.000001907348633" cy="24.000001907348633" rx="24.000001907348633" ry="24.000001907348633" fill="#FE8A75" fill-opacity="1"/></g><g style="mix-blend-mode:passthrough"><g><path d="M27.553549140625,20.8880358984375Q27.553549140625,20.9929058984375,27.543449140625,21.097275898437502Q27.533349140625,21.2016458984375,27.513249140625,21.3044958984375Q27.493159140625,21.4073558984375,27.463249140625,21.5077158984375Q27.433349140625,21.608075898437498,27.393919140625,21.7049658984375Q27.354499140625002,21.801855898437502,27.305939140625,21.8943458984375Q27.257379140624998,21.986825898437502,27.200139140625,22.0740258984375Q27.142909140625,22.1612258984375,27.077559140625,22.2422958984375Q27.012199140625,22.3233658984375,26.939359140625,22.3975158984375Q26.866519140625,22.4716758984375,26.786879140625,22.5382058984375Q26.707249140625,22.6047358984375,26.621589140624998,22.6630058984375Q26.535939140625,22.7212658984375,26.445079140625,22.770705898437498Q26.354229140625,22.8201358984375,26.259059140625,22.8602758984375Q26.163879140625,22.900405898437498,26.065299140625,22.9308458984375Q25.966719140625,22.9612958984375,25.865679140625,22.9817558984375Q25.764639140625,23.0022158984375,25.662119140625002,23.0124958984375Q25.559599140625,23.0227658984375,25.456579140625,23.0227658984375Q25.353569140624998,23.0227658984375,25.251049140625,23.0124958984375Q25.148519140624998,23.0022158984375,25.047489140625,22.9817558984375Q24.946449140625,22.9612958984375,24.847869140625,22.9308458984375Q24.749289140625,22.900405898437498,24.654109140625,22.8602758984375Q24.558929140625,22.8201358984375,24.468079140625,22.770705898437498Q24.377229140625,22.7212658984375,24.291572140625,22.6630058984375Q24.205916140625,22.6047358984375,24.126283140625,22.5382058984375Q24.046650140625,22.4716758984375,23.973805140625,22.3975158984375Q23.900961140625,22.3233658984375,23.835608140625,22.2422958984375Q23.770254140625,22.1612258984375,23.713021140625,22.0740258984375Q23.655788140625,21.986825898437502,23.607226140625,21.8943458984375Q23.558664140625,21.801855898437502,23.519241140625,21.7049658984375Q23.479818140625,21.608075898437498,23.449913640625,21.5077158984375Q23.420009340625,21.4073558984375,23.399911740625,21.3044958984375Q23.379814040625,21.2016458984375,23.369716640625,21.097275898437502Q23.359619140625,20.9929058984375,23.359619140625,20.8880358984375Q23.359619140625,20.7831558984375,23.369716640625,20.6787958984375Q23.379814040625,20.5744258984375,23.399911740625,20.4715658984375Q23.420009340625,20.3687058984375,23.449913640625,20.2683558984375Q23.479818140625,20.1679958984375,23.519241140625,20.0711058984375Q23.558664140625,19.9742158984375,23.607226140625,19.8817258984375Q23.655788140625,19.7892358984375,23.713021140625,19.7020368984375Q23.770254140625,19.6148378984375,23.835608140625,19.5337698984375Q23.900961140625,19.4527018984375,23.973805140625,19.3785458984375Q24.046650140625,19.3043898984375,24.126283140625,19.2378588984375Q24.205916140625,19.1713278984375,24.291572140625,19.1130638984375Q24.377229140625,19.0547998984375,24.468079140625,19.0053628984375Q24.558929140625,18.9559258984375,24.654109140625,18.9157928984375Q24.749289140625,18.8756598984375,24.847869140625,18.8452169984375Q24.946449140625,18.8147739984375,25.047489140625,18.7943142984375Q25.148519140624998,18.7738545984375,25.251049140625,18.7635751984375Q25.353569140624998,18.7532958984375,25.456579140625,18.7532958984375Q25.559599140625,18.7532958984375,25.662119140625002,18.7635751984375Q25.764639140625,18.7738545984375,25.865679140625,18.7943142984375Q25.966719140625,18.8147739984375,26.065299140625,18.8452169984375Q26.163879140625,18.8756598984375,26.259059140625,18.9157928984375Q26.354229140625,18.9559258984375,26.445079140625,19.0053628984375Q26.535939140625,19.0547998984375,26.621589140624998,19.1130638984375Q26.707249140625,19.1713278984375,26.786879140625,19.2378588984375Q26.866519140625,19.3043898984375,26.939359140625,19.3785458984375Q27.012199140625,19.4527018984375,27.077559140625,19.5337698984375Q27.142909140625,19.6148378984375,27.200139140625,19.7020368984375Q27.257379140624998,19.7892358984375,27.305939140625,19.8817258984375Q27.354499140625002,19.9742158984375,27.393919140625,20.0711058984375Q27.433349140625,20.1679958984375,27.463249140625,20.2683558984375Q27.493159140625,20.3687058984375,27.513249140625,20.4715658984375Q27.533349140625,20.5744258984375,27.543449140625,20.6787958984375Q27.553549140625,20.7831558984375,27.553549140625,20.8880358984375Z" fill="#FFFFFF" fill-opacity="1"/></g><g><path d="M25.45661341796875,18.6353759765625C24.23493941796875,18.6373497565625,23.24596307796875,19.6468059765625,23.24725475787875,20.890495976562498C23.24854643796875,22.1341759765625,24.23961841796875,23.1415059765625,25.46130341796875,23.1408459765625C26.68298341796875,23.1401859765625,27.67300341796875,22.1317959765625,27.67300341796875,20.8881159765625C27.67107341796875,19.6433859765625,26.67932341796875,18.6353759765625,25.45661341796875,18.6353759765625ZM25.45661341796875,23.0228459765625C24.29268341796875,23.0228459765625,23.34911941796875,22.0622959765625,23.34911941796875,20.8773859765625C23.34911941796875,19.6924759765625,24.29268341796875,18.7319220765625,25.45662341796875,18.7319220765625C26.62056341796875,18.7319220765625,27.56412341796875,19.6924759765625,27.56412341796875,20.8773859765625C27.56218341796875,22.0608959765625,26.61919341796875,23.0192759765625,25.45661341796875,23.0192759765625L25.45661341796875,23.0228459765625Z" fill="#FFFFFF" fill-opacity="1"/></g><g><path d="M27.458724101562503,24.0631598046875C29.362004101562498,22.8222898046875,29.7421041015625,20.1517598046875,28.262874101562502,18.4120698046875C26.7836841015625,16.6723768046875,24.1330241015625,16.6723768046875,22.6538341015625,18.4120698046875C21.1746441015625,20.1517598046875,21.5546641015625,22.8222898046875,23.457984101562502,24.0631598046875C21.3288441015625,24.790059804687502,19.7474051015625,26.625289804687498,19.3167451315625,28.868999804687498C19.2585795015625,29.3016998046875,19.5428531015625,29.7052998046875,19.964139101562502,29.7879998046875C20.3854241015625,29.8707998046875,20.7967541015625,29.603799804687497,20.9008841015625,29.1800998046875C21.3190041015625,26.9536698046875,23.2317241015625,25.3434998046875,25.4583541015625,25.3434998046875C27.6849841015625,25.3434998046875,29.5977041015625,26.9536698046875,30.0158041015625,29.1800998046875C30.0881041015625,29.5667998046875,30.4194041015625,29.847099804687502,30.8061041015625,29.848799804687502C30.8529041015625,29.8521998046875,30.8999041015625,29.8521998046875,30.9466041015625,29.848799804687502C31.3868041015625,29.7655998046875,31.6776041015625,29.335099804687502,31.5964041015625,28.886899804687502C31.172804101562498,26.636899804687502,29.5917041015625,24.7935898046875,27.458724101562503,24.0631598046875ZM30.9361041015625,29.7307998046875C30.8928041015625,29.7343998046875,30.8494041015625,29.7343998046875,30.8061041015625,29.7307998046875C30.477504101562502,29.724099804687498,30.197404101562498,29.4864998046875,30.131704101562498,29.158599804687498C29.699904101562502,26.8783698046875,27.7395141015625,25.2306698046875,25.4583541015625,25.2306698046875C23.1771841015625,25.2306698046875,21.2168041015625,26.8783698046875,20.7849741015625,29.158599804687498C20.7040941015625,29.5328998046875,20.3478141015625,29.7756998046875,19.9770941015625,29.7092998046875C19.6082141015625,29.6301998046875,19.3663943015625,29.2688998046875,19.4291441015625,28.8904998046875C19.8717061015625,26.5955898046875,21.5383341015625,24.7457098046875,23.746004101562498,24.0989098046875C21.7588641015625,23.0023898046875,21.2478341015625,20.3326998046875,22.6851441015625,18.5568298046875C24.1224641015625,16.7809738046875,26.794244101562498,16.7809738046875,28.2315541015625,18.5568298046875C29.6689041015625,20.3326998046875,29.1578441015625,23.0023898046875,27.1706941015625,24.0989098046875C29.3833041015625,24.7496298046875,31.0500041015625,26.6093698046875,31.484004101562498,28.9118998046875C31.5468041015625,29.2902998046875,31.3050041015625,29.6516998046875,30.9361041015625,29.7307998046875Z" fill="#FFFFFF" fill-opacity="1"/></g><g><path d="M27.79246865234375,20.8878598046875C27.79246865234375,19.5765698046875,26.74826865234375,18.5135498046875,25.46016865234375,18.5135498046875C24.17207865234375,18.5135498046875,23.12786865234375,19.5765698046875,23.12786865234375,20.8878598046875C23.12786865234375,22.1991598046875,24.17207865234375,23.2621798046875,25.46016865234375,23.2621798046875C26.74745865234375,23.2602098046875,27.79053865234375,22.1983398046875,27.79246865234375,20.8878598046875ZM25.46016865234375,23.1405998046875C24.23848865234375,23.1386298046875,23.24951365234375,22.1291698046875,23.25080565234375,20.8854798046875C23.25209765234375,19.6417998046875,24.24316865234375,18.6344718046875,25.46484865234375,18.6351288046875C26.68652865234375,18.6357878046875,27.67655865234375,19.6441798046875,27.67655865234375,20.8878598046875C27.67461865234375,22.1339898046875,26.68073865234375,23.1425798046875,25.45665865234375,23.1405998046875L25.46016865234375,23.1405998046875Z" fill="#FFFFFF" fill-opacity="1"/></g><g><path d="M29.6856398828125,10.9473876953125L29.3589798828125,10.9473876953125C26.7975898828125,15.956087695312501,29.9664798828125,22.022887695312498,35.4777598828125,22.661587695312498L35.4777598828125,16.840267695312498C35.4681098828125,13.5883976953125,32.8799698828125,10.9552429153125,29.6856398828125,10.9473876953125Z" fill="#FFCCC3" fill-opacity="1"/></g><g style="mix-blend-mode:passthrough"><g><path d="M28.466858105468752,14.6626176953125C28.46525810546875,13.3690476953125,28.77145810546875,12.0943376953125,29.35895810546875,10.9473876953125L19.14816810546875,10.9473876953125C16.56266810546875,10.9568910253125,14.29527010546875,12.7066676953125,13.58787110546875,15.2383176953125C13.48867110546875,15.614867695312501,13.76691610546875,15.9848676953125,14.14987210546875,15.9856576953125L15.530288105468749,15.9856576953125C16.32871810546875,15.987617695312501,16.97550810546875,16.6460476953125,16.97743810546875,17.4588676953125L16.97743810546875,18.224087695312498C16.97550810546875,19.0369076953125,16.32871810546875,19.6953376953125,15.530288105468749,19.6973076953125L13.93912110546875,19.6973076953125C13.61903810546875,19.6973076953125,13.35955877542575,19.9614576953125,13.35955877542575,20.2873076953125L13.35955877542575,21.4529876953125C13.35955877542575,21.7788876953125,13.61903810546875,22.042987695312497,13.93912110546875,22.042987695312497L15.533798105468751,22.042987695312497C16.33223810546875,22.0449876953125,16.97901810546875,22.7033876953125,16.980948105468748,23.5161876953125L16.980948105468748,24.2814876953125C16.97901810546875,25.094287695312502,16.33223810546875,25.752687695312503,15.533798105468751,25.754687695312498L13.93912110546875,25.754687695312498C13.61903710546875,25.754687695312498,13.35955810546875,26.0187876953125,13.35955810546875,26.3446876953125L13.35955810546875,27.2564876953125C13.35955810546875,27.5823876953125,13.61903710546875,27.8464876953125,13.93912110546875,27.8464876953125L15.533798105468751,27.8464876953125C16.33223810546875,27.8484876953125,16.97901810546875,28.5068876953125,16.980948105468748,29.3196876953125L16.980948105468748,30.0848876953125C16.97901810546875,30.8977876953125,16.33223810546875,31.5561876953125,15.533798105468751,31.5581876953125L14.03044610546875,31.5581876953125C13.66345210546875,31.5560876953125,13.38585520546875,31.8955876953125,13.45439650546875,32.262587695312504C13.94823510546875,35.072087695312504,16.344588105468752,37.1202876953125,19.14816810546875,37.129187695312496L29.68565810546875,37.129187695312496C32.879958105468745,37.1213876953125,35.468158105468746,34.488187695312504,35.47775810546875,31.2362876953125L35.47775810546875,22.6544876953125C31.48625810546875,22.1895876953125,28.47115810546875,18.7525176953125,28.466858105468752,14.6626176953125ZM30.94665810546875,29.8524876953125C30.89985810546875,29.8559876953125,30.85295810546875,29.8559876953125,30.80615810546875,29.8524876953125C30.41945810546875,29.8508876953125,30.08815810546875,29.5705876953125,30.01585810546875,29.1837876953125C29.59775810546875,26.9573876953125,27.684958105468752,25.347287695312502,25.45835810546875,25.347287695312502C23.23173810546875,25.347287695312502,21.31901810546875,26.9573876953125,20.900898105468748,29.1837876953125C20.817668105468748,29.6299876953125,20.39375810546875,29.9218876953125,19.95603810546875,29.8345876953125C19.51639810546875,29.7515876953125,19.22764810546875,29.3194876953125,19.31324810546875,28.8727876953125C19.74276810546875,26.627687695312503,21.32439810546875,24.7908876953125,23.454458105468753,24.0632876953125C21.55116810546875,22.8224876953125,21.17114810546875,20.1519276953125,22.65034810546875,18.4122376953125C24.12955810546875,16.6725476953125,26.78015810546875,16.6725476953125,28.25935810546875,18.4122376953125C29.73855810546875,20.1519276953125,29.358558105468752,22.8224876953125,27.45525810546875,24.0632876953125C29.59185810546875,24.792287695312503,31.17625810546875,26.6375876953125,31.59995810546875,28.8905876953125C31.68115810546875,29.3388876953125,31.39035810546875,29.7692876953125,30.95015810546875,29.8524876953125L30.94665810546875,29.8524876953125Z" fill="#FFFFFF" fill-opacity="1"/></g><g><path d="M13.07857974609375,19.2253280078125L15.18607974609375,19.2253280078125C15.89801974609375,19.2253280078125,16.475169746093748,18.6377880078125,16.475169746093748,17.9130180078125C16.475169746093748,17.1882490078125,15.89801974609375,16.6007086898375,15.18607974609375,16.6007080078125L13.07857974609375,16.6007080078125C12.36663374609375,16.6007086898375,11.78948974609375,17.1882490078125,11.78948974609375,17.9130180078125C11.78948974609375,18.6377880078125,12.36663374609375,19.2253280078125,13.07857974609375,19.2253280078125ZM13.07857974609375,25.257658007812502L15.18607974609375,25.257658007812502C15.89801974609375,25.257658007812502,16.475169746093748,24.670118007812498,16.475169746093748,23.9453480078125C16.475169746093748,23.2205780078125,15.89801974609375,22.6330380078125,15.18607974609375,22.6330380078125L13.07857974609375,22.6330380078125C12.36663374609375,22.6330380078125,11.78948974609375,23.2205780078125,11.78948974609375,23.9453480078125C11.78948974609375,24.670118007812498,12.36663374609375,25.257658007812502,13.07857974609375,25.257658007812502ZM13.07857974609375,31.0790080078125L15.18607974609375,31.0790080078125C15.89801974609375,31.0790080078125,16.475169746093748,30.4915080078125,16.475169746093748,29.7667080078125C16.475169746093748,29.041908007812502,15.89801974609375,28.4544080078125,15.18607974609375,28.4544080078125L13.07857974609375,28.4544080078125C12.36663374609375,28.4544080078125,11.78948974609375,29.041908007812502,11.78948974609375,29.7667080078125C11.78948974609375,30.4915080078125,12.36663374609375,31.0790080078125,13.07857974609375,31.0790080078125Z" fill="#FFFFFF" fill-opacity="1"/></g><g><path d="M27.170657187499998,24.098823515625C29.157807187499998,23.002303515625,29.6688171875,20.332603515625,28.2315171875,18.556743515625C26.7942071875,16.780888515625,24.122417187499998,16.780888515625,22.6851071875,18.556753515625C21.2477871875,20.332613515625,21.7588271875,23.002303515625,23.7459671875,24.098823515625C21.5396571875,24.746763515625,19.8745871875,26.596423515625,19.4326171875,28.890353515625C19.4359093575,29.230653515625,19.6742441875,29.521353515625,20.0024851875,29.585653515624998C20.3307261875,29.649853515625,20.6579671875,29.469753515625,20.7849271875,29.154953515625C21.2167571875,26.874693515624998,23.1771471875,25.226993515625,25.4583171875,25.226993515625C27.7394771875,25.226993515625,29.6999171875,26.874693515624998,30.1317171875,29.154953515625C30.1840171875,29.495553515624998,30.4676171875,29.749653515625,30.8061171875,29.759253515624998C30.8493171875,29.762853515625,30.8928171875,29.762853515625,30.9360171875,29.759253515624998C31.3049171875,29.680253515624997,31.5467171875,29.318853515625,31.4840171875,28.940453515625002C31.0595171875,26.626943515625,29.3910671875,24.754193515625,27.170657187499998,24.098823515625ZM31.3856171875,28.933253515624997C31.4436171875,29.247953515625,31.2412171875,29.551353515625,30.9325171875,29.612653515625L30.8272171875,29.612653515625C30.5538171875,29.612353515625,30.319317187499998,29.414153515625,30.268717187500002,29.140653515625C29.8232171875,26.806523515625003,27.8151171875,25.121253515625,25.479387187500002,25.121253515625C23.1436571875,25.121253515625,21.1355971875,26.806523515625003,20.6900871875,29.140653515625C20.6307371875,29.455453515625003,20.3320521875,29.661753515625,20.0227901875,29.601553515625C19.7135261875,29.541353515624998,19.5106791875,29.237453515625,19.5696031875,28.922553515624998C20.0173011875,26.560583515624998,21.7837871875,24.685303515625,24.0831671875,24.131013515625C21.9981771875,23.216053515625,21.3216871875,20.544243515625,22.7124171875,18.717253515625C24.1031571875,16.890258515625,26.8134671875,16.890258515625,28.2042071875,18.717253515625C29.594917187500002,20.544243515625,28.9184471875,23.216053515625,26.8334571875,24.131013515625C29.144487187499998,24.678703515625,30.9217171875,26.560833515625,31.368117187499998,28.933253515624997L31.3856171875,28.933253515624997Z" fill="#FFFFFF" fill-opacity="1"/></g><g><path d="" fill="#FFFFFF" fill-opacity="0"/></g></g><g><path d="M28.9305221484375,20.8881434765625C28.933032148437498,19.1189634765625,27.650902148437503,17.6201104765625,25.929182148437498,17.3794646765625C24.2074621484375,17.1388194765625,22.5759621484375,18.2304314765625,22.1100021484375,19.9348334765625C21.6440321484375,21.6392234765625,22.486982148437498,23.4319234765625,24.0832721484375,24.1313634765625C21.7777021484375,24.6772034765625,20.0020551484375,26.5506434765625,19.5486328484375,28.9157134765625C19.4897087484375,29.2306134765625,19.6925571484375,29.534513476562502,20.0018211484375,29.5947134765625C20.3110831484375,29.6549134765625,20.6097721484375,29.4487134765625,20.6691221484375,29.133913476562498C21.1146321484375,26.799723476562498,23.1226921484375,25.1144634765625,25.4584121484375,25.1144634765625C27.7941421484375,25.1144634765625,29.8022521484375,26.799723476562498,30.2477521484375,29.133913476562498C30.298352148437502,29.4073134765625,30.5328521484375,29.6055134765625,30.806152148437498,29.6059134765625L30.9115521484375,29.6059134765625C31.220252148437503,29.5445134765625,31.4226521484375,29.2412134765625,31.3646521484375,28.926513476562498C30.9158521484375,26.5567934765625,29.1390721484375,24.6779834765625,26.8300521484375,24.1313634765625C28.1023821484375,23.5728534765625,28.9276021484375,22.298683476562502,28.9305221484375,20.8881434765625ZM23.1384121484375,20.8881434765625C23.1384121484375,19.5768434765625,24.1826221484375,18.5138234765625,25.4707121484375,18.5138234765625C26.7588021484375,18.5138234765625,27.8030121484375,19.5768434765625,27.8030121484375,20.8881434765625C27.8030121484375,22.1994334765625,26.7588021484375,23.2624534765625,25.4707121484375,23.2624534765625C24.1834221484375,23.2604834765625,23.1403421484375,22.1986234765625,23.1384121484375,20.8881434765625Z" fill="#FE8A75" fill-opacity="1"/></g></g></g></svg>