<svg xmlns="http://www.w3.org/2000/svg" xmlns:xlink="http://www.w3.org/1999/xlink" fill="none" version="1.1" width="69.3409423828125" height="84.38630676269531" viewBox="0 0 69.3409423828125 84.38630676269531"><defs><filter id="master_svg0_948_32254/1_3119" filterUnits="objectBoundingBox" color-interpolation-filters="sRGB" x="0" y="0" width="26.706146240234375" height="33.55009841918945"><feFlood flood-opacity="0" result="BackgroundImageFix"/><feBlend mode="normal" in="SourceGraphic" in2="BackgroundImageFix" result="shape"/><feGaussianBlur in="BackgroundImage" stdDeviation="6.5"/><feComposite in2="SourceAlpha" operator="in" result="effect1_foregroundBlur"/><feBlend mode="normal" in="SourceGraphic" in2="effect1_foregroundBlur" result="shape"/></filter><linearGradient x1="0.573619544506073" y1="0.5669642090797424" x2="-0.1503068059682846" y2="1.3124998807907104" id="master_svg1_1_3685"><stop offset="0.7142857182770967%" stop-color="#FF927C" stop-opacity="1"/><stop offset="100%" stop-color="#F01E16" stop-opacity="1"/></linearGradient><filter id="master_svg2_948_32254/1_3123" filterUnits="objectBoundingBox" color-interpolation-filters="sRGB" x="-26" y="-26" width="68.30562591552734" height="59.60347127914429"><feFlood flood-opacity="0" result="BackgroundImageFix"/><feBlend mode="normal" in="SourceGraphic" in2="BackgroundImageFix" result="shape"/><feGaussianBlur stdDeviation="6.5" result="effect1_foregroundBlur"/></filter><filter id="master_svg3_948_32254/1_3129" filterUnits="objectBoundingBox" color-interpolation-filters="sRGB" x="-30" y="-30" width="68.89397811889648" height="69.12416553497314"><feFlood flood-opacity="0" result="BackgroundImageFix"/><feBlend mode="normal" in="SourceGraphic" in2="BackgroundImageFix" result="shape"/><feGaussianBlur stdDeviation="7.5" result="effect1_foregroundBlur"/></filter><filter id="master_svg4_948_32254/1_3114" filterUnits="objectBoundingBox" color-interpolation-filters="sRGB" x="0" y="0" width="35.02359390258789" height="43.999935150146484"><feFlood flood-opacity="0" result="BackgroundImageFix"/><feBlend mode="normal" in="SourceGraphic" in2="BackgroundImageFix" result="shape"/><feGaussianBlur in="BackgroundImage" stdDeviation="7.5"/><feComposite in2="SourceAlpha" operator="in" result="effect1_foregroundBlur"/><feBlend mode="normal" in="SourceGraphic" in2="effect1_foregroundBlur" result="shape"/></filter><linearGradient x1="0.15918369591236115" y1="0.11650128662586212" x2="0.795918345451355" y2="0.907483696937561" id="master_svg5_1_0311"><stop offset="0%" stop-color="#FFFFFF" stop-opacity="0.25"/><stop offset="100%" stop-color="#FFFFFF" stop-opacity="0"/></linearGradient></defs><g style="mix-blend-mode:passthrough"><g style="mix-blend-mode:passthrough" transform="matrix(-1,0,0,1,125.8699951171875,0)"><g style="mix-blend-mode:passthrough"><g style="mix-blend-mode:passthrough" filter="url(#master_svg0_948_32254/1_3119)"><path d="M93.58234287109374,43.5093373046875C98.48724287109374,43.5093373046875,102.41794287109374,39.5603373046875,102.41794287109374,34.6325373046875C102.41794287109374,29.7047573046875,98.48724287109374,25.7557373046875,93.58234287109374,25.7557373046875C88.67912287109375,25.7557373046875,84.74662287109375,29.7047573046875,84.74662287109375,34.6325373046875C84.74662287109375,39.5603373046875,88.67912287109375,43.5093373046875,93.58234287109374,43.5093373046875ZM93.58204287109375,47.857037304687495C86.38016287109375,47.857037304687495,80.22894287109375,48.998337304687496,80.22894287109375,53.5600373046875C80.22894287109375,58.1252373046875,86.34103287109374,59.3058373046875,93.58204287109375,59.3058373046875C100.78394287109376,59.3058373046875,106.93504287109374,58.1645373046875,106.93504287109374,53.6028373046875C106.93504287109374,49.0376373046875,100.82304287109375,47.857037304687495,93.58204287109375,47.857037304687495Z" fill="url(#master_svg1_1_3685)" fill-opacity="1"/></g><g style="mix-blend-mode:passthrough" filter="url(#master_svg2_948_32254/1_3123)"><path d="M90.681862734375,50.7828369140625C86.284712734375,50.7828369140625,82.529052734375,51.5408119140625,82.529052734375,54.5703369140625C82.529052734375,57.6022369140625,86.260822734375,58.3863069140625,90.681862734375,58.3863069140625C95.078952734375,58.3863069140625,98.834652734375,57.6283469140625,98.834652734375,54.5988069140625C98.834652734375,51.5669069140625,95.102952734375,50.7828369140625,90.681862734375,50.7828369140625Z" fill="#F72E2E" fill-opacity="0.501960813999176"/></g><g style="mix-blend-mode:passthrough" filter="url(#master_svg3_948_32254/1_3129)"><path d="M91.42300318359375,39.12417C93.89167318359375,39.12417,95.86999318359375,37.09465,95.86999318359375,34.56208C95.86999318359375,32.02953,93.89167318359375,30,91.42300318359375,30C88.95523318359375,30,86.97601318359375,32.02953,86.97601318359375,34.56208C86.97601318359375,37.09465,88.95523318359375,39.12417,91.42300318359375,39.12417Z" fill="#F72E2E" fill-opacity="0.501960813999176"/></g></g><g style="mix-blend-mode:passthrough" filter="url(#master_svg4_948_32254/1_3114)"><path d="M80.44679755859374,51.3751484375C71.00193755859375,51.3751484375,62.93499755859375,52.871948437499995,62.93499755859375,58.8542484375C62.93499755859375,64.8413484375,70.95064755859374,66.3895484375,80.44679755859374,66.3895484375C89.89169755859375,66.3895484375,97.95859755859375,64.89284843749999,97.95859755859375,58.9104484375C97.95859755859375,52.9234484375,89.94289755859376,51.3751484375,80.44679755859374,51.3751484375ZM80.44669755859375,45.6725484375C86.87929755859375,45.6725484375,92.03419755859375,40.4936484375,92.03419755859375,34.031048437500004C92.03419755859375,27.5685784375,86.87929755859375,22.3896484375,80.44669755859375,22.3896484375C74.01649755859376,22.3896484375,68.85924755859375,27.5685784375,68.85924755859375,34.031048437500004C68.85924755859375,40.4936484375,74.01649755859376,45.6725484375,80.44669755859375,45.6725484375Z" fill="#FF9C95" fill-opacity="0.4000000059604645"/><path d="M75.53409755859374,45.683448437500005Q77.87439755859376,46.6725484375,80.44669755859375,46.6725484375Q83.01979755859375,46.6725484375,85.36029755859374,45.683448437500005Q87.62299755859375,44.727248437499995,89.36139755859375,42.9807484375Q91.09939755859375,41.2346484375,92.05069755859375,38.9626484375Q93.03419755859375,36.6135484375,93.03419755859375,34.031048437500004Q93.03419755859375,31.448648437499997,92.05069755859375,29.0995284375Q91.09939755859375,26.8275184375,89.36139755859375,25.0814584375Q87.62299755859375,23.3349144375,85.36029755859374,22.3787058375Q83.01979755859375,21.3896484375,80.44669755859375,21.3896484375Q77.87439755859376,21.3896484375,75.53409755859374,22.3787174375Q73.27159755859375,23.3349474375,71.53296755859375,25.0814084375Q69.79468755859375,26.8275384375,68.84317755859375,29.099428437500002Q67.85924755859375,31.448708437500002,67.85924755859375,34.031048437500004Q67.85924755859375,36.6134484375,68.84317755859375,38.9627484375Q69.79468755859375,41.2346484375,71.53295755859375,42.9807484375Q73.27159755859375,44.727248437499995,75.53409755859374,45.683448437500005ZM92.03419755859375,34.031048437500004C92.03419755859375,40.4936484375,86.87929755859375,45.6725484375,80.44669755859375,45.6725484375C74.01649755859376,45.6725484375,68.85924755859375,40.4936484375,68.85924755859375,34.031048437500004C68.85924755859375,27.5685784375,74.01649755859376,22.3896484375,80.44669755859375,22.3896484375C86.87929755859375,22.3896484375,92.03419755859375,27.5685784375,92.03419755859375,34.031048437500004ZM93.09899755859375,51.9555484375Q88.65759755859375,50.3751484375,80.44679755859374,50.3751484375Q72.24239755859375,50.3751484375,67.81795755859375,51.9277484375Q61.93499755859375,53.9921484375,61.93499755859375,58.8542484375Q61.93499755859375,63.7241484375,67.79459755859375,65.8091484375Q72.23589755859375,67.3895484375,80.44679755859374,67.3895484375Q88.65119755859375,67.3895484375,93.07559755859376,65.8369484375Q98.95859755859375,63.7726484375,98.95859755859375,58.9104484375Q98.95859755859375,54.040648437499996,93.09899755859375,51.9555484375ZM62.93499755859375,58.8542484375C62.93499755859375,52.871948437499995,71.00193755859375,51.3751484375,80.44679755859374,51.3751484375C89.94289755859376,51.3751484375,97.95859755859375,52.9234484375,97.95859755859375,58.9104484375C97.95859755859375,64.89284843749999,89.89169755859375,66.3895484375,80.44679755859374,66.3895484375C70.95064755859374,66.3895484375,62.93499755859375,64.8413484375,62.93499755859375,58.8542484375Z" fill-rule="evenodd" fill="url(#master_svg5_1_0311)" fill-opacity="1"/></g></g></g></svg>