<svg xmlns="http://www.w3.org/2000/svg" xmlns:xlink="http://www.w3.org/1999/xlink" fill="none" version="1.1" width="102.08352661132812" height="103.81217956542969" viewBox="0 0 102.08352661132812 103.81217956542969"><defs><linearGradient x1="0.5" y1="3.0616171314629196e-17" x2="0.5" y2="1" id="master_svg0_1_2992"><stop offset="0%" stop-color="#FFB37F" stop-opacity="1"/><stop offset="100%" stop-color="#FF7B0D" stop-opacity="1"/></linearGradient><filter id="master_svg1_948_22186/1_2985" filterUnits="objectBoundingBox" color-interpolation-filters="sRGB" x="-38" y="-38" width="94.87141609191895" height="98.52741622924805"><feFlood flood-opacity="0" result="BackgroundImageFix"/><feBlend mode="normal" in="SourceGraphic" in2="BackgroundImageFix" result="shape"/><feGaussianBlur stdDeviation="9.5" result="effect1_foregroundBlur"/></filter><filter id="master_svg2_948_22186/1_3045" filterUnits="objectBoundingBox" color-interpolation-filters="sRGB" x="0" y="0" width="31.938276290893555" height="32.33302307128906"><feFlood flood-opacity="0" result="BackgroundImageFix"/><feBlend mode="normal" in="SourceGraphic" in2="BackgroundImageFix" result="shape"/><feGaussianBlur in="BackgroundImage" stdDeviation="12"/><feComposite in2="SourceAlpha" operator="in" result="effect1_foregroundBlur"/><feBlend mode="normal" in="SourceGraphic" in2="effect1_foregroundBlur" result="shape"/></filter><linearGradient x1="0.15918369591236115" y1="0.11650128662586212" x2="0.795918345451355" y2="0.907483696937561" id="master_svg3_1_0311"><stop offset="0%" stop-color="#FFFFFF" stop-opacity="0.25"/><stop offset="100%" stop-color="#FFFFFF" stop-opacity="0"/></linearGradient><filter id="master_svg4_948_22186/1_3027" filterUnits="objectBoundingBox" color-interpolation-filters="sRGB" x="-15" y="-15" width="55.81199359893799" height="48.017662048339844"><feFlood flood-opacity="0" result="BackgroundImageFix"/><feColorMatrix in="SourceAlpha" type="matrix" values="0 0 0 0 0 0 0 0 0 0 0 0 0 0 0 0 0 0 127 0"/><feOffset dy="5" dx="5"/><feGaussianBlur stdDeviation="5"/><feColorMatrix type="matrix" values="0 0 0 0 1 0 0 0 0 0.5372549295425415 0 0 0 0 0.16078431904315948 0 0 0 0.20000000298023224 0"/><feBlend mode="normal" in2="BackgroundImageFix" result="effect1_dropShadow"/><feBlend mode="normal" in="SourceGraphic" in2="effect1_dropShadow" result="shape"/><feGaussianBlur in="BackgroundImage" stdDeviation="7.5"/><feComposite in2="SourceAlpha" operator="in" result="effect2_foregroundBlur"/><feBlend mode="normal" in="SourceGraphic" in2="effect2_foregroundBlur" result="shape"/></filter><linearGradient x1="0.9397087097167969" y1="0.8448173999786377" x2="-0.24199259281158447" y2="-0.08888977020978928" id="master_svg5_1_3030"><stop offset="0%" stop-color="#FFFFFF" stop-opacity="1"/><stop offset="100%" stop-color="#FFFFFF" stop-opacity="0.20000000298023224"/></linearGradient><linearGradient x1="0.9122283458709717" y1="0.15120619535446167" x2="1.11833918094635" y2="1.4850733280181885" id="master_svg6_1_3033"><stop offset="0%" stop-color="#FFFFFF" stop-opacity="0.25"/><stop offset="100%" stop-color="#FFFFFF" stop-opacity="0"/></linearGradient><filter id="master_svg7_948_22186/1_3005" filterUnits="objectBoundingBox" color-interpolation-filters="sRGB" x="-15" y="-15" width="57.371530532836914" height="49.327741622924805"><feFlood flood-opacity="0" result="BackgroundImageFix"/><feColorMatrix in="SourceAlpha" type="matrix" values="0 0 0 0 0 0 0 0 0 0 0 0 0 0 0 0 0 0 127 0"/><feOffset dy="5" dx="5"/><feGaussianBlur stdDeviation="5"/><feColorMatrix type="matrix" values="0 0 0 0 1 0 0 0 0 0.5254902243614197 0 0 0 0 0.13725490868091583 0 0 0 0.5 0"/><feBlend mode="normal" in2="BackgroundImageFix" result="effect1_dropShadow"/><feBlend mode="normal" in="SourceGraphic" in2="effect1_dropShadow" result="shape"/><feGaussianBlur in="BackgroundImage" stdDeviation="7.5"/><feComposite in2="SourceAlpha" operator="in" result="effect2_foregroundBlur"/><feBlend mode="normal" in="SourceGraphic" in2="effect2_foregroundBlur" result="shape"/></filter><linearGradient x1="0.9291008114814758" y1="0.1805799901485443" x2="-0.8136671781539917" y2="1.5546742677688599" id="master_svg8_1_3008"><stop offset="0%" stop-color="#FFFFFF" stop-opacity="1"/><stop offset="100%" stop-color="#FFFFFF" stop-opacity="0.20000000298023224"/></linearGradient><linearGradient x1="0.15918369591236115" y1="0.11650128662586212" x2="0.795918345451355" y2="0.907483696937561" id="master_svg9_1_0311"><stop offset="0%" stop-color="#FFFFFF" stop-opacity="0.25"/><stop offset="100%" stop-color="#FFFFFF" stop-opacity="0"/></linearGradient><filter id="master_svga_948_22186/1_3021" filterUnits="objectBoundingBox" color-interpolation-filters="sRGB" x="0" y="0" width="2.657543182373047" height="28.02751922607422"><feFlood flood-opacity="0" result="BackgroundImageFix"/><feBlend mode="normal" in="SourceGraphic" in2="BackgroundImageFix" result="shape"/><feGaussianBlur in="BackgroundImage" stdDeviation="7.5"/><feComposite in2="SourceAlpha" operator="in" result="effect1_foregroundBlur"/><feBlend mode="normal" in="SourceGraphic" in2="effect1_foregroundBlur" result="shape"/></filter><linearGradient x1="0.4858914017677307" y1="0.7300967574119568" x2="0.48589104413986206" y2="1.1176927089691162" id="master_svgb_1_3024"><stop offset="0%" stop-color="#FFFFFF" stop-opacity="1"/><stop offset="100%" stop-color="#FFFFFF" stop-opacity="0.20000000298023224"/></linearGradient></defs><g style="mix-blend-mode:passthrough"><g style="mix-blend-mode:passthrough"><g style="mix-blend-mode:passthrough"><g style="mix-blend-mode:passthrough"><g transform="matrix(0.922153651714325,0.38682377338409424,-0.38682377338409424,0.922153651714325,15.469365051065953,-14.520344606462594)"><path d="M44.187669167419436,37.67779085802026C44.019588167419435,38.335310858020264,43.92068416741943,40.37559085802026,43.892173767419436,41.40349085802026L75.74397316741943,41.22649085802026C75.72697316741943,40.197060858020265,75.65107316741944,38.14197085802026,75.49197316741943,37.50380085802026C74.67317316741944,33.84911085802026,71.80087316741944,31.50319285802026,67.76297316741943,31.17371575302026L51.98835316741943,31.26138885802026C47.911663167419434,31.61845685802026,45.047863167419436,33.980500858020264,44.187669167419436,37.67779085802026ZM43.81135891341943,54.73339085802026L43.886260067419435,41.40379085802026L75.75027316741944,41.22669085802026L75.67477316741943,54.66309085802026C75.64387316741943,60.15919085802026,72.12717316741943,63.55779085802026,66.53087316741943,63.588890858020264L52.83740316741943,63.66499085802026C47.293563167419435,63.69579085802026,43.78026906741943,60.26619085802026,43.81135891341943,54.73339085802026Z" fill-rule="evenodd" fill="url(#master_svg0_1_2992)" fill-opacity="1"/></g><g style="opacity:0.5;mix-blend-mode:passthrough" transform="matrix(0.9293214082717896,0.3692719340324402,-0.3793565332889557,0.9252506494522095,17.705348244558678,-14.347630394980527)" filter="url(#master_svg1_948_22186/1_2985)"><path d="M60.37552990875244,37.99999789893627C60.37552990875244,37.99999789893627,51.58880990875244,37.99999789893627,51.58880990875244,37.99999789893627C48.401619908752444,37.99999789893627,46.54592990875244,40.00493789893627,46.54592990875244,43.44035789893627C46.54592990875244,43.44035789893627,46.54592990875244,55.07579789893627,46.54592990875244,55.07579789893627C46.54592990875244,58.56749789893627,48.401619908752444,60.52739789893627,51.58880990875244,60.52739789893627C51.58880990875244,60.52739789893627,60.37552990875244,60.52739789893627,60.37552990875244,60.52739789893627C63.61402990875244,60.52739789893627,65.41732990875244,58.56749789893627,65.41732990875244,55.07579789893627C65.41732990875244,55.07579789893627,65.41732990875244,43.44035789893627,65.41732990875244,43.44035789893627C65.41732990875244,40.00493789893627,63.61402990875244,37.99999789893627,60.37552990875244,37.99999789893627C60.37552990875244,37.99999789893627,60.37552990875244,37.99999789893627,60.37552990875244,37.99999789893627Z" fill="#EB6F0A" fill-opacity="1"/></g></g><g style="mix-blend-mode:passthrough"><g style="mix-blend-mode:passthrough" filter="url(#master_svg2_948_22186/1_3045)"><path d="M43.51968381390381,49.37199181708813C43.35490981390381,50.02705181708813,43.267263413903805,52.06204181708813,43.24447536390381,53.087371817088126L75.1705108139038,53.087371817088126C75.14771081390381,52.060281817088125,75.0600108139038,50.00955181708812,74.8970108139038,49.37199181708813C74.05561081390381,45.72126181708813,71.1633108139038,43.36487181708813,67.1140108139038,43.01377181708813L51.30265081390381,43.01377181708813C47.21835081390381,43.347404817088126,44.36109081390381,45.68807181708813,43.51968381390381,49.37199181708813ZM43.238493918903806,66.38587181708813L43.238493918903806,53.087771817088125L75.17681081390381,53.087771817088125L75.17681081390381,66.49247181708813C75.17681081390381,71.97557181708812,71.67091081390382,75.34677181708813,66.06161081390381,75.34677181708813L52.336170813903806,75.34677181708813C46.779400813903806,75.34677181708813,43.238493918903806,71.90567181708812,43.238493918903806,66.38587181708813ZM52.03806081390381,62.08877181708813C51.231720813903806,62.125471817088126,50.56560081390381,61.494871817088125,50.53055081390381,60.69317181708813C50.53055081390381,59.88967181708813,51.16160081390381,59.22587181708813,51.96794081390381,59.18917181708812C52.75676081390381,59.18917181708812,53.40531081390381,59.802271817088126,53.42291081390381,60.58657181708813C53.45791081390381,61.39187181708813,52.82688081390381,62.055671817088125,52.03806081390381,62.08877181708813ZM59.24261081390381,62.08877181708813C58.43631081390381,62.125471817088126,57.77021081390381,61.494871817088125,57.73511081390381,60.69317181708813C57.73511081390381,59.88967181708813,58.366210813903805,59.22587181708813,59.17251081390381,59.18917181708812C59.96131081390381,59.18917181708812,60.60991081390381,59.802271817088126,60.62751081390381,60.58657181708813C60.66251081390381,61.39187181708813,60.03151081390381,62.055671817088125,59.24261081390381,62.08877181708813ZM64.95711081390381,60.675771817088126C64.95711081390381,59.87227181708813,65.58811081390381,59.22597181708812,66.3944108139038,59.208471817088125C67.1833108139038,59.208471817088125,67.8143108139038,59.83557181708812,67.8494108139038,60.60587181708813C67.86691081390381,61.40937181708813,67.23591081390381,62.073171817088124,66.4470108139038,62.088871817088126C65.64071081390381,62.10637181708813,64.97461081390381,61.49497181708813,64.95711081390381,60.69327181708813L64.95711081390381,60.675771817088126ZM52.02073081390381,68.42977181708812C51.21438081390381,68.46647181708812,50.54827081390381,67.83587181708813,50.51321081390381,67.03237181708812C50.51321081390381,66.22887181708813,51.144260813903806,65.56677181708812,51.95061081390381,65.53017181708813C52.73943081390381,65.53017181708813,53.388010813903804,66.14327181708813,53.40551081390381,66.92927181708814C53.44061081390381,67.73277181708812,52.80954081390381,68.39657181708813,52.02073081390381,68.42977181708812ZM59.24261081390381,68.42977181708812C58.43631081390381,68.46647181708812,57.77021081390381,67.83587181708813,57.73511081390381,67.03237181708812C57.73511081390381,66.22887181708813,58.366210813903805,65.56677181708812,59.17251081390381,65.53017181708813C59.96131081390381,65.53017181708813,60.60991081390381,66.14327181708813,60.62751081390381,66.92927181708814C60.66251081390381,67.73277181708812,60.03151081390381,68.39657181708813,59.24261081390381,68.42977181708812ZM66.3945108139038,68.51677181708813C65.58821081390381,68.49937181708813,64.93961081390381,67.83557181708812,64.93961081390381,67.03207181708812C64.92201081390381,66.22857181708812,65.57061081390381,65.56647181708813,66.37701081390381,65.54907181708813L66.3945108139038,65.54907181708813C67.2184108139038,65.54907181708813,67.8845108139038,66.21277181708813,67.8845108139038,67.03207181708812C67.8845108139038,67.85307181708814,67.2184108139038,68.51677181708813,66.3945108139038,68.51677181708813Z" fill-rule="evenodd" fill="#FFCBB9" fill-opacity="0.3499999940395355"/><path d="M42.547012813903805,49.13960181708813Q42.31510081390381,50.077631817088125,42.247224813903806,52.95589181708813Q42.23849381390381,53.02157181708813,42.23849381390381,53.087771817088125L42.23849381390381,66.38587181708813Q42.238494813903806,70.93707181708812,45.00315081390381,73.64997181708813Q47.75136081390381,76.34677181708813,52.336170813903806,76.34677181708813L66.06161081390381,76.34677181708813Q70.6799108139038,76.34677181708813,73.4184108139038,73.69407181708813Q76.17681081390381,71.02217181708812,76.17681081390381,66.49247181708813L76.17681081390381,53.087771817088125Q76.17681081390381,53.020171817088126,76.16771081390381,52.95329181708813Q76.0994108139038,50.05544181708812,75.8690108139038,49.13667181708813Q75.15981081390382,46.073911817088124,72.8409108139038,44.18086181708813Q70.54611081390381,42.307607817088126,67.2004108139038,42.01751081708813Q67.1573108139038,42.01377181708813,67.1140108139038,42.01377181708813L51.30265081390381,42.01377181708813Q51.26188081390381,42.01377181708813,51.221240813903805,42.01709181708813Q47.84921081390381,42.292540817088124,45.56214081390381,44.16232181708813Q43.25617841390381,46.04755181708813,42.547012813903805,49.13960181708813ZM74.8970108139038,49.37199181708813C74.05561081390381,45.72126181708813,71.1633108139038,43.36487181708813,67.1140108139038,43.01377181708813L51.30265081390381,43.01377181708813C47.21835081390381,43.347404817088126,44.36109081390381,45.68807181708813,43.51968381390381,49.37199181708813C43.39922981390381,49.85085181708813,43.31999211390381,51.06716181708813,43.27717881390381,52.08738181708813L43.27716371390381,52.08774181708813C43.26141931390381,52.46298181708813,43.25060271390381,52.81168181708813,43.24447536390381,53.087371817088126L75.1705108139038,53.087371817088126C75.16441081390381,52.812071817088125,75.15361081390381,52.463221817088126,75.1380108139038,52.08774181708813L75.1379108139038,52.08738181708813C75.09531081390381,51.06215181708813,75.0163108139038,49.838601817088126,74.8970108139038,49.37199181708813ZM75.1542108139038,53.087771817088125L43.238493918903806,53.087771817088125L43.238493918903806,66.38587181708813C43.238493918903806,71.90567181708812,46.779400813903806,75.34677181708813,52.336170813903806,75.34677181708813L66.06161081390381,75.34677181708813C71.67091081390382,75.34677181708813,75.17681081390381,71.97557181708812,75.17681081390381,66.49247181708813L75.17681081390381,53.087771817088125L75.1542108139038,53.087771817088125ZM52.30740081390381,60.94597181708813Q52.18085081390381,61.08197181708813,51.99603081390381,61.08967181708813L51.99262081390381,61.089871817088124Q51.810200813903805,61.09817181708813,51.67694081390381,60.97397181708813Q51.545920813903805,60.85177181708813,51.53096081390381,60.67117181708812Q51.53818081390381,60.482471817088125,51.67035081390381,60.34397181708813Q51.80283081390381,60.205071817088125,51.99218081390381,60.189471817088126Q52.41400081390381,60.200771817088125,52.42312081390381,60.608971817088126Q52.43175081390381,60.81237181708813,52.30740081390381,60.94597181708813ZM50.53055081390381,60.69317181708813C50.56560081390381,61.494871817088125,51.231720813903806,62.125471817088126,52.03806081390381,62.08877181708813C52.82688081390381,62.055671817088125,53.45791081390381,61.39187181708813,53.42291081390381,60.58657181708813C53.40531081390381,59.802271817088126,52.75676081390381,59.18917181708812,51.96794081390381,59.18917181708812C51.16160081390381,59.22587181708813,50.53055081390381,59.88967181708813,50.53055081390381,60.69317181708813ZM59.512010813903814,60.94597181708813Q59.3854108139038,61.08197181708813,59.20061081390381,61.08967181708813L59.19721081390381,61.089871817088124Q59.01481081390381,61.09817181708813,58.88151081390381,60.97397181708813Q58.75051081390381,60.85177181708813,58.73551081390381,60.67117181708812Q58.74281081390381,60.482471817088125,58.87491081390381,60.34397181708813Q59.00741081390381,60.205071817088125,59.19681081390381,60.189471817088126Q59.61861081390381,60.200771817088125,59.6277108139038,60.608971817088126Q59.636310813903805,60.81237181708813,59.512010813903814,60.94597181708813ZM57.73511081390381,60.69317181708813C57.77021081390381,61.494871817088125,58.43631081390381,62.125471817088126,59.24261081390381,62.08877181708813C60.03151081390381,62.055671817088125,60.66251081390381,61.39187181708813,60.62751081390381,60.58657181708813C60.60991081390381,59.802271817088126,59.96131081390381,59.18917181708812,59.17251081390381,59.18917181708812C58.366210813903805,59.22587181708813,57.73511081390381,59.88967181708813,57.73511081390381,60.69317181708813ZM66.3944108139038,59.208471817088125C65.58811081390381,59.22597181708812,64.95711081390381,59.87227181708813,64.95711081390381,60.675771817088126L64.95711081390381,60.69327181708813C64.97461081390381,61.49497181708813,65.64071081390381,62.10637181708813,66.4470108139038,62.088871817088126C67.23591081390381,62.073171817088124,67.86691081390381,61.40937181708813,67.8494108139038,60.60587181708813C67.8143108139038,59.83557181708812,67.1833108139038,59.208471817088125,66.3944108139038,59.208471817088125ZM66.84971081390381,60.638671817088124Q66.82431081390381,60.208471817088125,66.41611081390381,60.20827181708813Q65.95711081390381,60.21817181708813,65.95711081390381,60.675771817088126L65.95681081390381,60.67137181708813Q65.96621081390381,61.09907181708813,66.42711081390381,61.089071817088126Q66.60101081390381,61.08567181708813,66.72461081390381,60.95517181708813Q66.85011081390381,60.82267181708813,66.84971081390381,60.638671817088124ZM52.29034081390381,67.28687181708813Q52.163620813903805,67.42287181708812,51.97869081390381,67.43067181708813L51.97528081390381,67.43077181708813Q51.79298081390381,67.43907181708812,51.65993081390381,67.31497181708812Q51.52860081390381,67.19247181708812,51.51363081390381,67.01047181708813Q51.520800813903804,66.82237181708813,51.65246081390381,66.68457181708813Q51.78488081390381,66.54607181708812,51.97481081390381,66.53047181708813Q52.39665081390381,66.54177181708812,52.405790813903806,66.95157181708812Q52.414380813903804,67.15367181708812,52.29034081390381,67.28687181708813ZM51.95061081390381,65.53017181708813C52.73943081390381,65.53017181708813,53.388010813903804,66.14327181708813,53.40551081390381,66.92927181708814C53.44061081390381,67.73277181708812,52.80954081390381,68.39657181708813,52.02073081390381,68.42977181708812C51.21438081390381,68.46647181708812,50.54827081390381,67.83587181708813,50.51321081390381,67.03237181708812C50.51321081390381,66.22887181708813,51.144260813903806,65.56677181708812,51.95061081390381,65.53017181708813ZM59.51231081390381,67.28687181708813Q59.38551081390381,67.42287181708812,59.20061081390381,67.43067181708813L59.19721081390381,67.43077181708813Q59.01491081390381,67.43907181708812,58.88181081390381,67.31497181708812Q58.75051081390381,67.19247181708812,58.73551081390381,67.01047181708813Q58.74271081390381,66.82237181708813,58.87441081390381,66.68457181708813Q59.00681081390381,66.54607181708812,59.196710813903806,66.53047181708813Q59.61861081390381,66.54177181708812,59.6277108139038,66.95157181708812Q59.636310813903805,67.15367181708812,59.51231081390381,67.28687181708813ZM59.17251081390381,65.53017181708813C59.96131081390381,65.53017181708813,60.60991081390381,66.14327181708813,60.62751081390381,66.92927181708814C60.66251081390381,67.73277181708812,60.03151081390381,68.39657181708813,59.24261081390381,68.42977181708812C58.43631081390381,68.46647181708812,57.77021081390381,67.83587181708813,57.73511081390381,67.03237181708812C57.73511081390381,66.22887181708813,58.366210813903805,65.56677181708812,59.17251081390381,65.53017181708813ZM64.93961081390381,67.03207181708812C64.93961081390381,67.83557181708812,65.58821081390381,68.49937181708813,66.3945108139038,68.51677181708813C67.2184108139038,68.51677181708813,67.8845108139038,67.85307181708814,67.8845108139038,67.03207181708812C67.8845108139038,66.21277181708813,67.2184108139038,65.54907181708813,66.3945108139038,65.54907181708813L66.37701081390381,65.54907181708813C65.57061081390381,65.56647181708813,64.92201081390381,66.22857181708812,64.93961081390381,67.03207181708812ZM66.40541081390381,67.51667181708812Q66.60311081390381,67.51297181708813,66.74261081390381,67.37397181708812Q66.8845108139038,67.23257181708813,66.8845108139038,67.03207181708812Q66.8845108139038,66.83297181708812,66.7429108139038,66.69197181708813Q66.59931081390381,66.54907181708813,66.3945108139038,66.54907181708813L66.39861081390382,66.54877181708812Q66.20231081390381,66.55307181708812,66.06621081390381,66.69297181708814Q65.93541081390381,66.82757181708813,65.93961081390381,67.03207181708812Q65.93961081390381,67.22697181708813,66.07921081390381,67.36957181708813Q66.2155108139038,67.50887181708814,66.40541081390381,67.51667181708812Z" fill-rule="evenodd" fill="url(#master_svg3_1_0311)" fill-opacity="1"/></g><g style="mix-blend-mode:passthrough" filter="url(#master_svg4_948_22186/1_3027)"><path d="M52.651358330078125,48.42889275458813C53.422648330078125,48.42889275458813,54.001108330078125,47.854212754588126,54.001108330078125,47.08387275458813C54.001108330078125,47.08387275458813,54.001108330078125,41.75799275458813,54.001108330078125,41.75799275458813C54.001108330078125,40.98766575458813,53.422648330078125,40.41123275458813,52.651358330078125,40.41123275458813C51.88007033007813,40.41123275458813,51.30160522507813,40.98766575458813,51.30160522507813,41.75799275458813C51.30160522507813,41.75799275458813,51.30160522507813,47.08387275458813,51.30160522507813,47.08387275458813C51.30160522507813,47.854212754588126,51.88007033007813,48.42889275458813,52.651358330078125,48.42889275458813ZM65.76388833007812,48.42889275458813C66.51758833007813,48.42889275458813,67.11358833007813,47.854212754588126,67.11358833007813,47.08387275458813C67.11358833007813,47.08387275458813,67.11358833007813,41.75799275458813,67.11358833007813,41.75799275458813C67.11358833007813,40.98766575458813,66.51758833007813,40.41123275458813,65.76388833007812,40.41123275458813C64.99258833007812,40.41123275458813,64.41408833007813,40.98766575458813,64.41408833007813,41.75799275458813C64.41408833007813,41.75799275458813,64.41408833007813,47.08387275458813,64.41408833007813,47.08387275458813C64.41408833007813,47.854212754588126,64.99258833007812,48.42889275458813,65.76388833007812,48.42889275458813C65.76388833007812,48.42889275458813,65.76388833007812,48.42889275458813,65.76388833007812,48.42889275458813Z" fill="url(#master_svg5_1_3030)" fill-opacity="1"/><path d="M54.001108330078125,47.08387275458813C54.001108330078125,47.854212754588126,53.422648330078125,48.42889275458813,52.651358330078125,48.42889275458813C51.88007033007813,48.42889275458813,51.30160522507813,47.854212754588126,51.30160522507813,47.08387275458813L51.30160522507813,41.75799275458813C51.30160522507813,40.98766575458813,51.88007033007813,40.41123275458813,52.651358330078125,40.41123275458813C53.422648330078125,40.41123275458813,54.001108330078125,40.98766575458813,54.001108330078125,41.75799275458813L54.001108330078125,47.08387275458813ZM67.11358833007813,47.08387275458813C67.11358833007813,47.854212754588126,66.51758833007813,48.42889275458813,65.76388833007812,48.42889275458813C64.99258833007812,48.42889275458813,64.41408833007813,47.854212754588126,64.41408833007813,47.08387275458813L64.41408833007813,41.75799275458813C64.41408833007813,40.98766575458813,64.99258833007812,40.41123275458813,65.76388833007812,40.41123275458813C66.51758833007813,40.41123275458813,67.11358833007813,40.98766575458813,67.11358833007813,41.75799275458813L67.11358833007813,47.08387275458813ZM53.33324833007813,47.76179275458813Q53.06496833007812,48.02889275458813,52.651358330078125,48.02889275458813Q52.23775033007813,48.02889275458813,51.96946533007812,47.76179275458813Q51.701605330078124,47.49511275458813,51.701605330078124,47.08387275458813L51.701605330078124,41.75799275458813Q51.701605330078124,41.346369754588125,51.96972233007813,41.078951754588125Q52.238140330078124,40.811232754588126,52.651358330078125,40.811232754588126Q53.06457833007813,40.811232754588126,53.33299833007813,41.078951754588125Q53.60110833007813,41.34636875458813,53.60110833007813,41.75799275458813L53.60110833007813,47.08387275458813Q53.60110833007813,47.49511275458813,53.33324833007813,47.76179275458813ZM66.44048833007813,47.76052275458812Q66.16838833007813,48.02889275458813,65.76388833007812,48.02889275458813Q65.35018833007813,48.02889275458813,65.08198833007813,47.76179275458813Q64.81408833007812,47.49511275458813,64.81408833007812,47.08387275458813L64.81408833007812,41.75799275458813Q64.81408833007812,41.346369754588125,65.08218833007813,41.078951754588125Q65.35058833007812,40.811232754588126,65.76388833007812,40.811232754588126Q66.16808833007812,40.811232754588126,66.44018833007813,41.080226754588125Q66.71358833007812,41.35046375458813,66.71358833007812,41.75799275458813L66.71358833007812,47.08387275458813Q66.71358833007812,47.49102275458813,66.44048833007813,47.76052275458812Z" fill-rule="evenodd" fill="url(#master_svg6_1_3033)" fill-opacity="1"/></g><g style="mix-blend-mode:passthrough" filter="url(#master_svg7_948_22186/1_3005)"><path d="M52.05441911132812,62.10468806708813C51.24807411132812,62.14136806708812,50.581964011328125,61.51078806708813,50.54690551132813,60.709018067088124C50.54690551132813,59.90551106708813,51.177958111328124,59.24173806708813,51.98429911132813,59.205055997088124C52.77311911132813,59.205055997088124,53.421699111328124,59.81817106708813,53.439229111328125,60.602468067088125C53.474289111328126,61.40772806708813,52.843239111328124,62.07149806708813,52.05441911132812,62.10468806708813ZM59.25851911132813,62.10468806708813C58.45217911132812,62.14136806708812,57.786069111328125,61.51078806708813,57.75100911132812,60.709018067088124C57.75100911132812,59.90551106708813,58.382059111328125,59.24173806708813,59.188399111328124,59.205055997088124C59.977219111328125,59.205055997088124,60.625839111328126,59.81817106708813,60.643339111328125,60.602468067088125C60.678439111328125,61.40772806708813,60.04733911132813,62.07149806708813,59.25851911132813,62.10468806708813ZM64.97283911132813,60.691628067088125C64.97283911132813,59.88811606708813,65.60393911132813,59.241810767088126,66.41023911132812,59.22434306708813C67.19903911132812,59.22434306708813,67.83013911132812,59.85143406708813,67.86523911132812,60.62175806708813C67.88273911132812,61.425268067088126,67.25163911132813,62.089038067088126,66.46283911132812,62.10476806708813C65.65653911132813,62.12223806708813,64.99043911132813,61.510868067088126,64.97283911132813,60.70909806708813L64.97283911132813,60.691628067088125ZM52.036359111328125,68.44563806708813C51.230008111328125,68.48231806708813,50.56389761132812,67.85172806708813,50.528839111328125,67.04821806708813C50.528839111328125,66.24470806708813,51.159892111328126,65.58267806708812,51.96623911132812,65.54599806708812C52.75505911132812,65.54599806708812,53.403639111328125,66.15911806708813,53.421169111328126,66.94515806708813C53.456219111328124,67.74867806708812,52.82516911132812,68.41244806708812,52.036359111328125,68.44563806708813ZM57.75100911132812,67.04821806708813C57.786069111328125,67.85172806708813,58.45217911132812,68.48231806708813,59.25851911132813,68.44563806708813C60.04733911132813,68.41244806708812,60.678439111328125,67.74867806708812,60.643339111328125,66.94515806708813C60.625839111328126,66.15911806708813,59.977219111328125,65.54599806708812,59.188399111328124,65.54599806708812C58.382059111328125,65.58267806708812,57.75100911132812,66.24470806708813,57.75100911132812,67.04821806708813ZM64.95543911132813,67.04804806708813C64.95543911132813,67.85155806708812,65.60403911132812,68.51532806708812,66.41033911132813,68.53279806708812C67.23423911132812,68.53279806708812,67.90033911132812,67.86902806708812,67.90033911132812,67.04804806708813C67.90033911132812,66.22881806708813,67.23423911132812,65.56503806708812,66.41033911132813,65.56503806708812L66.39283911132813,65.56503806708812C65.58653911132812,65.58250806708813,64.93793911132812,66.24453806708813,64.95543911132813,67.04804806708813Z" fill-rule="evenodd" fill="url(#master_svg8_1_3008)" fill-opacity="1"/><path d="M50.54690551132813,60.709018067088124C50.581964011328125,61.51078806708813,51.24807411132812,62.14136806708812,52.05441911132812,62.10468806708813C52.843239111328124,62.07149806708813,53.474289111328126,61.40772806708813,53.439229111328125,60.602468067088125C53.421699111328124,59.81817106708813,52.77311911132813,59.205055997088124,51.98429911132813,59.205055997088124C51.177958111328124,59.24173806708813,50.54690551132813,59.90551106708813,50.54690551132813,60.709018067088124ZM50.94693511132812,60.70027806708813Q50.94992811132813,60.262838067088126,51.25261711132813,59.945616067088125Q51.555569111328126,59.628121067088124,51.99338911132813,59.605088067088126Q52.42050911132812,59.60814306708813,52.724619111328124,59.89881206708813Q53.02992911132812,60.190623067088126,53.03932911132812,60.61140806708813Q53.05846911132812,61.053088067088126,52.762969111328125,61.37058806708813Q52.468579111328125,61.686908067088126,52.03760911132812,61.705038067088125L52.036249111328125,61.70509806708813Q51.60189911132812,61.72485806708813,51.284180111328126,61.428688067088125Q50.968937111328124,61.134818067088126,50.94693511132812,60.70027806708813ZM57.75100911132812,60.709018067088124C57.786069111328125,61.51078806708813,58.45217911132812,62.14136806708812,59.25851911132813,62.10468806708813C60.04733911132813,62.07149806708813,60.678439111328125,61.40772806708813,60.643339111328125,60.602468067088125C60.625839111328126,59.81817106708813,59.977219111328125,59.205055997088124,59.188399111328124,59.205055997088124C58.382059111328125,59.24173806708813,57.75100911132812,59.90551106708813,57.75100911132812,60.709018067088124ZM58.151039111328124,60.70025806708813Q58.154039111328125,60.26282806708813,58.45671911132813,59.945616067088125Q58.75966911132812,59.628121067088124,59.197489111328125,59.605088067088126Q59.62460911132813,59.60814306708813,59.92871911132812,59.89881206708813Q60.23402911132813,60.190623067088126,60.243429111328126,60.61140806708813Q60.262569111328126,61.053088067088126,59.96706911132813,61.37058806708813Q59.67267911132812,61.686908067088126,59.24170911132813,61.705038067088125L59.24034911132813,61.70509806708813Q58.80599911132813,61.72485806708813,58.488279111328126,61.428688067088125Q58.17303911132812,61.134818067088126,58.151039111328124,60.70025806708813ZM66.41023911132812,59.22434306708813C65.60393911132813,59.241810767088126,64.97283911132813,59.88811606708813,64.97283911132813,60.691628067088125L64.97283911132813,60.70909806708813C64.99043911132813,61.510868067088126,65.65653911132813,62.12223806708813,66.46283911132812,62.10476806708813C67.25163911132813,62.089038067088126,67.88273911132812,61.425268067088126,67.86523911132812,60.62175806708813C67.83013911132812,59.85143406708813,67.19903911132812,59.22434306708813,66.41023911132812,59.22434306708813ZM67.46533911132812,60.635218067088125Q67.44463911132813,60.21513806708813,67.14183911132812,59.92122006708813Q66.83593911132812,59.62434306708813,66.41893911132813,59.62424906708813Q65.97763911132813,59.63380906708813,65.67503911132812,59.94299206708813Q65.37283911132812,60.25178806708813,65.37283911132812,60.691628067088125L65.37273911132813,60.700358067088125Q65.38213911132813,61.13054806708813,65.69463911132813,61.42135806708813Q66.00953911132812,61.714488067088126,66.45483911132813,61.70484806708813Q66.87973911132812,61.696378067088126,67.17603911132812,61.38361806708813Q67.47323911132813,61.06981806708813,67.46533911132812,60.635218067088125ZM50.528839111328125,67.04821806708813C50.56389761132812,67.85172806708813,51.230008111328125,68.48231806708813,52.036359111328125,68.44563806708813C52.82516911132812,68.41244806708812,53.456219111328124,67.74867806708812,53.421169111328126,66.94515806708813C53.403639111328125,66.15911806708813,52.75505911132812,65.54599806708812,51.96623911132812,65.54599806708812C51.159892111328126,65.58267806708812,50.528839111328125,66.24470806708813,50.528839111328125,67.04821806708813ZM50.928869111328126,67.03948806708813Q50.950872111328124,67.47528806708813,51.26624011132812,67.76952806708813Q51.58378911132812,68.06580806708813,52.018179111328124,68.04604806708812L52.01953911132812,68.04598806708813Q52.45047911132812,68.02785806708813,52.745019111328126,67.71163806708813Q53.040389111328125,67.39451806708813,53.021269111328124,66.95407806708813Q53.011849111328125,66.53202806708813,52.70642911132813,66.23985806708812Q52.40247911132813,65.94908806708813,51.975319111328126,65.94602806708812Q51.53714911132813,65.96906806708813,51.234328111328125,66.28591806708813Q50.93185411132813,66.60239806708813,50.928869111328126,67.03948806708813ZM59.25851911132813,68.44563806708813C58.45217911132812,68.48231806708813,57.786069111328125,67.85172806708813,57.75100911132812,67.04821806708813C57.75100911132812,66.24470806708813,58.382059111328125,65.58267806708812,59.188399111328124,65.54599806708812C59.977219111328125,65.54599806708812,60.625839111328126,66.15911806708813,60.643339111328125,66.94515806708813C60.678439111328125,67.74867806708812,60.04733911132813,68.41244806708812,59.25851911132813,68.44563806708813ZM59.197489111328125,65.94602806708812Q59.624649111328125,65.94908806708813,59.928599111328126,66.23985806708812Q60.234019111328124,66.53202806708813,60.24370911132812,66.96259806708812Q60.26255911132812,67.39451806708813,59.96717911132812,67.71163806708813Q59.67264911132813,68.02785806708813,59.24034911132813,68.04604806708812Q58.80595911132812,68.06580806708813,58.488409111328124,67.76952806708813Q58.173049111328126,67.47529806708813,58.151039111328124,67.03950806708812Q58.154019111328125,66.60240806708813,58.45649911132813,66.28591806708813Q58.759319111328125,65.96906806708813,59.197489111328125,65.94602806708812ZM66.41033911132813,68.53279806708812C65.60403911132812,68.51532806708812,64.95543911132813,67.85155806708812,64.95543911132813,67.04804806708813C64.93793911132812,66.24453806708813,65.58653911132812,65.58250806708813,66.39283911132813,65.56503806708812L66.41033911132813,65.56503806708812C67.23423911132812,65.56503806708812,67.90033911132812,66.22881806708813,67.90033911132812,67.04804806708813C67.90033911132812,67.86902806708812,67.23423911132812,68.53279806708812,66.41033911132813,68.53279806708812ZM65.66633911132813,67.80535806708812Q65.35543911132812,67.48779806708812,65.35543911132812,67.04804806708813L65.35533911132812,67.03931806708813Q65.34593911132812,66.60537806708813,65.65193911132812,66.29064806708813Q65.95933911132812,65.97452806708813,66.39283911132813,65.96503806708813L66.41033911132813,65.96503806708813Q66.86293911132813,65.96503806708813,67.18213911132813,66.28278806708812Q67.50033911132812,66.59967806708812,67.50033911132812,67.04804806708813Q67.50033911132812,67.49768806708812,67.18193911132812,67.81494806708812Q66.86303911132812,68.13279806708813,66.41903911132812,68.13288806708813Q65.97763911132813,68.12332806708812,65.66633911132813,67.80535806708812Z" fill-rule="evenodd" fill="url(#master_svg9_1_0311)" fill-opacity="1"/></g><g style="opacity:0.5;mix-blend-mode:passthrough" transform="matrix(0,1,-1,0,124.78577403724194,-21.00530071556568)" filter="url(#master_svga_948_22186/1_3021)"><path d="M74.22430737640381,79.91773666083813C74.9663473764038,79.91773666083813,75.5530773764038,79.33403666083812,75.5530773764038,78.55153666083812C75.5530773764038,78.55153666083812,75.5530773764038,53.25825666083813,75.5530773764038,53.25825666083813C75.5530773764038,52.47577166083813,74.9663473764038,51.89023666083813,74.22430737640381,51.89023666083813C73.46501037640381,51.89023666083813,72.89553737640381,52.47577166083813,72.89553737640381,53.25825666083813C72.89553737640381,53.25825666083813,72.8955390918138,78.55153666083812,72.8955390918138,78.55153666083812C72.8955390918138,79.33403666083812,73.46501037640381,79.91773666083813,74.22430737640381,79.91773666083813C74.22430737640381,79.91773666083813,74.22430737640381,79.91773666083813,74.22430737640381,79.91773666083813Z" fill="url(#master_svgb_1_3024)" fill-opacity="0.5"/></g></g></g></g></g></svg>