<svg xmlns="http://www.w3.org/2000/svg" xmlns:xlink="http://www.w3.org/1999/xlink" fill="none" version="1.1" width="12.25" height="12.25" viewBox="0 0 12.25 12.25"><g><path d="M6.125,0C7.85691,0.0455,9.29932,0.644729,10.4523,1.79769C11.6053,2.95065,12.2045,4.39309,12.25,6.125C12.2045,7.85691,11.6053,9.29932,10.4523,10.4523C9.29932,11.6053,7.85691,12.2045,6.125,12.25C4.39309,12.2045,2.95065,11.6053,1.79769,10.4523C0.644729,9.29932,0.0455,7.85691,0,6.125C0.0455,4.39309,0.644729,2.95065,1.79769,1.79769C2.95065,0.644729,4.39309,0.0455,6.125,0C6.125,0,6.125,0,6.125,0C6.125,0,6.125,0,6.125,0ZM5.35938,7.32812C5.35938,7.32812,4.00575,5.9745,4.00575,5.9745C3.89638,5.87416,3.7711,5.824,3.62994,5.824C3.48877,5.824,3.36569,5.87635,3.26069,5.98106C3.15569,6.08577,3.10334,6.20652,3.10362,6.34331C3.10391,6.4801,3.15409,6.60319,3.25413,6.71256C3.25413,6.71256,4.99056,8.449,4.99056,8.449C5.0909,8.54934,5.21398,8.5995,5.35981,8.5995C5.50565,8.5995,5.62873,8.54934,5.72906,8.449C5.72906,8.449,9.32487,4.85319,9.32487,4.85319C9.46164,4.7164,9.50495,4.55,9.45481,4.354C9.40468,4.158,9.28156,4.03491,9.08556,3.98475C8.88956,3.93459,8.72316,3.9779,8.58637,4.11469C8.58637,4.11469,5.35938,7.32812,5.35938,7.32812C5.35938,7.32812,5.35938,7.32812,5.35938,7.32812Z" fill="#2E6CE4" fill-opacity="1"/></g></svg>