<svg xmlns="http://www.w3.org/2000/svg" xmlns:xlink="http://www.w3.org/1999/xlink" fill="none" version="1.1" width="48" height="48" viewBox="0 0 48 48"><defs><clipPath id="master_svg0_4071_52965"><rect x="0" y="0" width="48" height="48" rx="0"/></clipPath><clipPath id="master_svg1_4071_52967"><rect x="8" y="8" width="32" height="32" rx="0"/></clipPath></defs><g clip-path="url(#master_svg0_4071_52965)"><g style="mix-blend-mode:passthrough"><ellipse cx="24.000001907348633" cy="24.000001907348633" rx="24.000001907348633" ry="24.000001907348633" fill="#7163E3" fill-opacity="1"/></g><g clip-path="url(#master_svg1_4071_52967)"><g><path d="M30.185573828125,17.26991265625Q30.185573828125,17.42176265625,30.178173828125,17.57342265625Q30.170673828125,17.72508265625,30.155773828125,17.876192656249998Q30.140973828125,18.02730265625,30.118673828125,18.17750265625Q30.096373828125,18.32771265625,30.066773828125,18.47663265625Q30.037173828125,18.62556265625,30.000273828125,18.772852656250002Q29.963373828125,18.92014265625,29.919273828125,19.06545265625Q29.875173828125,19.210762656249997,29.823973828125,19.35372265625Q29.772873828125,19.496692656249998,29.714773828125,19.636982656249998Q29.656673828125,19.777262656250002,29.591673828125,19.91453265625Q29.526773828125002,20.05179265625,29.455173828124998,20.18571265625Q29.383673828124998,20.31962265625,29.305573828125,20.449862656249998Q29.227473828125,20.58010265625,29.143173828125,20.70636265625Q29.058773828125,20.83261265625,28.968373828125,20.95457265625Q28.877873828125,21.07654265625,28.781573828124998,21.19387265625Q28.685173828125002,21.31127265625,28.583273828125,21.42377265625Q28.481273828124998,21.53627265625,28.373873828125,21.64367265625Q28.266473828125,21.751072656250003,28.153973828125,21.85307265625Q28.041473828125,21.95497265625,27.924073828125,22.051372656250003Q27.806743828125,22.147672656250002,27.684773828125,22.23807265625Q27.562813828125,22.32857265625,27.436553828125,22.412872656250002Q27.310303828125,22.49727265625,27.180053828125,22.57537265625Q27.049813828125,22.65337265625,26.915893828125,22.72497265625Q26.781983828125,22.79657265625,26.644713828125,22.86147265625Q26.507443828124998,22.926372656250003,26.367153828124998,22.98447265625Q26.226873828125,23.042672656249998,26.083893828125,23.09377265625Q25.940923828125,23.144972656249998,25.795623828125,23.18897265625Q25.650313828125,23.233072656250002,25.503013828125,23.269972656249998Q25.355713828125,23.30687265625,25.206793828125,23.336472656250002Q25.057863828125,23.36617265625,24.907653828125,23.38837265625Q24.757453828125,23.41067265625,24.606333828125,23.42557265625Q24.455223828125,23.44047265625,24.303553828125,23.44787265625Q24.151893828125,23.45537265625,24.000043828125,23.45537265625Q23.848203828125,23.45537265625,23.696533828125,23.44787265625Q23.544873828125,23.44047265625,23.393753828125,23.42557265625Q23.242643828125,23.41067265625,23.092433828125,23.38837265625Q22.942233828124998,23.36617265625,22.793303828125,23.336472656250002Q22.644373828125,23.30687265625,22.497083828125,23.269972656249998Q22.349783828125,23.233072656250002,22.204473828125,23.18897265625Q22.059163828125,23.144972656249998,21.916193828125,23.09377265625Q21.773223828125,23.042672656249998,21.632933828125,22.98447265625Q21.492653828125,22.926372656250003,21.355383828125,22.86147265625Q21.218113828125,22.79657265625,21.084193828125,22.72497265625Q20.950283828125,22.65337265625,20.820033828125,22.57537265625Q20.689793828125,22.49727265625,20.563533828125,22.412872656250002Q20.437283828125,22.32857265625,20.315313828125,22.23807265625Q20.193353828124998,22.147672656250002,20.075973828125,22.051372656250003Q19.958593828125,21.95497265625,19.846083828125,21.85307265625Q19.733573828125,21.751072656250003,19.626203828125,21.64367265625Q19.518823828125,21.53627265625,19.416853828125,21.42377265625Q19.314883828125,21.31127265625,19.218553828125,21.19387265625Q19.122213828125,21.07654265625,19.031763828125,20.95458265625Q18.941303828125,20.83261265625,18.856943828125,20.70636265625Q18.772585828125,20.58010265625,18.694520828125,20.449862656249998Q18.616455828125,20.31962265625,18.544875828125,20.18571265625Q18.473295828125,20.05180265625,18.408372828125,19.91453265625Q18.343449828125,19.777262656250002,18.285340828125,19.636982656249998Q18.227230828125,19.496692656249998,18.176075828125,19.35372265625Q18.124919828125,19.210762656249997,18.080840828125,19.06545265625Q18.036761828125,18.92014265625,17.999866828125,18.772852656250002Q17.962970828125002,18.62556265625,17.933346828125,18.47663265625Q17.903723028125,18.32771265625,17.881442428125,18.17750265625Q17.859161928125,18.02730265625,17.844278328125,17.876192656249998Q17.829394728125,17.72508265625,17.821943948125,17.57342265625Q17.814493178125,17.42176265625,17.814493178125,17.26991265625Q17.814493178125,17.11807265625,17.821943948125,16.96641265625Q17.829394728125,16.81475265625,17.844278328125,16.66363265625Q17.859161928125,16.51252265625,17.881442428125,16.36232265625Q17.903723028125,16.21212265625,17.933346828125,16.06319265625Q17.962970828125002,15.91426265625,17.999866828125,15.766972656250001Q18.036761828125,15.61968265625,18.080840828125,15.47437265625Q18.124919828125,15.32907265625,18.176075828125,15.18610265625Q18.227230828125,15.04313265625,18.285340828125,14.90285265625Q18.343449828125,14.762562656250001,18.408372828125,14.62529265625Q18.473295828125,14.48803265625,18.544875828125,14.354112656249999Q18.616455828125,14.22020265625,18.694520828125,14.08996265625Q18.772585828125,13.95972265625,18.856943828125,13.83346265625Q18.941303828125,13.70721265625,19.031763828125,13.585252656249999Q19.122213828125,13.463292656250001,19.218553828125,13.34591265625Q19.314883828125,13.22853265625,19.416853828125,13.11602265625Q19.518823828125,13.00351265625,19.626203828125,12.89614265625Q19.733573828125,12.78877265625,19.846083828125,12.68680265625Q19.958593828125,12.58483265625,20.075973828125,12.48850265625Q20.193353828124998,12.39217265625,20.315313828125,12.30172265625Q20.437283828125,12.21126265625,20.563533828125,12.12690265625Q20.689793828125,12.042547656250001,20.820033828125,11.96448365625Q20.950283828125,11.88642065625,21.084193828125,11.81484165625Q21.218113828125,11.74326265625,21.355383828125,11.67834165625Q21.492653828125,11.61341965625,21.632933828125,11.55531165625Q21.773223828125,11.49720265625,21.916193828125,11.44604865625Q22.059163828125,11.39489365625,22.204473828125,11.350815656249999Q22.349783828125,11.30673765625,22.497083828125,11.26984265625Q22.644373828125,11.23294765625,22.793303828125,11.20332465625Q22.942233828124998,11.17370085625,23.092433828125,11.15142075625Q23.242643828125,11.12914055625,23.393753828125,11.11425725625Q23.544873828125,11.09937395625,23.696533828125,11.09192328625Q23.848203828125,11.08447265625,24.000043828125,11.08447265625Q24.151893828125,11.08447265625,24.303553828125,11.09192328625Q24.455223828125,11.09937395625,24.606333828125,11.11425725625Q24.757453828125,11.12914055625,24.907653828125,11.15142075625Q25.057863828125,11.17370085625,25.206793828125,11.20332465625Q25.355713828125,11.23294765625,25.503013828125,11.26984265625Q25.650313828125,11.30673765625,25.795623828125,11.350815656249999Q25.940923828125,11.39489365625,26.083893828125,11.44604865625Q26.226863828124998,11.49720265625,26.367153828124998,11.55531165625Q26.507443828124998,11.61341965625,26.644713828125,11.67834165625Q26.781973828125,11.74326265625,26.915893828125,11.81484165625Q27.049813828125,11.88642065625,27.180053828125,11.96448365625Q27.310303828125,12.042547656250001,27.436553828125,12.12690265625Q27.562813828125,12.21126265625,27.684773828125,12.30172265625Q27.806743828125,12.39217265625,27.924073828125,12.48850265625Q28.041473828125,12.58483265625,28.153973828125,12.68680265625Q28.266473828125,12.78877265625,28.373873828125,12.89614265625Q28.481273828124998,13.00351265625,28.583273828125,13.11602265625Q28.685173828125002,13.22853265625,28.781573828124998,13.34591265625Q28.877873828125,13.463292656250001,28.968373828125,13.585252656249999Q29.058773828125,13.70721265625,29.143173828125,13.83346265625Q29.227473828125,13.95972265625,29.305573828125,14.08996265625Q29.383673828124998,14.22020265625,29.455173828124998,14.354112656249999Q29.526773828125002,14.48803265625,29.591673828125,14.62529265625Q29.656673828125,14.762562656250001,29.714773828125,14.90285265625Q29.772873828125,15.04313265625,29.823973828125,15.18610265625Q29.875173828125,15.32907265625,29.919273828125,15.47437265625Q29.963373828125,15.61968265625,30.000273828125,15.766972656250001Q30.037173828125,15.91426265625,30.066773828125,16.06319265625Q30.096373828125,16.21212265625,30.118673828125,16.36232265625Q30.140973828125,16.51252265625,30.155773828125,16.66363265625Q30.170673828125,16.81475265625,30.178173828125,16.96641265625Q30.185573828125,17.11807265625,30.185573828125,17.26991265625Z" fill="#FFFFFF" fill-opacity="1"/></g><g><path d="M24.000020898437498,24.36865234375C18.0843508984375,24.36865234375,13.2343468984375,29.04053234375,12.7718477284375,34.98425234375C12.7312225984375,35.487352343750004,13.1187228984375,35.91865234375,13.6093478984375,35.91865234375L34.390620898437504,35.91865234375C34.8750208984375,35.91865234375,35.2625208984375,35.48425234375,35.228120898437496,34.98425234375C34.7593208984375,29.04053234375,29.9156208984375,24.36865234375,24.000020898437498,24.36865234375ZM27.9781208984375,29.59990234375L24.2250208984375,33.35303234375C24.056220898437502,33.521782343750004,23.8312208984375,33.60615234375,23.612520898437502,33.60615234375C23.3937208984375,33.60615234375,23.1687208984375,33.51865234375,23.000020898437498,33.35303234375L21.2812208984375,31.63427234375C20.940600898437502,31.29990234375,20.940600898437502,30.74990234375,21.2812208984375,30.40927234375C21.6218508984375,30.06865234375,22.1656008984375,30.06865234375,22.506220898437498,30.40927234375L23.6156208984375,31.51865234375L26.756220898437498,28.37490234375C27.0906208984375,28.03427234375,27.6406208984375,28.03427234375,27.9812208984375,28.37490234375C28.3218208984375,28.71553234375,28.3218208984375,29.25927234375,27.9781208984375,29.59990234375Z" fill="#FFFFFF" fill-opacity="1"/></g></g></g></svg>