<svg xmlns="http://www.w3.org/2000/svg" xmlns:xlink="http://www.w3.org/1999/xlink" fill="none" version="1.1" width="17.562850952148438" height="17.56289291381836" viewBox="0 0 17.562850952148438 17.56289291381836"><g><path d="M8.78141,17.5629C3.93167,17.5629,0,13.6311,0,8.78137C0,3.93163,3.93167,0,8.78141,0C13.6323,0,17.5629,3.93163,17.5629,8.78139C17.5629,13.6311,13.6323,17.5629,8.78141,17.5629ZM12.8085,6.22132C12.9737,6.05603,12.9737,5.78768,12.8085,5.62253L11.9115,4.7266C11.7463,4.56137,11.4791,4.56137,11.3138,4.7266L8.77369,7.26677L6.23351,4.7266C6.06828,4.56137,5.80105,4.56137,5.63586,4.7266L4.73885,5.62253C4.57366,5.78768,4.57366,6.05603,4.73885,6.22132L7.27902,8.76142L4.73885,11.3016C4.57366,11.4667,4.57366,11.734,4.73885,11.8993L5.63586,12.7962C5.80105,12.9604,6.06829,12.9604,6.23351,12.7962L8.77369,10.256L11.3139,12.7962C11.4791,12.9604,11.7463,12.9604,11.9115,12.7962L12.8085,11.8993C12.9737,11.734,12.9737,11.4668,12.8085,11.3016L10.2683,8.76144L12.8085,6.22132Z" fill="#FE4033" fill-opacity="1"/></g></svg>