<svg xmlns="http://www.w3.org/2000/svg" xmlns:xlink="http://www.w3.org/1999/xlink" fill="none" version="1.1" width="20" height="19.9966983795166" viewBox="0 0 20 19.9966983795166"><g style="mix-blend-mode:passthrough"><path d="M20,19.0059C20,19.2652,19.8993,19.5144,19.7192,19.7009C19.6263,19.7946,19.5157,19.869,19.3939,19.9198C19.2722,19.9706,19.1415,19.9967,19.0096,19.9967C18.8777,19.9967,18.747,19.9706,18.6253,19.9198C18.5035,19.869,18.3929,19.7946,18.3,19.7009C18.3,19.7009,14.6222,16.0209,14.6222,16.0209C12.8277,17.461,10.5499,18.1584,8.25729,17.9697C5.96466,17.781,3.83141,16.7206,2.29618,15.0064C0.760954,13.2923,-0.059554,11.0547,0.00336896,8.75382C0.066292,6.45294,1.00786,4.26362,2.63448,2.63604C4.26109,1.00846,6.4491,0.0663314,8.74862,0.00337096C11.0481,-0.0595894,13.2844,0.761407,14.9975,2.29754C16.7106,3.83368,17.7705,5.9682,17.959,8.2622C18.1476,10.5562,17.4506,12.8353,16.0114,14.6309C16.0114,14.6309,19.7192,18.3109,19.7192,18.3109C19.7192,18.3109,19.7192,18.3109,19.7192,18.3109C19.8993,18.4974,20,18.7466,20,19.0059ZM13.9623,13.9706C15.2743,12.6579,16.0114,10.8774,16.0114,9.0209C16.0114,7.63643,15.6011,6.28305,14.8324,5.13191C14.0637,3.98076,12.9711,3.08356,11.6927,2.55374C10.4144,2.02393,9.00778,1.88531,7.65072,2.1554C6.29366,2.4255,5.04712,3.09219,4.06873,4.07115C3.09035,5.05012,2.42406,6.2974,2.15412,7.65527C1.88419,9.01314,2.02273,10.4206,2.55223,11.6997C3.08172,12.9788,3.9784,14.072,5.12886,14.8412C6.27932,15.6104,7.63189,16.0209,9.01554,16.0209C9.01554,16.0209,9.01554,16.0209,9.01554,16.0209C10.871,16.0209,12.6504,15.2834,13.9623,13.9706Z" fill="#73767A" fill-opacity="1"/></g></svg>