<svg xmlns="http://www.w3.org/2000/svg" xmlns:xlink="http://www.w3.org/1999/xlink" fill="none" version="1.1" width="15" height="15" viewBox="0 0 15 15"><g><path d="M10.5,0C10.914,0,11.25,0.336,11.25,0.75L11.25,3L14.25,3C14.664,3,15,3.336,15,3.75L15,14.25C15,14.664,14.664,15,14.25,15L0.75,15C0.336,15,0,14.664,0,14.25L0,3.75C0,3.336,0.336,3,0.75,3L3.75,3L3.75,0.75C3.75,0.336,4.086,0,4.5,0L10.5,0ZM8.25,6L6.75,6L6.75,8.25L4.5,8.25L4.5,9.75L6.74925,9.75L6.75,12L8.25,12L8.24925,9.75L10.5,9.75L10.5,8.25L8.25,8.25L8.25,6ZM9.75,1.5L5.25,1.5L5.25,3L9.75,3L9.75,1.5Z" fill="#CACACA" fill-opacity="1"/></g></svg>