<svg xmlns="http://www.w3.org/2000/svg" xmlns:xlink="http://www.w3.org/1999/xlink" fill="none" version="1.1" width="12" height="15.482720375061035" viewBox="0 0 12 15.482720375061035"><g><path d="M0.75,0L11.25,0C11.6642,0,12,0.335786,12,0.75L12,15.1073C12.0002,15.2438,11.9261,15.3697,11.8066,15.4358C11.6871,15.5019,11.5411,15.4979,11.4255,15.4252L6,12.0225L0.5745,15.4245C0.458978,15.4971,0.313152,15.5012,0.193721,15.4352C0.0742908,15.3693,0.000101566,15.2437,0,15.1073L0,0.75C0,0.335786,0.335786,0,0.75,0ZM3,5.25L3,6.75L9,6.75L9,5.25L3,5.25Z" fill="#CACACA" fill-opacity="1"/></g></svg>