<svg xmlns="http://www.w3.org/2000/svg" xmlns:xlink="http://www.w3.org/1999/xlink" fill="none" version="1.1" width="15.75" height="15" viewBox="0 0 15.75 15"><g><path d="M3,0L3,15L0,15L0,0L3,0ZM4.5,0L12.0038,0C12.8302,0,13.5,0.6735,13.5,1.4925L13.5,13.5075C13.5,14.3318,12.8302,15,12.0037,15L4.5,15L4.5,0ZM14.25,3L15.75,3L15.75,6L14.25,6L14.25,3ZM14.25,7.5L15.75,7.5L15.75,10.5L14.25,10.5L14.25,7.5ZM9,7.5C9.82843,7.5,10.5,6.82843,10.5,6C10.5,5.17157,9.82843,4.5,9,4.5C8.17157,4.5,7.5,5.17157,7.5,6C7.5,6.82843,8.17157,7.5,9,7.5ZM6.75,10.5L11.25,10.5C11.25,9.25736,10.2426,8.25,9,8.25C7.75736,8.25,6.75,9.25736,6.75,10.5Z" fill="#ffffff" fill-opacity="1"/></g></svg>