<svg xmlns="http://www.w3.org/2000/svg" xmlns:xlink="http://www.w3.org/1999/xlink" fill="none" version="1.1" width="16" height="16" viewBox="0 0 16 16"><defs><clipPath id="master_svg0_19347_122066"><rect x="0" y="0" width="16" height="16" rx="0"/></clipPath></defs><g clip-path="url(#master_svg0_19347_122066)"><g><path d="M15.001953125,8C15.001953125,11.866,11.867953125,15,8.001953125,15C4.135953125,15,1.001953125,11.866,1.001953125,8C1.001953125,4.134,4.135953125,1,8.001953125,1C11.867953125,1,15.001953125,4.134,15.001953125,8ZM14.001953125,8C14.001953125,11.3137,11.315653125,14,8.001953125,14C4.688243125,14,2.001953125,11.3137,2.001953125,8C2.001953125,4.68629,4.688243125,2,8.001953125,2C11.315653125,2,14.001953125,4.68629,14.001953125,8ZM8.001713125,4.5C8.277853125,4.5,8.501713125,4.72386,8.501713125,5L8.501713125,7.49998L11.001953125,7.49998C11.278053125,7.49998,11.501953125,7.72383,11.501953125,7.99998C11.501953125,8.276119999999999,11.278053125,8.49998,11.001953125,8.49998L8.501713125,8.49998L8.501713125,11C8.501713125,11.2761,8.277853125,11.5,8.001713125,11.5C7.725563125,11.5,7.501713125,11.2761,7.501713125,11L7.501713125,8.49998L5.001953125,8.49998C4.725813125,8.49998,4.501953125,8.276119999999999,4.501953125,7.99998C4.501953125,7.72383,4.725813125,7.49998,5.001953125,7.49998L7.501713125,7.49998L7.501713125,5C7.501713125,4.72386,7.725563125,4.5,8.001713125,4.5Z" fill-rule="evenodd" fill="#2E6CE4" fill-opacity="1"/></g></g></svg>