<svg xmlns="http://www.w3.org/2000/svg" xmlns:xlink="http://www.w3.org/1999/xlink" fill="none" version="1.1" width="16" height="16" viewBox="0 0 16 16"><g><path d="M12,8C12,8.30928,11.7493,8.56,11.44,8.56L8.57333,8.56L8.57333,11.4133C8.57333,11.7245,8.32112,11.9767,8.01,11.9767C7.69888,11.9767,7.44667,11.7245,7.44667,11.4133L7.44667,8.57333L4.56,8.57333C4.24888,8.57333,3.99667,8.32112,3.99667,8.01C3.99667,7.69888,4.24888,7.44667,4.56,7.44667L7.44,7.44667L7.44,4.58C7.44,4.26888,7.69221,4.01667,8.00333,4.01667C8.31445,4.01667,8.56667,4.26888,8.56667,4.58L8.56667,7.44667L11.4333,7.44667C11.7426,7.44296,11.9963,7.69071,12,8ZM8,0C3.58172,0,0,3.58172,0,8C0,12.4183,3.58172,16,8,16C12.4183,16,16,12.4183,16,8C16,3.58172,12.4183,0,8,0Z" fill="#2E6CE4" fill-opacity="1"/></g></svg>