<svg xmlns="http://www.w3.org/2000/svg" xmlns:xlink="http://www.w3.org/1999/xlink" fill="none" version="1.1" width="21" height="14" viewBox="0 0 21 14"><defs><clipPath id="master_svg0_16650_067130"><rect x="0" y="0" width="21" height="14" rx="0"/></clipPath><linearGradient x1="0" y1="0.5" x2="1" y2="0.5" id="master_svg1_9773_075846"><stop offset="0%" stop-color="#FF8000" stop-opacity="1"/><stop offset="99.99998807907104%" stop-color="#FFAA00" stop-opacity="1"/></linearGradient></defs><g clip-path="url(#master_svg0_16650_067130)"><g><path d="M0,14L14,14C17.866,14,20.9999,10.866,20.9998,7C20.9999,3.13404,17.866,0,14,0L8,0C3.58172,0,0,3.58172,0,8L0,14Z" fill="url(#master_svg1_9773_075846)" fill-opacity="1"/></g><g><path d="M6.968,10.488L8.168,10.488L8.584,8.968L10.496,8.968L10.911999999999999,10.488L12.16,10.488L10.264,4.5600000000000005L8.864,4.5600000000000005L6.968,10.488ZM8.84,8.048L9.016,7.4C9.192,6.784,9.36,6.112,9.52,5.464L9.552,5.464C9.728,6.096,9.888,6.784,10.072,7.4L10.248000000000001,8.048L8.84,8.048ZM12.89467,10.488L14.078669999999999,10.488L14.078669999999999,4.5600000000000005L12.89467,4.5600000000000005L12.89467,10.488Z" fill="#FFFFFF" fill-opacity="1"/></g></g></svg>