<svg xmlns="http://www.w3.org/2000/svg" xmlns:xlink="http://www.w3.org/1999/xlink" fill="none" version="1.1" width="20" height="14" viewBox="0 0 20 14"><defs><linearGradient x1="0.9244629144668579" y1="0.2192557156085968" x2="0" y2="1" id="master_svg0_9773_068475"><stop offset="7.589283585548401%" stop-color="#FF7D00" stop-opacity="1"/><stop offset="100%" stop-color="#FF9900" stop-opacity="1"/></linearGradient></defs><g><path d="M0 7C4.90527396329193e-16 3.1340067511844456 3.1340067511844465 0 7 0L13 0C16.865993248815553 0 20 3.1340067511844465 20 7L20 7C20 10.865993248815553 16.865993248815553 14 13 14L0 14C0 14 0 14 0 14Z" fill="url(#master_svg0_9773_068475)" fill-opacity="1"/><g><path d="M5.9661458,10.488L7.16667,10.488L7.58333,8.909880000000001L9.49479,8.909880000000001L9.91146,10.488L11.158850000000001,10.488L9.263020000000001,4.4879999999999995L7.86198,4.4879999999999995L5.9661458,10.488ZM7.83854,7.988L8.01562,7.33956C8.190100000000001,6.71977,8.35938,6.04529,8.518229999999999,5.3942499999999995L8.55208,5.3942499999999995C8.72656,6.02967,8.888020000000001,6.71977,9.07031,7.33956L9.247399999999999,7.988L7.83854,7.988ZM11.893229999999999,10.488L13.07813,10.488L13.07813,4.4879999999999995L11.893229999999999,4.4879999999999995L11.893229999999999,10.488Z" fill="#FFFFFF" fill-opacity="1"/></g></g></svg>