<svg xmlns="http://www.w3.org/2000/svg" xmlns:xlink="http://www.w3.org/1999/xlink" fill="none" version="1.1" width="32" height="32" viewBox="0 0 32 32"><defs><clipPath id="master_svg0_2398_96822"><rect x="0" y="0" width="32" height="32" rx="0"/></clipPath></defs><g clip-path="url(#master_svg0_2398_96822)"><g><path d="M16,28Q16.294600000000003,28,16.5888,27.9855Q16.883,27.9711,17.1762,27.9422Q17.4694,27.9133,17.7608,27.8701Q18.0522,27.8269,18.3411,27.7694Q18.630000000000003,27.712,18.9158,27.6404Q19.2015,27.5688,19.4834,27.4833Q19.7653,27.3978,20.0427,27.2985Q20.32,27.1993,20.5922,27.0866Q20.8644,26.9738,21.1307,26.8479Q21.397,26.7219,21.6568,26.5831Q21.9166,26.4442,22.1692,26.2927Q22.4219,26.1413,22.6668,25.9776Q22.9118,25.814,23.1484,25.6385Q23.385,25.463,23.6127,25.2761Q23.8404,25.0892,24.0587,24.8914Q24.277,24.6936,24.4853,24.4853Q24.6936,24.277,24.8914,24.0587Q25.0892,23.8404,25.2761,23.6127Q25.463,23.385,25.6385,23.1484Q25.814,22.9118,25.9776,22.6668Q26.1413,22.4219,26.2927,22.1692Q26.4442,21.9166,26.5831,21.6568Q26.7219,21.397,26.8479,21.1307Q26.9738,20.8644,27.0866,20.5922Q27.1993,20.32,27.2985,20.0427Q27.3978,19.7653,27.4833,19.4834Q27.5688,19.2015,27.6404,18.9158Q27.712,18.630000000000003,27.7694,18.3411Q27.8269,18.0522,27.8701,17.7608Q27.9133,17.4694,27.9422,17.1762Q27.9711,16.883,27.9855,16.5888Q28,16.294600000000003,28,16Q28,15.7054,27.9855,15.4112Q27.9711,15.117,27.9422,14.8238Q27.9133,14.5306,27.8701,14.2392Q27.8269,13.94784,27.7694,13.65892Q27.712,13.36999,27.6404,13.08424Q27.5688,12.79848,27.4833,12.51658Q27.3978,12.23468,27.2985,11.95732Q27.1993,11.679960000000001,27.0866,11.4078Q26.9738,11.13564,26.8479,10.869340000000001Q26.7219,10.60304,26.5831,10.34324Q26.4442,10.08344,26.2927,9.830770000000001Q26.1413,9.57809,25.9776,9.33316Q25.814,9.08822,25.6385,8.85161Q25.463,8.615,25.2761,8.38728Q25.0892,8.159559999999999,24.8914,7.94129Q24.6936,7.72302,24.4853,7.5147200000000005Q24.277,7.30642,24.0587,7.1085899999999995Q23.8404,6.91076,23.6127,6.72387Q23.385,6.536989999999999,23.1484,6.36151Q22.9118,6.186030000000001,22.6668,6.02236Q22.4219,5.8587,22.1692,5.70726Q21.9166,5.55581,21.6568,5.41694Q21.397,5.27808,21.1307,5.15213Q20.8644,5.02618,20.5922,4.913446Q20.32,4.800713,20.0427,4.701471Q19.7653,4.602229,19.4834,4.516716Q19.2015,4.431203,18.9158,4.359625Q18.630000000000003,4.288047,18.3411,4.230577Q18.0522,4.173106,17.7608,4.129882Q17.4694,4.0866575,17.1762,4.0577833Q16.883,4.028909,16.5888,4.0144545Q16.294600000000003,4,16,4Q15.7054,4,15.4112,4.0144545Q15.117,4.028909,14.8238,4.0577833Q14.5306,4.0866575,14.2392,4.129882Q13.94784,4.173106,13.65892,4.230577Q13.36999,4.288047,13.08424,4.359625Q12.79848,4.431203,12.51658,4.516716Q12.23468,4.602229,11.95732,4.701471Q11.679960000000001,4.800713,11.4078,4.913446Q11.13564,5.02618,10.869340000000001,5.15213Q10.60304,5.27808,10.34324,5.41694Q10.08344,5.55581,9.830770000000001,5.70726Q9.57809,5.8587,9.33316,6.02236Q9.08822,6.186030000000001,8.85161,6.36151Q8.615,6.536989999999999,8.38728,6.72387Q8.159559999999999,6.91076,7.94129,7.1085899999999995Q7.72302,7.30642,7.5147200000000005,7.5147200000000005Q7.30642,7.72302,7.1085899999999995,7.94129Q6.91076,8.159559999999999,6.72387,8.38728Q6.536989999999999,8.615,6.36151,8.85161Q6.186030000000001,9.08822,6.02236,9.33316Q5.8587,9.57809,5.70726,9.830770000000001Q5.55581,10.08344,5.41694,10.34324Q5.27808,10.60304,5.15213,10.869340000000001Q5.02618,11.13564,4.913446,11.4078Q4.800713,11.679960000000001,4.701471,11.95732Q4.602229,12.23468,4.516716,12.51658Q4.431203,12.79848,4.359625,13.08424Q4.288047,13.36999,4.230577,13.65892Q4.173106,13.94784,4.129882,14.2392Q4.0866575,14.5306,4.0577833,14.8238Q4.028909,15.117,4.0144545,15.4112Q4,15.7054,4,16Q4,16.294600000000003,4.0144545,16.5888Q4.028909,16.883,4.0577833,17.1762Q4.0866575,17.4694,4.129882,17.7608Q4.173106,18.0522,4.230577,18.3411Q4.288047,18.630000000000003,4.359625,18.9158Q4.431203,19.2015,4.516716,19.4834Q4.602229,19.7653,4.701471,20.0427Q4.800713,20.32,4.913446,20.5922Q5.02618,20.8644,5.15213,21.1307Q5.27808,21.397,5.41694,21.6568Q5.55581,21.9166,5.70726,22.1692Q5.8587,22.4219,6.02236,22.6668Q6.186030000000001,22.9118,6.36151,23.1484Q6.536989999999999,23.385,6.72387,23.6127Q6.91076,23.8404,7.1085899999999995,24.0587Q7.30642,24.277,7.5147200000000005,24.4853Q7.72302,24.6936,7.94129,24.8914Q8.159559999999999,25.0892,8.38728,25.2761Q8.615,25.463,8.85161,25.6385Q9.08822,25.814,9.33316,25.9776Q9.57809,26.1413,9.830770000000001,26.2927Q10.08344,26.4442,10.34324,26.5831Q10.60304,26.7219,10.869340000000001,26.8479Q11.13564,26.9738,11.4078,27.0866Q11.679960000000001,27.1993,11.95732,27.2985Q12.23468,27.3978,12.51658,27.4833Q12.79848,27.5688,13.08424,27.6404Q13.36999,27.712,13.65892,27.7694Q13.94784,27.8269,14.2392,27.8701Q14.5306,27.9133,14.8238,27.9422Q15.117,27.9711,15.4112,27.9855Q15.7054,28,16,28ZM11.2929,12.70711C10.90236,12.31658,10.90236,11.68342,11.2929,11.29289C11.68342,10.902370000000001,12.31658,10.902370000000001,12.7071,11.29289L16,14.5858L19.2929,11.29289C19.6834,10.902370000000001,20.3166,10.902370000000001,20.7071,11.29289C21.0976,11.68342,21.0976,12.31658,20.7071,12.70711L17.4142,16L20.7071,19.2929C21.0976,19.6834,21.0976,20.3166,20.7071,20.7071C20.3166,21.0976,19.6834,21.0976,19.2929,20.7071L16,17.4142L12.70711,20.7071C12.31658,21.0976,11.68342,21.0976,11.29289,20.7071C10.902370000000001,20.3166,10.902370000000001,19.6834,11.29289,19.2929L14.5858,16L11.2929,12.70711Z" fill-rule="evenodd" fill="#C7C9CC" fill-opacity="1"/></g></g></svg>