<svg xmlns="http://www.w3.org/2000/svg" xmlns:xlink="http://www.w3.org/1999/xlink" fill="none" version="1.1" width="14" height="14" viewBox="0 0 14 14"><g transform="matrix(0,1,-1,0,14,-14)"><path d="M26.0518,9.91667Q26.1286,9.78365,26.1684,9.63529Q26.2081,9.48693,26.2081,9.33333Q26.2081,9.17974,26.1684,9.03138Q26.1286,8.88302,26.0518,8.75L22.01036,1.75Q21.93357,1.61698,21.82496,1.50838Q21.71635,1.39977,21.58333,1.32297Q21.450319999999998,1.24617,21.30196,1.20642Q21.15359,1.16667,21,1.16667Q20.84641,1.16667,20.69804,1.20642Q20.549680000000002,1.24617,20.41667,1.32297Q20.28365,1.39977,20.17504,1.50838Q20.06643,1.61698,19.98964,1.75L15.94819,8.75Q15.87139,8.88302,15.83163,9.03138Q15.791879999999999,9.17974,15.791879999999999,9.33333Q15.791879999999999,9.48693,15.83163,9.63529Q15.87139,9.78365,15.94819,9.91667Q16.02498,10.0497,16.133589999999998,10.1583Q16.2422,10.2669,16.37522,10.3437Q16.50823,10.4205,16.65659,10.4602Q16.804949999999998,10.5,16.95855,10.5L25.0415,10.5Q25.195,10.5,25.343400000000003,10.4602Q25.491799999999998,10.4205,25.6248,10.3437Q25.7578,10.2669,25.8664,10.1583Q25.975,10.0497,26.0518,9.91667ZM24.031100000000002,8.75L21,3.5L17.96891,8.75L24.031100000000002,8.75Z" fill-rule="evenodd" fill="#FFFFFF" fill-opacity="1"/></g></svg>