<svg xmlns="http://www.w3.org/2000/svg" xmlns:xlink="http://www.w3.org/1999/xlink" fill="none" version="1.1" width="14" height="14" viewBox="0 0 14 14"><g transform="matrix(0,1,1,0,0,0)"><path d="M12.0518,9.91667Q12.1286,9.78365,12.1684,9.63529Q12.2081,9.48693,12.2081,9.33333Q12.2081,9.17974,12.1684,9.03138Q12.1286,8.88302,12.0518,8.75L8.01036,1.75Q7.93357,1.61698,7.82496,1.50838Q7.71635,1.39977,7.58333,1.32297Q7.45032,1.24617,7.30196,1.20642Q7.15359,1.16667,7,1.16667Q6.84641,1.16667,6.69804,1.20642Q6.54968,1.24617,6.41667,1.32297Q6.28365,1.39977,6.17504,1.50838Q6.06643,1.61698,5.98964,1.75L1.94819,8.75Q1.87139,8.88302,1.83163,9.03138Q1.79188,9.17974,1.79188,9.33333Q1.79188,9.48693,1.83163,9.63529Q1.87139,9.78365,1.94819,9.91667Q2.02498,10.0497,2.13359,10.1583Q2.2422,10.2669,2.37522,10.3437Q2.50823,10.4205,2.65659,10.4602Q2.80495,10.5,2.95855,10.5L11.0415,10.5Q11.195,10.5,11.3434,10.4602Q11.4918,10.4205,11.6248,10.3437Q11.7578,10.2669,11.8664,10.1583Q11.975,10.0497,12.0518,9.91667ZM10.0311,8.75L7,3.5L3.96891,8.75L10.0311,8.75Z" fill-rule="evenodd" fill="#FFFFFF" fill-opacity="1"/></g></svg>