<svg xmlns="http://www.w3.org/2000/svg" xmlns:xlink="http://www.w3.org/1999/xlink" fill="none" version="1.1" width="16" height="16" viewBox="0 0 16 16"><defs><clipPath id="master_svg0_15953_08875"><rect x="0" y="0" width="16" height="16" rx="0"/></clipPath></defs><g clip-path="url(#master_svg0_15953_08875)"><g><g><path d="M3.97839,4.84492L3.98621,4.8433600000000006C4.82058,4.69336,7.03777,4.3918,9.57215,4.8386700000000005L9.5784,4.84023C9.59871,4.8433600000000006,9.92371,4.9058600000000006,10.31433,5.0418C10.30652,3.89805,9.96746,2.8167999999999997,9.35652,1.988672L9.28308,1.8886720000000001L9.15183,1.848047C7.64402,1.383984,5.91433,1.383984,4.40808,1.848047L4.27683,1.8886720000000001L4.203390000000001,1.988672C3.60808,2.7949200000000003,3.27058,3.8418,3.24558,4.95273L3.24558,5.00586C3.57058,4.92617,3.92058,4.85586,3.97839,4.84492ZM5.82214,3.3777299999999997C5.82214,3.2418,5.95183,3.1324199999999998,6.11277,3.1324199999999998L6.55027,3.1324199999999998L6.55027,2.82773C6.55027,2.6917999999999997,6.67996,2.58242,6.8409,2.58242C7.00183,2.58242,7.13308,2.6917999999999997,7.13308,2.82773L7.13308,3.1324199999999998L7.47215,3.1324199999999998C7.63308,3.1324199999999998,7.76433,3.24336,7.76433,3.3777299999999997C7.76433,3.51367,7.63308,3.62305,7.47215,3.62305L7.13308,3.62305L7.13308,3.82617C7.13308,3.90586,7.08465,3.97305,7.01277,4.0183599999999995C6.96902,4.06992,6.90027,4.1043,6.81902,4.1043C6.70027,4.1043,6.60496,4.0308600000000006,6.58465,3.93555C6.56433,3.90273,6.55027,3.8668,6.55027,3.82617L6.55027,3.62305L6.11277,3.62305C5.95339,3.62305,5.82214,3.51211,5.82214,3.3777299999999997ZM9.08723,14.4391Q8.90007,14.2812,8.73116,14.1039Q8.56224,13.9266,8.41357,13.732Q8.264890000000001,13.5374,8.13821,13.3278Q8.01153,13.1182,7.90835,12.8961Q7.80516,12.674,7.72668,12.442Q7.64821,12.21,7.59537,11.9709Q7.54253,11.7318,7.51596,11.48834Q7.48938,11.24489,7.48938,11Q7.48938,10.68614,7.53295,10.37531Q7.57652,10.06448,7.66282,9.76271Q7.74912,9.46095,7.87647,9.17408Q8.00383,8.88721,8.16977,8.6208Q8.335709999999999,8.35439,8.53703,8.1136Q8.73835,7.87281,8.97115,7.66229Q9.20395,7.45178,9.46372,7.27562Q9.72349,7.09946,10.00519,6.96106C10.12253,6.60937,10.20637,6.23319,10.25183,5.83867C9.84558,5.66211,9.41746,5.57305,9.38308,5.5668C6.95496,5.13398,4.78621,5.45898,4.17371,5.56992C3.93465,5.6168,3.54246,5.70273,3.29715,5.77148C3.46277,7.36836,4.2534,8.674610000000001,5.35183,9.28711C3.52058,9.71367,1.97058,10.86523,1.195583,12.4605L1.1956099999999998,12.5C1.176225,12.5689,1.098041,12.7235,1.000667,12.9161C0.729163,13.453,0.30846799999999996,14.285,0.5971455,14.3762C0.865198,14.4608,1.3878970000000002,14.4298,1.86158,14.4016C2.08099,14.3886,2.28988,14.3762,2.45808,14.3762C2.98942,14.3762,4.50496,14.4387,6.96902,14.4699C7.77806,14.4597,8.484390000000001,14.4494,9.08723,14.4391Z" fill-rule="evenodd" fill="#4E5969" fill-opacity="1"/></g><g><g><path d="M8.5,11.0424C8.5,9.08112,10.08976,7.5,12.0424,7.5C14.00368,7.5,15.584800000000001,9.08112,15.584800000000001,11.0424C15.584800000000001,13.00368,14.00368,14.584800000000001,12.0424,14.584800000000001C10.08112,14.584800000000001,8.5,13.00368,8.5,11.0424ZM11.6451,12.594899999999999L9.979610000000001,10.82661L11.6451,9.120000000000001L11.6451,10.16863C12.30308,10.16863,12.85824,10.41537,13.310590000000001,10.86773C13.76295,11.34064,14.030249999999999,11.91637,14.09193,12.594899999999999C13.59845,11.97805,13.1461,11.62851,12.75543,11.54626C12.36476,11.46401,11.99465,11.44345,11.6451,11.50514L11.6451,12.594899999999999Z" fill-rule="evenodd" fill="#FF9A2E" fill-opacity="1"/></g></g></g></g></svg>