<svg xmlns="http://www.w3.org/2000/svg" xmlns:xlink="http://www.w3.org/1999/xlink" fill="none" version="1.1" width="16" height="16" viewBox="0 0 16 16"><defs><clipPath id="master_svg0_2440_83294"><rect x="0" y="0" width="16" height="16" rx="0"/></clipPath></defs><g clip-path="url(#master_svg0_2440_83294)"><g><path d="M2,7.5C2,4.4624299999999995,4.4624299999999995,2,7.5,2C10.53757,2,13,4.4624299999999995,13,7.5C13,10.53757,10.53757,13,7.5,13C4.4624299999999995,13,2,10.53757,2,7.5C2,7.5,2,7.5,2,7.5Z" fill-rule="evenodd" fill="#FFFFFF" fill-opacity="1"/></g><g><g><path d="M1.3333333730697632,7.999983373069763C1.3333333730697632,4.318093373069763,4.318093373069763,1.3333333730697632,7.999983373069763,1.3333333730697632C11.681833373069763,1.3333333730697632,14.666633373069763,4.318093373069763,14.666633373069763,7.999983373069763C14.666633373069763,11.681833373069763,11.681833373069763,14.666633373069763,7.999983373069763,14.666633373069763C4.318093373069763,14.666633373069763,1.3333333730697632,11.681833373069763,1.3333333730697632,7.999983373069763C1.3333333730697632,7.999983373069763,1.3333333730697632,7.999983373069763,1.3333333730697632,7.999983373069763ZM7.333313373069763,10.609473373069763C7.333313373069763,10.609473373069763,11.638033373069764,6.304723373069764,11.638033373069764,6.304723373069764C11.638033373069764,6.304723373069764,10.695243373069763,5.3619233730697635,10.695243373069763,5.3619233730697635C10.695243373069763,5.3619233730697635,7.333313373069763,8.723843373069762,7.333313373069763,8.723843373069762C7.333313373069763,8.723843373069762,5.4713933730697635,6.8619233730697635,5.4713933730697635,6.8619233730697635C5.4713933730697635,6.8619233730697635,4.528603373069763,7.804713373069763,4.528603373069763,7.804713373069763C4.528603373069763,7.804713373069763,7.333313373069763,10.609473373069763,7.333313373069763,10.609473373069763C7.333313373069763,10.609473373069763,7.333313373069763,10.609473373069763,7.333313373069763,10.609473373069763Z" fill-rule="evenodd" fill="#23C343" fill-opacity="1"/></g></g></g></svg>