<svg xmlns="http://www.w3.org/2000/svg" xmlns:xlink="http://www.w3.org/1999/xlink" fill="none" version="1.1" width="16" height="16" viewBox="0 0 16 16"><defs><clipPath id="master_svg0_21551_147578/21551_145819"><rect x="0" y="0" width="16" height="16" rx="0"/></clipPath></defs><g clip-path="url(#master_svg0_21551_147578/21551_145819)"><g><path d="M5.661510703125,2.95750697265625L5.538520703125,2.95750697265625C5.606160703125,2.95750697265625,5.661510703125,2.90215697265625,5.661510703125,2.83451997265625L5.661510703125,2.95750697265625L10.334900703125,2.95750697265625L10.334900703125,2.83451997265625C10.334900703125,2.90215697265625,10.390240703125,2.95750697265625,10.457880703125,2.95750697265625L10.334900703125,2.95750697265625L10.334900703125,4.06435697265625L11.441750703125,4.06435697265625L11.441750703125,2.83451997265625C11.441750703125,2.29185197265625,11.000550703125,1.85064697265625,10.457880703125,1.85064697265625L5.538520703125,1.85064697265625C4.995860703125,1.85064697265625,4.5546507031250005,2.29185197265625,4.5546507031250005,2.83451997265625L4.5546507031250005,4.06435697265625L5.661510703125,4.06435697265625L5.661510703125,2.95750697265625ZM13.409470703125,4.06435697265625L2.586906703125,4.06435697265625C2.314804703125,4.06435697265625,2.094970703125,4.28419697265625,2.094970703125,4.55629697265625L2.094970703125,5.04822697265625C2.094970703125,5.11587697265625,2.150313603125,5.17121697265625,2.217954703125,5.17121697265625L3.146480703125,5.17121697265625L3.5262007031250002,13.21124697265625C3.550790703125,13.73554697265625,3.984310703125,14.14904697265625,4.508530703125,14.14904697265625L11.487870703125,14.14904697265625C12.013630703125,14.14904697265625,12.445570703125,13.73704697265625,12.470170703125,13.21124697265625L12.849970703125,5.17121697265625L13.778470703125,5.17121697265625C13.846070703125,5.17121697265625,13.901470703125,5.11587697265625,13.901470703125,5.04822697265625L13.901470703125,4.55629697265625C13.901470703125,4.28419697265625,13.681570703125,4.06435697265625,13.409470703125,4.06435697265625ZM11.369500703125,13.04214697265625L4.626900703125,13.04214697265625L4.254880703125,5.17121697265625L11.741530703125,5.17121697265625L11.369500703125,13.04214697265625Z" fill="#F76560" fill-opacity="1"/></g></g></svg>