<?xml version="1.0" standalone="no"?><!DOCTYPE svg PUBLIC "-//W3C//DTD SVG 1.1//EN" "http://www.w3.org/Graphics/SVG/1.1/DTD/svg11.dtd"><svg class="icon" width="200px" height="200.00px" viewBox="0 0 1024 1024" version="1.1" xmlns="http://www.w3.org/2000/svg"><path d="M86 788h32c88.364 0 160-71.636 160-160V356h-48c-88.364 0-160 71.636-160 160v256a16 16 0 0 0 16 16z" fill="#4671C6" /><path d="M118 796h-32c-13.236 0-24-10.764-24-24v-256c0-92.636 75.364-168 168-168h48a8 8 0 0 1 8 8v272c0 92.636-75.364 168-168 168z m112-432c-83.812 0-152 68.188-152 152v256c0 4.412 3.588 8 8 8h32c83.812 0 152-68.188 152-152V364h-40z" fill="#3762CC" /><path d="M938 788h-32c-88.364 0-160-71.636-160-160V356h48c88.364 0 160 71.636 160 160v256a16 16 0 0 1-16 16z" fill="#4671C6" /><path d="M938 796h-32c-92.636 0-168-75.364-168-168V356a8 8 0 0 1 8-8h48c92.636 0 168 75.364 168 168v256c0 13.236-10.764 24-24 24z m-184-432v264c0 83.812 68.188 152 152 152h32c4.412 0 8-3.588 8-8v-256c0-83.812-68.188-152-152-152h-40z" fill="#3762CC" /><path d="M530.56 672h-41.12c-136.656 0-247.44-110.784-247.44-247.44V256h536v168.56c0 136.656-110.784 247.44-247.44 247.44z" fill="#4671C6" /><path d="M536.584 680h-53.164C345.888 680 234 568.112 234 430.58V276a8 8 0 0 1 8-8h536a8 8 0 0 1 8 8v154.58c0 137.532-111.888 249.42-249.416 249.42zM250 284v146.58C250 559.288 354.712 664 483.416 664h53.164c128.708 0 233.416-104.712 233.416-233.42V284H250z" fill="#3762CC" /><path d="M748.924 488.872m-72 0a72 72 0 1 0 144 0 72 72 0 1 0-144 0Z" fill="#F9CFCF" /><path d="M273.94 488.872m-72 0a72 72 0 1 0 144 0 72 72 0 1 0-144 0Z" fill="#F9CFCF" /><path d="M511.432 742.648c-130.34 0-236-105.66-236-236v-112c0-130.34 105.66-236 236-236s236 105.66 236 236v112c0 130.34-105.66 236-236 236z" fill="#F9CFCF" /><path d="M386.848 522.332a24 24 0 0 1-24-24v-40a24 24 0 1 1 48 0v40a24 24 0 0 1-24 24zM636.02 522.332a24 24 0 0 1-24-24v-40a24 24 0 1 1 48 0v40a24 24 0 0 1-24 24zM514.032 635.704c-33.788 0-61.28-24.836-61.28-55.36a8 8 0 0 1 16 0c0 21.704 20.312 39.36 45.28 39.36 24.964 0 45.276-17.66 45.276-39.36a8 8 0 0 1 16 0c0 30.524-27.488 55.36-61.276 55.36z" fill="#3762CC" /><path d="M401.248 653.668v129.984c0 5.408 1.824 10.652 5.18 14.892l90.032 113.772a16 16 0 0 0 24.992 0.124l91.972-113.844a24.004 24.004 0 0 0 5.332-15.084v-129.848h-217.508z" fill="#F9CFCF" /><path d="M401.248 715.328v68.324c0 5.408 1.824 10.652 5.18 14.892l90.032 113.772a16 16 0 0 0 24.992 0.124l91.972-113.844a24.004 24.004 0 0 0 5.332-15.084v-66.656c-32.192 16.48-68.664 25.788-107.32 25.788a234.676 234.676 0 0 1-110.188-27.316z" fill="#F9CFCF" /><path d="M572.48 852c-17.64 12.56-39.172 20-62.48 20a107.34 107.34 0 0 1-62.476-20H285.396a165.832 165.832 0 0 0-35.396 102.652V988h528v-33.348c0-38.74-13.256-74.36-35.432-102.652H572.48z" fill="#E0EBFC" /><path d="M521.452 912.444a16 16 0 0 1-24.992-0.124l-90.032-113.772a23.956 23.956 0 0 1-4.58-9.856c-85.1 7.496-151.848 78.916-151.848 165.96V988h528v-33.348c0-89.724-70.916-162.852-159.748-166.476l-96.8 124.268z" fill="#A4C9FF" /><path d="M778 996h-528a8 8 0 0 1-8-8v-33.348c0-88.5 64.476-161.552 151.248-173.056v-66.264a8 8 0 0 1 11.744-7.068 228.308 228.308 0 0 0 106.444 26.392c36.508 0 71.388-8.38 103.676-24.912a7.992 7.992 0 0 1 11.644 7.12v63.84c89.936 7.804 159.248 82.696 159.248 173.948V988a8.008 8.008 0 0 1-8.004 8z m-520-16h512v-25.348c0-85.388-66.796-155.004-152.072-158.484a8.012 8.012 0 0 1-7.632-8.848l0.452-4.232v-53.52c-31.252 13.996-64.6 21.084-99.32 21.084a244.6 244.6 0 0 1-102.188-22.44v55.44c0 0.956 0.132 2.02 0.42 3.348a7.992 7.992 0 0 1-7.12 9.66C320.144 803.92 258 871.84 258 954.652V980z" fill="#3762CC" /><path d="M511.432 750.652c-111.724 0-207.78-74.416-235.924-181.792-0.524 0.008-1.044 0.016-1.568 0.016-44.112 0-80-35.888-80-80 0-41.92 32.416-76.416 73.492-79.74v-14.488c0-134.544 109.456-244 244-244s244 109.456 244 244v14.488c41.08 3.324 73.492 37.82 73.492 79.74 0 44.112-35.888 80-80 80-0.524 0-1.044-0.004-1.568-0.016-28.14 107.376-124.2 181.792-235.924 181.792z m-229.756-198.208c3.676 0 6.928 2.528 7.78 6.184 24.176 103.64 115.452 176.02 221.976 176.02s197.8-72.384 221.976-176.02a7.996 7.996 0 0 1 8.64-6.14c2.408 0.256 4.656 0.384 6.876 0.384 35.288 0 64-28.712 64-64 0-35.28-28.692-63.984-63.964-64a24.5 24.5 0 0 1-1.372 0.072c-2.056 0.1-4.228-0.784-5.756-2.288a7.996 7.996 0 0 1-2.4-5.712v-22.3c0-125.72-102.28-228-228-228s-228 102.28-228 228v22.3c0 2.148-0.864 4.208-2.4 5.712-1.532 1.504-3.664 2.392-5.756 2.288a16.232 16.232 0 0 1-1.088-0.056h-0.032c-35.524 0-64.216 28.704-64.216 63.984 0 35.288 28.712 64 64 64 2.216 0 4.464-0.124 6.88-0.384a8.76 8.76 0 0 1 0.856-0.044z" fill="#3762CC" /><path d="M433.068 360h-182.88a16.188 16.188 0 0 1-16.188-16.188v-29.86C234 206.836 320.836 120 427.952 120h45.58c22.348 0 40.464 18.116 40.464 40.464v118.604C514 323.768 477.768 360 433.068 360zM594.932 360h182.884a16.188 16.188 0 0 0 16.188-16.188v-29.86C794 206.836 707.164 120 600.048 120h-45.58c-22.348 0-40.464 18.116-40.464 40.464v118.604C514 323.768 550.232 360 594.932 360z" fill="#4671C6" /><path d="M433.072 368H250.188a24.212 24.212 0 0 1-24.188-24.184v-29.86C226 202.596 316.596 112 427.952 112h45.584c26.724 0 48.464 21.744 48.464 48.464v118.604C522 328.104 482.104 368 433.072 368z m-5.12-240C325.416 128 242 211.416 242 313.952v29.86c0 4.512 3.672 8.184 8.188 8.184h182.884c40.216 0 72.928-32.716 72.928-72.928V160.464c0-17.9-14.564-32.464-32.464-32.464h-45.584z" fill="#3762CC" /><path d="M777.812 368h-182.884c-49.036 0-88.928-39.896-88.928-88.928V160.464c0-26.724 21.744-48.464 48.464-48.464h45.584c111.356 0 201.952 90.596 201.952 201.952v29.86A24.216 24.216 0 0 1 777.812 368z m-223.348-240c-17.904 0-32.464 14.564-32.464 32.464v118.604C522 319.284 554.716 352 594.928 352h182.884a8.196 8.196 0 0 0 8.188-8.184v-29.86C786 211.416 702.584 128 600.048 128h-45.584z" fill="#3762CC" /><path d="M801.148 330H218.852a12.852 12.852 0 0 1-12.852-12.852V262.852a12.852 12.852 0 0 1 12.852-12.852h582.296a12.852 12.852 0 0 1 12.852 12.852v54.296a12.848 12.848 0 0 1-12.852 12.852z" fill="#E0EBFC" /><path d="M801.148 338H218.852a20.876 20.876 0 0 1-20.852-20.852V262.852a20.876 20.876 0 0 1 20.852-20.852h582.296a20.876 20.876 0 0 1 20.852 20.852v54.296a20.876 20.876 0 0 1-20.852 20.852z m-582.296-80c-2.676 0-4.852 2.176-4.852 4.852v54.296c0 2.676 2.176 4.852 4.852 4.852h582.296c2.676 0 4.852-2.176 4.852-4.852V262.852c0-2.676-2.176-4.852-4.852-4.852H218.852z" fill="#3762CC" /><path d="M682 288m-108 0a108 108 0 1 0 216 0 108 108 0 1 0-216 0Z" fill="#FFEA92" /><path d="M682 288m-76 0a76 76 0 1 0 152 0 76 76 0 1 0-152 0Z" fill="#6BDDDD" /><path d="M682 404c-63.96 0-116-52.036-116-116s52.04-116 116-116 116 52.036 116 116-52.04 116-116 116z m0-216c-55.14 0-100 44.86-100 100s44.86 100 100 100 100-44.86 100-100-44.86-100-100-100z" fill="#3762CC" /><path d="M682 372c-46.316 0-84-37.68-84-84s37.684-84 84-84 84 37.68 84 84-37.684 84-84 84z m0-152c-37.496 0-68 30.504-68 68s30.504 68 68 68 68-30.504 68-68-30.504-68-68-68z" fill="#3762CC" /><path d="M587.18 909.44a17.18 17.18 0 0 1-17.18-17.18v-7.432a17.18 17.18 0 0 1 34.36 0v7.432a17.184 17.184 0 0 1-17.18 17.18zM696.82 909.44a17.18 17.18 0 0 0 17.18-17.18v-7.432a17.18 17.18 0 0 0-34.36 0v7.432a17.184 17.184 0 0 0 17.18 17.18zM620.056 879.524a17.18 17.18 0 0 1-17.18-17.18v-7.432a17.18 17.18 0 0 1 34.36 0v7.432a17.18 17.18 0 0 1-17.18 17.18zM663.016 879.524a17.18 17.18 0 0 0 17.18-17.18v-7.432a17.18 17.18 0 0 0-34.36 0v7.432a17.184 17.184 0 0 0 17.18 17.18zM675.752 911.532c-1.52-0.36-2.576-1.58-2.576-2.972 0-15.224-13.956-27.568-31.172-27.568s-31.172 12.34-31.172 27.568c0 1.392-1.056 2.612-2.576 2.972-13.14 3.104-22.824 13.7-22.824 26.3v0.672c0 15.04 13.784 27.228 30.792 27.228h51.56c17.004 0 30.792-12.192 30.792-27.228v-0.672c-0.004-12.6-9.684-23.196-22.824-26.3z" fill="#4671C6" /></svg>