<svg xmlns="http://www.w3.org/2000/svg" xmlns:xlink="http://www.w3.org/1999/xlink" fill="none" version="1.1" width="16" height="16" viewBox="0 0 16 16"><defs><clipPath id="master_svg0_7559_061184"><rect x="0" y="0" width="16" height="16" rx="0"/></clipPath></defs><g clip-path="url(#master_svg0_7559_061184)"><g><path d="M7.625,5.46597L6.68331,6.693C6.47316,6.96685,6.08081,7.01847,5.806979999999999,6.80832C5.5331600000000005,6.59816,5.481529999999999,6.20582,5.69167,5.93199L7.75417,3.244488C8.00436,2.9185039,8.49564,2.9185039,8.745809999999999,3.244488L10.80831,5.93199C11.01847,6.205830000000001,10.96684,6.59818,10.693,6.80832C10.41917,7.01847,10.02683,6.96685,9.816690000000001,6.693L8.875,5.46599L8.875,12.25C8.875,12.59518,8.59517,12.875,8.25,12.875C7.90483,12.875,7.625,12.59518,7.625,12.25L7.625,5.46597ZM13.25,9.25C13.25,8.90483,13.5298,8.625,13.875,8.625C14.2202,8.625,14.5,8.90483,14.5,9.25L14.5,13.75C14.5,14.7165,13.7165,15.5,12.75,15.5L3.75,15.5C2.7835,15.5,2,14.7165,2,13.75L2,9.25C2,8.90483,2.279828,8.625,2.625,8.625C2.970172,8.625,3.25,8.90483,3.25,9.25L3.25,13.75C3.25,14.0261,3.47386,14.25,3.75,14.25L12.75,14.25C13.0261,14.25,13.25,14.0261,13.25,13.75L13.25,9.25Z" fill="#2E6CE4" fill-opacity="1"/></g></g></svg>