<svg xmlns="http://www.w3.org/2000/svg" xmlns:xlink="http://www.w3.org/1999/xlink" fill="none" version="1.1" width="16" height="16" viewBox="0 0 16 16"><defs><clipPath id="master_svg0_2440_83290"><rect x="0" y="0" width="16" height="16" rx="0"/></clipPath></defs><g clip-path="url(#master_svg0_2440_83290)"><g><path d="M7.9999509375,14.6649609375C4.3190509375,14.6649609375,1.3349609375,11.6807609375,1.3349609375,7.9999209375C1.3349609375,4.3190309375,4.3190609375,1.3349609375,7.9999509375,1.3349609375C11.6816609375,1.3349609375,14.6649609375,4.3190309375,14.6649609375,7.9999309375C14.6649609375,11.6808609375,11.6816609375,14.6649609375,7.9999509375,14.6649609375ZM11.0564809375,6.0568709375C11.1818509375,5.9314209375,11.1818509375,5.7277409375,11.0564809375,5.6023909375L10.3756509375,4.9223909374999995C10.2502509375,4.7969909375,10.0474809375,4.7969909375,9.9220409375,4.9223909374999995L7.9940909375,6.8503609375L6.0661209375,4.9223909374999995C5.9407209375,4.7969909375,5.7378909375,4.7969909375,5.6125109375,4.9223909374999995L4.9316909375,5.6023909375C4.8063109375,5.7277409375,4.8063109375,5.9314209375,4.9316909375,6.0568709375L6.8596609375,7.9847809375L4.9316909375,9.9127409375C4.8063109375,10.0380909375,4.8063109375,10.2409509375,4.9316909375,10.3663609375L5.6125109375,11.0471309375C5.7378909375,11.1717209375,5.9407209375,11.1717209375,6.0661209375,11.0471309375L7.9940909375,9.1191709375L9.9220609375,11.0471309375C10.0474909375,11.1717209375,10.2502609375,11.1717209375,10.3756709375,11.0471309375L11.0564909375,10.3663709375C11.1818609375,10.2409709375,11.1818609375,10.0381109375,11.0564909375,9.9127609375L9.1285109375,7.9847909375L11.0564809375,6.0568709375Z" fill="#FE4033" fill-opacity="1"/></g></g></svg>