<svg xmlns="http://www.w3.org/2000/svg" xmlns:xlink="http://www.w3.org/1999/xlink" fill="none" version="1.1" width="36" height="36" viewBox="0 0 36 36"><defs><clipPath id="master_svg0_2266_97956"><rect x="0" y="0" width="36" height="36" rx="8"/></clipPath></defs><g clip-path="url(#master_svg0_2266_97956)"><rect x="0" y="0" width="36" height="36" rx="8" fill="#8F8F8F" fill-opacity="1"/><g><path d="M16.13999786376953,19.79999526977539C16.034997863769533,19.92749526977539,15.87749786376953,20.00999526977539,15.674997863769532,20.05499526977539C15.464997863769531,20.09999526977539,15.187497863769531,20.122495269775392,14.834997863769532,20.122495269775392C14.714997863769531,20.122495269775392,14.56499786376953,20.11499526977539,14.37749786376953,20.10749526977539C14.18999786376953,20.09249526977539,13.987497863769532,20.07749526977539,13.777496863769532,20.06249526977539C13.559997863769532,20.04749526977539,13.34999786376953,20.024995269775392,13.147497863769532,20.00249526977539L13.147497863769532,20.98499526977539C13.34999786376953,21.02248526977539,13.574996863769531,21.05248526977539,13.80749786376953,21.08249526977539C14.039997863769532,21.11248526977539,14.272497863769532,21.13498526977539,14.497497863769532,21.149995269775392C14.722497863769531,21.16499526977539,14.917497863769531,21.17999526977539,15.089997863769531,21.17999526977539C15.50249786376953,21.17999526977539,15.854997863769531,21.15749526977539,16.15499786376953,21.10498526977539C16.44749786376953,21.05248526977539,16.69499786376953,20.962485269775392,16.88999786376953,20.83499526977539C17.08499786376953,20.70748526977539,17.242497863769533,20.52748526977539,17.354997863769533,20.30998526977539C17.44499786376953,20.14498526977539,17.512497863769532,19.949995269775393,17.56499786376953,19.732485269775392C17.617487863769533,19.51498526977539,17.64749786376953,19.25998526977539,17.66999786376953,18.96749526977539C17.692497863769532,18.67499526977539,17.707497863769532,18.34499526977539,17.707497863769532,17.969985269775393C17.707497863769532,17.47499526977539,17.692497863769532,17.05499526977539,17.65499786376953,16.70249526977539C17.617497863769533,16.34999526977539,17.56499786376953,16.05749526977539,17.48249786376953,15.824992269775391C17.38499786376953,15.53249126977539,17.242497863769533,15.314992269775392,17.047497863769532,15.17999226977539C16.852497863769532,15.04499226977539,16.604997863769533,14.954993269775391,16.297497863769532,14.90999366977539C15.989997863769531,14.864993069775391,15.607497863769531,14.84249257977539,15.157497863769532,14.84249257977539C14.669997863769531,14.84249257977539,14.272497863769532,14.87999346977539,13.972497863769531,14.947493269775391C13.67249786376953,15.01499326977539,13.424997863769532,15.13499226977539,13.252496863769531,15.29999326977539C13.079997863769531,15.464993269775391,12.959997863769532,15.67499326977539,12.89999766376953,15.94499526977539C12.839997763769532,16.21499526977539,12.802497863769531,16.54499526977539,12.802497863769531,16.934995269775392C12.802497863769531,17.317495269775392,12.839997763769532,17.63249526977539,12.92249786376953,17.86499526977539C13.00499686376953,18.10499526977539,13.124997863769531,18.28499526977539,13.297496863769531,18.41249526977539C13.462497863769531,18.53999526977539,13.67999786376953,18.622495269775392,13.934997863769532,18.67499526977539C14.18999786376953,18.719985269775393,14.497497863769532,18.74999526977539,14.84999786376953,18.74999526977539C15.187497863769531,18.74999526977539,15.45749786376953,18.72749526977539,15.659997863769531,18.67499526977539C15.862497863769532,18.629995269775392,16.019997863769532,18.56999526977539,16.12499786376953,18.50249526977539C16.229997863769533,18.434995269775392,16.31249786376953,18.36749526977539,16.35749786376953,18.30749526977539L16.409997863769533,18.30749526977539C16.409997863769533,18.70499526977539,16.394997863769532,19.01999526977539,16.35749786376953,19.25998526977539C16.31249786376953,19.49249526977539,16.24499786376953,19.67249526977539,16.13999786376953,19.79999526977539ZM16.32749786376953,17.27249526977539C16.304997863769533,17.36999526977539,16.25249786376953,17.45249526977539,16.17749786376953,17.512495269775393C16.102497863769532,17.57249526977539,15.989997863769531,17.61749526977539,15.83249786376953,17.64749526977539C15.68249786376953,17.67749526977539,15.472497863769531,17.684995269775392,15.209997863769532,17.684995269775392C14.962497863769531,17.684995269775392,14.75999786376953,17.67749526977539,14.609997863769532,17.66249526977539C14.452497863769532,17.64749526977539,14.33249786376953,17.60999526977539,14.257497863769531,17.54249526977539C14.174997863769532,17.48249526977539,14.114997863769531,17.38499526977539,14.084997863769532,17.25749526977539C14.05499786376953,17.129995269775392,14.032497863769532,16.95749526977539,14.032497863769532,16.747495269775392C14.032497863769532,16.55249526977539,14.047497863769532,16.38749526977539,14.084997863769532,16.26749526977539C14.122497863769532,16.14749526977539,14.18249786376953,16.05749526977539,14.272497863769532,15.99749526977539C14.362497863769532,15.93749526977539,14.482497863769531,15.89999526977539,14.632497863769531,15.884995269775391C14.782497863769532,15.86999526977539,14.984997863769532,15.85499526977539,15.22499786376953,15.85499526977539C15.449997863769532,15.85499526977539,15.629997863769532,15.86249526977539,15.77999786376953,15.884995269775391C15.92999786376953,15.89999526977539,16.042497863769533,15.94499526977539,16.13249786376953,16.01249526977539C16.222497863769533,16.07999526977539,16.28249786376953,16.184995269775392,16.31999786376953,16.31999526977539C16.35749786376953,16.462495269775392,16.379997863769532,16.657495269775392,16.379997863769532,16.91249526977539C16.36499786376953,17.05499526977539,16.35749786376953,17.17499526977539,16.32749786376953,17.27249526977539ZM22.64248786376953,15.209994269775391C22.469987863769532,15.07499526977539,22.22998786376953,14.977494269775391,21.929987863769533,14.91749526977539C21.62998786376953,14.85749486977539,21.23998786376953,14.83499526977539,20.77499786376953,14.83499526977539C20.317487863769532,14.83499526977539,19.942487863769532,14.86499546977539,19.64249786376953,14.91749526977539C19.34249786376953,14.977494269775391,19.102497863769532,15.07499526977539,18.929987863769533,15.209994269775391C18.75749786376953,15.34499526977539,18.629987863769532,15.539994269775391,18.539987863769532,15.77999426977539C18.449987863769532,16.01999526977539,18.40498786376953,16.31999526977539,18.38249786376953,16.68749526977539C18.359997863769532,17.05499526977539,18.352497863769532,17.48999526977539,18.352497863769532,17.99999526977539C18.352497863769532,18.50999526977539,18.359997863769532,18.94499526977539,18.38249786376953,19.31249526977539C18.40499786376953,19.67999526977539,18.457497863769532,19.97999526977539,18.539987863769532,20.219985269775393C18.622487863769532,20.45998526977539,18.74999786376953,20.64749526977539,18.929987863769533,20.78998526977539C19.102487863769532,20.92499526977539,19.34248786376953,21.02248526977539,19.64249786376953,21.08249526977539C19.942487863769532,21.142485269775392,20.317487863769532,21.16499526977539,20.77499786376953,21.16499526977539C21.23999786376953,21.16499526977539,21.62998786376953,21.13498526977539,21.929987863769533,21.08249526977539C22.22998786376953,21.02248526977539,22.469987863769532,20.92499526977539,22.64248786376953,20.78998526977539C22.81499786376953,20.65498526977539,22.942497863769532,20.45998526977539,23.02499786376953,20.219985269775393C23.10749786376953,19.97999526977539,23.159997863769533,19.67999526977539,23.182497863769534,19.31249526977539C23.20499786376953,18.94499526977539,23.21999786376953,18.50999526977539,23.21999786376953,17.99999526977539C23.21999786376953,17.48999526977539,23.20499786376953,17.05499526977539,23.182497863769534,16.68749526977539C23.159997863769533,16.31999526977539,23.10749786376953,16.01999526977539,23.02499786376953,15.77999426977539C22.942497863769532,15.539994269775391,22.81499786376953,15.34499526977539,22.64248786376953,15.209994269775391ZM21.929987863769533,19.01999526977539C21.922487863769533,19.28249526977539,21.89998786376953,19.49249526977539,21.85498786376953,19.649995269775392C21.81748786376953,19.80749526977539,21.757487863769533,19.91999526977539,21.66748786376953,19.97999526977539C21.58498786376953,20.04749526977539,21.47248786376953,20.08499526977539,21.32248786376953,20.09999526977539C21.179987863769533,20.11499526977539,20.992487863769533,20.122495269775392,20.76748786376953,20.122495269775392C20.542497863769533,20.122495269775392,20.36248786376953,20.11499526977539,20.219987863769532,20.09999526977539C20.09614786376953,20.092455269775392,19.97677786376953,20.05094526977539,19.87499786376953,19.97999526977539C19.792497863769533,19.91249526977539,19.73249786376953,19.79999526977539,19.68749786376953,19.649995269775392C19.64249786376953,19.49999526977539,19.62749786376953,19.28249526977539,19.61248786376953,19.01999526977539C19.59259786376953,18.34013526977539,19.59259786376953,17.659835269775392,19.61248786376953,16.97999526977539C19.61999786376953,16.71749526977539,19.64249786376953,16.50749526977539,19.68749786376953,16.34999526977539C19.73249786376953,16.192495269775392,19.784997863769533,16.07999526977539,19.87499786376953,16.01999526977539C19.964997863769533,15.95999526977539,20.07748786376953,15.91499526977539,20.219987863769532,15.89999526977539C20.36999786376953,15.884995269775391,20.54998786376953,15.877495269775391,20.77499786376953,15.877495269775391C20.999987863769533,15.877495269775391,21.187487863769533,15.884995269775391,21.32999786376953,15.89999526977539C21.47248786376953,15.91499526977539,21.58498786376953,15.95249526977539,21.66748786376953,16.01999526977539C21.749987863769533,16.087495269775392,21.809987863769532,16.19999526977539,21.85498786376953,16.34999526977539C21.89248786376953,16.50749526977539,21.914987863769532,16.71749526977539,21.929987863769533,16.97999526977539C21.937487863769533,17.24249526977539,21.944987863769533,17.57999526977539,21.944987863769533,17.99999526977539C21.944987863769533,18.41999526977539,21.944987863769533,18.74999526977539,21.929987863769533,19.01999526977539Z" fill="#FFFFFF" fill-opacity="1"/></g><g><path d="M8,17.99999C8,20.6667,9.04167,23.1833,10.925,25.075C12.816659999999999,26.9583,15.325,28,17.99999,28C20.6667,28,23.1833,26.9583,25.075,25.075C26.9522,23.1996,28.0048,20.6535,28,17.99999C28,17.54166,27.625,17.16666,27.1667,17.16666C26.7083,17.16666,26.3333,17.54166,26.3333,17.99999C26.3333,20.225,25.4667,22.3167,23.8917,23.8917C22.3328,25.4599,20.211199999999998,26.3391,17.99999,26.3333C15.775,26.3333,13.68333,25.4667,12.108329999999999,23.8917C10.53333,22.3167,9.66667,20.225,9.66667,17.99999C9.66667,15.774989999999999,10.53333,13.68333,12.108329999999999,12.108329999999999C13.66721,10.54011,15.788789999999999,9.66086,17.99999,9.66667C19.825,9.66667,21.55,10.25833,22.9833,11.33333L21.625,11.33333C21.1667,11.33333,20.7917,11.70833,20.7917,12.16666C20.7917,12.625,21.1667,13,21.625,13L24.9583,13C25.4167,13,25.7917,12.625,25.7917,12.16666L25.7917,8.833333C25.7917,8.375,25.4167,8,24.9583,8C24.5,8,24.125,8.375,24.125,8.833333L24.125,10.10833C22.375,8.741666,20.25,8,17.99999,8C15.325,8,12.816659999999999,9.04167,10.925,10.925C9.04167,12.816659999999999,8,15.33333,8,17.99999Z" fill="#FFFFFF" fill-opacity="1"/></g></g></svg>