<svg xmlns="http://www.w3.org/2000/svg" xmlns:xlink="http://www.w3.org/1999/xlink" fill="none" version="1.1" width="232" height="42" viewBox="0 0 232 42"><defs><clipPath id="master_svg0_2398_025508"><rect x="0" y="0" width="232" height="42" rx="8"/></clipPath></defs><g clip-path="url(#master_svg0_2398_025508)"><rect x="0" y="0" width="232" height="42" rx="8" fill="#8F8F8F" fill-opacity="1"/><g><path d="M114.140234375,22.80002197265625C114.035234375,22.92752197265625,113.877734375,23.01002197265625,113.675234375,23.05502197265625C113.465234375,23.10002197265625,113.187734375,23.12252197265625,112.835234375,23.12252197265625C112.715234375,23.12252197265625,112.565234375,23.11502197265625,112.377734375,23.10752197265625C112.190234375,23.09252197265625,111.987734375,23.07752197265625,111.777733375,23.06252197265625C111.560234375,23.04752197265625,111.350234375,23.02502197265625,111.147734375,23.00252197265625L111.147734375,23.98502197265625C111.350234375,24.02251197265625,111.575233375,24.052511972656248,111.807734375,24.08252197265625C112.040234375,24.11251197265625,112.272734375,24.13501197265625,112.497734375,24.15002197265625C112.722734375,24.16502197265625,112.917734375,24.18002197265625,113.090234375,24.18002197265625C113.502734375,24.18002197265625,113.855234375,24.157521972656248,114.155234375,24.10501197265625C114.447734375,24.052511972656248,114.695234375,23.96251197265625,114.890234375,23.83502197265625C115.085234375,23.70751197265625,115.242734375,23.52751197265625,115.355234375,23.31001197265625C115.445234375,23.14501197265625,115.512734375,22.950021972656252,115.565234375,22.73251197265625C115.617724375,22.51501197265625,115.647734375,22.26001197265625,115.670234375,21.96752197265625C115.692734375,21.67502197265625,115.707734375,21.345021972656248,115.707734375,20.970011972656252C115.707734375,20.47502197265625,115.692734375,20.05502197265625,115.655234375,19.70252197265625C115.617734375,19.35002197265625,115.565234375,19.05752197265625,115.482734375,18.82501897265625C115.385234375,18.53251797265625,115.242734375,18.31501897265625,115.047734375,18.18001897265625C114.852734375,18.04501897265625,114.605234375,17.95501997265625,114.297734375,17.91002037265625C113.990234375,17.86501977265625,113.607734375,17.84251928265625,113.157734375,17.84251928265625C112.670234375,17.84251928265625,112.272734375,17.88002017265625,111.972734375,17.94751997265625C111.672734375,18.01501997265625,111.425234375,18.13501897265625,111.252733375,18.30001997265625C111.080234375,18.46501997265625,110.960234375,18.67501997265625,110.900234175,18.94502197265625C110.840234275,19.21502197265625,110.802734375,19.54502197265625,110.802734375,19.93502197265625C110.802734375,20.31752197265625,110.840234275,20.63252197265625,110.922734375,20.86502197265625C111.005233375,21.10502197265625,111.125234375,21.28502197265625,111.297733375,21.41252197265625C111.462734375,21.54002197265625,111.680234375,21.62252197265625,111.935234375,21.67502197265625C112.190234375,21.720011972656252,112.497734375,21.75002197265625,112.850234375,21.75002197265625C113.187734375,21.75002197265625,113.457734375,21.72752197265625,113.660234375,21.67502197265625C113.862734375,21.63002197265625,114.020234375,21.57002197265625,114.125234375,21.50252197265625C114.230234375,21.43502197265625,114.312734375,21.36752197265625,114.357734375,21.30752197265625L114.410234375,21.30752197265625C114.410234375,21.70502197265625,114.395234375,22.02002197265625,114.357734375,22.26001197265625C114.312734375,22.49252197265625,114.245234375,22.67252197265625,114.140234375,22.80002197265625ZM114.327734375,20.27252197265625C114.305234375,20.37002197265625,114.252734375,20.45252197265625,114.177734375,20.512521972656252C114.102734375,20.57252197265625,113.990234375,20.61752197265625,113.832734375,20.64752197265625C113.682734375,20.67752197265625,113.472734375,20.68502197265625,113.210234375,20.68502197265625C112.962734375,20.68502197265625,112.760234375,20.67752197265625,112.610234375,20.66252197265625C112.452734375,20.64752197265625,112.332734375,20.61002197265625,112.257734375,20.54252197265625C112.175234375,20.48252197265625,112.115234375,20.38502197265625,112.085234375,20.25752197265625C112.055234375,20.13002197265625,112.032734375,19.95752197265625,112.032734375,19.74752197265625C112.032734375,19.55252197265625,112.047734375,19.38752197265625,112.085234375,19.26752197265625C112.122734375,19.14752197265625,112.182734375,19.05752197265625,112.272734375,18.99752197265625C112.362734375,18.93752197265625,112.482734375,18.90002197265625,112.632734375,18.88502197265625C112.782734375,18.87002197265625,112.985234375,18.85502197265625,113.225234375,18.85502197265625C113.450234375,18.85502197265625,113.630234375,18.86252197265625,113.780234375,18.88502197265625C113.930234375,18.90002197265625,114.042734375,18.94502197265625,114.132734375,19.01252197265625C114.222734375,19.08002197265625,114.282734375,19.18502197265625,114.320234375,19.32002197265625C114.357734375,19.46252197265625,114.380234375,19.65752197265625,114.380234375,19.91252197265625C114.365234375,20.05502197265625,114.357734375,20.17502197265625,114.327734375,20.27252197265625ZM120.642724375,18.21002097265625C120.470224375,18.07502197265625,120.230224375,17.97752097265625,119.930224375,17.91752197265625C119.630224375,17.85752157265625,119.240224375,17.83502197265625,118.775234375,17.83502197265625C118.317724375,17.83502197265625,117.942724375,17.86502217265625,117.642734375,17.91752197265625C117.342734375,17.97752097265625,117.102734375,18.07502197265625,116.930224375,18.21002097265625C116.757734375,18.34502197265625,116.630224375,18.54002097265625,116.540224375,18.78002097265625C116.450224375,19.02002197265625,116.405224375,19.32002197265625,116.382734375,19.68752197265625C116.360234375,20.05502197265625,116.352734375,20.49002197265625,116.352734375,21.00002197265625C116.352734375,21.51002197265625,116.360234375,21.94502197265625,116.382734375,22.31252197265625C116.405234375,22.68002197265625,116.457734375,22.98002197265625,116.540224375,23.220011972656252C116.622724375,23.46001197265625,116.750234375,23.64752197265625,116.930224375,23.79001197265625C117.102724375,23.92502197265625,117.342724375,24.02251197265625,117.642734375,24.08252197265625C117.942724375,24.14251197265625,118.317724375,24.16502197265625,118.775234375,24.16502197265625C119.240234375,24.16502197265625,119.630224375,24.13501197265625,119.930224375,24.08252197265625C120.230224375,24.02251197265625,120.470224375,23.92502197265625,120.642724375,23.79001197265625C120.815234375,23.65501197265625,120.942734375,23.46001197265625,121.025234375,23.220011972656252C121.107734375,22.98002197265625,121.160234375,22.68002197265625,121.182734375,22.31252197265625C121.205234375,21.94502197265625,121.220234375,21.51002197265625,121.220234375,21.00002197265625C121.220234375,20.49002197265625,121.205234375,20.05502197265625,121.182734375,19.68752197265625C121.160234375,19.32002197265625,121.107734375,19.02002197265625,121.025234375,18.78002097265625C120.942734375,18.54002097265625,120.815234375,18.34502197265625,120.642724375,18.21002097265625ZM119.930224375,22.02002197265625C119.922724375,22.282521972656248,119.900224375,22.49252197265625,119.855224375,22.65002197265625C119.817724375,22.80752197265625,119.757724375,22.92002197265625,119.667724375,22.98002197265625C119.585224375,23.04752197265625,119.472724375,23.08502197265625,119.322724375,23.10002197265625C119.180224375,23.11502197265625,118.992724375,23.12252197265625,118.767724375,23.12252197265625C118.542734375,23.12252197265625,118.362724375,23.11502197265625,118.220224375,23.10002197265625C118.096384375,23.092481972656252,117.977014375,23.05097197265625,117.875234375,22.98002197265625C117.792734375,22.91252197265625,117.732734375,22.80002197265625,117.687734375,22.65002197265625C117.642734375,22.50002197265625,117.627734375,22.282521972656248,117.612724375,22.02002197265625C117.592834375,21.34016197265625,117.592834375,20.659861972656252,117.612724375,19.98002197265625C117.620234375,19.71752197265625,117.642734375,19.50752197265625,117.687734375,19.35002197265625C117.732734375,19.19252197265625,117.785234375,19.08002197265625,117.875234375,19.02002197265625C117.965234375,18.96002197265625,118.077724375,18.91502197265625,118.220224375,18.90002197265625C118.370234375,18.88502197265625,118.550224375,18.87752197265625,118.775234375,18.87752197265625C119.000224375,18.87752197265625,119.187724375,18.88502197265625,119.330234375,18.90002197265625C119.472724375,18.91502197265625,119.585224375,18.95252197265625,119.667724375,19.02002197265625C119.750224375,19.08752197265625,119.810224375,19.20002197265625,119.855224375,19.35002197265625C119.892724375,19.50752197265625,119.915224375,19.71752197265625,119.930224375,19.98002197265625C119.937724375,20.24252197265625,119.945224375,20.58002197265625,119.945224375,21.00002197265625C119.945224375,21.42002197265625,119.945224375,21.75002197265625,119.930224375,22.02002197265625Z" fill="#FFFFFF" fill-opacity="1"/></g><g transform="matrix(-1,0,0,1,256,0)"><path d="M128,21C128,24.2,129.25,27.22,131.51,29.49C133.77999,31.75,136.78999,33,140,33C143.2,33,146.22,31.75,148.49,29.49C150.7426,27.2395,152.0058,24.1842,152,21C152,20.45,151.55,20,151,20C150.45,20,150,20.45,150,21C150,23.67,148.96,26.18,147.07,28.07C145.1993,29.9519,142.6534,31.0069,140,31C137.32999,31,134.81999,29.96,132.93,28.07C131.04,26.18,130,23.67,130,21C130,18.329990000000002,131.04,15.81999,132.93,13.93C134.80065,12.04813,137.34655,10.99304,140,11C142.19,11,144.26,11.71,145.98,13L144.35,13C143.8,13,143.35,13.45,143.35,14C143.35,14.55,143.8,14.99999,144.35,14.99999L148.35,14.99999C148.9,14.99999,149.35,14.55,149.35,14L149.35,9.999999C149.35,9.449999,148.9,9,148.35,9C147.8,9,147.35,9.449999,147.35,9.999999L147.35,11.53C145.25,9.889999,142.7,9,140,9C136.78999,9,133.77999,10.25,131.51,12.51C129.25,14.77999,128,17.79999,128,21Z" fill="#FFFFFF" fill-opacity="1"/></g></g></svg>