<?xml version="1.0" standalone="no"?><!DOCTYPE svg PUBLIC "-//W3C//DTD SVG 1.1//EN" "http://www.w3.org/Graphics/SVG/1.1/DTD/svg11.dtd"><svg class="icon" width="200px" height="200.00px" viewBox="0 0 1024 1024" version="1.1" xmlns="http://www.w3.org/2000/svg"><path d="M402.532 719.7v68.324c0 5.408 1.824 10.652 5.18 14.892l90.032 113.772a16 16 0 0 0 24.992 0.124l91.972-113.844a24.004 24.004 0 0 0 5.332-15.084v-66.656c-32.192 16.48-68.664 25.788-107.32 25.788a234.676 234.676 0 0 1-110.188-27.316z" fill="#F9CFCF" /><path d="M573.764 856.372c-17.64 12.56-39.172 20-62.48 20a107.34 107.34 0 0 1-62.476-20H286.68a165.832 165.832 0 0 0-35.396 102.652v33.348h528v-33.348c0-38.74-13.256-74.36-35.432-102.652h-170.088z" fill="#E0EBFC" /><path d="M730.188 564.58h-16.624c-36.264 0-65.66-29.396-65.66-65.66V316.972c0-36.264 29.396-65.66 65.66-65.66h16.624c36.264 0 65.66 29.396 65.66 65.66v181.948c0 36.264-29.396 65.66-65.66 65.66zM307.844 562.684h-16.624c-36.264 0-65.66-29.396-65.66-65.66V315.076c0-36.264 29.396-65.66 65.66-65.66h16.624c36.264 0 65.66 29.396 65.66 65.66v181.948c0 36.264-29.396 65.66-65.66 65.66z" fill="#4671C6" /><path d="M731.62 572.58h-16.624c-40.616 0-73.66-33.044-73.66-73.66V316.972c0-40.616 33.044-73.664 73.66-73.664h16.624c40.616 0 73.66 33.044 73.66 73.664v181.948c0 40.616-33.04 73.66-73.66 73.66z m-16.624-313.272c-31.792 0-57.66 25.868-57.66 57.664v181.948c0 31.792 25.868 57.66 57.66 57.66h16.624c31.792 0 57.66-25.868 57.66-57.66V316.972c0-31.796-25.868-57.664-57.66-57.664h-16.624zM309.276 570.684h-16.624c-40.616 0-73.664-33.044-73.664-73.66V315.076c0-40.616 33.044-73.66 73.664-73.66h16.624c40.616 0 73.66 33.044 73.66 73.66v181.948c0 40.616-33.04 73.66-73.66 73.66z m-16.62-313.268c-31.796 0-57.664 25.868-57.664 57.66v181.948c0 31.792 25.868 57.66 57.664 57.66h16.624c31.792 0 57.66-25.868 57.66-57.66V315.076c0-31.792-25.868-57.66-57.66-57.66h-16.624z" fill="#3762CC" /><path d="M748.776 421.244c-0.504 0-0.992 0.064-1.492 0.076v-22.3c0-130.34-105.66-236-236-236s-236 105.66-236 236v22.3c-0.5-0.012-0.988-0.076-1.492-0.076-39.764 0-72 32.236-72 72s32.236 72 72 72c2.612 0 5.184-0.156 7.724-0.428 24.352 104.404 117.944 182.204 229.768 182.204s205.412-77.8 229.768-182.204a72.44 72.44 0 0 0 7.724 0.428c39.764 0 72-32.236 72-72s-32.236-72-72-72z" fill="#F9CFCF" /><path d="M386.696 502.7a24 24 0 0 1-24-24v-40a24 24 0 1 1 48 0v40a24 24 0 0 1-24 24zM635.868 502.7a24 24 0 0 1-24-24v-40a24 24 0 1 1 48 0v40a24 24 0 0 1-24 24zM513.88 632.076c-33.788 0-61.28-24.832-61.28-55.36a8 8 0 0 1 16 0c0 21.704 20.312 39.36 45.28 39.36s45.28-17.656 45.28-39.36a8 8 0 0 1 16 0c0 30.524-27.488 55.36-61.28 55.36z" fill="#3762CC" /><path d="M512.716 755.02c-111.724 0-207.78-74.416-235.924-181.792-44.796 0.792-81.568-35.352-81.568-79.984 0-41.92 32.416-76.416 73.492-79.74v-14.484c0-134.544 109.456-244 244-244 134.54 0 244 109.456 244 244v14.484c41.08 3.324 73.492 37.82 73.492 79.74 0 44.632-36.776 80.884-81.564 79.984-28.148 107.376-124.208 181.792-235.928 181.792z m-229.76-198.204a8 8 0 0 1 7.784 6.184c24.172 103.636 115.456 176.02 221.976 176.02s197.8-72.384 221.98-176.02a8.008 8.008 0 0 1 8.632-6.136c2.416 0.256 4.668 0.38 6.88 0.38 35.288 0 64-28.712 64-64 0-35.276-28.688-63.98-63.96-64a28.988 28.988 0 0 1-1.376 0.076c-2.308 0.104-4.224-0.784-5.756-2.288s-2.4-3.564-2.4-5.712v-22.3c0-125.72-102.28-228-228-228s-228 102.28-228 228v22.3c0 2.148-0.864 4.208-2.4 5.712-1.532 1.504-3.544 2.404-5.756 2.288a16.976 16.976 0 0 1-1.108-0.056h-0.032c-35.504 0-64.196 28.704-64.196 63.984 0 35.288 28.712 64 64 64 2.216 0 4.464-0.124 6.88-0.38 0.288-0.036 0.568-0.052 0.852-0.052z" fill="#3762CC" /><path d="M388.132 502.7a24 24 0 0 1-24-24v-40a24 24 0 1 1 48 0v40a24 24 0 0 1-24 24zM637.304 502.7a24 24 0 0 1-24-24v-40a24 24 0 1 1 48 0v40a24 24 0 0 1-24 24zM515.316 632.076c-33.792 0-61.28-24.832-61.28-55.36a8 8 0 0 1 16 0c0 21.704 20.312 39.36 45.28 39.36s45.28-17.656 45.28-39.36a8 8 0 0 1 16 0c-0.004 30.524-27.492 55.36-61.28 55.36z" fill="#3762CC" /><path d="M712.116 88.912h-40.548c-32.096 0-59.892 19.204-73.752 47.304-2.168 4.396-8.024 4.496-10.348 0.188-12.856-23.832-36.96-40.304-64.96-41.76C351.532 89.724 249.6 48 217.184 32.404c-5.284-2.544-11.332 1.472-11.332 7.484v167.9c0 61.768 48.568 111.84 108.48 111.84h157.352c46.236 0 86.576-25.752 108.412-64.084 2.696-4.732 9.404-3.472 10.748 1.864 8.264 32.76 36.556 56.896 70.208 56.896h121.608c17.228 0 31.192-14.736 31.192-32.912V196.264c0-59.288-45.548-107.352-101.736-107.352z" fill="#4671C6" /><path d="M473.116 327.628H315.764c-64.228 0-116.48-53.76-116.48-119.84V39.892c0-5.672 2.836-10.84 7.584-13.828a15.68 15.68 0 0 1 15.216-0.868c35.08 16.872 134.732 56.632 302.088 61.452 29 1.504 54.74 17.276 69.764 42.436 16.252-29.816 46.196-48.168 79.064-48.168h40.548c60.512 0 109.74 51.748 109.74 115.352v85.124c0 22.56-17.584 40.916-39.196 40.916h-121.604c-35.02 0-65.916-23.752-76.668-58.328-24.46 39.388-67.184 63.648-112.704 63.648zM215.152 39.616l0.132 67.796v100.376c0 57.256 45.076 103.84 100.48 103.84h157.352c41.484 0 80.36-23.004 101.464-60.044a13.624 13.624 0 0 1 13.68-6.844c5.712 0.78 10.336 4.988 11.776 10.716 7.556 29.936 33.236 50.848 62.448 50.848h121.604c12.788 0 23.196-11.176 23.196-24.916V196.264c0-54.784-42.052-99.352-93.74-99.352H673c-28.032 0-53.54 16.416-66.576 42.84-2.34 4.732-6.992 7.724-12.148 7.82a13.924 13.924 0 0 1-12.416-7.372c-12.004-22.252-33.812-36.296-58.332-37.572C353.28 97.736 251.148 56.932 215.152 39.616z" fill="#3762CC" /><path d="M681.852 300.372m-108 0a108 108 0 1 0 216 0 108 108 0 1 0-216 0Z" fill="#FFEA92" /><path d="M681.852 300.372m-76 0a76 76 0 1 0 152 0 76 76 0 1 0-152 0Z" fill="#6BDDDD" /><path d="M801 262.372h-18.044a107.78 107.78 0 0 1 6.896 38c0 14.896-3.016 29.088-8.472 42h19.62a12.852 12.852 0 0 0 12.852-12.852V275.224a12.852 12.852 0 0 0-12.852-12.852zM580.744 262.372h-362.04a12.852 12.852 0 0 0-12.852 12.852V329.52a12.852 12.852 0 0 0 12.852 12.852h363.62a107.648 107.648 0 0 1-8.472-42c0-13.38 2.448-26.18 6.892-38z" fill="#E0EBFC" /><path d="M683.284 416.372c-63.96 0-116-52.036-116-116s52.04-116 116-116 116 52.036 116 116-52.036 116-116 116z m0-216c-55.14 0-100 44.86-100 100s44.86 100 100 100 100-44.86 100-100-44.86-100-100-100z" fill="#3762CC" /><path d="M683.284 384.372c-46.316 0-84-37.68-84-84s37.684-84 84-84 84 37.68 84 84-37.684 84-84 84z m0-152c-37.496 0-68 30.504-68 68s30.504 68 68 68 68-30.504 68-68-30.504-68-68-68zM802.432 350.372h-19.62a8 8 0 0 1-7.372-11.116 99.324 99.324 0 0 0 7.844-38.888 99.6 99.6 0 0 0-6.384-35.184 8 8 0 0 1 7.492-10.816h18.044a20.876 20.876 0 0 1 20.852 20.852V329.52a20.884 20.884 0 0 1-20.856 20.852z m-8.208-16h8.212c2.676 0 4.852-2.176 4.852-4.852V275.224c0-2.676-2.176-4.852-4.852-4.852h-7.084c2.612 9.752 3.932 19.804 3.932 30 0 11.644-1.7 23.036-5.06 34zM583.752 350.372H220.136a20.872 20.872 0 0 1-20.852-20.852V275.224a20.872 20.872 0 0 1 20.852-20.852h362.044a8.004 8.004 0 0 1 7.492 10.82 99.5 99.5 0 0 0-6.384 35.18c0 13.492 2.636 26.576 7.84 38.888a8.008 8.008 0 0 1-7.376 11.112z m-363.616-80c-2.676 0-4.852 2.176-4.852 4.852V329.52c0 2.676 2.176 4.852 4.852 4.852h352.208a115.648 115.648 0 0 1-5.06-34c0-10.204 1.32-20.252 3.928-30H220.136z" fill="#3762CC" /><path d="M522.736 916.812a16 16 0 0 1-24.992-0.124l-90.032-113.772a23.956 23.956 0 0 1-4.58-9.856c-85.1 7.496-151.848 78.916-151.848 165.96v33.348h528v-33.348c0-89.724-70.916-162.852-159.748-166.476l-96.8 124.268z" fill="#A4C9FF" /><path d="M779.284 1000.372h-528a8 8 0 0 1-8-8v-33.348c0-88.5 64.476-161.552 151.248-173.06v-66.264a8 8 0 0 1 11.744-7.068 228.28 228.28 0 0 0 106.444 26.392c36.508 0 71.388-8.38 103.672-24.908a7.992 7.992 0 0 1 11.644 7.12v63.84c89.936 7.804 159.252 82.696 159.252 173.948v33.348a8.008 8.008 0 0 1-8.004 8z m-520-16h512v-25.348c0-85.388-66.8-155.004-152.076-158.484a8.012 8.012 0 0 1-7.632-8.848l0.452-4.232v-53.52c-31.252 13.996-64.6 21.08-99.32 21.08a244.648 244.648 0 0 1-102.188-22.436v55.44c0 0.948 0.136 2.016 0.424 3.364a7.984 7.984 0 0 1-7.124 9.64c-82.408 7.26-144.548 75.18-144.548 157.992v25.352z" fill="#3762CC" /><path d="M593.18 909.44a17.18 17.18 0 0 1-17.18-17.18v-7.432a17.18 17.18 0 0 1 34.36 0v7.432a17.184 17.184 0 0 1-17.18 17.18zM702.82 909.44a17.18 17.18 0 0 0 17.18-17.18v-7.432a17.18 17.18 0 0 0-34.36 0v7.432a17.184 17.184 0 0 0 17.18 17.18zM626.056 879.524a17.18 17.18 0 0 1-17.18-17.18v-7.432a17.18 17.18 0 0 1 34.36 0v7.432a17.18 17.18 0 0 1-17.18 17.18z" fill="#4671C6" /><path d="M669.016 879.524a17.18 17.18 0 0 0 17.18-17.18v-7.432a17.18 17.18 0 0 0-34.36 0v7.432a17.184 17.184 0 0 0 17.18 17.18z" fill="#4671C6" /><path d="M681.752 911.532c-1.52-0.36-2.576-1.58-2.576-2.972 0-15.224-13.956-27.568-31.172-27.568s-31.172 12.34-31.172 27.568c0 1.392-1.056 2.612-2.576 2.972-13.14 3.104-22.824 13.7-22.824 26.3v0.672c0 15.04 13.784 27.228 30.792 27.228h51.556c17.004 0 30.792-12.192 30.792-27.228v-0.672c0-12.6-9.68-23.196-22.82-26.3z" fill="#4671C6" /></svg>