<svg xmlns="http://www.w3.org/2000/svg" xmlns:xlink="http://www.w3.org/1999/xlink" fill="none" version="1.1" width="392" height="108" viewBox="0 0 392 108"><defs><linearGradient x1="0" y1="0.5" x2="1" y2="0.5" id="master_svg0_1943_85088"><stop offset="0%" stop-color="#4683F9" stop-opacity="1"/><stop offset="100%" stop-color="#556BFF" stop-opacity="1"/></linearGradient><clipPath id="master_svg1_2700_019624"><rect x="0" y="0" width="392" height="108" rx="16"/></clipPath></defs><g clip-path="url(#master_svg1_2700_019624)"><rect x="0" y="0" width="392" height="108" rx="16" fill="url(#master_svg0_1943_85088)" fill-opacity="1"/><g><g><g><path d="M21.6669921875,30.9999359765625C21.6669921875,26.3975759765625,25.3979421875,22.6666259765625,30.0003021875,22.6666259765625C34.6026921875,22.6666259765625,38.3335921875,26.3975759765625,38.3335921875,30.9999359765625C38.3335921875,35.6023259765625,34.6026921875,39.3332259765625,30.0003021875,39.3332259765625C25.3979421875,39.3332259765625,21.6669921875,35.6023259765625,21.6669921875,30.9999359765625C21.6669921875,30.9999359765625,21.6669921875,30.9999359765625,21.6669921875,30.9999359765625ZM29.1669721875,33.4999259765625C29.1669721875,33.4999259765625,29.1669721875,35.1666259765625,29.1669721875,35.1666259765625C29.1669721875,35.1666259765625,30.8336321875,35.1666259765625,30.8336321875,35.1666259765625C30.8336321875,35.1666259765625,30.8336321875,33.4999259765625,30.8336321875,33.4999259765625C30.8336321875,33.4999259765625,29.1669721875,33.4999259765625,29.1669721875,33.4999259765625C29.1669721875,33.4999259765625,29.1669721875,33.4999259765625,29.1669721875,33.4999259765625ZM30.8336321875,32.6665959765625C30.8336321875,32.6665959765625,30.8336321875,26.8332859765625,30.8336321875,26.8332859765625C30.8336321875,26.8332859765625,29.1669721875,26.8332859765625,29.1669721875,26.8332859765625C29.1669721875,26.8332859765625,29.1669721875,32.6665959765625,29.1669721875,32.6665959765625C29.1669721875,32.6665959765625,30.8336321875,32.6665959765625,30.8336321875,32.6665959765625C30.8336321875,32.6665959765625,30.8336321875,32.6665959765625,30.8336321875,32.6665959765625Z" fill-rule="evenodd" fill="#FFFFFF" fill-opacity="1"/></g></g><g><path d="M55.47,35.166C56.352000000000004,36.138000000000005,57.324,37.488,57.702,38.388000000000005L59.196,37.56C58.746,36.66,57.738,35.364000000000004,56.856,34.428L55.47,35.166ZM61.41,30.558L61.41,32.574L54.318,32.574L54.318,34.158L61.41,34.158L61.41,38.586C61.41,38.82,61.338,38.91,61.05,38.91C60.726,38.928,59.718,38.928,58.692,38.891999999999996C58.908,39.342,59.16,40.025999999999996,59.214,40.476C60.635999999999996,40.476,61.626,40.476,62.256,40.206C62.922,39.954,63.102000000000004,39.486000000000004,63.102000000000004,38.604L63.102000000000004,34.158L65.19,34.158L65.19,32.574L63.102000000000004,32.574L63.102000000000004,30.558L61.41,30.558ZM48.648,27.192C49.548,28.073999999999998,50.556,29.334,50.988,30.162L51.924,29.387999999999998L51.924,32.43C50.7,33.492000000000004,49.458,34.5,48.63,35.129999999999995L49.512,36.588C50.268,35.958,51.096000000000004,35.202,51.924,34.428L51.924,40.5126L53.58,40.5126L53.58,23.80209L51.924,23.80209L51.924,28.614C51.384,27.858,50.556,26.939999999999998,49.836,26.256L48.648,27.192ZM56.982,28.164C57.522,28.614,58.098,29.226,58.476,29.747999999999998C57.198,30.342,55.794,30.756,54.39,31.026C54.696,31.368000000000002,55.056,31.98,55.218,32.376C59.322,31.458,63.246,29.478,64.974,25.752L63.858000000000004,25.176000000000002L63.57,25.23L60.024,25.23C60.33,24.92288,60.6,24.59747,60.834,24.27206L59.088,23.78381C58.116,25.212,56.262,26.652,54.246,27.497999999999998C54.57,27.768,55.11,28.272,55.362,28.614C56.46,28.092,57.558,27.39,58.548,26.598L62.58,26.598C61.896,27.552,60.942,28.362000000000002,59.844,29.028C59.448,28.488,58.8,27.875999999999998,58.224000000000004,27.426000000000002L56.982,28.164ZM72.606,34.068C74.082,34.373999999999995,75.95400000000001,35.022,76.98,35.525999999999996L77.682,34.428C76.638,33.942,74.78399999999999,33.366,73.30799999999999,33.078L72.606,34.068ZM70.878,36.372C73.38,36.66,76.494,37.379999999999995,78.22200000000001,38.010000000000005L78.97800000000001,36.786C77.178,36.174,74.1,35.507999999999996,71.67,35.238L70.878,36.372ZM67.422,24.546L67.422,40.5351L69.06,40.5351L69.06,39.81L80.904,39.81L80.904,40.5351L82.596,40.5351L82.596,24.546L67.422,24.546ZM69.06,38.298L69.06,26.094L80.904,26.094L80.904,38.298L69.06,38.298ZM73.398,26.274C72.498,27.678,70.968,29.046,69.456,29.91C69.78,30.162,70.356,30.666,70.608,30.936C71.076,30.630000000000003,71.544,30.27,72.012,29.874000000000002C72.498,30.36,73.056,30.810000000000002,73.686,31.224C72.246,31.854,70.662,32.34,69.15,32.628C69.438,32.934,69.78,33.6,69.94200000000001,34.013999999999996C71.652,33.6,73.488,32.952,75.126,32.088C76.584,32.844,78.22200000000001,33.438,79.86,33.78C80.05799999999999,33.402,80.49000000000001,32.808,80.814,32.502C79.338,32.25,77.862,31.817999999999998,76.53,31.259999999999998C77.826,30.396,78.924,29.369999999999997,79.68,28.2L78.726,27.624000000000002L78.474,27.695999999999998L74.118,27.695999999999998C74.37,27.39,74.604,27.066000000000003,74.80199999999999,26.742L73.398,26.274ZM72.96600000000001,28.974L77.268,28.992C76.674,29.55,75.918,30.072,75.072,30.54C74.244,30.072,73.542,29.55,72.96600000000001,28.974ZM87.096,24.23297L87.096,30.27C87.096,33.384,86.844,36.7171,84.576,39.2225C84.99000000000001,39.510999999999996,85.62,40.1779,85.908,40.5924C87.52799999999999,38.843900000000005,88.26599999999999,36.7351,88.608,34.536L95.88,34.536L95.88,40.5202L97.73400000000001,40.5202L97.73400000000001,32.772L88.806,32.772C88.86,31.944000000000003,88.878,31.098,88.878,30.27L88.878,30.144L100.23599999999999,30.144L100.23599999999999,28.398L95.50200000000001,28.398L95.50200000000001,23.81813L93.684,23.81813L93.684,28.398L88.878,28.398L88.878,24.23297L87.096,24.23297ZM110.04599999999999,29.676000000000002L110.04599999999999,32.519999999999996L108.26400000000001,33.204L108.048,31.692L106.464,32.16L106.464,28.92L108.138,28.92L108.138,27.336L106.464,27.336L106.464,23.81869L104.80799999999999,23.81869L104.80799999999999,27.336L102.666,27.336L102.666,28.92L104.80799999999999,28.92L104.80799999999999,32.646L102.468,33.275999999999996L102.864,34.932L104.80799999999999,34.32L104.80799999999999,38.46C104.80799999999999,38.712,104.73599999999999,38.784,104.50200000000001,38.784C104.286,38.784,103.62,38.784,102.9,38.766C103.116,39.234,103.332,39.972,103.386,40.422C104.538,40.422,105.294,40.367999999999995,105.78,40.08C106.28399999999999,39.81,106.464,39.342,106.464,38.46L106.464,33.816L108.22800000000001,33.257999999999996L108.714,34.662L110.04599999999999,34.158L110.04599999999999,37.974000000000004C110.04599999999999,39.864000000000004,110.622,40.35,112.8,40.35C113.268,40.35,116.346,40.35,116.85,40.35C118.632,40.35,119.118,39.72,119.334,37.542C118.884,37.47,118.254,37.236000000000004,117.894,36.984C117.786,38.586,117.624,38.891999999999996,116.742,38.891999999999996C116.076,38.891999999999996,113.43,38.891999999999996,112.89,38.891999999999996C111.756,38.891999999999996,111.576,38.748000000000005,111.576,37.974000000000004L111.576,33.564L113.394,32.862L113.394,37.416L114.87,37.416L114.87,32.304L116.724,31.584C116.724,33.618,116.688,34.878,116.652,35.111999999999995C116.598,35.382000000000005,116.49,35.418,116.292,35.418C116.13,35.418,115.698,35.436,115.374,35.4C115.554,35.760000000000005,115.698,36.426,115.734,36.876000000000005C116.22,36.894,116.85,36.876000000000005,117.282,36.696C117.804,36.534,118.092,36.156,118.128,35.454C118.182,34.896,118.2,32.79,118.218,30.305999999999997L118.272,30.054000000000002L117.192,29.658L116.904,29.856L116.76,29.964L114.87,30.683999999999997L114.87,28.236L113.394,28.236L113.394,31.242L111.576,31.944000000000003L111.576,29.676000000000002L110.04599999999999,29.676000000000002ZM110.856,23.78297C110.244,26.021720000000002,109.11,28.182000000000002,107.72399999999999,29.55C108.102,29.784,108.804,30.288,109.11,30.576C109.794,29.82,110.46000000000001,28.848,111.036,27.75L119.19,27.75L119.19,26.201999999999998L111.774,26.201999999999998C112.044,25.53403,112.296,24.84806,112.494,24.16209L110.856,23.78297ZM121.548,25.248L121.548,26.759999999999998L128.55,26.759999999999998L128.55,25.248L121.548,25.248ZM131.466,24.10922C131.466,25.392,131.466,26.634,131.43,27.858L129.108,27.858L129.108,29.496000000000002L131.376,29.496000000000002C131.16,33.51,130.476,37.019999999999996,128.136,39.234C128.56799999999998,39.486000000000004,129.144,40.08,129.414,40.496300000000005C132.024,37.974000000000004,132.798,33.996,133.03199999999998,29.496000000000002L135.372,29.496000000000002C135.174,35.58,134.958,37.866,134.526,38.388000000000005C134.346,38.622,134.148,38.676,133.84199999999998,38.676C133.464,38.676,132.6,38.676,131.64600000000002,38.586C131.934,39.054,132.132,39.756,132.168,40.242000000000004C133.10399999999998,40.296,134.058,40.3143,134.63400000000001,40.242000000000004C135.228,40.152,135.624,39.972,136.01999999999998,39.432C136.632,38.622,136.82999999999998,36.03,137.064,28.668C137.064,28.433999999999997,137.064,27.858,137.064,27.858L133.10399999999998,27.858C133.14,26.634,133.15800000000002,25.374,133.15800000000002,24.10922L131.466,24.10922ZM121.62,38.406C122.088,38.117999999999995,122.79,37.902,127.56,36.75L127.848,37.812L129.324,37.308C129.018,36.084,128.226,33.978,127.542,32.412L126.174,32.79C126.48,33.564,126.822,34.464,127.11,35.328L123.348,36.156C124.014,34.626000000000005,124.626,32.79,125.058,31.044L128.874,31.044L128.874,29.478L120.918,29.478L120.918,31.044L123.312,31.044C122.88,33.06,122.178,35.058,121.926,35.616C121.638,36.3,121.386,36.75,121.08,36.858000000000004C121.26,37.272,121.53,38.064,121.62,38.406ZM140.664,31.53C141.42000000000002,31.278,142.5,31.242,152.04000000000002,30.828C152.47199999999998,31.278,152.832,31.71,153.102,32.07L154.596,31.026C153.606,29.784,151.554,28.02,149.934,26.796L148.584,27.714C149.232,28.218,149.916,28.811999999999998,150.582,29.406L143.022,29.676000000000002C144.03,28.722,145.05599999999998,27.57,146.01,26.328L154.542,26.328L154.542,24.744L139.35,24.744L139.35,26.328L143.77800000000002,26.328C142.80599999999998,27.606,141.762,28.704,141.36599999999999,29.046C140.88,29.514,140.48399999999998,29.802,140.106,29.874000000000002C140.304,30.323999999999998,140.574,31.17,140.664,31.53ZM146.064,31.619999999999997L146.064,33.726L140.538,33.726L140.538,35.292L146.064,35.292L146.064,38.28L138.918,38.28L138.918,39.864000000000004L155.136,39.864000000000004L155.136,38.28L147.846,38.28L147.846,35.292L153.55200000000002,35.292L153.55200000000002,33.726L147.846,33.726L147.846,31.619999999999997L146.064,31.619999999999997ZM163.18200000000002,23.80069C162.966,24.88322,162.696,25.96575,162.336,27.048000000000002L157.098,27.048000000000002L157.098,28.704L161.74200000000002,28.704C160.608,31.458,158.934,33.978,156.486,35.652C156.846,35.994,157.368,36.623999999999995,157.62,37.019999999999996C158.826,36.156,159.852,35.129999999999995,160.73399999999998,33.978L160.73399999999998,40.5356L162.44400000000002,40.5356L162.44400000000002,39.522L169.878,39.522L169.878,40.4451L171.678,40.4451L171.678,31.944000000000003L162.066,31.944000000000003C162.66,30.918,163.14600000000002,29.82,163.578,28.704L172.938,28.704L172.938,27.048000000000002L164.154,27.048000000000002C164.45999999999998,26.09203,164.73000000000002,25.0995,164.964,24.12525L163.18200000000002,23.80069ZM162.44400000000002,37.884L162.44400000000002,33.582L169.878,33.582L169.878,37.884L162.44400000000002,37.884ZM182.55,37.326C183.396,38.262,184.404,39.558,184.836,40.385999999999996L185.898,39.594C185.448,38.82,184.404,37.578,183.558,36.66L182.55,37.326ZM179.13,24.906L179.13,36.372L180.462,36.372L180.462,26.166L184.08,26.166L184.08,36.3L185.484,36.3L185.484,24.906L179.13,24.906ZM189.282,23.9835L189.282,38.676C189.282,38.946,189.192,39.018,188.958,39.018C188.724,39.018,188.004,39.018,187.194,39C187.374,39.432,187.572,40.08,187.626,40.458C188.814,40.458,189.57,40.422,190.056,40.17C190.524,39.936,190.704,39.504000000000005,190.704,38.676L190.704,23.9835L189.282,23.9835ZM186.672,25.518L186.672,36.426L188.004,36.426L188.004,25.518L186.672,25.518ZM181.632,27.228L181.632,33.6C181.632,35.724000000000004,181.326,38.010000000000005,178.608,39.54C178.86,39.738,179.31,40.260000000000005,179.454,40.531099999999995C182.442,38.856,182.892,36.03,182.892,33.618L182.892,27.228L181.632,27.228ZM177.294,23.80238C176.664,26.508,175.656,29.208,174.43200000000002,31.008C174.702,31.404,175.11599999999999,32.286,175.26,32.646C175.638,32.088,175.998,31.476,176.34,30.792L176.34,40.458L177.726,40.458L177.726,27.552C178.122,26.436,178.464,25.302,178.752,24.18234L177.294,23.80238ZM206.922,24.73866C205.662,25.33378,203.556,25.94719,201.558,26.39803L201.558,23.83669L199.866,23.83669L199.866,28.866C199.866,30.666,200.478,31.152,202.746,31.152C203.232,31.152,206.148,31.152,206.652,31.152C208.56,31.152,209.082,30.522,209.298,28.038C208.848,27.948,208.128,27.695999999999998,207.75,27.426000000000002C207.642,29.298000000000002,207.48,29.604,206.544,29.604C205.86,29.604,203.412,29.604,202.89,29.604C201.774,29.604,201.558,29.514,201.558,28.866L201.558,27.786C203.826,27.354,206.382,26.72288,208.218,25.98319L206.922,24.73866ZM201.468,36.732L206.796,36.732L206.796,38.316L201.468,38.316L201.468,36.732ZM201.468,35.382000000000005L201.468,33.87L206.796,33.87L206.796,35.382000000000005L201.468,35.382000000000005ZM199.866,32.448L199.866,40.5171L201.468,40.5171L201.468,39.684L206.796,39.684L206.796,40.426500000000004L208.488,40.426500000000004L208.488,32.448L199.866,32.448ZM195.132,23.80069L195.132,27.336L192.738,27.336L192.738,28.92L195.132,28.92L195.132,32.519999999999996C194.142,32.79,193.224,33.006,192.486,33.186L192.936,34.824L195.132,34.212L195.132,38.604C195.132,38.873999999999995,195.042,38.946,194.79,38.946C194.574,38.964,193.818,38.964,193.062,38.928C193.26,39.378,193.494,40.08,193.548,40.494C194.772,40.494,195.564,40.458,196.104,40.188C196.626,39.936,196.806,39.486000000000004,196.806,38.604L196.806,33.726L199.092,33.06L198.876,31.494L196.806,32.07L196.806,28.92L198.804,28.92L198.804,27.336L196.806,27.336L196.806,23.80069L195.132,23.80069ZM213.87,32.178C213.51,35.364000000000004,212.556,37.92,210.576,39.414C210.972,39.666,211.674,40.2603,211.944,40.551100000000005C213.06,39.576,213.906,38.316,214.518,36.75C216.174,39.629999999999995,218.784,40.242000000000004,222.366,40.242000000000004L226.722,40.242000000000004C226.794,39.738,227.082,38.91,227.352,38.513999999999996C226.308,38.532,223.266,38.532,222.456,38.532C221.538,38.532,220.656,38.495999999999995,219.864,38.370000000000005L219.864,35.184L225.066,35.184L225.066,33.582L219.864,33.582L219.864,30.972L224.166,30.972L224.166,29.352L213.888,29.352L213.888,30.972L218.1,30.972L218.1,37.884C216.822,37.326,215.814,36.354,215.184,34.644C215.346,33.906,215.49,33.15,215.598,32.34L213.87,32.178ZM217.524,24.12638C217.794,24.63234,218.064,25.22831,218.262,25.77L211.386,25.77L211.386,29.982L213.06,29.982L213.06,27.39L224.868,27.39L224.868,29.982L226.614,29.982L226.614,25.77L220.224,25.77C220.026,25.13803,219.594,24.28894,219.216,23.63869L217.524,24.12638ZM234.588,26.976L234.588,28.631999999999998L244.506,28.631999999999998L244.506,26.976L234.588,26.976ZM235.722,29.838C236.244,32.304,236.73,35.562,236.874,37.452L238.566,36.966C238.368,35.129999999999995,237.828,31.944000000000003,237.27,29.496000000000002L235.722,29.838ZM238.116,24.01725C238.458,24.91922,238.818,26.128030000000003,238.962,26.886L240.654,26.39888C240.474,25.640909999999998,240.078,24.50438,239.736,23.60213L238.116,24.01725ZM233.868,38.135999999999996L233.868,39.774L245.19,39.774L245.19,38.135999999999996L241.77,38.135999999999996C242.4,35.796,243.12,32.43,243.588,29.676000000000002L241.806,29.387999999999998C241.518,32.052,240.834,35.742000000000004,240.168,38.135999999999996L233.868,38.135999999999996ZM232.932,23.87269C231.96,26.54316,230.34,29.172,228.612,30.881999999999998C228.918,31.278,229.404,32.196,229.566,32.61C230.07,32.07,230.574,31.458,231.06,30.810000000000002L231.06,40.494L232.77,40.494L232.77,28.128C233.454,26.922,234.048,25.62291,234.534,24.36009L232.932,23.87269ZM257.826,25.644L260.43600000000004,25.644L260.43600000000004,27.012L257.826,27.012L257.826,25.644ZM253.704,25.644L256.26,25.644L256.26,27.012L253.704,27.012L253.704,25.644ZM249.636,25.644L252.138,25.644L252.138,27.012L249.636,27.012L249.636,25.644ZM249.258,31.314L249.258,38.766L246.972,38.766L246.972,40.007999999999996L263.082,40.007999999999996L263.082,38.766L260.706,38.766L260.706,31.314L255.162,31.314L255.36,30.396L262.61400000000003,30.396L262.61400000000003,29.118000000000002L255.612,29.118000000000002L255.756,28.2L262.164,28.2L262.164,24.474L248.016,24.474L248.016,28.2L254.01,28.2L253.902,29.118000000000002L247.206,29.118000000000002L247.206,30.396L253.722,30.396L253.56,31.314L249.258,31.314ZM250.86,38.766L250.86,37.848L259.03200000000004,37.848L259.03200000000004,38.766L250.86,38.766ZM250.86,34.194L259.03200000000004,34.194L259.03200000000004,35.076L250.86,35.076L250.86,34.194ZM250.86,33.257999999999996L250.86,32.394L259.03200000000004,32.394L259.03200000000004,33.257999999999996L250.86,33.257999999999996ZM250.86,35.994L259.03200000000004,35.994L259.03200000000004,36.912L250.86,36.912L250.86,35.994ZM268.158,29.064L268.158,30.630000000000003L277.752,30.630000000000003L277.752,29.064L268.158,29.064ZM264.972,32.394L264.972,33.996L269.652,33.996C269.454,36.948,268.788,38.352000000000004,264.72,39.09C265.044,39.432,265.476,40.098,265.602,40.533100000000005C270.246,39.576,271.14599999999996,37.632000000000005,271.398,33.996L274.24199999999996,33.996L274.24199999999996,38.064C274.24199999999996,39.738,274.71000000000004,40.242000000000004,276.546,40.242000000000004C276.924,40.242000000000004,278.724,40.242000000000004,279.102,40.242000000000004C280.65,40.242000000000004,281.118,39.594,281.298,37.038C280.848,36.93,280.128,36.66,279.75,36.372C279.696,38.370000000000005,279.58799999999997,38.676,278.95799999999997,38.676C278.544,38.676,277.086,38.676,276.762,38.676C276.078,38.676,275.97,38.604,275.97,38.046L275.97,33.996L281.01,33.996L281.01,32.394L264.972,32.394ZM271.43399999999997,24.12638C271.722,24.614060000000002,271.99199999999996,25.22831,272.20799999999997,25.77L265.38599999999997,25.77L265.38599999999997,30L267.078,30L267.078,27.408L278.796,27.408L278.796,30L280.578,30L280.578,25.77L274.24199999999996,25.77C273.99,25.10175,273.558,24.27094,273.18,23.62069L271.43399999999997,24.12638ZM291.558,23.81897C291.558,24.793219999999998,291.594,25.74975,291.63,26.706L284.142,26.706L284.142,31.854C284.142,34.212,284.01599999999996,37.344,282.558,39.522C282.954,39.738,283.71000000000004,40.332,283.998,40.6774C285.6,38.352000000000004,285.906,34.734,285.924,32.124L288.822,32.124C288.76800000000003,34.86,288.65999999999997,35.885999999999996,288.462,36.174C288.318,36.336,288.156,36.372,287.904,36.372C287.598,36.372,286.89599999999996,36.354,286.14,36.282C286.392,36.714,286.59000000000003,37.379999999999995,286.608,37.884C287.472,37.92,288.28200000000004,37.92,288.75,37.848C289.254,37.794,289.596,37.65,289.91999999999996,37.254000000000005C290.298,36.75,290.406,35.184,290.478,31.242C290.478,31.026,290.496,30.558,290.496,30.558L285.924,30.558L285.924,28.380000000000003L291.738,28.380000000000003C291.972,31.206,292.38599999999997,33.816,293.034,35.885999999999996C291.918,37.164,290.586,38.226,289.074,39.036C289.452,39.36,290.06399999999996,40.08,290.31600000000003,40.440799999999996C291.576,39.684,292.728,38.748000000000005,293.736,37.668C294.56399999999996,39.36,295.626,40.385999999999996,296.95799999999997,40.385999999999996C298.452,40.385999999999996,299.06399999999996,39.54,299.352,36.336C298.884,36.174,298.272,35.778,297.876,35.382000000000005C297.786,37.722,297.552,38.64,297.084,38.64C296.31,38.64,295.608,37.722,295.014,36.174C296.328,34.41,297.372,32.34,298.14599999999996,30L296.43600000000004,29.586C295.932,31.259999999999998,295.248,32.772,294.384,34.104C293.97,32.484,293.664,30.522,293.502,28.380000000000003L299.19,28.380000000000003L299.19,26.706L297.318,26.706L298.2,25.76775C297.51599999999996,25.15434,296.148,24.30609,295.086,23.76469L294.04200000000003,24.793219999999998C295.014,25.31663,296.18399999999997,26.110590000000002,296.868,26.706L293.394,26.706C293.358,25.76775,293.34000000000003,24.793219999999998,293.34000000000003,23.81897L291.558,23.81897ZM306.606,34.068C308.082,34.373999999999995,309.954,35.022,310.98,35.525999999999996L311.682,34.428C310.638,33.942,308.784,33.366,307.308,33.078L306.606,34.068ZM304.878,36.372C307.38,36.66,310.494,37.379999999999995,312.222,38.010000000000005L312.978,36.786C311.178,36.174,308.1,35.507999999999996,305.67,35.238L304.878,36.372ZM301.422,24.546L301.422,40.5351L303.06,40.5351L303.06,39.81L314.904,39.81L314.904,40.5351L316.596,40.5351L316.596,24.546L301.422,24.546ZM303.06,38.298L303.06,26.094L314.904,26.094L314.904,38.298L303.06,38.298ZM307.398,26.274C306.498,27.678,304.968,29.046,303.456,29.91C303.78,30.162,304.356,30.666,304.608,30.936C305.076,30.630000000000003,305.544,30.27,306.012,29.874000000000002C306.498,30.36,307.056,30.810000000000002,307.686,31.224C306.246,31.854,304.662,32.34,303.15,32.628C303.438,32.934,303.78,33.6,303.942,34.013999999999996C305.652,33.6,307.488,32.952,309.126,32.088C310.584,32.844,312.222,33.438,313.86,33.78C314.058,33.402,314.49,32.808,314.814,32.502C313.338,32.25,311.862,31.817999999999998,310.53,31.259999999999998C311.826,30.396,312.924,29.369999999999997,313.68,28.2L312.726,27.624000000000002L312.474,27.695999999999998L308.118,27.695999999999998C308.37,27.39,308.604,27.066000000000003,308.802,26.742L307.398,26.274ZM306.966,28.974L311.268,28.992C310.674,29.55,309.918,30.072,309.072,30.54C308.244,30.072,307.542,29.55,306.966,28.974ZM321.096,24.23297L321.096,30.27C321.096,33.384,320.844,36.7171,318.576,39.2225C318.99,39.510999999999996,319.62,40.1779,319.908,40.5924C321.528,38.843900000000005,322.266,36.7351,322.608,34.536L329.88,34.536L329.88,40.5202L331.734,40.5202L331.734,32.772L322.806,32.772C322.86,31.944000000000003,322.878,31.098,322.878,30.27L322.878,30.144L334.236,30.144L334.236,28.398L329.502,28.398L329.502,23.81813L327.684,23.81813L327.684,28.398L322.878,28.398L322.878,24.23297L321.096,24.23297ZM348.24,24.07041L346.656,24.68297C347.628,26.7015,349.068,28.846,350.526,30.522L339.906,30.522C341.346,28.881999999999998,342.642,26.8095,343.524,24.610970000000002L341.706,24.10641C340.662,26.845779999999998,338.826,29.3686,336.702,30.9C337.116,31.206,337.836,31.872,338.16,32.232C338.592,31.872,339.024,31.476,339.438,31.026L339.438,32.214L342.642,32.214C342.246,35.076,341.274,37.722,337.098,39.09C337.494,39.45,337.98,40.134,338.178,40.568799999999996C342.786,38.891999999999996,343.974,35.706,344.442,32.214L348.87,32.214C348.672,36.336,348.456,38.028,348.024,38.46C347.844,38.64,347.628,38.676,347.286,38.676C346.854,38.676,345.81,38.676,344.712,38.586C345.018,39.054,345.234,39.792,345.27,40.296C346.386,40.3506,347.466,40.3506,348.078,40.296C348.726,40.224000000000004,349.176,40.062,349.572,39.558C350.202,38.838,350.436,36.75,350.67,31.296L350.706,30.72C351.138,31.224,351.588,31.674,352.02,32.07C352.326,31.602,352.956,30.954,353.388,30.630000000000003C351.516,29.1526,349.338,26.44922,348.24,24.07041ZM367.248,24.08925C366.834,24.86494,366.096,25.96547,365.502,26.686880000000002L366.906,27.174C367.536,26.54259,368.346,25.56834,369.066,24.61238L367.248,24.08925ZM357.114,24.810940000000002C357.816,25.51434,358.572,26.54259,358.896,27.246000000000002L355.224,27.246000000000002L355.224,28.811999999999998L360.804,28.811999999999998C359.328,30.162,357.078,31.259999999999998,354.828,31.764C355.206,32.106,355.692,32.754,355.926,33.168C358.248,32.502,360.534,31.188000000000002,362.118,29.532L362.118,32.214L363.828,32.214L363.828,29.91C366.042,30.954,368.616,32.286,370.002,33.132L370.83,31.746000000000002C369.462,30.972,366.996,29.784,364.872,28.811999999999998L370.83,28.811999999999998L370.83,27.246000000000002L363.828,27.246000000000002L363.828,23.80069L362.118,23.80069L362.118,27.246000000000002L359.148,27.246000000000002L360.498,26.61488C360.156,25.89319,359.31,24.86494,358.572,24.143250000000002L357.114,24.810940000000002ZM362.118,32.592C362.046,33.222,361.956,33.798,361.83,34.338L355.116,34.338L355.116,35.922L361.2,35.922C360.3,37.3825,358.5,38.3742,354.702,38.9333C355.044,39.329899999999995,355.458,40.0693,355.584,40.5202C359.976,39.7628,361.992,38.3742,362.982,36.3368C364.458,38.6988,366.816,39.979,370.362,40.5019C370.578,40.015,371.046,39.2939,371.424,38.9153C368.22,38.5908,365.916,37.6351,364.584,35.922L370.938,35.922L370.938,34.338L363.648,34.338C363.756,33.798,363.846,33.204,363.918,32.592L362.118,32.592Z" fill="#FFFFFF" fill-opacity="1"/></g></g><g><rect x="292" y="60" width="80" height="30" rx="8" fill="#FFFFFF" fill-opacity="1"/><g><path d="M313.856,70.15919C314.668,70.87428,315.62,71.89780999999999,316.054,72.57091L316.908,71.95403C316.446,71.29494,315.466,70.29941,314.654,69.59853L313.856,70.15919ZM315.648,75.022C315.172,75.918,314.542,76.8,313.8,77.598C313.562,76.66,313.366,75.568,313.226,74.378L317.244,74.378L317.244,73.384L313.114,73.384C313.002,72.12225,312.946,70.76228,312.946,69.34609L311.84,69.34609C311.854,70.73406,311.924,72.09425,312.036,73.384L308.83,73.384L308.83,70.9165C309.684,70.73406,310.496,70.52384,311.182,70.28541L310.44,69.40209C309.096,69.90697,306.828,70.38363,304.868,70.67806C304.994,70.9305,305.134,71.30894,305.19,71.56137C306.016,71.44916,306.912,71.30894,307.78,71.14072L307.78,73.384L304.784,73.384L304.784,74.378L307.78,74.378L307.78,76.856L304.574,77.486L304.882,78.55L307.78,77.892L307.78,80.762C307.78,81,307.696,81.07,307.458,81.084C307.206,81.098,306.38,81.098,305.484,81.07C305.638,81.364,305.82,81.84,305.862,82.134C307.024,82.134,307.78,82.106,308.214,81.938C308.676,81.77,308.83,81.44800000000001,308.83,80.762L308.83,77.64L311.42,77.038L311.336,76.1L308.83,76.632L308.83,74.378L312.134,74.378C312.316,75.904,312.582,77.304,312.918,78.48C311.91,79.404,310.776,80.188,309.586,80.762C309.852,80.986,310.16,81.336,310.314,81.588C311.364,81.042,312.372,80.342,313.282,79.53C313.912,81.168,314.78,82.162,315.886,82.162C316.936,82.162,317.328,81.476,317.51,79.152C317.23,79.054,316.852,78.816,316.628,78.578C316.544,80.384,316.376,81.098,315.984,81.098C315.284,81.098,314.64,80.202,314.136,78.718C315.102,77.724,315.942,76.604,316.572,75.414L315.648,75.022ZM325.658,70.458L325.658,81.7179L326.68,81.7179L326.68,80.608L329.648,80.608L329.648,81.5633L330.712,81.5633L330.712,70.458L325.658,70.458ZM326.68,79.614L326.68,71.452L329.648,71.452L329.648,79.614L326.68,79.614ZM320.198,69.22119C319.876,70.94800000000001,319.288,72.614,318.462,73.69200000000001C318.7,73.846,319.134,74.14,319.316,74.30799999999999C319.736,73.706,320.128,72.936,320.45,72.096L321.528,72.096L321.528,74.392L321.528,74.896L318.63,74.896L318.63,75.904L321.45799999999997,75.904C321.276,77.766,320.604,79.782,318.476,81.2964C318.686,81.4511,319.078,81.8724,319.204,82.083C320.814,80.9313,321.668,79.432,322.116,77.92C322.872,78.788,323.978,80.118,324.454,80.8049L325.168,79.908C324.748,79.432,323.04,77.514,322.368,76.856C322.438,76.534,322.48,76.212,322.508,75.904L325.21,75.904L325.21,74.896L322.564,74.896L322.578,74.406L322.578,72.096L324.804,72.096L324.804,71.116L320.786,71.116C320.954,70.56847,321.094,70.00694,321.22,69.43119L320.198,69.22119ZM332.896,70.28781000000001C333.638,71.00378,334.52,72.012,334.898,72.656L335.766,72.068C335.346,71.424,334.45,70.45625,333.70799999999997,69.78228L332.896,70.28781000000001ZM338.37,75.848L343.06,75.848L343.06,77.024L338.37,77.024L338.37,75.848ZM338.37,77.766L343.06,77.766L343.06,78.94200000000001L338.37,78.94200000000001L338.37,77.766ZM338.37,73.944L343.06,73.944L343.06,75.106L338.37,75.106L338.37,73.944ZM337.376,73.146L337.376,79.754L344.082,79.754L344.082,73.146L340.736,73.146C340.89,72.796,341.058,72.376,341.226,71.97L345.258,71.97L345.258,71.088L342.64,71.088C342.976,70.62469,343.326,70.06316,343.662,69.54362L342.626,69.23475C342.402,69.78228,341.954,70.54047,341.576,71.088L338.95799999999997,71.088L339.686,70.75112C339.51800000000003,70.31581,339.07,69.64184,338.664,69.17853L337.796,69.55762C338.15999999999997,70.02094,338.552,70.65291,338.734,71.088L336.354,71.088L336.354,71.97L340.064,71.97C339.98,72.348,339.854,72.782,339.742,73.146L337.376,73.146ZM335.668,74.238L332.714,74.238L332.714,75.218L334.66,75.218L334.66,79.572C334.03,79.79599999999999,333.316,80.384,332.588,81.098L333.246,81.9533C333.96,81.084,334.674,80.342,335.178,80.342C335.5,80.342,335.934,80.762,336.536,81.098C337.502,81.644,338.706,81.798,340.358,81.798C341.702,81.798,344.166,81.714,345.174,81.644C345.188,81.35,345.356,80.874,345.468,80.622C344.11,80.762,342.024,80.86,340.386,80.86C338.86,80.86,337.656,80.762,336.76,80.272C336.27,79.992,335.948,79.74,335.668,79.6L335.668,74.238ZM347.358,70.332L347.358,71.368L356.43,71.368C355.38,72.362,353.84000000000003,73.45400000000001,352.496,74.126L352.496,80.748C352.496,80.986,352.412,81.07,352.104,81.07C351.782,81.098,350.704,81.098,349.54200000000003,81.056C349.71,81.364,349.906,81.812,349.962,82.12C351.39,82.12,352.314,82.106,352.86,81.952C353.42,81.78399999999999,353.602,81.462,353.602,80.762L353.602,74.658C355.352,73.706,357.256,72.236,358.502,70.878L357.676,70.27578L357.438,70.332L347.358,70.332Z" fill="#2E6CE4" fill-opacity="1"/></g></g></g></svg>