<svg xmlns="http://www.w3.org/2000/svg" xmlns:xlink="http://www.w3.org/1999/xlink" fill="none" version="1.1" width="16" height="16" viewBox="0 0 16 16"><defs><clipPath id="master_svg0_417_30059/417_27826"><rect x="0" y="0" width="16" height="16" rx="0"/></clipPath></defs><g><g clip-path="url(#master_svg0_417_30059/417_27826)"><g><path d="M8.0086762109375,0.96875C4.1377162109375,0.96875,1.0003662109375,4.09967,1.0003662109375,7.96247C1.0003662109375,11.82525,4.1378962109375,14.95615,8.008656210937499,14.95615C11.8790662109375,14.95615,15.0165662109375,11.82525,15.0165662109375,7.96247C15.0166662109375,4.0998,11.8790662109375,0.968750476837,8.008656210937499,0.968750476837L8.0086762109375,0.96875ZM8.0075062109375,14.04745C4.6640962109375,14.04745,1.9537362109375,11.32645,1.9537362109375,7.97003C1.9537362109375,4.61356,4.6641162109375,1.89261,8.0075062109375,1.89261C11.3508662109375,1.89261,14.0612662109375,4.61358,14.0612662109375,7.97003C14.0612662109375,11.32645,11.3508662109375,14.04745,8.0075062109375,14.04745ZM4.3615162109375,7.92886C4.3615162109375,8.41811,4.7565962109375,8.814720000000001,5.2439262109375,8.814720000000001C5.7312562109375,8.814720000000001,6.1263462109375,8.41809,6.1263462109375,7.92886C6.1263462109375,7.43961,5.7312562109375,7.043,5.2439262109375,7.043C4.7565862109375,7.043,4.3615162109375,7.43962,4.3615162109375,7.92886ZM7.3165662109375,7.92886C7.3165662109375,8.41811,7.7116462109375,8.814720000000001,8.1989762109375,8.814720000000001C8.6863162109375,8.814720000000001,9.0813962109375,8.41809,9.0813962109375,7.92886C9.0813962109375,7.43961,8.6863162109375,7.043,8.1989762109375,7.043C7.7116362109375,7.043,7.3165662109375,7.43962,7.3165662109375,7.92886ZM9.9843362109375,7.92886C9.9843362109375,8.41811,10.3794162109375,8.814720000000001,10.8667462109375,8.814720000000001C11.3540662109375,8.814720000000001,11.7491662109375,8.41809,11.7491662109375,7.92886C11.7491662109375,7.43961,11.3540662109375,7.043,10.8667462109375,7.043C10.3793962109375,7.043,9.9843362109375,7.43962,9.9843362109375,7.92886Z" fill="#4E5969" fill-opacity="1"/></g></g></g></svg>