<svg xmlns="http://www.w3.org/2000/svg" xmlns:xlink="http://www.w3.org/1999/xlink" fill="none" version="1.1" width="14" height="14" viewBox="0 0 14 14"><g><path d="M7,1C10.3125,1,13,3.6875,13,7C13,10.3125,10.3125,13,7,13C3.6875,13,1,10.3125,1,7C1,3.6875,3.6875,1,7,1ZM7,0C3.1375,0,0,3.1375,0,7C0,10.8625,3.1375,14,7,14C10.8625,14,14,10.8625,14,7C14,3.1375,10.8625,0,7,0ZM7.5,11L6.5,11L6.5,10L7.5,10L7.5,11ZM7.675,7.825L7.5875,7.9C7.5375,7.9375,7.5,8.025,7.5,8.1L7.5,9.0125L6.5,9.0125L6.5,8.1C6.5,7.7125,6.675,7.35,6.9625,7.1125L7.05,7.0375C7.925,6.3375,8.35,5.975,8.35,5.35C8.35,4.6,7.75,4,7,4C6.225,4,5.65,4.575,5.65,5.35L4.65,5.35C4.65,4.0375,5.6875,3,7,3C8.3,3,9.35,4.05,9.35,5.35C9.35,6.4875,8.575,7.1125,7.675,7.825Z" fill="#4E5969" fill-opacity="1"/></g></svg>