<svg xmlns="http://www.w3.org/2000/svg" xmlns:xlink="http://www.w3.org/1999/xlink" fill="none" version="1.1" width="16" height="16" viewBox="0 0 16 16"><g><g><path d="M1.33349609375,8.0000240234375C1.33349609375,4.3181340234375,4.31825609375,1.3333740234375,8.00014609375,1.3333740234375C11.68199609375,1.3333740234375,14.66679609375,4.3181340234375,14.66679609375,8.0000240234375C14.66679609375,11.6818740234375,11.68199609375,14.6666740234375,8.00014609375,14.6666740234375C4.31825609375,14.6666740234375,1.33349609375,11.6818740234375,1.33349609375,8.0000240234375C1.33349609375,8.0000240234375,1.33349609375,8.0000240234375,1.33349609375,8.0000240234375ZM7.33347609375,10.0000140234375C7.33347609375,10.0000140234375,7.33347609375,11.3333440234375,7.33347609375,11.3333440234375C7.33347609375,11.3333440234375,8.66680609375,11.3333440234375,8.66680609375,11.3333440234375C8.66680609375,11.3333440234375,8.66680609375,10.0000140234375,8.66680609375,10.0000140234375C8.66680609375,10.0000140234375,7.33347609375,10.0000140234375,7.33347609375,10.0000140234375C7.33347609375,10.0000140234375,7.33347609375,10.0000140234375,7.33347609375,10.0000140234375ZM8.66680609375,9.3333540234375C8.66680609375,9.3333540234375,8.66680609375,4.6666940234375005,8.66680609375,4.6666940234375005C8.66680609375,4.6666940234375005,7.33347609375,4.6666940234375005,7.33347609375,4.6666940234375005C7.33347609375,4.6666940234375005,7.33347609375,9.3333540234375,7.33347609375,9.3333540234375C7.33347609375,9.3333540234375,8.66680609375,9.3333540234375,8.66680609375,9.3333540234375C8.66680609375,9.3333540234375,8.66680609375,9.3333540234375,8.66680609375,9.3333540234375Z" fill-rule="evenodd" fill="#FF7D00" fill-opacity="1"/></g></g></svg>