<svg xmlns="http://www.w3.org/2000/svg" xmlns:xlink="http://www.w3.org/1999/xlink" fill="none" version="1.1" width="16" height="16" viewBox="0 0 16 16"><g><g><path d="M13.5538328125,1.3175048828125C13.2119328125,1.3219759528125,12.9358328125,1.5980768828125,12.9313328125,1.9400048828125L12.9313328125,3.9569048828125L12.2341328125,3.2597048828124997C9.0886128125,0.08746488281249998,3.7043428125,1.3348207828125,2.2741697125,5.5671048828125C2.1294962125,5.9022548828125,2.3073388125,6.2888748828125,2.6559698125,6.3971048828125C2.7246218125,6.4090348828125,2.7948178125,6.4090348828125,2.8634698125,6.3971048828125C3.1295168125,6.3944048828125,3.3652628125,6.2250648828125,3.4527728125,5.9738048828125C3.6846428125,5.2849948828125,4.0739928125,4.6597648828125,4.5898728124999995,4.147804882812499C6.4553728125,2.2895498828125,9.4722728125,2.2895498828125,11.3377728125,4.147804882812499L12.0349728125,4.8450048828125L10.0346728125,4.8450048828125C9.6908728125,4.8450048828125,9.4121728125,5.1237048828125005,9.4121728125,5.4675048828125C9.4121728125,5.8113048828125,9.6908728125,6.0900048828125,10.0346728125,6.0900048828125L13.5538328125,6.0900048828125C13.8996328125,6.0947048828125,14.1810328125,5.8132348828125,14.1763328125,5.4675048828125L14.1763328125,1.9400048828125C14.1763328125,1.5962078828125,13.8976328125,1.3175048828125,13.5538328125,1.3175048828125ZM13.7613328125,9.1444048828125C13.4240328125,9.0118148828125,13.0445328125,9.1901448828125,12.9313328125,9.5345048828125C12.6995328125,10.2233248828125,12.3101328125,10.8485548828125,11.7942728125,11.3605048828125C9.9287728125,13.2188048828125,6.9118728125,13.2188048828125,5.0463728125,11.3605048828125L4.3491728125,10.6633048828125L6.3992728125,10.6633048828125C6.7430628125,10.6633048828125,7.0217728125,10.3846048828125,7.0217728125,10.0408048828125C7.0217728125,9.6970148828125,6.7430628125,9.4183048828125,6.3992728125,9.4183048828125L2.8800698125,9.4183048828125C2.5343428125,9.4136048828125,2.2528655125,9.6950748828125,2.2575697125,10.0408048828125L2.2575697125,13.5600048828125C2.2575701125,13.9038048828125,2.5362728125,14.1825048828125,2.8800698125,14.1825048828125C3.2238628125,14.1825048828125,3.5025728125,13.9038048828125,3.5025728125,13.5600048828125L3.5025728125,11.5431048828125L4.1997728125,12.2403048828125C7.3453228125,15.4125048828125,12.7296328125,14.1652048828125,14.1597328125,9.9329048828125C14.2739328125,9.6046948828125,14.0933328125,9.2472148828125,13.7613328125,9.1444048828125Z" fill="#4E5969" fill-opacity="1"/></g></g></svg>