<svg xmlns="http://www.w3.org/2000/svg" xmlns:xlink="http://www.w3.org/1999/xlink" fill="none" version="1.1" width="15.949363708496094" height="15.949363708496094" viewBox="0 0 15.949363708496094 15.949363708496094"><g><path d="M14.0506,7.59493L12.9114,7.59493L12.9114,4.55696C12.9114,3.71772,12.2317,3.03797,11.3924,3.03797L8.35443,3.03797L8.35443,1.89873C8.35443,0.850626,7.50381,0,6.4557,0C5.40759,0,4.55696,0.850626,4.55696,1.89873L4.55696,3.03797L1.51899,3.03797C0.67975,3.03797,0.00759414,3.71772,0.00759414,4.55696L0.00378795,7.44303L1.13924,7.44303C2.27088,7.44303,3.18987,8.36202,3.18987,9.49367C3.18987,10.6253,2.27088,11.5443,1.13924,11.5443L0.00380619,11.5443L0,14.4304C0,15.2696,0.67975,15.9494,1.51899,15.9494L4.40506,15.9494L4.40506,14.8101C4.40506,13.6785,5.32406,12.7595,6.4557,12.7595C7.58734,12.7595,8.50633,13.6785,8.50633,14.8101L8.50633,15.9494L11.3924,15.9494C12.2316,15.9494,12.9114,15.2696,12.9114,14.4304L12.9114,11.3924L14.0506,11.3924C15.0987,11.3924,15.9494,10.5418,15.9494,9.49368C15.9494,8.44558,15.0987,7.59493,14.0506,7.59493Z" fill="#4E5969" fill-opacity="1"/></g></svg>