<svg xmlns="http://www.w3.org/2000/svg" xmlns:xlink="http://www.w3.org/1999/xlink" fill="none" version="1.1" width="16" height="16" viewBox="0 0 16 16"><defs><clipPath id="master_svg0_2700_018395"><rect x="0" y="0" width="16" height="16" rx="0"/></clipPath></defs><g clip-path="url(#master_svg0_2700_018395)"><g><path d="M7.625,4.46597L6.68331,5.693C6.47316,5.96685,6.08081,6.01847,5.806979999999999,5.80832C5.5331600000000005,5.59816,5.481529999999999,5.20582,5.69167,4.93199L7.75417,2.244488C8.00436,1.9185039,8.49564,1.9185039,8.745809999999999,2.244488L10.80831,4.93199C11.01847,5.205830000000001,10.96684,5.59818,10.693,5.80832C10.41917,6.01847,10.02683,5.96685,9.816690000000001,5.693L8.875,4.46599L8.875,11.25C8.875,11.59518,8.59517,11.875,8.25,11.875C7.90483,11.875,7.625,11.59518,7.625,11.25L7.625,4.46597ZM13.25,8.25C13.25,7.90483,13.5298,7.625,13.875,7.625C14.2202,7.625,14.5,7.90483,14.5,8.25L14.5,12.75C14.5,13.7165,13.7165,14.5,12.75,14.5L3.75,14.5C2.7835,14.5,2,13.7165,2,12.75L2,8.25C2,7.90483,2.279828,7.625,2.625,7.625C2.970172,7.625,3.25,7.90483,3.25,8.25L3.25,12.75C3.25,13.0261,3.47386,13.25,3.75,13.25L12.75,13.25C13.0261,13.25,13.25,13.0261,13.25,12.75L13.25,8.25Z" fill="#4E5969" fill-opacity="1"/></g></g></svg>