<svg xmlns="http://www.w3.org/2000/svg" xmlns:xlink="http://www.w3.org/1999/xlink" fill="none" version="1.1" width="9.999975204467773" height="9.999975204467773" viewBox="0 0 9.999975204467773 9.999975204467773"><g><path d="M0,4.99999C0,2.23857,2.23857,0,4.99999,0C7.76141,0,9.99998,2.23857,9.99998,4.99999C9.99998,7.76141,7.76141,9.99998,4.99999,9.99998C2.23857,9.99998,0,7.76141,0,4.99999C0,4.99999,0,4.99999,0,4.99999ZM5.49999,3.49999C5.49999,3.49999,5.49999,2.49999,5.49999,2.49999C5.49999,2.49999,4.49999,2.49999,4.49999,2.49999C4.49999,2.49999,4.49999,3.49999,4.49999,3.49999C4.49999,3.49999,5.49999,3.49999,5.49999,3.49999C5.49999,3.49999,5.49999,3.49999,5.49999,3.49999ZM4.49999,3.99999C4.49999,3.99999,4.49999,7.49998,4.49999,7.49998C4.49999,7.49998,5.49999,7.49998,5.49999,7.49998C5.49999,7.49998,5.49999,3.99999,5.49999,3.99999C5.49999,3.99999,4.49999,3.99999,4.49999,3.99999C4.49999,3.99999,4.49999,3.99999,4.49999,3.99999Z" fill-rule="evenodd" fill="#C9CDD4" fill-opacity="1"/></g></svg>