<svg xmlns="http://www.w3.org/2000/svg" xmlns:xlink="http://www.w3.org/1999/xlink" fill="none" version="1.1" width="32" height="32" viewBox="0 0 32 32"><defs><clipPath id="master_svg0_8136_051994"><rect x="0" y="0" width="32" height="32" rx="8"/></clipPath><clipPath id="master_svg1_8136_051995"><rect x="6" y="6" width="20" height="20" rx="0"/></clipPath></defs><g clip-path="url(#master_svg0_8136_051994)"><rect x="0" y="0" width="32" height="32" rx="8" fill="#FFFFFF" fill-opacity="0.25"/><g clip-path="url(#master_svg1_8136_051995)"><g><path d="M23.5,8.5L23.5,14.125C23.5,14.5,23.25,14.75,22.875,14.75C22.5,14.75,22.25,14.5,22.25,14.125L22.25,10.625L18.375,14.625C18.25,14.75,18,14.75,17.875,14.75C17.75,14.75,17.5,14.75,17.375,14.625C17.25,14.375,17.25,13.875,17.375,13.625L21.375,9.75L17.875,9.75C17.5,9.75,17.25,9.5,17.25,9.125C17.25,8.75,17.5,8.5,17.875,8.5L23.5,8.5ZM14.625,17.375C14.375,17.25,13.875,17.125,13.625,17.375L9.75,21.375L9.75,17.875C9.75,17.5,9.5,17.25,9.125,17.25C8.75,17.25,8.5,17.5,8.5,17.875L8.5,23.5L14.125,23.5C14.5,23.5,14.75,23.25,14.75,22.875C14.75,22.5,14.5,22.25,14.125,22.25L10.625,22.25L14.625,18.375C14.75,18.125,14.75,17.625,14.625,17.375ZM14.75,9.125C14.75,8.75,14.5,8.5,14.125,8.5L8.5,8.5L8.5,14.125C8.5,14.5,8.75,14.75,9.125,14.75C9.5,14.75,9.75,14.5,9.75,14.125L9.75,10.625L13.625,14.5C13.75,14.75,14,14.75,14.125,14.75C14.25,14.75,14.5,14.75,14.625,14.625C14.75,14.375,14.75,13.875,14.625,13.625L10.625,9.75L14.125,9.75C14.5,9.75,14.75,9.5,14.75,9.125ZM22.875,17.25C22.5,17.25,22.25,17.5,22.25,17.875L22.25,21.375L18.375,17.5C18.125,17.25,17.625,17.25,17.375,17.5C17.25,17.75,17.25,18.125,17.375,18.375L21.25,22.25L17.875,22.25C17.5,22.25,17.25,22.5,17.25,22.875C17.25,23.25,17.5,23.5,17.875,23.5L23.5,23.5L23.5,17.875C23.5,17.5,23.25,17.25,22.875,17.25Z" fill="#FFFFFF" fill-opacity="1"/><path d="M11.11889,9.95L14.125,9.95Q14.489090000000001,9.95,14.71955,9.71955Q14.95,9.489093,14.95,9.125Q14.95,8.760907,14.71955,8.5304536Q14.489090000000001,8.3,14.125,8.3L8.3,8.3L8.3,14.125Q8.3,14.489090000000001,8.5304536,14.71955Q8.760907,14.95,9.125,14.95Q9.489093,14.95,9.71955,14.71955Q9.95,14.489090000000001,9.95,14.125L9.95,11.10784L13.46255,14.62039Q13.64827,14.95,14.125,14.95Q14.582840000000001,14.95,14.76642,14.76642L14.78937,14.74347L14.803889999999999,14.71444Q14.91875,14.48471,14.91875,14.125Q14.91875,13.76529,14.803889999999999,13.53556L14.788640000000001,13.50507L11.11889,9.95ZM23.7,8.3L17.875,8.3Q17.510910000000003,8.3,17.280450000000002,8.5304536Q17.05,8.760907,17.05,9.125Q17.05,9.489093,17.280450000000002,9.71955Q17.510910000000003,9.95,17.875,9.95L20.8811,9.95L17.21136,13.50507L17.196109999999997,13.53556Q17.08125,13.76529,17.08125,14.125Q17.08125,14.48471,17.196109999999997,14.71444L17.210630000000002,14.74347L17.23358,14.76642Q17.417160000000003,14.95,17.875,14.95Q18.332839999999997,14.95,18.5186,14.76416L22.05,11.11889L22.05,14.125Q22.05,14.489090000000001,22.2805,14.71955Q22.5109,14.95,22.875,14.95Q23.2391,14.95,23.4695,14.71955Q23.7,14.489090000000001,23.7,14.125L23.7,8.3ZM14.55,9.125Q14.55,9.55,14.125,9.55L10.13111,9.55L14.4591,13.742740000000001Q14.51875,13.88459,14.51875,14.125Q14.51875,14.35928,14.4621,14.49996Q14.37858,14.55,14.125,14.55Q13.87361,14.55,13.803889999999999,14.41056L13.78937,14.38153L9.55,10.14216L9.55,14.125Q9.55,14.323409999999999,9.436704,14.4367Q9.323407,14.55,9.125,14.55Q8.7,14.55,8.7,14.125L8.7,8.7L14.125,8.7Q14.323409999999999,8.7,14.4367,8.813296Q14.55,8.926593,14.55,9.125ZM17.563299999999998,8.813296Q17.676589999999997,8.7,17.875,8.7L23.3,8.7L23.3,14.125Q23.3,14.55,22.875,14.55Q22.6766,14.55,22.563299999999998,14.4367Q22.45,14.323409999999999,22.45,14.125L22.45,10.13111L18.23135,14.48584Q18.167160000000003,14.55,17.875,14.55Q17.62142,14.55,17.5379,14.49996Q17.48125,14.35928,17.48125,14.125Q17.48125,13.88459,17.5409,13.742740000000001L21.8689,9.55L17.875,9.55Q17.45,9.55,17.45,9.125Q17.45,8.926593,17.563299999999998,8.813296ZM11.11889,22.05L14.788640000000001,18.49493L14.803889999999999,18.46444Q14.91875,18.23471,14.91875,17.875Q14.91875,17.51529,14.803889999999999,17.28556L14.77407,17.225929999999998L14.71444,17.196109999999997Q14.44249,17.06014,14.14161,17.035069999999997Q13.71744,16.99972,13.48358,17.23358L9.95,20.8811L9.95,17.875Q9.95,17.510910000000003,9.71955,17.280450000000002Q9.489093,17.05,9.125,17.05Q8.760907,17.05,8.5304536,17.280450000000002Q8.3,17.510910000000003,8.3,17.875L8.3,23.7L14.125,23.7Q14.489090000000001,23.7,14.71955,23.4695Q14.95,23.2391,14.95,22.875Q14.95,22.5109,14.71955,22.2805Q14.489090000000001,22.05,14.125,22.05L11.11889,22.05ZM23.7,23.7L23.7,17.875Q23.7,17.510910000000003,23.4695,17.280450000000002Q23.2391,17.05,22.875,17.05Q22.5109,17.05,22.2805,17.280450000000002Q22.05,17.510910000000003,22.05,17.875L22.05,20.892200000000003L18.5164,17.35858Q18.270339999999997,17.1125,17.875,17.1125Q17.479660000000003,17.1125,17.23358,17.35858L17.210630000000002,17.381529999999998L17.196109999999997,17.41056Q16.932650000000002,17.9375,17.196109999999997,18.46444L17.210630000000002,18.493470000000002L20.767200000000003,22.05L17.875,22.05Q17.510910000000003,22.05,17.280450000000002,22.2805Q17.05,22.5109,17.05,22.875Q17.05,23.2391,17.280450000000002,23.4695Q17.510910000000003,23.7,17.875,23.7L23.7,23.7ZM14.4591,18.257260000000002L10.13111,22.45L14.125,22.45Q14.323409999999999,22.45,14.4367,22.563299999999998Q14.55,22.6766,14.55,22.875Q14.55,23.3,14.125,23.3L8.7,23.3L8.7,17.875Q8.7,17.676589999999997,8.813296,17.563299999999998Q8.926593,17.45,9.125,17.45Q9.55,17.45,9.55,17.875L9.55,21.8689L13.76642,17.51642Q13.983609999999999,17.29923,14.470659999999999,17.522750000000002Q14.51875,17.65915,14.51875,17.875Q14.51875,18.11541,14.4591,18.257260000000002ZM22.875,17.45Q23.3,17.45,23.3,17.875L23.3,23.3L17.875,23.3Q17.45,23.3,17.45,22.875Q17.45,22.45,17.875,22.45L21.732799999999997,22.45L17.54049,18.257649999999998Q17.39396,17.939030000000002,17.53909,17.62042Q17.66488,17.5125,17.875,17.5125Q18.104660000000003,17.5125,18.23358,17.64142L22.45,21.857799999999997L22.45,17.875Q22.45,17.676589999999997,22.563299999999998,17.563299999999998Q22.6766,17.45,22.875,17.45Z" fill-rule="evenodd" fill="#FFFFFF" fill-opacity="1"/></g></g></g></svg>