<svg xmlns="http://www.w3.org/2000/svg" xmlns:xlink="http://www.w3.org/1999/xlink" fill="none" version="1.1" width="16" height="16" viewBox="0 0 16 16"><defs><clipPath id="master_svg0_2451_045282"><rect x="0" y="0" width="16" height="16" rx="0"/></clipPath></defs><g clip-path="url(#master_svg0_2451_045282)"><g><g><path d="M14.649853515625,8.00003662109375C14.649853515625,4.32734662109375,11.672553515625,1.35003662109375,7.999853515625,1.35003662109375C4.327163515625,1.35003662109375,1.349853515625,4.32734662109375,1.349853515625,8.00003662109375C1.349853515625,11.67273662109375,4.327163515625,14.65003662109375,7.999853515625,14.65003662109375C11.672553515625,14.65003662109375,14.649853515625,11.67273662109375,14.649853515625,8.00003662109375ZM13.364653515625,8.00003662109375C13.364653515625,10.96293662109375,10.962753515625,13.36483662109375,7.999853515625,13.36483662109375C5.036953515625,13.36483662109375,2.6350535156249997,10.96293662109375,2.6350535156249997,8.00003662109375C2.6350535156249997,5.03713662109375,5.036953515625,2.6352366210937497,7.999853515625,2.6352366210937497C10.962753515625,2.6352366210937497,13.364653515625,5.03713662109375,13.364653515625,8.00003662109375Z" fill="#23C343" fill-opacity="1"/></g><g><path d="M7.999849233055115,2.373113512992859C8.991169233055114,2.373113512992859,9.917779233055114,2.6179785129928588,10.779669233055115,3.1077095129928587C11.641569233055115,3.597443512992859,12.326239233055114,4.268103512992859,12.833679233055115,5.119693512992859C13.341099233055115,5.9712835129928585,13.605099233055114,6.892633512992859,13.625599233055114,7.883733512992859C13.646099233055114,8.874833512992858,13.420399233055115,9.806303512992859,12.948589233055115,10.67814351299286C12.476779233055115,11.549983512992858,11.820419233055114,12.248363512992858,10.979489233055116,12.773313512992859C10.138569233055115,13.29821351299286,9.222879233055114,13.581213512992859,8.232409233055115,13.62211351299286C7.241939233055115,13.663113512992858,6.306009233055114,13.45671351299286,5.424609233055115,13.00311351299286C4.543199233055114,12.549413512992858,3.831401233055115,11.90759351299286,3.2891992330551147,11.077693512992859L7.999849233055115,8.000033512992859L7.999849233055115,2.373113512992859Z" fill="#23C343" fill-opacity="1"/></g></g></g></svg>