<svg xmlns="http://www.w3.org/2000/svg" xmlns:xlink="http://www.w3.org/1999/xlink" fill="none" version="1.1" width="16" height="16" viewBox="0 0 16 16"><defs><clipPath id="master_svg0_258_84301"><rect x="0" y="0" width="16" height="16" rx="0"/></clipPath></defs><g clip-path="url(#master_svg0_258_84301)"><g><ellipse cx="7.5" cy="7.5" rx="4.5" ry="4.5" fill="#EFEFEF" fill-opacity="1"/></g><g><path d="M8,0C12.4181,0,16,3.58187,16,8C16,12.4181,12.4181,16,8,16C3.58187,16,0,12.4181,0,8C0,3.58187,3.58187,0,8,0ZM7.28373,3.35627C7.07547,3.14806,6.73787,3.14806,6.5296,3.35627L3.8896,5.99627L3.848,6.04267C3.68037,6.25499,3.69825,6.55918,3.8896,6.7504L6.5296,9.3904L6.576,9.43147C6.78819,9.59924,7.09237,9.58159,7.28373,9.3904L7.32533,9.34347C7.49296,9.13115,7.47508,8.82696,7.28373,8.63573L5.37067,6.7232L9.45547,6.7232L9.56853,6.7264C10.7707,6.78187,11.7179,7.72,11.7179,8.85707C11.7179,10.0293,10.7099,10.9904,9.45547,10.9904L5.25333,10.9904L5.19093,10.9936C4.90858,11.0246,4.70007,11.2714,4.7167,11.555C4.73334,11.8385,4.9693,12.0593,5.25333,12.0571L9.45494,12.0571L9.57654,12.0549C11.3536,11.9931,12.784,10.5904,12.784,8.85707C12.784,7.08373,11.288,5.65707,9.45494,5.65707L5.736,5.65653L7.28267,4.1104L7.3248,4.064C7.49243,3.85168,7.47455,3.54749,7.2832,3.35627L7.28373,3.35627Z" fill="#2E6CE4" fill-opacity="1"/></g></g></svg>