<svg xmlns="http://www.w3.org/2000/svg" xmlns:xlink="http://www.w3.org/1999/xlink" fill="none" version="1.1" width="16" height="16" viewBox="0 0 16 16"><defs><clipPath id="master_svg0_258_67108"><rect x="0" y="0" width="16" height="16" rx="0"/></clipPath></defs><g clip-path="url(#master_svg0_258_67108)"><g><path d="M3.306875,2.720205C3.151275,2.720205,3.002065,2.782015,2.892035,2.892035C2.782015,3.002065,2.720205,3.151275,2.720205,3.306875C2.720205,3.306875,2.720205,8.586875,2.720205,8.586875C2.720205,8.742455,2.782015,8.891705,2.892035,9.001705000000001C3.002065,9.111705,3.151275,9.173545,3.306875,9.173545C3.306875,9.173545,3.893545,9.173545,3.893545,9.173545C4.217544999999999,9.173545,4.480205,9.436195,4.480205,9.760205C4.480205,10.084225,4.217544999999999,10.346875,3.893545,10.346875C3.893545,10.346875,3.306875,10.346875,3.306875,10.346875C2.840095,10.346875,2.392432,10.161425,2.062367,9.831375C1.732303,9.501315,1.546875,9.053625,1.546875,8.586875C1.546875,8.586875,1.546875,3.306875,1.546875,3.306875C1.546875,2.840095,1.732303,2.392432,2.062367,2.062367C2.392432,1.732303,2.840095,1.546875,3.306875,1.546875C3.306875,1.546875,8.586875,1.546875,8.586875,1.546875C9.053625,1.546875,9.501315,1.732303,9.831375,2.062367C10.161425,2.392432,10.346875,2.840095,10.346875,3.306875C10.346875,3.306875,10.346875,3.893545,10.346875,3.893545C10.346875,4.217544999999999,10.084225,4.480205,9.760205,4.480205C9.436195,4.480205,9.173545,4.217544999999999,9.173545,3.893545C9.173545,3.893545,9.173545,3.306875,9.173545,3.306875C9.173545,3.151275,9.111705,3.002065,9.001705000000001,2.892035C8.891705,2.782015,8.742455,2.720205,8.586875,2.720205C8.586875,2.720205,3.306875,2.720205,3.306875,2.720205C3.306875,2.720205,3.306875,2.720205,3.306875,2.720205ZM7.413545,6.826875C7.089535,6.826875,6.826875,7.089535,6.826875,7.413545C6.826875,7.413545,6.826875,12.693575,6.826875,12.693575C6.826875,13.017575,7.089535,13.280175,7.413545,13.280175C7.413545,13.280175,12.693575,13.280175,12.693575,13.280175C13.017575,13.280175,13.280175,13.017575,13.280175,12.693575C13.280175,12.693575,13.280175,7.413545,13.280175,7.413545C13.280175,7.089535,13.017575,6.826875,12.693575,6.826875C12.693575,6.826875,7.413545,6.826875,7.413545,6.826875C7.413545,6.826875,7.413545,6.826875,7.413545,6.826875ZM5.653545,7.413545C5.653545,6.441525,6.441525,5.653545,7.413545,5.653545C7.413545,5.653545,12.693575,5.653545,12.693575,5.653545C13.665575,5.653545,14.453575,6.441525,14.453575,7.413545C14.453575,7.413545,14.453575,12.693575,14.453575,12.693575C14.453575,13.665575,13.665575,14.453575,12.693575,14.453575C12.693575,14.453575,7.413545,14.453575,7.413545,14.453575C6.441525,14.453575,5.653545,13.665575,5.653545,12.693575C5.653545,12.693575,5.653545,7.413545,5.653545,7.413545C5.653545,7.413545,5.653545,7.413545,5.653545,7.413545Z" fill-rule="evenodd" fill="#4E5969" fill-opacity="1"/></g></g></svg>