<svg xmlns="http://www.w3.org/2000/svg" xmlns:xlink="http://www.w3.org/1999/xlink" fill="none" version="1.1" width="240" height="40" viewBox="0 0 240 40"><defs><clipPath id="master_svg0_363_52006"><rect x="0" y="0" width="240" height="40" rx="8"/></clipPath></defs><g clip-path="url(#master_svg0_363_52006)"><rect x="0" y="0" width="240" height="40" rx="8" fill="#F7F8FA" fill-opacity="1"/><g><g transform="matrix(0.4999999403953552,-0.8660253882408142,0.8660253882408142,0.4999999403953552,-104.79872809573908,-39.95336974968495)"><rect x="-87" y="70.78166961669922" width="120.991455078125" height="8.001264572143555" rx="0" fill="#F2F3F5" fill-opacity="1"/></g><g transform="matrix(0.4999999403953552,-0.8660253882408142,0.8660253882408142,0.4999999403953552,-98.2987273208787,-28.695039702554368)"><rect x="-74" y="70.78166961669922" width="120.991455078125" height="8.001264572143555" rx="0" fill="#F2F3F5" fill-opacity="1"/></g><g transform="matrix(0.4999999403953552,-0.8660253882408142,0.8660253882408142,0.4999999403953552,-91.79872654601832,-17.436709655423783)"><rect x="-61" y="70.78166961669922" width="120.991455078125" height="8.001264572143555" rx="0" fill="#F2F3F5" fill-opacity="1"/></g><g transform="matrix(0.4999999403953552,-0.8660253882408142,0.8660253882408142,0.4999999403953552,-85.29872577115793,-6.1783796082931985)"><rect x="-48" y="70.78166961669922" width="120.991455078125" height="8.001264572143555" rx="0" fill="#F2F3F5" fill-opacity="1"/></g><g transform="matrix(0.4999999403953552,-0.8660253882408142,0.8660253882408142,0.4999999403953552,-78.79872499629755,5.079950438837386)"><rect x="-35" y="70.78166961669922" width="120.991455078125" height="8.001264572143555" rx="0" fill="#F2F3F5" fill-opacity="1"/></g><g transform="matrix(0.4999999403953552,-0.8660253882408142,0.8660253882408142,0.4999999403953552,-72.29872422143717,16.33828048596797)"><rect x="-22" y="70.78166961669922" width="120.991455078125" height="8.001264572143555" rx="0" fill="#F2F3F5" fill-opacity="1"/></g><g transform="matrix(0.4999999403953552,-0.8660253882408142,0.8660253882408142,0.4999999403953552,-65.79872344657679,27.596610533098556)"><rect x="-9" y="70.78166961669922" width="120.991455078125" height="8.001264572143555" rx="0" fill="#F2F3F5" fill-opacity="1"/></g><g transform="matrix(0.4999999403953552,-0.8660253882408142,0.8660253882408142,0.4999999403953552,-58.79872261211176,39.720965968469955)"><rect x="5" y="70.78166961669922" width="120.991455078125" height="8.001264572143555" rx="0" fill="#F2F3F5" fill-opacity="1"/></g><g transform="matrix(0.4999999403953552,-0.8660253882408142,0.8660253882408142,0.4999999403953552,-52.29872183725138,50.97929601560054)"><rect x="18" y="70.78166961669922" width="120.991455078125" height="8.001264572143555" rx="0" fill="#F2F3F5" fill-opacity="1"/></g><g transform="matrix(0.4999999403953552,-0.8660253882408142,0.8660253882408142,0.4999999403953552,-45.29872100278635,63.10365145097194)"><rect x="32" y="70.78166961669922" width="120.991455078125" height="8.001264572143555" rx="0" fill="#F2F3F5" fill-opacity="1"/></g><g transform="matrix(0.4999999403953552,-0.8660253882408142,0.8660253882408142,0.4999999403953552,-38.79872022792597,74.36198149810252)"><rect x="45" y="70.78166961669922" width="120.991455078125" height="8.001264572143555" rx="0" fill="#F2F3F5" fill-opacity="1"/></g><g transform="matrix(0.4999999403953552,-0.8660253882408142,0.8660253882408142,0.4999999403953552,-31.798719393460942,86.48633693347392)"><rect x="59" y="70.78166961669922" width="120.991455078125" height="8.001264572143555" rx="0" fill="#F2F3F5" fill-opacity="1"/></g><g transform="matrix(0.4999999403953552,-0.8660253882408142,0.8660253882408142,0.4999999403953552,-25.29871861860056,97.7446669806045)"><rect x="72" y="70.78166961669922" width="120.991455078125" height="8.001264572143555" rx="0" fill="#F2F3F5" fill-opacity="1"/></g><g transform="matrix(0.4999999403953552,-0.8660253882408142,0.8660253882408142,0.4999999403953552,-18.798717843740178,109.00299702773509)"><rect x="85" y="70.78166961669922" width="120.991455078125" height="8.001264572143555" rx="0" fill="#F2F3F5" fill-opacity="1"/></g><g transform="matrix(0.4999999403953552,-0.8660253882408142,0.8660253882408142,0.4999999403953552,-11.798717009275151,121.12735246310649)"><rect x="99" y="70.78166961669922" width="120.991455078125" height="8.001264572143555" rx="0" fill="#F2F3F5" fill-opacity="1"/></g><g transform="matrix(0.4999999403953552,-0.8660253882408142,0.8660253882408142,0.4999999403953552,-5.298716234414769,132.38568251023707)"><rect x="112" y="70.78166961669922" width="120.991455078125" height="8.001264572143555" rx="0" fill="#F2F3F5" fill-opacity="1"/></g><g transform="matrix(0.4999999403953552,-0.8660253882408142,0.8660253882408142,0.4999999403953552,1.7012846000502577,144.51003794560847)"><rect x="126" y="70.78166961669922" width="120.991455078125" height="8.001264572143555" rx="0" fill="#F2F3F5" fill-opacity="1"/></g><g transform="matrix(0.4999999403953552,-0.8660253882408142,0.8660253882408142,0.4999999403953552,8.20128537491064,155.76836799273906)"><rect x="139" y="70.78166961669922" width="120.991455078125" height="8.001264572143555" rx="0" fill="#F2F3F5" fill-opacity="1"/></g><g transform="matrix(0.4999999403953552,-0.8660253882408142,0.8660253882408142,0.4999999403953552,15.201286209375667,167.89272342811046)"><rect x="153" y="70.78166961669922" width="120.991455078125" height="8.001264572143555" rx="0" fill="#F2F3F5" fill-opacity="1"/></g><g transform="matrix(0.4999999403953552,-0.8660253882408142,0.8660253882408142,0.4999999403953552,21.70128698423605,179.15105347524104)"><rect x="166" y="70.78166961669922" width="120.991455078125" height="8.001264572143555" rx="0" fill="#F2F3F5" fill-opacity="1"/></g><g transform="matrix(0.4999999403953552,-0.8660253882408142,0.8660253882408142,0.4999999403953552,28.20128775909643,190.40938352237163)"><rect x="179" y="70.78166961669922" width="120.991455078125" height="8.001264572143555" rx="0" fill="#F2F3F5" fill-opacity="1"/></g><g transform="matrix(0.4999999403953552,-0.8660253882408142,0.8660253882408142,0.4999999403953552,35.20128859356146,202.53373895774303)"><rect x="193" y="70.78166961669922" width="120.991455078125" height="8.001264572143555" rx="0" fill="#F2F3F5" fill-opacity="1"/></g><g transform="matrix(0.4999999403953552,-0.8660253882408142,0.8660253882408142,0.4999999403953552,41.70128936842184,213.7920690048736)"><rect x="206" y="70.78166961669922" width="120.991455078125" height="8.001264572143555" rx="0" fill="#F2F3F5" fill-opacity="1"/></g><g transform="matrix(0.4999999403953552,-0.8660253882408142,0.8660253882408142,0.4999999403953552,48.70129020288687,225.916424440245)"><rect x="220" y="70.78166961669922" width="120.991455078125" height="8.001264572143555" rx="0" fill="#F2F3F5" fill-opacity="1"/></g><g transform="matrix(0.4999999403953552,-0.8660253882408142,0.8660253882408142,0.4999999403953552,55.20129097774725,237.1747544873756)"><rect x="233" y="70.78166961669922" width="120.991455078125" height="8.001264572143555" rx="0" fill="#F2F3F5" fill-opacity="1"/></g><g transform="matrix(0.4999999403953552,-0.8660253882408142,0.8660253882408142,0.4999999403953552,61.70129175260763,248.43308453450618)"><rect x="246" y="70.78166961669922" width="120.991455078125" height="8.001264572143555" rx="0" fill="#F2F3F5" fill-opacity="1"/></g><g transform="matrix(0.4999999403953552,-0.8660253882408142,0.8660253882408142,0.4999999403953552,68.20129252746801,259.69141458163676)"><rect x="259" y="70.78166961669922" width="120.991455078125" height="8.001264572143555" rx="0" fill="#F2F3F5" fill-opacity="1"/></g></g></g></svg>