<svg xmlns="http://www.w3.org/2000/svg" xmlns:xlink="http://www.w3.org/1999/xlink" fill="none" version="1.1" width="16" height="16" viewBox="0 0 16 16"><defs><clipPath id="master_svg0_19085_188790"><rect x="0" y="0" width="16" height="16" rx="0"/></clipPath></defs><g clip-path="url(#master_svg0_19085_188790)"><g><path d="M10.667,11.6670078125C10.850999999999999,11.6670078125,11,11.8160078125,11,12.0000078125L11,13.3330078125C11,13.5170078125,10.85,13.6670078125,10.667,13.6670078125L9.333,13.6670078125C9.1487,13.6670078125,8.99945,13.5173078125,9,13.3330078125L9,12.0000078125C9,11.8160078125,9.15,11.6670078125,9.333,11.6670078125L10.667,11.6670078125ZM6.667,11.6670078125C6.851,11.6670078125,7,11.8160078125,7,12.0000078125L7,13.3330078125C7,13.5170078125,6.85,13.6670078125,6.667,13.6670078125L5.3330020000000005,13.6670078125C5.1487,13.6670078125,4.999448776,13.5173078125,5.00000143051,13.3330078125L5.00000143051,12.0000078125C5.00000143051,11.8160078125,5.150002,11.6670078125,5.3330020000000005,11.6670078125L6.667,11.6670078125ZM9.333,7.0000078125L10.667,7.0000078125C10.850999999999999,7.0000078125,11,7.1500078125,11,7.3330078125L11,8.6670078125C11,8.8510078125,10.85,9.0000078125,10.667,9.0000078125L9.333,9.0000078125C9.149090000000001,9.0000078125,9,8.8509178125,9,8.6670078125L9,7.3330078125C9,7.1500078125,9.15,7.0000078125,9.333,7.0000078125ZM5.3330020000000005,7.0000078125L6.667,7.0000078125C6.85,7.0000078125,7,7.1500078125,7,7.3330078125L7,8.6670078125C7,8.8500078125,6.85,9.0000078125,6.667,9.0000078125L5.3330020000000005,9.0000078125C5.14909,9.0000078125,5.00000143051,8.8509178125,5.00000143051,8.6670078125L5.00000143051,7.3330078125C5.00000143051,7.1500078125,5.150002,7.0000078125,5.3330020000000005,7.0000078125ZM10.667,2.3330078125C10.850999999999999,2.3330078125,11,2.4830078125,11,2.6670078125L11,4.0000078125C11,4.1840078125,10.85,4.3330078125,10.667,4.3330078125L9.333,4.3330078125C9.149090000000001,4.3330078125,9,4.1839178125,9,4.0000078125L9,2.6670078125C9,2.4830078125,9.15,2.3330078125,9.333,2.3330078125L10.667,2.3330078125ZM6.667,2.3330078125C6.851,2.3330078125,7,2.4830078125,7,2.6670078125L7,4.0000078125C7,4.1840078125,6.85,4.3330078125,6.667,4.3330078125L5.3330020000000005,4.3330078125C5.149091,4.3330078125,5.00000143051,4.1839178125,5.00000143051,4.0000078125L5.00000143051,2.6670078125C5.00000143051,2.4830078125,5.150002,2.3330078125,5.3330020000000005,2.3330078125L6.667,2.3330078125Z" fill="#646875" fill-opacity="1"/></g></g></svg>