<svg xmlns="http://www.w3.org/2000/svg" xmlns:xlink="http://www.w3.org/1999/xlink" fill="none" version="1.1" width="13.5184326171875" height="16.7041015625" viewBox="0 0 13.5184326171875 16.7041015625"><g><g><path d="M3.847905469055176,0L9.670445469055176,0Q10.997815469055176,0,10.997815469055176,1.32737L10.997815469055176,2.23416Q10.997815469055176,3.56153,9.670445469055176,3.56153L3.847905469055176,3.56153Q2.520535469055176,3.56153,2.520535469055176,2.23416L2.520535469055176,1.32737Q2.520535469055176,-1.24454e-7,3.847905469055176,0Z" fill="#4E5969" fill-opacity="1"/></g><g><path d="M11.83,1.9625974893569946L11.6749,1.9625974893569946L11.6749,2.3324714893569944C11.6749,3.3824374893569944,10.9024,4.238517489356995,9.95384,4.238517489356995L3.56754,4.238517489356995C2.61899,4.238517489356995,1.84643,3.3824374893569944,1.84643,2.3324714893569944L1.84643,1.9625974893569946L1.68834,1.9625974893569946C0.752622,1.9658863193569946,-0.00325747,2.7271074893569947,0.0000430612,3.6628274893569945L0.0000430612,14.997697489356995C-0.00657008,15.935697489356995,0.750279,16.700597489356994,1.68834,16.703897489356997L11.83,16.703897489356997C12.7658,16.700597489356994,13.5216,15.939397489356995,13.5183,15.003597489356995L13.5183,3.668787489356995C13.525,2.7307484893569947,12.7681,1.9658762393569946,11.83,1.9625974893569946ZM2.76515,6.586027489356995L6.46091,6.586027489356995C6.80027,6.586027489356995,7.07538,6.861137489356994,7.07538,7.200497489356994C7.07538,7.5398574893569945,6.80027,7.814967489356994,6.46091,7.814967489356994L2.76515,7.814967489356994C2.42579,7.814967489356994,2.15068,7.5398574893569945,2.15068,7.200497489356994C2.15068,6.861127489356995,2.42579,6.586027489356995,2.76515,6.586027489356995ZM10.7532,14.231097489356994L2.76515,14.231097489356994C2.42579,14.231097489356994,2.15068,13.955997489356994,2.15068,13.616597489356995C2.15068,13.277297489356995,2.42579,13.002197489356995,2.76515,13.002197489356995L10.7532,13.002197489356995C11.0926,13.002197489356995,11.3677,13.277297489356995,11.3677,13.616597489356995C11.3677,13.955997489356994,11.0926,14.231097489356994,10.7532,14.231097489356994ZM10.7532,11.021537489356994L2.76515,11.021537489356994C2.40981,11.046337489356995,2.1079,10.764767489356995,2.1079,10.408557489356994C2.1079,10.052347489356995,2.40981,9.770777489356995,2.76515,9.795577489356994L10.7532,9.795577489356994C11.1086,9.770777489356995,11.4105,10.052347489356995,11.4105,10.408557489356994C11.4105,10.764767489356995,11.1086,11.046337489356995,10.7532,11.021537489356994Z" fill="#4E5969" fill-opacity="1"/></g></g></svg>