<svg xmlns="http://www.w3.org/2000/svg" xmlns:xlink="http://www.w3.org/1999/xlink" fill="none" version="1.1" width="16" height="16" viewBox="0 0 16 16"><defs><clipPath id="master_svg0_258_66978"><rect x="0" y="0" width="16" height="16" rx="0"/></clipPath></defs><g style="opacity:0.800000011920929;" clip-path="url(#master_svg0_258_66978)"><g><ellipse cx="8" cy="8" rx="4" ry="4" fill="#EFEFEF" fill-opacity="1"/></g><g><path d="M8,0C3.58058,0,0,3.58317,0,8C0,12.4168,3.58317,16,8,16C12.4168,16,16,12.4168,16,8C16,3.58317,12.4194,3.9505e-7,8,0ZM12.8026,8.95275L3.27508,8.95275C2.75987,8.95275,2.34304,8.53592,2.34304,8.02071C2.34304,7.5055,2.75987,7.08867,3.27508,7.08867L12.8026,7.08867C13.3178,7.08867,13.7346,7.5055,13.7346,8.02071C13.7346,8.53592,13.3178,8.95275,12.8026,8.95275Z" fill="#FF1010" fill-opacity="1"/></g></g></svg>