<svg xmlns="http://www.w3.org/2000/svg" xmlns:xlink="http://www.w3.org/1999/xlink" fill="none" version="1.1" width="16" height="16" viewBox="0 0 16 16"><defs><clipPath id="master_svg0_2013_30651"><rect x="0" y="0" width="16" height="16" rx="0"/></clipPath></defs><g style="mix-blend-mode:passthrough" clip-path="url(#master_svg0_2013_30651)"><g style="mix-blend-mode:passthrough"><path d="M8,0.5C6.00641,0.5,4.576537,2.42179,5.14939,4.33131L6.71265,9.54217C6.8832,10.11068,7.40646,10.5,8,10.5C8.593530000000001,10.5,9.1168,10.11068,9.28735,9.54217L10.85061,4.33131C11.42346,2.42179,9.993590000000001,0.5,8,0.5Z" fill="#C0C4CC" fill-opacity="1"/></g><g style="mix-blend-mode:passthrough"><path d="M10,13.5C10,14.604569999999999,9.104569999999999,15.5,8,15.5C6.89543,15.5,6,14.604569999999999,6,13.5C6,12.39543,6.89543,11.5,8,11.5C9.104569999999999,11.5,10,12.39543,10,13.5Z" fill="#C0C4CC" fill-opacity="1"/></g></g></svg>