<svg xmlns="http://www.w3.org/2000/svg" xmlns:xlink="http://www.w3.org/1999/xlink" fill="none" version="1.1" width="17.5" height="17.5" viewBox="0 0 17.5 17.5"><g style="mix-blend-mode:passthrough"><path d="M8.75,0C11.2242,0.065,13.2847,0.921041,14.9319,2.56813C16.579,4.21521,17.435,6.27584,17.5,8.75C17.435,11.2242,16.579,13.2847,14.9319,14.9319C13.2847,16.579,11.2242,17.435,8.75,17.5C6.27584,17.435,4.21521,16.579,2.56813,14.9319C0.921041,13.2847,0.065,11.2242,0,8.75C0.065,6.27584,0.921041,4.21521,2.56813,2.56813C4.21521,0.921041,6.27584,0.065,8.75,0C8.75,0,8.75,0,8.75,0C8.75,0,8.75,0,8.75,0ZM7.65625,10.4688C7.65625,10.4688,5.7225,8.535,5.7225,8.535C5.56625,8.39166,5.38729,8.32,5.18563,8.32C4.98396,8.32,4.80813,8.39479,4.65812,8.54437C4.50812,8.69396,4.43334,8.86646,4.43375,9.06187C4.43416,9.25729,4.50584,9.43313,4.64875,9.58938C4.64875,9.58938,7.12937,12.07,7.12937,12.07C7.27271,12.2133,7.44854,12.285,7.65688,12.285C7.86521,12.285,8.04104,12.2133,8.18437,12.07C8.18437,12.07,13.3212,6.93313,13.3212,6.93313C13.5166,6.73771,13.5785,6.5,13.5069,6.22C13.4353,5.94,13.2594,5.76416,12.9794,5.6925C12.6994,5.62084,12.4617,5.68271,12.2662,5.87812C12.2662,5.87812,7.65625,10.4688,7.65625,10.4688C7.65625,10.4688,7.65625,10.4688,7.65625,10.4688Z" fill="#DEDFE0" fill-opacity="1"/></g></svg>