<svg xmlns="http://www.w3.org/2000/svg" xmlns:xlink="http://www.w3.org/1999/xlink" fill="none" version="1.1" width="14.758082389831543" height="15.373001098632812" viewBox="0 0 14.758082389831543 15.373001098632812"><g><path d="M4.45817,1.38357L4.30444,1.38357C4.38899,1.38357,4.45817,1.31439,4.45817,1.22984L4.45817,1.38357L10.2999,1.38357L10.2999,1.22984C10.2999,1.31439,10.3691,1.38357,10.4536,1.38357L10.2999,1.38357L10.2999,2.76714L11.6835,2.76714L11.6835,1.22984C11.6835,0.551506,11.132,0,10.4536,0L4.30444,0C3.62611,0,3.0746,0.551506,3.0746,1.22984L3.0746,2.76714L4.45817,2.76714L4.45817,1.38357ZM14.1432,2.76714L0.61492,2.76714C0.274792,2.76714,0,3.04193,0,3.38206L0,3.99698C0,4.08153,0.0691786,4.15071,0.15373,4.15071L1.31439,4.15071L1.78903,14.2008C1.81978,14.8561,2.36168,15.373,3.01695,15.373L11.7411,15.373C12.3983,15.373,12.9383,14.858,12.9691,14.2008L13.4437,4.15071L14.6044,4.15071C14.6889,4.15071,14.7581,4.08153,14.7581,3.99698L14.7581,3.38206C14.7581,3.04193,14.4833,2.76714,14.1432,2.76714ZM11.5932,13.9894L3.16492,13.9894L2.69988,4.15071L12.0582,4.15071L11.5932,13.9894Z" fill="#4E5969" fill-opacity="1"/></g></svg>