<svg xmlns="http://www.w3.org/2000/svg" xmlns:xlink="http://www.w3.org/1999/xlink" fill="none" version="1.1" width="16.21729850769043" height="16" viewBox="0 0 16.21729850769043 16"><defs><clipPath id="master_svg0_9283_052296"><rect x="0" y="0" width="16.21729850769043" height="16" rx="0"/></clipPath></defs><g clip-path="url(#master_svg0_9283_052296)"><g><path d="M11.83748625,8.24073134375L8.11455625,11.04751734375L4.39169025,8.14579434375C4.28507525,8.05860424375,4.15122825,8.01038456375,4.01275325,8.009278297424C3.83383725,8.00902461975,3.66408225,8.08732514375,3.54954725,8.22293434375C3.33654665,8.47518134375,3.37158905,8.85011834375,3.62775125,9.05968734375L7.72963625,12.26993734375C7.95156625,12.44997734375,8.27156625,12.44997734375,8.49347625,12.26993734375L12.59536625,9.160527343750001C12.85537625,8.95453234375,12.89585625,8.57914134375,12.68560625,8.32377834375C12.47496625,8.06919674375,12.09473625,8.03196434375,11.83748625,8.24073134375Z" fill="#4E5969" fill-opacity="1"/></g><g><path d="M7.72963625,7.87247640625C7.95156625,8.05250640625,8.27156625,8.05250640625,8.49347625,7.87247640625L12.59536625,4.76304640625C12.72018625,4.66415640625,12.79988625,4.52024640625,12.81681625,4.36319140625C12.83372625,4.20614840625,12.78650625,4.04893040625,12.68560625,3.9263324062500002C12.58535625,3.80320640625,12.43949625,3.72459540625,12.28031625,3.70791050625C12.12113625,3.69121260625,11.96177625,3.73779540625,11.83750625,3.83734840625L8.11455625,6.65004640625L4.39169025,3.74831740625C4.28507325,3.66113190625,4.15122725,3.61291789625,4.01275325,3.611817121506C3.83383325,3.61154770825,3.66407225,3.68985080625,3.54954625,3.82547340625C3.33654665,4.07772040625,3.37158885,4.45265740625,3.62775125,4.66222640625L7.72963625,7.87247640625Z" fill="#4E5969" fill-opacity="1"/></g></g></svg>