<svg xmlns="http://www.w3.org/2000/svg" xmlns:xlink="http://www.w3.org/1999/xlink" fill="none" version="1.1" width="13.33329963684082" height="13.33329963684082" viewBox="0 0 13.33329963684082 13.33329963684082"><g><path d="M0,6.66665C0,2.98476,2.98476,0,6.66665,0C10.3485,0,13.3333,2.98476,13.3333,6.66665C13.3333,10.3485,10.3485,13.3333,6.66665,13.3333C2.98476,13.3333,0,10.3485,0,6.66665C0,6.66665,0,6.66665,0,6.66665ZM5.99998,8.66664C5.99998,8.66664,5.99998,9.99997,5.99998,9.99997C5.99998,9.99997,7.33331,9.99997,7.33331,9.99997C7.33331,9.99997,7.33331,8.66664,7.33331,8.66664C7.33331,8.66664,5.99998,8.66664,5.99998,8.66664C5.99998,8.66664,5.99998,8.66664,5.99998,8.66664ZM7.33331,7.99998C7.33331,7.99998,7.33331,3.33332,7.33331,3.33332C7.33331,3.33332,5.99998,3.33332,5.99998,3.33332C5.99998,3.33332,5.99998,7.99998,5.99998,7.99998C5.99998,7.99998,7.33331,7.99998,7.33331,7.99998C7.33331,7.99998,7.33331,7.99998,7.33331,7.99998Z" fill-rule="evenodd" fill="#F53F3F" fill-opacity="1"/></g></svg>