<svg xmlns="http://www.w3.org/2000/svg" xmlns:xlink="http://www.w3.org/1999/xlink" fill="none" version="1.1" width="24" height="24" viewBox="0 0 24 24"><defs><clipPath id="master_svg0_7559_090526"><rect x="5" y="5" width="14" height="14" rx="0"/></clipPath></defs><g><rect x="0" y="0" width="24" height="24" rx="12" fill="#ECF5FF" fill-opacity="1"/><rect x="1" y="1" width="22" height="22" rx="11" fill-opacity="0" stroke-opacity="1" stroke="#2E6CE4" fill="none" stroke-width="2"/><g clip-path="url(#master_svg0_7559_090526)"><g><path d="M10.564620879974365,14.66596484375C10.564620879974365,14.66596484375,7.679738879974365,11.78108484375,7.679738879974365,11.78108484375C7.561320879974366,11.66267484375,7.420007879974365,11.62621484375,7.255799879974365,11.67171484375C7.091590879974365,11.71721484375,6.989069479974365,11.81973484375,6.948236079974365,11.97927484375C6.907402679974365,12.13881484375,6.946194279974366,12.282314843750001,7.064611879974366,12.40977484375C7.064611879974366,12.40977484375,10.564620879974365,15.90977484375,10.564620879974365,15.90977484375C10.564620879974365,15.90977484375,17.564630879974366,8.90977684375,17.564630879974366,8.90977684375C17.646630879974367,8.81848584375,17.685330879974366,8.71363084375,17.680930879974365,8.59521484375C17.676630879974365,8.47679884375,17.631030879974364,8.37427684375,17.544030879974365,8.28765184375C17.457130879974365,8.20102734375,17.356830879974368,8.15771484375,17.243030879974363,8.157714843750002C17.129330879974365,8.157714843750002,17.026830879974366,8.19869404375,16.935430879974366,8.28065184375C16.935430879974366,8.28065184375,10.564620879974365,14.66596484375,10.564620879974365,14.66596484375C10.564620879974365,14.66596484375,10.564620879974365,14.66596484375,10.564620879974365,14.66596484375Z" fill="#000000" fill-opacity="1"/><path d="M16.591280879974363,7.91771584375L16.581520879974363,7.92749984375L10.564220879974364,13.958454843750001L8.033290879974365,11.42753484375Q7.649521879974365,11.04378484375,7.122286879974365,11.18986484375Q6.596905879974365,11.33544484375,6.463849879974365,11.85529484375Q6.334935879974365,12.358974843750001,6.698300879974365,12.75009484375L6.704558879974365,12.75683484375L10.564620879974365,16.61688484375L17.927630879974366,9.25384484375L17.936630879974366,9.24386484375Q18.194630879974365,8.95651684375,18.180630879974366,8.57675284375Q18.166830879974363,8.20221894375,17.896830879974367,7.93338684375Q17.620330879974365,7.65771484375,17.243030879974363,7.65771484375Q16.881080879974363,7.65771484375,16.601570879974368,7.9084868437499996L16.591280879974363,7.91771584375Z" fill-rule="evenodd" fill="#2E6CE4" fill-opacity="1"/></g></g></g></svg>