<svg xmlns="http://www.w3.org/2000/svg" xmlns:xlink="http://www.w3.org/1999/xlink" fill="none" version="1.1" width="448.7041015625" height="73.69140625" viewBox="0 0 448.7041015625 73.69140625"><g><g><path d="M8.816,27.0168L8.816,59.9248L0,59.9248L0,70.7168L70.148,70.7168L70.148,59.9248L43.396,59.9248L43.396,41.9888L63.764,41.9888L63.764,31.1968L43.396,31.1968L43.396,16.4528L68.172,16.4528L68.172,5.66081L2.432,5.66081L2.432,16.4528L31.616,16.4528L31.616,59.9248L20.368,59.9248L20.368,27.0168L8.816,27.0168ZM107.844,40.3928L107.844,63.3448L116.356,63.3448L116.356,59.4688L129.2,59.4688L129.2,40.3928L107.844,40.3928ZM116.356,47.8408L120.536,47.8408L120.536,51.9448L116.356,51.9448L116.356,47.8408ZM121.296,1.0735L121.144,6.19281L106.248,6.19281L106.248,14.8568L119.016,14.8568C116.964,18.2008,112.936,20.2528,104.956,21.6208C106.4,23.2168,108.376,26.1808,109.364,28.4608L105.336,28.4608L105.336,37.4288L132.924,37.4288L132.924,62.4328C132.924,63.4208,132.544,63.6488,131.404,63.6488C130.188,63.6488,126.236,63.6488,122.816,63.4968C124.26,66.1568,126.008,70.4888,126.464,73.3768C131.708,73.3768,135.736,73.1488,139.004,71.6288C142.196,70.1088,143.108,67.4488,143.108,62.6608L143.108,37.4288L146.908,37.4288L146.908,28.4608L140.296,28.4608L145.844,22.2288C141.968,20.1768,135.052,17.2888,129.58,15.1608L129.656,14.8568L144.856,14.8568L144.856,6.19281L130.948,6.19281L131.176,1.0735L121.296,1.0735ZM114,28.4608C119.092,27.0928,122.588,25.1928,125.096,22.8368C129.2,24.6608,133.684,26.7888,136.952,28.4608L114,28.4608ZM77.52,5.96481L77.52,66.1734L85.348,66.1734L85.348,59.8488L104.424,59.8488L104.424,5.96481L77.52,5.96481ZM85.348,14.9328L87.476,14.9328L87.476,28.3088L85.348,28.3088L85.348,14.9328ZM85.348,50.8808L85.348,37.1248L87.476,37.1248L87.476,50.8808L85.348,50.8808ZM96.444,37.1248L96.444,50.8808L94.088,50.8808L94.088,37.1248L96.444,37.1248ZM96.444,28.3088L94.088,28.3088L94.088,14.9328L96.444,14.9328L96.444,28.3088ZM178.6,40.0888C180.12,45.7888,181.716,53.3128,182.248,58.2528L191.14,55.7448C190.456,50.8808,188.708,43.5848,187.036,37.8848L178.6,40.0888ZM194.636,0C189.924,8.00137,182.4,15.9208,174.724,21.4688L174.724,14.4008L169.784,14.4008L169.784,1.06757L159.828,1.06757L159.828,14.4008L151.392,14.4008L151.392,24.5848L159.144,24.5848C157.548,32.2608,154.432,41.3808,150.708,46.5488C152.304,49.5888,154.584,54.6808,155.496,57.9488C157.092,55.3648,158.536,52.0208,159.828,48.2968L159.828,73.3008L169.784,73.3008L169.784,40.3168C170.772,42.5208,171.684,44.6488,172.292,46.3208L178.524,39.0248C177.308,37.0488,171.836,29.2208,169.784,26.7128L169.784,24.5848L171.304,24.5848C173.204,26.8648,175.94,31.1208,177.08,33.1728C179.436,31.5008,181.868,29.5248,184.224,27.3968L184.224,33.4008L211.964,33.4008L211.964,27.0168C214.396,28.7648,216.828,30.3608,219.184,31.7288C220.172,28.6888,222.376,23.6728,224.2,20.8561C216.676,17.5833,208.24,11.5698,202.616,6.0135L204.06,3.65394L194.636,0ZM196.84,14.0054C200.26,17.5073,204.212,21.0081,208.24,24.2048L187.644,24.2048C190.836,21.0841,194.028,17.5833,196.84,14.0054ZM175.332,60.9888L175.332,70.5648L220.552,70.5648L220.552,60.9888L210.368,60.9888C213.712,54.6048,217.36,46.1688,220.324,38.4928L210.824,36.4408C209.38,41.7608,207.024,48.3728,204.592,54.1488C204.06,49.2848,202.768,42.2168,201.4,36.5928L192.964,37.7328C194.104,43.3568,195.396,50.8048,195.7,55.6688L204.516,54.3008C203.452,56.7328,202.464,59.0128,201.4,60.9888L175.332,60.9888ZM250.8,49.2088L273.676,49.2088L273.676,51.7168L250.8,51.7168L250.8,49.2088ZM250.8,40.0128L273.676,40.0128L273.676,42.4448L250.8,42.4448L250.8,40.0128ZM229.064,61.6728L229.064,71.3248L296.856,71.3248L296.856,61.6728L229.064,61.6728ZM257.184,1.07113L257.184,8.92881L228.76,8.92881L228.76,18.4288L246.848,18.4288C241.452,23.4448,234.08,27.7008,226.252,30.1328C228.532,32.2608,231.724,36.2888,233.32,38.9488C235.6,38.0368,237.728,37.0488,239.856,35.9088L239.856,58.7848L285.228,58.7848L285.228,35.3008C287.508,36.5168,289.788,37.5048,292.22,38.4168C293.74,35.6808,297.008,31.5008,299.364,29.4488C291.384,27.1688,283.86,23.2168,278.312,18.4288L297.236,18.4288L297.236,8.92881L268.128,8.92881L268.128,1.07113L257.184,1.07113ZM244.72,32.9448C249.432,29.7528,253.612,25.9528,257.184,21.6968L257.184,30.8928L268.128,30.8928L268.128,21.6208C271.852,25.9528,276.336,29.8288,281.2,32.9448L244.72,32.9448ZM352.412,40.4688L360.848,40.4688C360.012,43.7368,358.796,46.7768,357.352,49.5888C355.376,46.7768,353.704,43.7368,352.412,40.4688ZM331.512,3.83681L331.512,72.9208L342.456,72.9208L342.456,67.7528C344.28,69.6528,346.028,71.8568,347.168,73.6915C351.12,71.7048,354.616,69.2728,357.656,66.4608C360.696,69.1968,364.116,71.4768,367.992,73.3044C369.664,70.4128,373.008,66.0048,375.516,63.8768C371.488,62.3568,367.992,60.3048,364.876,57.7208C369.208,50.8048,371.944,42.3688,373.236,32.4128L366.168,30.3608L364.268,30.6648L342.456,30.6648L342.456,14.0208L360.088,14.0208C359.86,17.2128,359.556,18.9608,358.948,19.5688C358.188,20.2528,357.428,20.3288,355.984,20.3288C354.312,20.3288,350.512,20.2528,346.484,19.9488C347.852,22.3048,349.144,26.1808,349.22,28.8408C353.78,28.9928,358.188,28.9928,360.924,28.7648C363.812,28.4608,366.624,27.8528,368.6,25.6488C370.5,23.4448,371.336,18.5048,371.64,7.78881Q371.716,6.49681,371.792,3.83681L331.512,3.83681ZM350.512,58.3288C348.232,60.4568,345.496,62.3568,342.456,63.9528L342.456,42.1408C344.584,48.1448,347.244,53.6168,350.512,58.3288ZM312.284,1.07944L312.284,15.0848L303.392,15.0848L303.392,25.8008L312.284,25.8008L312.284,36.8208L302.404,38.7968L304.684,50.1208L312.284,48.2968L312.284,61.2168C312.284,62.4328,311.904,62.8128,310.612,62.8128C309.472,62.8128,305.672,62.8128,302.556,62.6608C304,65.6248,305.444,70.2608,305.824,73.1488C311.904,73.2272,316.312,72.9208,319.504,71.1728C322.62,69.5008,323.608,66.6888,323.608,61.2928L323.608,45.5608L330.98,43.6608L329.612,32.8688L323.608,34.2368L323.608,25.8008L330.144,25.8008L330.144,15.0848L323.608,15.0848L323.608,1.07944L312.284,1.07944ZM411.16,27.3208L390.716,27.3208C392.388,25.3448,394.06,22.9888,395.732,20.4048L411.16,20.4048L411.16,27.3208ZM392.616,0.993935C390.108,9.07725,385.396,17.3648,379.924,22.2288C382.28,23.3688,386.384,25.5728,388.968,27.3208L381.292,27.3208L381.292,37.5808L448.704,37.5808L448.704,27.3208L422.94,27.3208L422.94,20.4048L444.524,20.4048L444.524,10.3728L422.94,10.3728L422.94,1.06994L411.16,1.06994L411.16,10.3728L401.128,10.3728C402.116,8.16169,402.952,5.95056,403.712,3.73944L392.616,0.993935ZM389.576,41.8368L389.576,73.3257L400.976,73.3257L400.976,69.9568L430.236,69.9568L430.236,73.0194L442.168,73.0194L442.168,41.8368L389.576,41.8368ZM400.976,59.7728L400.976,51.9448L430.236,51.9448L430.236,59.7728L400.976,59.7728Z" fill="#2C3C5E" fill-opacity="1"/></g></g></svg>